<?xml version="1.0" standalone="no"?>
<!DOCTYPE svg PUBLIC "-//W3C//DTD SVG 1.1//EN" "http://www.w3.org/Graphics/SVG/1.1/DTD/svg11.dtd" >
<svg xmlns="http://www.w3.org/2000/svg" xmlns:xlink="http://www.w3.org/1999/xlink" version="1.1">
<metadata>
Created by FontForge 20181214 at Sun Feb 19 23:04:13 2017
 By convertio
Copyright \(c\) 2017 by DearType, Veneta Rangelova. All rights reserved.
</metadata>
<defs>
<font id="TimeoutGoodies-Regular" horiz-adv-x="720" >
  <font-face 
    font-family="Timeout Goodies"
    font-weight="400"
    font-stretch="normal"
    units-per-em="1000"
    panose-1="0 0 5 0 0 0 0 0 0 0"
    ascent="800"
    descent="-200"
    x-height="417"
    cap-height="569"
    bbox="0.485163 -200 1969.77 800"
    underline-thickness="50"
    underline-position="-100"
    unicode-range="U+0020-2212"
  />
<missing-glyph horiz-adv-x="500" 
d="M410 800v-1000h-317v1000h317zM333 733h-165v-33h65v-37h-66v-33h166v33h-66v37h66v33zM267 604h-100v-104h166v34h-66v70zM233 570v-36h-33v36h33zM333 473h-166v-33h66v-37h-66v-33h100v70h66v33zM333 413h-33v-66h-133v-34h166v100zM333 291h-100v-56h34v23h33v-47
h-100v80h-33v-113h166v113zM333 118h-166v-113h166v113zM300 85v-47h-100v47h100zM333 -18h-166v-33h70l-70 -47v-33h166v33h-102l70 47h32v33z" />
    <glyph glyph-name=".notdef" horiz-adv-x="500" 
d="M410 800v-1000h-317v1000h317zM333 733h-165v-33h65v-37h-66v-33h166v33h-66v37h66v33zM267 604h-100v-104h166v34h-66v70zM233 570v-36h-33v36h33zM333 473h-166v-33h66v-37h-66v-33h100v70h66v33zM333 413h-33v-66h-133v-34h166v100zM333 291h-100v-56h34v23h33v-47
h-100v80h-33v-113h166v113zM333 118h-166v-113h166v113zM300 85v-47h-100v47h100zM333 -18h-166v-33h70l-70 -47v-33h166v33h-102l70 47h32v33z" />
    <glyph glyph-name="A" unicode="A" horiz-adv-x="1486" 
d="M1470 605c15 -22 15 -47 -6 -59c-5 -4 -12 -3 -18 -3c0 6 -3 12 -1 17c7 14 2 24 -8 36c-15 16 -33 24 -55 28c-86 14 -172 8 -257 -7c-114 -20 -227 -51 -339 -84c-55 -16 -110 -29 -165 -45c-88 -23 -177 -36 -265 -51c-38 -7 -78 -12 -116 -17c-34 -1 -67 5 -99 16
c-25 10 -46 26 -64 47c-10 11 -11 22 -10 35c3 20 11 37 27 48c12 10 24 7 31 -5c6 -11 6 -18 -6 -23c-12 -6 -19 -16 -22 -29c-2 -10 1 -16 10 -22c32 -19 68 -28 106 -30c38 -3 77 0 114 8c71 15 142 24 212 40c111 25 220 60 329 93c57 19 117 33 175 45
c89 19 179 30 270 25c26 -1 52 -4 79 -9c34 -7 60 -25 78 -54zM1227 643h27c-18 3 -34 3 -52 3c-42 2 -82 -12 -124 -16c-12 -2 -22 -8 -35 -12c12 2 24 2 34 5c50 10 99 22 150 20zM1041 618c-14 0 -27 -2 -38 -11c14 1 28 2 38 11zM898 585c10 -3 18 -2 29 6
c-12 -2 -20 -4 -29 -6c-7 -2 -14 -4 -21 -7c0 -1 0 -2 1 -3c6 3 13 7 20 10zM799 552c2 1 6 3 9 3c-1 2 -1 3 -2 4c-3 -2 -6 -3 -9 -4c0 -1 1 -2 2 -3zM1405 227c27 -4 46 -21 55 -48c8 -23 1 -41 -21 -52c-12 -5 -26 -9 -39 -12c-3 0 -8 2 -15 6c17 17 34 32 48 47
c-4 16 -16 21 -29 23c-26 3 -53 6 -79 8c-75 5 -147 -12 -219 -27c-56 -11 -111 -24 -166 -37c-27 -7 -53 -18 -80 -26c-87 -24 -172 -49 -259 -74c-30 -8 -61 -13 -90 -21c-17 -4 -34 -10 -50 -14c-105 -25 -211 -37 -317 -29c-45 4 -82 26 -115 54c-15 13 -23 33 -24 53
c0 7 3 15 5 22h7c5 -8 12 -16 14 -25c4 -23 20 -35 39 -44c37 -19 77 -28 120 -27c24 1 48 1 72 4c43 4 88 3 130 17c7 1 14 6 20 8c7 3 14 6 22 7c49 11 100 19 150 31c58 16 116 34 174 51c160 49 322 93 489 115c53 7 105 0 158 -10zM1378 213v1c-4 0 -75 11 -79 11
c0 -1 68 -11 68 -12h11zM361 -2l16 3c0 2 -1 3 -1 4c-5 -1 -10 -3 -16 -4c1 -1 1 -2 1 -3z" />
    <glyph glyph-name="B" unicode="B" horiz-adv-x="1829" 
d="M111 543c-10 -3 -17 -6 -24 -10c-16 -6 -32 -8 -48 0c-12 6 -15 14 -7 25c9 10 18 18 29 24c10 7 23 9 34 11c64 12 126 5 188 -3c59 -8 115 -25 175 -22c6 0 13 -2 18 -3c50 -11 92 -21 142 -28c94 -15 186 -28 282 -40c25 -3 54 -1 81 5c14 4 28 8 43 7c8 0 17 0 26 2
c75 10 150 20 224 33c67 13 141 31 208 44c78 16 156 31 236 21c22 -1 44 -4 65 -13c5 -2 7 -6 13 -10c-9 -13 -22 -19 -34 -24l-40 -15c-9 -3 -14 -7 -12 -14c28 -22 77 -8 98 13c12 12 18 24 15 40c-3 27 -16 49 -47 54c-25 2 -52 3 -78 5c-68 6 -135 -5 -200 -21
c-88 -19 -181 -45 -269 -56c-44 -5 -90 -19 -135 -24c-48 -5 -96 -6 -145 -7c-39 -2 -79 -3 -117 3c-81 14 -155 23 -236 35c-59 6 -115 24 -175 29c-39 4 -76 9 -114 15c-20 3 -40 7 -58 8c-15 0 -31 -8 -45 -4c-3 1 -7 1 -9 3c-5 1 -11 1 -16 0c-35 -2 -68 -4 -101 -13
c-17 -5 -32 -6 -47 -18c-12 -9 -20 -23 -23 -37c-8 -20 1 -38 19 -47c25 -14 51 -11 75 4c14 7 14 8 9 28zM1238 556c7 1 15 1 23 2v-4c-9 0 -16 2 -23 2c-9 -12 -22 -9 -34 -7zM1657 123c4 -5 5 -10 8 -10c20 -9 41 -13 64 -10c5 1 10 5 14 7c28 22 30 26 30 60
c1 14 -5 27 -20 32c-17 6 -35 15 -54 14c-61 -1 -125 -4 -185 -14c-70 -12 -139 -31 -208 -48c-59 -16 -185 -30 -245 -31c-97 -4 -192 1 -287 14c-123 18 -203 38 -326 57c-83 14 -140 31 -225 28c-42 -1 -84 -7 -123 -26c-20 -9 -38 -27 -48 -48c-9 -15 -9 -40 5 -53
c10 -9 33 -8 46 -4c9 2 22 6 26 15c2 4 2 9 2 14c-2 -1 -4 0 -6 2c-3 1 -7 -2 -9 -4c-10 -5 -31 -8 -40 0c-7 6 -5 18 3 24c8 8 16 21 27 26c37 17 75 24 115 25c111 1 195 -24 303 -43c65 -12 87 -23 151 -33c97 -16 194 -26 295 -27c57 -1 131 -3 188 9
c39 9 130 19 170 27c53 12 106 25 160 35c33 8 65 14 98 17c38 5 75 6 113 5c20 0 39 -5 49 -23c-24 -33 -59 -24 -91 -37zM1658 201c33 9 64 6 89 -17c-2 1 -6 1 -9 3c-15 7 -32 10 -49 10c-11 0 -21 2 -31 4c-2 -2 -4 -4 -5 -4c-32 -7 -64 -9 -97 -8c17 12 34 9 50 10
c18 0 35 0 52 2zM277 204h17l-1 -1h-16v1zM359 199h-18v2c6 -2 13 -2 19 -2h-1zM665 135c10 -2 21 -3 30 -6v-2c-10 0 -21 1 -31 2c1 2 1 4 1 6zM987 100c-48 -2 -96 3 -145 5v7c49 -3 97 -4 146 -7c0 -1 0 -3 -1 -5zM1009 101c25 2 50 4 75 7c-25 -10 -50 -8 -75 -7z" />
    <glyph glyph-name="C" unicode="C" horiz-adv-x="1579" 
d="M105 497c11 -5 20 -8 28 -12c7 -3 14 -7 23 -9c46 -9 93 -19 141 -26c50 -9 101 -15 150 -21c10 -1 20 -5 30 -5c48 -3 96 -6 143 -8c84 -2 168 0 252 10c37 5 73 10 109 14c51 6 102 11 152 17c24 3 47 7 70 14c77 21 154 45 231 67c21 6 41 13 61 20c10 3 21 7 20 25
c-8 -2 -15 -2 -21 -4c-25 -6 -48 -15 -71 -21c-48 -15 -95 -28 -142 -41c-48 -12 -96 -26 -143 -32c-75 -11 -150 -17 -226 -25c-4 0 -10 0 -14 2c-18 8 -38 8 -56 7c-102 -7 -203 -1 -304 7c-67 5 -134 15 -202 25c-20 2 -41 6 -61 11c-44 10 -88 22 -131 35
c-14 4 -27 11 -40 16c-14 6 -26 12 -39 16c-22 5 -28 -1 -23 -22c2 -14 5 -26 6 -39c9 -67 -5 -131 -21 -195c-5 -19 -3 -23 17 -30c13 7 26 16 30 33c6 26 13 53 18 81s8 57 13 90zM1514 207c-11 -5 -21 -10 -31 -14c-66 -27 -136 -38 -205 -52c-72 -13 -144 -23 -217 -34
c-74 -12 -149 -21 -224 -19c-9 0 -16 -1 -25 -2c-10 -2 -19 -6 -29 -6c-64 1 -129 1 -193 5c-90 5 -180 12 -270 19c-70 7 -139 23 -205 49c-8 3 -18 5 -17 15c-11 2 -20 2 -30 3c-16 5 -31 10 -48 14c-4 1 -12 -3 -14 -6c-3 -3 -1 -10 2 -14s8 -7 14 -8
c37 -8 74 -19 108 -34c70 -31 144 -40 218 -46c25 -3 50 -4 75 -5c5 0 10 -2 15 -2l69 -3c36 -2 72 -5 108 -8c33 -2 67 -5 100 -7c25 0 49 0 72 1c19 1 37 7 56 8c17 1 35 -5 52 -5c36 0 71 1 107 2c20 1 41 2 61 4c24 3 49 5 74 9c25 5 50 3 75 3c18 0 34 8 51 8
c19 0 37 2 55 6c29 7 58 16 89 25c25 6 51 12 76 19c21 5 42 12 63 16c20 3 31 17 27 37c-6 19 -11 38 -15 58c-3 22 -3 45 -5 67c-2 48 -5 95 -8 143c-1 22 -3 22 -24 20c-9 -1 -15 -4 -16 -13c-4 -15 -9 -30 -10 -45c-1 -20 0 -40 0 -59c0 -41 4 -81 14 -120
c2 -9 3 -19 5 -29z" />
    <glyph glyph-name="D" unicode="D" horiz-adv-x="1888" 
d="M1732 439c0 1 -1 2 -1 3c2 2 3 3 5 4c19 16 35 33 51 50c31 30 45 71 60 109c2 9 4 19 1 29c-2 8 -9 11 -16 5c-5 -7 -10 -14 -16 -21c-8 -9 -17 -21 -27 -28c-20 -12 -40 -24 -62 -32c-35 -13 -71 -24 -107 -32c-25 -6 -50 -9 -76 -12c-33 -3 -67 -6 -100 -17
c-18 -4 -35 -13 -49 -23s-23 -22 -19 -40c3 -13 4 -26 6 -40c-7 0 -15 -3 -22 -3c-34 1 -68 1 -102 3c-37 1 -73 12 -108 21c-16 4 -32 10 -49 15s-35 11 -53 15c-19 5 -37 11 -57 16c-40 8 -81 7 -122 3c-16 0 -33 -4 -50 -4c-18 -1 -36 -4 -52 -8c-33 -10 -67 -19 -98 -30
c-59 -20 -122 -28 -183 -39c-9 -2 -17 -2 -27 -4c3 7 4 11 5 16c8 12 13 27 20 40c7 10 5 20 -1 29c-1 5 -6 10 -10 13c-15 20 -38 28 -61 34c-24 4 -48 7 -73 12c-16 3 -32 7 -47 10c-25 8 -49 14 -73 22c-23 7 -42 22 -63 33c-24 13 -47 25 -66 44c-7 9 -15 9 -26 6
c1 -6 0 -8 2 -12c2 -7 4 -14 8 -21c19 -47 38 -95 64 -140c2 -3 3 -8 5 -12c-15 -10 -38 -15 -58 -12c-15 2 -32 4 -47 7c-7 0 -15 1 -21 2c-10 0 -15 -8 -11 -16c9 -16 17 -31 31 -42c24 -20 48 -38 72 -56c42 -31 89 -51 141 -58c2 0 4 0 7 -1c-1 -9 -3 -18 -3 -26
c-2 -20 2 -37 20 -49c12 -9 26 -18 39 -26c25 -15 52 -25 81 -30c18 -4 36 -3 53 -5c20 -1 41 -5 61 -4c26 2 53 7 80 12c29 2 58 1 88 5c23 3 44 13 66 19c37 8 67 19 104 28c29 8 53 13 83 18c11 3 37 3 49 2c29 -5 59 -11 87 -18c25 -5 48 -13 72 -20c13 -4 29 -7 44 -11
c38 -10 74 -15 112 -21c28 -3 57 -3 85 -3c45 0 87 7 130 22c12 4 24 9 35 15c30 14 50 34 53 69l6 39c4 2 8 3 13 4c34 9 69 12 104 24c39 13 72 31 102 61c14 13 28 28 42 43c15 19 25 40 18 68c-4 -2 -9 -3 -13 -4c-13 -8 -28 -16 -42 -22c-26 -9 -53 -17 -79 -24
c-5 -2 -9 -3 -15 -4zM260 294c-24 3 -48 10 -70 18c-42 16 -80 43 -117 70c-17 13 -34 26 -44 46c2 1 3 3 4 3c14 -2 27 -2 39 -5c17 -2 33 -3 49 0c8 1 15 1 23 2c17 3 22 9 15 26c-3 10 -8 19 -12 28l-33 67c-6 14 -12 31 -19 45c-1 4 -2 8 -5 15c5 -3 8 -4 9 -5
c13 -14 31 -22 48 -32c13 -7 27 -15 40 -23c24 -16 50 -24 78 -30c21 -6 41 -10 62 -15c27 -5 54 -10 80 -14c16 -3 29 -7 44 -14c12 -7 20 -20 17 -29c-5 -14 -22 -23 -35 -21c-19 4 -36 15 -51 25c-13 7 -26 13 -38 21c-5 2 -10 2 -15 3c-15 2 -24 -2 -31 -17
c-2 -6 -5 -13 -6 -22c-9 -41 -18 -85 -27 -129c-2 -4 -4 -9 -5 -13zM1814 578c-10 -19 -18 -38 -31 -54c-22 -26 -47 -48 -73 -70c-4 -3 -9 -8 -13 -12c-5 -5 -5 -8 -2 -13c5 -12 6 -12 19 -12c46 5 90 20 133 37c4 2 7 3 12 5c-1 -4 -1 -7 -2 -9c-45 -55 -97 -99 -167 -119
c-29 -7 -58 -12 -88 -18h-9c-3 14 -8 28 -12 43c-9 29 -18 59 -28 88c-10 30 -21 37 -53 31c-16 -3 -30 -11 -45 -18c-17 -6 -33 -14 -49 -22c-5 -1 -10 -1 -13 2c-4 6 0 10 3 15c11 11 26 18 41 23c29 9 60 13 90 15c9 1 17 3 26 4c29 5 58 9 85 14c9 1 18 6 27 10l62 18
c29 8 54 23 79 40l4 3c0 1 1 0 4 -1zM325 454c-3 -9 -5 -19 -9 -29c-8 12 -5 22 9 29zM1498 435c-3 6 -3 11 -5 19c12 -10 12 -11 5 -19zM336 408c-6 0 -9 4 -8 7c5 12 8 24 14 37c4 -8 3 -16 -6 -44zM1532 436c2 -5 3 -6 4 -9c12 -45 25 -90 36 -135c8 -37 -5 -68 -42 -87
c-53 -28 -111 -37 -171 -35c-19 1 -38 5 -58 8c-17 3 -34 4 -51 7c-13 2 -25 5 -38 7c-30 8 -61 15 -92 24c-22 6 -44 14 -66 20c-32 6 -63 8 -94 8c-31 -1 -61 -3 -89 -11c-15 -3 -27 -8 -41 -12c-41 -10 -82 -21 -123 -30c-31 -7 -64 -10 -96 -13c-23 -4 -39 -9 -61 -11
c-7 -1 -22 0 -28 -7c-1 -1 -5 -2 -7 -1c-42 3 -85 11 -126 22c-10 1 -21 2 -31 4c-19 3 -36 11 -48 24c-12 12 -19 26 -28 40c-2 2 -2 5 -2 7c3 15 6 29 7 43c4 17 7 35 11 53c4 16 7 32 12 49c4 -3 8 -4 11 -6c52 -35 109 -43 169 -34c39 7 76 13 114 21c25 5 49 13 75 21
c27 7 55 17 82 24c27 5 55 10 82 13c29 3 60 5 91 5c27 1 55 -5 82 -13c67 -19 132 -40 200 -55c33 -7 66 -10 99 -8h8c36 -4 71 3 105 15c12 3 25 8 37 12c21 7 38 17 54 30c3 4 8 6 13 10zM1480 445c1 -6 4 -10 4 -14c1 -2 0 -5 0 -6c-3 0 -6 2 -6 3c-2 6 -3 10 -3 16
c2 0 3 1 5 1zM379 431c-4 -13 -5 -25 -8 -38c-3 2 -6 4 -6 5c3 11 4 23 10 33h4zM1449 429l3 -19c-9 5 -8 12 -8 18c1 0 3 0 5 1zM1430 421c1 -5 3 -9 4 -14c-1 0 -2 -1 -3 -1c-2 5 -4 9 -5 13c1 0 2 1 4 2zM396 417l-6 -30c-6 12 -4 20 6 30zM1416 404c-6 1 -7 6 -6 11
c6 -2 6 -7 6 -11zM412 412c3 -6 0 -10 -3 -16c-5 8 0 12 3 16zM429 387c-7 6 -8 10 -4 18c3 5 7 4 11 0c-3 -6 -4 -12 -7 -18zM718 172c-3 -1 -7 -1 -10 -2v2c3 1 7 1 10 2v-2z" />
    <glyph glyph-name="E" unicode="E" horiz-adv-x="1975" 
d="M1964 309c5 -12 10 -24 0 -38c-14 -21 -31 -38 -51 -54c-19 -14 -41 -25 -63 -34c-8 -3 -17 -5 -26 -8l-23 -9c-21 -4 -41 -9 -61 -14c-9 -1 -19 -3 -30 -5c0 -6 1 -10 1 -15c-3 -24 -17 -46 -38 -62c-29 -23 -68 -36 -100 -34c-9 0 -18 1 -27 0c-23 2 -45 10 -67 16
l-41 12c-5 2 -11 3 -18 6c-14 7 -29 11 -47 12c-17 0 -34 6 -51 8c-20 1 -40 3 -61 1c-37 -2 -74 -5 -111 -10c-20 -2 -40 -9 -59 -15c-49 -14 -99 -29 -150 -35c-30 -4 -60 -2 -88 10c-21 10 -47 36 -36 61c2 6 7 13 11 18c5 6 7 12 7 21c-12 -1 -23 -3 -33 -4
c-42 -6 -80 -20 -120 -30c-44 -10 -89 -22 -133 -24c-12 -1 -24 -2 -35 -5c-27 -6 -54 -5 -81 -4c-19 0 -37 1 -56 4c-37 4 -70 18 -103 34c-8 5 -16 11 -23 17c-12 9 -14 23 -12 36c2 14 7 28 11 42c0 5 3 9 5 14c-40 -3 -78 4 -114 15c-40 12 -74 36 -102 67
c-13 15 -22 33 -31 50c-1 3 -2 6 -2 8c-3 7 0 13 5 17s11 1 16 -3s11 -9 16 -14c14 -11 29 -18 47 -20c18 -1 35 -3 55 0c-5 4 -7 6 -10 7c-47 25 -79 63 -101 112c-10 22 -12 47 -7 73c0 4 2 9 2 13c-3 9 3 12 10 16c5 -8 11 -16 15 -22c28 -38 62 -61 107 -73
c41 -9 82 -13 123 -12c14 0 28 -2 44 -3c23 0 42 -14 62 -23c11 -6 18 -14 25 -25c7 -10 10 -22 4 -35c-2 -6 -7 -12 -12 -17c-5 -6 -10 -11 -10 -20c12 -5 26 -4 40 -3c15 0 32 4 47 7c75 19 149 39 224 58c15 4 29 4 44 6c3 2 6 2 10 3c37 10 75 20 113 28
c36 7 71 15 109 11c0 -1 1 -1 1 -1c25 -1 47 -10 64 -30c11 -13 18 -27 20 -43c1 -11 -1 -21 -1 -31c0 -4 0 -8 1 -13c9 0 18 2 27 4c41 11 83 16 125 17c30 1 60 1 89 1c37 1 72 -7 108 -15c9 -2 19 -3 28 -6c24 -6 46 -13 69 -18c12 -3 24 -5 37 -8c0 10 -2 19 -3 29
c-1 15 9 32 20 40c13 10 29 15 45 18c16 4 32 5 48 5c36 1 71 0 106 4c57 6 108 29 153 64c6 5 10 13 16 20c14 -6 19 -15 18 -32c-1 -4 -2 -8 -4 -12c-23 -50 -51 -97 -97 -130c-15 -10 -28 -20 -42 -30c13 -5 41 -2 77 11c25 7 49 15 75 23zM242 232c17 -3 20 0 21 18
c0 3 -1 6 -1 10c-3 22 -7 44 -10 66c-5 24 2 43 18 59c17 17 34 18 55 7c17 -10 36 -19 54 -26c10 -5 14 -2 18 7c3 4 3 8 6 12c4 7 3 10 -3 15c-6 8 -17 12 -24 18c-22 15 -45 21 -71 21c-48 -1 -94 4 -141 14c-42 8 -79 27 -110 58c-2 4 -6 7 -11 11c0 -18 2 -35 7 -50
c11 -29 26 -56 51 -77c19 -16 40 -29 61 -44c3 -3 8 -4 11 -7c8 -6 7 -9 2 -15c-3 -5 -7 -5 -12 -5c-7 1 -14 2 -21 2c-35 -1 -71 0 -103 19c-1 -3 -1 -4 -1 -5c2 -3 3 -5 4 -8c12 -20 29 -38 48 -51c27 -16 53 -32 85 -36c22 -4 45 -8 67 -13zM1937 271c3 3 5 6 9 12
c-7 -1 -10 -1 -12 -3c-25 -9 -51 -15 -77 -21c-20 -4 -40 -5 -60 -4c-8 1 -15 2 -17 11s-1 16 7 22c11 7 22 15 32 22c45 29 81 65 104 113c2 4 3 8 6 13c-4 0 -6 0 -7 -1c-11 -8 -24 -17 -36 -23c-10 -6 -20 -12 -30 -16c-45 -17 -93 -26 -141 -24c-29 0 -58 -1 -86 -2
c-17 0 -32 -7 -46 -15c-4 -1 -7 -5 -10 -7c0 -2 1 -3 2 -4c8 0 16 1 24 1c23 5 45 3 68 0c4 -1 7 -3 10 -4c18 -12 28 -30 30 -51c2 -24 0 -50 -7 -74c-4 -15 -3 -29 6 -46c10 2 20 1 30 4l84 24c46 13 84 38 117 73zM757 150c43 8 87 15 131 21c33 4 67 11 100 -2
c1 2 2 2 3 3c14 36 28 70 43 105c12 31 17 63 10 96c-1 12 -5 20 -13 28c-9 7 -14 17 -25 18c-24 2 -48 6 -73 2c-44 -7 -87 -19 -130 -28c-44 -10 -88 -21 -132 -32l-95 -24c-35 -8 -68 -17 -102 -23c-16 -3 -32 -2 -48 -1c-25 1 -49 2 -73 10c-11 3 -22 8 -33 12
c-13 3 -24 9 -33 18c-2 2 -5 4 -8 6c-9 -11 -8 -22 -6 -33l6 -42c6 -28 8 -56 -6 -81c-2 -4 -4 -8 -4 -11c-4 -13 -6 -25 -8 -37c0 -6 2 -11 8 -13c12 -7 24 -15 36 -21c34 -16 70 -25 108 -22c9 0 19 0 28 -1c29 -3 56 1 85 5c12 2 24 6 37 4c6 -2 13 0 20 1
c33 7 67 15 101 24c25 5 48 14 73 18zM1850 407c-3 0 -5 -1 -7 -1v-2c3 0 5 1 7 2v1zM1832 400c-17 -4 -35 -8 -54 -13c19 1 38 2 54 13zM1842 360c-3 -2 -5 -2 -7 -3c0 1 0 1 -1 2c3 1 5 1 7 2c0 -1 0 -1 1 -1zM1681 244c2 14 2 28 3 45c-5 -2 -7 -2 -9 -3
c-22 -11 -46 -18 -71 -16c-31 3 -61 11 -92 17c-19 4 -35 12 -53 16c-20 5 -40 7 -59 11c-38 7 -74 10 -112 11c-45 2 -89 -2 -134 -6c-21 -3 -43 -10 -64 -12c-21 -1 -29 -13 -34 -31c-9 -28 -20 -57 -30 -84c-7 -17 -14 -35 -22 -52c-1 -4 -4 -8 -8 -11
c-9 -5 -20 -12 -31 -15c-13 -3 -27 -3 -41 -5c-17 -1 -32 -2 -49 -4c-8 -1 -17 -4 -22 -10c-12 -11 -10 -23 3 -31c4 -2 8 -5 13 -6c21 -6 42 -8 65 -6c48 3 94 20 141 31c21 4 42 13 63 16c31 5 61 8 92 10c26 2 52 3 78 2c17 0 33 -3 49 -6c14 -2 29 -3 42 -7
c18 -5 35 -12 52 -18c42 -14 83 -24 126 -22c20 1 39 3 57 15c15 8 26 23 38 35c14 14 17 28 13 44l-6 21c-6 13 -7 26 -4 39c3 11 5 21 6 32z" />
    <glyph glyph-name="F" unicode="F" horiz-adv-x="1603" 
d="M1588 385c14 -5 15 -18 3 -27c-3 -3 -6 -5 -10 -6c-48 -17 -59 -25 -103 -51c-26 -16 -50 -38 -75 -54c-11 -7 -56 -43 -64 -43l-24 -3c-21 -1 -41 -2 -62 -4c-21 -1 -41 -4 -63 0c-12 2 -27 6 -36 -9c-1 -2 -6 -2 -8 -2c-21 1 -42 1 -63 1c-3 5 1 6 6 11l-41 -1
c4 -1 8 -2 12 -2v-2c-54 -2 -108 -4 -161 -4c-16 0 -32 1 -47 4c-5 0 -9 9 -15 4c-7 -6 -16 2 -19 0c-18 -10 -35 -1 -52 -2c-19 -1 -39 0 -58 2c-18 0 -37 2 -55 2c-39 2 -78 5 -117 5c-44 1 -89 2 -133 1c-19 0 -37 -5 -56 -8c-3 0 -7 -2 -10 -1c-13 5 -25 1 -37 0
c-27 -5 -55 -4 -82 -4c-5 0 -11 4 -18 6c-2 2 -7 5 -10 9c-6 12 -13 21 -17 26c-26 42 -66 67 -105 92c-11 7 -25 8 -37 12c-22 8 -29 19 -24 41c1 3 7 7 10 9c15 6 30 12 44 21c32 21 64 40 95 64c22 17 42 39 62 60c8 9 14 13 26 9c19 -4 39 -6 58 -10
c58 -12 116 -12 175 -12c129 0 257 0 385 1c38 0 77 4 116 5c52 1 104 -1 156 1c50 1 101 3 151 6c21 0 42 1 64 1c4 0 9 -2 13 -5c29 -18 60 -45 90 -66c48 -33 81 -57 126 -75c3 -1 7 -1 10 -2zM1536 370c3 1 0 4 -2 5c-4 1 -15 7 -18 8c-16 9 -31 24 -61 41
c-25 14 -62 52 -87 65c-24 15 -31 17 -60 14c-29 -2 -59 -1 -88 -1h-41c-22 -2 -43 -2 -65 -4c8 4 17 4 26 4c9 -1 18 -1 29 7c-8 1 -12 2 -15 2c-8 -1 -15 -1 -23 -1c-41 -2 -82 -1 -123 -3c-21 0 -43 -1 -65 -3c-4 -1 -10 -1 -13 -4c-5 -7 -13 -7 -20 -7l-104 -3
c-67 0 -133 -1 -199 -1c-49 1 -97 3 -146 2c-67 0 -134 4 -199 21c-8 2 -16 2 -24 3c-13 -25 -35 -40 -56 -56c-23 -15 -43 -32 -65 -47c-21 -16 -44 -30 -69 -47c67 -35 131 -95 185 -142h1c30 2 59 4 88 4c68 3 135 -1 203 1c53 2 106 2 160 1c56 -1 112 -6 168 -5
c93 0 186 1 279 -3c42 -3 84 -3 126 5c11 2 22 4 33 3c21 -1 40 4 60 17c45 29 72 56 131 94c17 10 35 19 54 30zM993 501c15 -1 30 -1 44 -1c15 0 30 0 45 -1c-30 3 -59 6 -89 2zM974 497v3c-6 0 -12 0 -18 -1v-3c6 1 12 1 18 1zM1389 356c11 0 21 1 26 13c7 12 1 19 -4 28
l-3 3c-12 10 -29 5 -40 -11c-7 -10 -6 -23 6 -29c5 -3 11 -3 15 -4zM209 349l25 8c11 7 13 20 5 30c-13 15 -42 17 -56 3c-2 -3 -5 -7 -6 -10c-1 -20 10 -30 32 -31zM588 206c3 0 12 0 15 1v2c-3 0 -12 -1 -15 -1c-3 -2 0 -1 0 -2zM416 198c-1 0 -1 1 -1 2l-7 -1v-1h8z
M494 197c0 1 1 1 2 1c-19 0 -37 0 -55 1v-1c18 -1 35 -1 53 -1zM646 192v-1c2 0 11 0 14 -1v1c-3 1 -12 1 -14 1z" />
    <glyph glyph-name="G" unicode="G" horiz-adv-x="1599" 
d="M246 229c-8 -2 -14 1 -17 7c-20 31 -58 34 -87 13c-9 -8 -14 -6 -20 1c-8 8 -17 15 -24 22c-23 21 -49 46 -73 65c-5 6 -11 12 -14 17c-8 9 -8 11 0 23c11 10 18 17 27 24c31 24 52 46 71 68c9 10 16 22 24 31c6 7 12 7 18 0c3 -4 6 -9 11 -15c16 -29 55 -29 74 8
c2 3 4 7 5 10c5 8 9 10 19 8c5 -2 9 -4 13 -4c70 0 139 2 209 2c76 0 151 2 226 4c70 1 141 1 210 1c52 0 101 -1 150 -3c16 0 30 2 45 0c69 -6 140 3 209 -2c13 2 26 0 37 2c6 -9 9 -20 14 -24c21 -25 41 -16 59 4c6 5 11 14 15 22c11 3 19 -2 26 -10
c37 -36 73 -71 110 -105c9 -7 12 -15 11 -29c-48 -33 -93 -64 -137 -108c-4 0 -19 11 -25 17c-9 9 -23 9 -33 7c-26 -6 -42 -26 -49 -51c-26 0 -51 -2 -77 -2c-45 0 -89 6 -134 0c-23 -2 -46 -2 -70 -2c-123 2 -247 6 -371 2h-147c-57 0 -113 -2 -168 -3h-58
c-27 0 -52 1 -79 0zM540 502h26v1h-26v-1zM261 249c24 1 47 1 70 1c104 2 206 5 309 6c58 2 118 -1 179 0c40 0 79 0 119 -1c70 -3 139 -6 207 -3c43 4 84 4 128 0c20 -2 38 0 60 3c9 24 32 39 55 47c23 5 44 2 64 -13c36 27 70 54 105 82c3 3 8 7 11 12
c-37 37 -71 71 -107 105c-4 -3 -6 -3 -6 -4c-8 -15 -22 -20 -32 -28c-9 -6 -20 -7 -29 -3c-19 5 -34 14 -44 29c-2 2 -8 5 -11 3c-26 -1 -29 6 -57 3l-18 -1c-4 1 -20 1 -24 1h-89h-42c-32 3 -45 -1 -78 0c-35 3 -69 0 -104 0c-54 0 -108 0 -161 -1h-95c-27 0 -55 -2 -80 -2
c-40 0 -80 2 -121 2c-72 0 -143 -2 -214 -2c-9 -14 -18 -26 -33 -35c-14 -9 -29 -6 -43 -3c-17 3 -26 18 -37 31c-18 -24 -34 -39 -53 -58c-20 -20 -39 -35 -58 -54v-1c28 -32 63 -63 95 -89c1 -2 9 -6 12 -4c12 7 18 12 32 15c20 6 40 2 58 -15c2 -3 11 -8 12 -13
c8 -9 9 -10 20 -10zM1272 458c-48 1 -95 1 -142 4c-37 0 -73 3 -110 3c-45 -1 -91 0 -137 -1c-23 0 -44 1 -67 1h-67c-32 -1 -66 -3 -98 -3c-13 -3 -27 0 -41 0c-4 0 -10 -3 -15 -3c0 3 0 5 -2 6c5 2 11 4 14 6h40c32 2 62 0 93 3c27 4 53 5 80 4c28 -2 54 0 82 0
c13 0 27 -2 40 -2c7 0 14 -2 22 0c47 6 93 2 140 0h47c28 0 54 0 78 -2c11 0 20 2 31 2h2c15 -2 28 -2 42 -2h18c0 -16 0 -10 -12 -12c-14 -3 -26 -4 -38 -4zM453 462c-23 0 -42 2 -64 2c-9 0 -20 -2 -29 0c-15 0 -29 -2 -42 0h-31c-5 0 -11 3 -17 5v4c3 0 6 1 8 1
c13 0 24 2 35 2c10 -2 21 -2 35 -2c63 0 128 -1 194 -1c13 0 24 -2 36 -2c3 -2 8 -2 11 -4c0 -2 -2 -3 -2 -5h-16h-118zM349 261c-24 0 -47 3 -71 3c-9 0 -20 1 -32 1l4 7c15 2 29 4 44 4c22 2 44 0 66 2c56 1 114 3 171 1c44 0 87 2 131 6c9 2 18 2 27 -4c5 -3 14 -2 23 -2
c35 5 72 2 107 6c49 4 98 2 145 -1h11c49 3 98 -5 147 -3h130c14 0 29 -2 41 -2c6 0 9 -1 14 -3c-1 -6 -3 -6 -5 -9c-1 -2 -3 -2 -3 -2c-70 0 -138 2 -206 2c-16 0 -31 2 -47 2c-41 1 -82 0 -125 1c-73 4 -148 4 -224 2c-43 -2 -87 -3 -128 -5c-58 0 -116 -2 -174 -2
c-15 0 -30 -4 -46 -4zM722 249c9 0 18 1 29 1c0 0 2 2 0 2c-9 0 -20 -2 -29 -2v-1zM325 240c61 1 120 3 180 3h108c20 2 38 4 58 4v3c-114 -1 -229 -5 -344 -7c0 -2 0 -2 -2 -3z" />
    <glyph glyph-name="H" unicode="H" horiz-adv-x="1722" 
d="M481 373l-50 -68c-10 -13 -20 -29 -30 -44c-5 -12 0 -20 14 -22c25 0 50 -4 76 -2c31 2 62 4 95 4c35 -2 70 0 105 0c58 0 116 -2 174 -4c39 0 78 0 115 -2c18 0 35 -2 51 -4h23c15 0 31 4 46 4h105c22 0 41 -2 62 0c6 0 12 3 18 4s11 1 15 4c7 5 6 14 2 19
c-15 30 -31 59 -46 86c-8 13 -8 23 0 37c9 17 21 37 33 56c9 18 21 37 31 56c8 14 4 18 -10 20c-23 4 -45 6 -68 4c-54 -2 -111 0 -167 -2c-95 0 -188 0 -283 -2h-216c-52 -2 -103 -4 -153 -6c-6 0 -10 0 -16 -2c-8 -2 -9 -10 -6 -17c14 -20 28 -37 39 -57
c14 -19 27 -41 41 -62zM898 503l2 2c3 0 34 -2 20 -2h-22zM429 493h23h188c43 0 84 -1 126 -1c24 1 45 1 68 1c28 2 55 0 80 2c50 0 99 2 150 4h135h70c8 0 18 -2 29 -4c-25 -44 -50 -87 -75 -130c17 -35 37 -68 56 -104c-23 -2 -45 -4 -64 -4c-82 2 -161 2 -243 2
c-64 0 -128 0 -192 2c-35 0 -70 1 -107 1c-44 0 -89 2 -134 -1c-31 -2 -64 -4 -97 0c-4 0 -8 0 -13 1c3 6 7 12 11 18c18 23 35 48 55 72c7 11 7 21 2 33c-20 27 -37 56 -55 85c-4 6 -8 14 -13 23zM1348 296c-2 6 -6 14 -10 20c-8 13 -15 29 -23 42c-6 10 -4 18 0 26
c11 19 23 37 33 56c6 10 6 17 -6 25c-4 -6 -10 -11 -16 -19c-11 -20 -23 -39 -35 -58c-5 -8 -5 -16 -1 -24c1 -6 3 -9 7 -15c12 -18 22 -33 33 -51c4 -7 10 -7 18 -2zM1338 374c12 -21 23 -39 33 -56c4 -8 8 -14 19 -12c4 23 -21 41 -21 64c4 0 8 2 14 2h93c35 2 72 4 107 4
h11h61v4h-55c0 2 3 0 3 2c10 0 22 1 31 1c14 0 23 1 35 1c4 -10 11 -18 20 -20c12 -2 20 6 24 16c6 10 6 25 -2 33c-6 6 -16 4 -29 -2c-6 -4 -14 -6 -24 -8c-25 -2 -52 -2 -79 -2c-64 -2 -126 -4 -190 -4c-2 0 -4 0 -8 2l6 16c3 8 7 15 11 23c8 16 8 18 -11 21
c-16 -27 -33 -56 -49 -85zM403 311c4 4 8 6 10 8c10 15 18 31 27 46c6 10 6 18 0 29c-9 14 -19 30 -29 43c-4 6 -10 10 -13 16c-8 -10 -8 -16 -4 -24c7 -7 13 -17 19 -27c8 -9 10 -19 2 -31c-6 -8 -10 -17 -16 -25c-7 -12 -7 -23 4 -35zM361 391c-4 -2 -6 -2 -8 -2
c-64 -2 -221 2 -286 -2c-1 0 -5 0 -9 2c-10 9 -29 11 -41 5c-8 -3 -14 -17 -12 -27c2 -9 14 -13 28 -13c11 0 17 6 29 9c9 0 17 4 25 4c41 0 177 -4 217 -2c16 2 31 0 51 2c-6 -13 -12 -23 -18 -33c-7 -17 -5 -19 10 -29c16 25 47 68 47 74s-18 29 -29 43
c-6 7 -10 21 -26 19c-4 -12 -4 -12 2 -21c6 -8 14 -20 20 -29zM1594 383h-8l-2 2c4 0 6 2 8 2c0 -2 2 -2 2 -4zM1232 245h24v-2h-24v2z" />
    <glyph glyph-name="I" unicode="I" horiz-adv-x="985" 
d="M896 448c2 9 6 23 7 35c0 26 -1 51 -16 74c-3 5 -3 12 -9 12c-6 -1 -12 -4 -15 -8c-8 -19 -24 -27 -41 -35c-35 -13 -71 -16 -108 -11c-41 7 -83 11 -124 10c-31 0 -59 -7 -85 -25c-8 -5 -14 -9 -21 -12c-8 6 -16 10 -23 15c-19 16 -43 22 -67 19l-59 -4
c-28 -4 -53 -5 -80 -9c-23 -2 -50 -6 -74 -2c-20 6 -36 12 -56 27c-4 7 -15 11 -20 19c-7 6 -15 4 -18 -4c-1 -6 -4 -11 -5 -15c-5 -15 -7 -28 -5 -40c1 -12 4 -28 6 -40c0 -4 3 -10 3 -11c-15 -12 -27 -20 -39 -31c-12 -8 -22 -14 -35 -21c-8 -5 -9 -14 -2 -23
c5 -7 9 -13 17 -20c12 -16 27 -28 47 -35c3 0 7 -4 12 -5c-3 -2 -3 -3 -4 -3c-29 -28 -35 -64 -32 -104c1 -11 4 -18 15 -23c9 -3 12 4 17 9c11 8 19 20 35 23c17 1 36 4 53 3c49 -2 97 -6 146 -7c24 0 50 -4 74 4c35 6 66 16 93 43l12 -9c18 -18 41 -26 67 -28
c20 -2 38 -3 59 -3s44 -2 62 3c19 6 37 6 56 6h17c35 0 69 -4 100 -21c14 -6 26 -13 40 -18c13 4 15 14 14 27v25c-1 7 -1 14 -3 19c-5 12 -11 24 -16 35c5 5 12 11 18 16l18 20c16 16 34 30 53 39c1 9 -4 15 -13 20c-5 4 -12 7 -17 12c-17 16 -35 33 -54 52zM99 530
c13 -8 19 -12 25 -17c13 -15 28 -22 48 -27c16 -3 41 -4 60 -1c50 5 96 12 145 17c13 1 29 0 44 0c23 -2 39 -16 52 -31c6 -5 10 -9 12 -14c3 2 4 2 4 2c30 31 67 41 107 41c38 2 77 -2 114 -6c38 -8 75 -6 110 6c16 6 30 13 42 25c4 3 8 6 13 12c4 -7 6 -11 6 -15
c1 -19 1 -37 -3 -56c-3 -6 -4 -9 -8 -15c-8 -12 -3 -27 11 -28c18 -4 30 -16 42 -27c8 -8 16 -16 27 -24c-12 -8 -23 -19 -33 -28c-6 -4 -8 -8 -14 -14c-7 -9 -16 -15 -28 -18c-3 0 -7 -3 -9 -4c-11 -6 -14 -15 -3 -23c18 -10 27 -26 24 -44v-31c-12 4 -21 9 -31 15
c-37 17 -76 21 -116 19c-39 -2 -79 -6 -121 -7c-25 0 -53 1 -81 5c-13 2 -25 12 -37 19c-4 1 -6 5 -10 9c-11 8 -14 8 -24 0c-11 -9 -21 -17 -31 -23c-37 -17 -74 -21 -113 -18c-45 2 -92 5 -137 6h-41c-27 0 -49 -5 -68 -24c0 -1 -3 -1 -6 -4c-2 16 0 30 4 43
c7 20 15 37 35 47c7 4 7 11 5 20c0 8 -6 8 -13 10c-9 2 -20 5 -28 9c-20 7 -33 19 -43 35c13 12 25 21 38 33c8 10 18 15 30 15c14 0 16 5 11 17c-8 19 -16 49 -14 71c0 7 2 12 3 23z" />
    <glyph glyph-name="J" unicode="J" horiz-adv-x="1642" 
d="M1118 301c-2 -5 -5 -6 -7 -8c-7 -10 -16 -19 -22 -29c-4 -6 -7 -11 -7 -19c-1 -6 1 -13 4 -19c3 -8 6 -17 12 -23c18 -16 38 -26 61 -28l123 -9c22 -1 41 -10 58 -21c25 -18 51 -34 73 -56c7 -7 15 -14 21 -22l27 -26c9 3 12 7 10 16c0 4 0 10 -1 15c-1 8 0 19 -6 26
s-7 16 -10 25c-3 7 -2 17 -6 23c-4 7 -9 13 -7 22c0 1 -3 3 -3 4c-2 2 -3 5 -3 6c-3 7 -6 15 -10 21c-2 4 -5 7 -9 14c29 -3 54 -4 79 -6c1 0 4 0 6 -1c20 -12 45 -15 61 -34c1 -1 7 -3 10 -1c4 0 3 4 3 9c0 3 1 5 1 8c2 2 3 6 2 8c-10 19 -19 39 -34 57
c-23 29 -51 55 -84 77c-35 23 -73 39 -114 47c-3 0 -6 1 -12 2c16 19 25 38 32 60c3 12 5 24 6 35c0 6 -3 13 -7 18c-6 9 -15 16 -23 20c-34 22 -72 35 -108 50c-3 1 -5 1 -8 1c-7 0 -14 0 -20 3c-31 7 -60 16 -89 23c-52 14 -106 21 -160 28c-34 5 -69 7 -104 9
c-29 0 -58 -2 -89 -2c-20 -1 -42 -1 -63 -4c-24 -4 -59 -10 -86 -14c-36 -6 -70 -8 -106 -15c-38 -9 -70 -20 -108 -38c-3 -1 -6 -1 -10 -3c-16 -1 -30 -9 -44 -14c-16 -6 -26 -18 -37 -31c-5 -10 -8 -21 -5 -32c4 -21 11 -40 21 -59c17 -35 28 -71 35 -109
c3 -23 14 -45 31 -60c18 -14 37 -14 57 -16h4c16 5 34 10 51 13c9 2 19 0 28 0c3 -11 3 -22 -6 -29c-10 -7 -20 -16 -32 -20c-25 -8 -49 -8 -74 -5c-29 3 -57 3 -86 2c-48 -6 -91 -22 -127 -53c-7 -6 -15 -11 -22 -17c0 11 3 22 12 39c11 22 29 40 45 59c14 16 26 33 38 52
c-3 2 -6 2 -6 3c-1 13 -12 13 -20 13c-11 0 -22 -1 -33 -4c-29 -6 -58 -15 -87 -22c-4 -2 -7 -2 -12 -2c0 0 0 2 -1 3c14 12 28 25 42 35c19 12 40 22 58 34c30 17 60 28 92 33c3 2 8 2 11 3c2 2 7 6 7 9s-5 6 -7 7c-3 2 -6 2 -9 0c-22 -5 -44 -8 -66 -17
c-48 -21 -95 -44 -134 -79c-12 -10 -20 -20 -29 -31c-5 -5 -6 -10 -2 -16c5 -5 6 -11 15 -10c15 3 28 6 42 10c31 9 60 16 91 25c6 2 11 5 20 2l-17 -21c-16 -19 -32 -36 -47 -55c-19 -26 -29 -56 -28 -88c0 -7 2 -14 8 -19c5 -7 10 -5 16 0c8 11 17 19 26 30
c20 20 44 35 71 45c40 13 80 19 123 13c7 0 16 -2 23 -2c34 -1 69 -5 99 16l2 2c11 1 16 10 22 19c3 6 7 12 11 17c0 2 0 3 -1 5c-9 19 -19 36 -28 55c-3 7 -3 16 -6 25c13 3 24 6 34 7c26 5 54 9 80 12c23 3 45 6 69 7c35 3 71 6 106 6c34 0 69 -4 102 -6
c16 -1 31 -1 47 -4c10 -2 19 -5 28 -6c38 -7 74 -13 110 -19c5 -1 9 -3 16 -4zM1257 279c-19 16 -40 22 -62 26c-40 10 -81 19 -121 27c-32 6 -65 10 -97 16c-40 9 -81 7 -120 12c-36 4 -72 1 -108 0c-17 0 -35 0 -51 -3c-30 -3 -60 -7 -89 -12c-28 -3 -55 -7 -84 -10
c-26 -4 -52 -10 -76 -21c-3 -2 -8 -3 -11 -5c-17 -7 -31 -14 -39 -33c-7 4 -7 12 -10 17c-8 32 -17 64 -27 94c-4 15 -12 28 -17 41c-8 16 -13 31 -16 49c-2 6 -2 10 1 16c9 17 23 26 41 31c10 5 20 8 31 11c47 14 83 26 130 34c41 9 83 15 123 20c29 5 66 9 94 11
c72 4 143 7 214 -5c62 -10 122 -20 183 -36c36 -10 71 -17 105 -27c31 -10 60 -23 87 -42c9 -6 12 -12 9 -23c-7 -23 -16 -47 -31 -67c-15 -19 -27 -42 -33 -66c-4 -20 -16 -36 -26 -55zM1377 222c0 -2 0 -3 1 -3c26 -15 41 -38 50 -66c6 -16 11 -30 16 -46
c3 -5 3 -11 3 -16l-6 4c-10 13 -24 26 -38 35c-3 1 -6 3 -9 6c-12 12 -28 20 -42 28c-15 8 -32 13 -48 19c-25 10 -53 5 -79 8l-64 5c-16 1 -31 7 -45 16c-14 8 -16 20 -8 33c10 18 21 19 38 10c22 -11 44 -24 69 -27c8 -2 16 -2 25 -2c4 2 10 3 14 6c22 18 38 38 45 64
c5 16 11 32 16 48c2 6 5 11 8 16c13 -1 26 -4 38 -7c33 -7 61 -25 89 -44c32 -23 61 -51 87 -81l7 -10s0 -2 2 -5h-9c-14 5 -29 7 -44 12c-4 1 -8 1 -13 1c-29 3 -57 3 -84 6c-11 2 -16 -1 -19 -10zM251 273l-43 -9v3c13 6 27 12 43 10v-4z" />
    <glyph glyph-name="K" unicode="K" horiz-adv-x="1643" 
d="M1615 123c2 -2 6 -6 6 -10c0 -3 -4 -9 -6 -11c-7 -2 -9 -2 -15 -2c-48 0 -93 -3 -141 0c-67 2 -136 6 -203 8c-69 2 -136 2 -205 5c-52 2 -99 -5 -153 -5c-35 0 -72 -6 -106 -6c-24 0 -46 0 -67 2c-61 0 -121 2 -182 4c-38 2 -75 0 -114 -4c-24 -2 -50 0 -74 2
c-23 2 -47 2 -73 0s-52 0 -78 0c-17 2 -34 2 -52 0c-36 -2 -75 -6 -114 -9c-9 0 -20 5 -28 7c-7 2 -11 6 -9 13c2 4 7 6 11 6c11 3 24 5 35 5c34 -2 77 45 86 82c0 6 2 13 4 21c7 24 22 44 48 57c-7 6 -13 10 -20 15c-15 15 -23 34 -28 56l-6 30c-7 24 -35 48 -61 50
c-11 0 -21 2 -32 6c-4 0 -13 7 -13 11c0 9 9 9 15 9h123h24c54 2 106 2 158 4c75 2 153 -2 229 -2c51 2 101 2 153 4c69 0 140 0 210 -2c36 0 71 -2 108 -4c8 0 17 4 26 4c8 2 17 4 25 4h199h177c31 0 63 3 95 3c13 0 24 -5 37 -9c11 -2 13 -13 2 -20c-4 -4 -11 -4 -15 -4
c-41 -4 -65 -26 -78 -60c-8 -22 -17 -41 -26 -61c-4 -8 -10 -17 -17 -28c24 -13 24 -39 30 -63c5 -19 7 -38 11 -58c7 -24 22 -39 46 -45c15 -2 23 -2 36 -5c9 0 15 3 22 0zM829 458c-18 -2 -37 2 -54 -4h54v4zM917 458l-2 -2h7h6c-2 2 -7 2 -11 2zM522 456v-2
c6 -2 15 -2 24 -2v4h-24zM677 456v-2h18v2h-18zM578 454v-2c6 0 13 0 22 -2v4h-22zM1006 450v-3h11v3h-11zM1436 130h69c-9 17 -18 34 -22 50c-6 25 -13 51 -19 77c-2 9 -7 13 -13 13c-13 2 -24 5 -37 2c-13 -4 -24 9 -17 18c2 6 11 8 17 11c17 2 30 13 41 25l9 16
c-1 -3 17 41 23 54c3 4 20 41 22 41c-9 0 -13 2 -19 2c-24 2 -46 2 -70 2c-66 2 -136 2 -203 2c-17 0 -36 2 -51 -2c-16 -4 -31 -7 -46 -7h-86c-20 0 -37 3 -56 3c-46 0 -89 0 -134 2c-7 0 -13 -2 -22 -2c-22 2 -41 2 -63 2c-34 0 -69 -5 -103 -5c-31 0 -61 3 -91 3h-78
c-54 -3 -106 4 -160 2c-51 -2 -105 -2 -157 -5c-5 0 -9 -2 -15 -4c4 -26 8 -58 13 -82c6 -24 19 -41 43 -47c13 -3 19 -11 19 -24c-4 -2 -11 -2 -17 -5c-24 -10 -48 -23 -52 -51c-4 -24 -11 -63 -26 -85h33h116c33 0 63 -2 95 -2c26 0 52 -4 78 0c22 5 43 5 65 5
c78 -3 155 -5 233 -7c52 0 108 9 162 4c67 -2 132 9 199 7c108 -4 214 -9 320 -13zM312 119v4h-30v-4h30zM1464 113v2h-20v-2h20zM1524 108v2c-2 3 -6 3 -8 5v-5c2 0 4 -2 8 -2zM1500 108l3 2h-18v-2h15z" />
    <glyph glyph-name="L" unicode="L" horiz-adv-x="1366" 
d="M1361 489c-3 -42 -10 -96 -19 -136c-4 -20 -8 -39 -13 -58c-3 -13 -8 -26 -24 -32c-15 -16 -35 -14 -55 -14c-19 1 -36 -2 -55 -2c-25 0 -39 -3 -64 -3c-20 0 -52 2 -72 3c-32 0 -64 3 -94 5c-15 0 -28 1 -41 1c-43 3 -104 7 -147 9c-48 1 -87 0 -135 0h-77h-13
c-13 0 -24 1 -36 -3c-8 -3 -10 -2 -19 -2c-24 -1 -49 -4 -72 -5c-3 0 -9 -3 -9 4l-5 1c-18 -1 -36 -2 -55 -5c16 0 33 0 49 1v-3c-19 -1 -38 -3 -57 -3c-14 -1 -30 -1 -44 -3c-18 0 -16 0 -34 -1c-13 0 -13 -2 -11 -13c0 -7 0 -16 1 -23c0 -9 -1 -10 -10 -10
c-10 1 -20 1 -30 1c-16 -1 -31 -7 -45 -14c-12 -8 -25 -16 -38 -24l-33 -13c-16 -5 -30 -2 -46 6c-13 7 -21 21 -26 34c-13 24 -18 49 -19 75c-3 47 -10 104 -7 150c1 18 8 48 23 58c32 22 65 30 101 31c15 0 29 3 42 5c1 0 130 3 194 3c23 0 46 -1 68 0c156 9 282 6 321 3
l249 -12c20 0 53 -1 74 -1c2 0 5 0 11 1l6 51c0 9 1 16 10 20h3c16 -21 42 -26 67 -29c21 -3 41 3 63 9s45 9 68 4c18 -2 33 -8 44 -26c8 -11 13 -24 11 -40zM1112 537c-1 -12 -3 -25 -4 -39c6 0 10 0 16 1c0 10 1 19 1 29c0 9 -1 9 -13 9zM1283 537c-1 -15 -4 -28 0 -41
c3 2 6 2 10 3l-1 10v2c1 4 1 8 3 13c0 2 -2 8 1 11c-4 0 -9 0 -13 2zM1245 522c-1 -6 -1 -13 -1 -19c-2 -8 1 -11 10 -11h7c2 6 2 10 2 14c0 9 -2 18 -2 28c-13 1 -14 0 -16 -12zM1310 515v-6c0 -4 0 -7 5 -7c7 0 17 9 19 14c1 6 -2 9 -6 12c0 1 -6 4 -10 6c-2 0 -2 1 -2 0
c-3 -6 -4 -12 -6 -19zM1202 522c-1 -11 -1 -20 1 -29h22c0 12 0 22 2 35c-11 -3 -18 -4 -25 -6zM1153 518c1 8 0 8 -10 8c-2 -8 -2 -15 -2 -23c0 -5 3 -8 10 -5c0 7 2 13 2 20zM1172 516c-3 -7 -5 -14 -2 -21h15c-2 7 -2 14 -2 21c0 3 -3 6 -4 6c-3 -1 -7 -3 -7 -6z
M1329 429c4 21 4 41 7 64c-10 -5 -17 -13 -26 -14c-21 -4 -44 -9 -66 -10c-20 -2 -40 -2 -59 1c-50 6 -110 6 -160 7c-19 0 -39 2 -59 2c-164 1 -177 13 -253 10c-12 0 -179 4 -277 -6c-23 -1 -44 3 -67 3c-69 0 -181 -7 -236 -10c-19 0 -38 -4 -55 -10
c-30 -10 -48 -39 -50 -70c-1 -40 6 -83 7 -123c2 -15 7 -30 5 -45c0 -4 1 -8 2 -15c5 8 8 14 10 18c5 4 9 10 15 12c10 4 21 7 33 8l117 9c17 1 35 1 52 3c30 1 44 1 74 4c23 1 45 3 66 4c54 3 100 7 155 10c16 2 33 0 48 2c25 0 39 3 63 1c36 0 74 -1 111 -1
c26 0 56 0 81 -3c38 -4 88 -6 124 -7c37 -2 73 -3 110 -2c33 0 66 2 100 2c17 0 33 -2 50 -3c12 -2 20 0 30 6c18 10 26 24 28 44c5 33 15 76 20 109zM470 259h6v1h-6v-1zM431 256c3 0 6 1 7 1v2h-7v-3zM1218 253v2c-9 0 -16 1 -23 1v-3h23zM1175 253h7v2c-3 -2 -6 -2 -7 -2
zM226 218c1 8 1 15 -3 23c-6 -11 -6 -15 3 -23zM197 214c8 3 8 4 4 26c-2 -1 -6 -1 -6 -1c-3 -9 -1 -16 2 -25zM176 207c3 10 2 19 -3 29c-4 -9 -2 -19 3 -29zM159 198c-1 12 -4 23 -6 36c-3 0 -4 2 -7 0c-1 0 -3 0 -7 -1c1 -15 0 -31 7 -48c6 6 13 9 13 13zM126 175
c4 1 5 3 4 7c-3 16 -4 31 -7 46c0 2 -2 3 -3 6c-3 -1 -7 -1 -12 -1c2 -22 3 -42 6 -64c4 3 9 5 12 6zM87 162c10 1 11 1 10 10c-3 10 -5 20 -6 29c0 9 -1 19 -1 29c-8 0 -15 0 -13 -9c1 -20 1 -39 10 -59zM63 176c-1 12 -2 22 -2 34c-12 -19 -11 -29 2 -34z" />
    <glyph glyph-name="M" unicode="M" horiz-adv-x="939" 
d="M670 63c0 1 2 1 3 2c2 5 4 9 7 15c17 29 43 47 76 52c24 3 47 5 70 10c10 2 21 6 28 12c13 9 25 20 27 36c2 17 2 34 5 51c6 41 17 77 24 119c3 9 5 23 8 32c4 11 7 22 9 32c3 21 3 41 6 61c4 19 -2 36 -14 48c-16 18 -35 34 -55 47c-38 23 -78 37 -122 48
c-79 19 -159 15 -236 -5c-59 -16 -117 -39 -175 -60c-39 -15 -76 -33 -114 -50c-5 -2 -12 -3 -20 -6c-1 10 -1 19 -2 26c-1 40 -26 57 -62 57c-21 0 -36 -3 -57 -9c-22 -5 -50 -28 -59 -50c-11 -28 -13 -47 -8 -77c2 -14 4 -28 7 -40c6 -36 6 -70 -2 -104
c-3 -16 -6 -31 -8 -47c-1 -17 -3 -36 11 -49c10 -11 23 -19 36 -27c15 -9 31 -16 47 -23c3 -1 6 -4 10 -5c66 -22 133 -36 201 -42c55 -5 108 -7 162 -2c33 3 65 8 97 21c19 7 37 12 56 16c14 5 17 2 18 -13c0 -12 -1 -25 0 -37c2 -9 4 -19 9 -28c3 -5 10 -7 17 -11z
M861 237c-45 9 -84 -6 -122 -20c-43 -15 -85 -27 -128 -41c-21 -8 -43 -14 -64 -21c-14 -4 -29 -7 -44 -9c-6 -2 -14 -2 -20 -3c-23 -2 -45 -6 -66 -6c-40 1 -78 4 -117 7c-26 2 -52 7 -77 13c-32 6 -64 11 -95 21c-26 7 -50 19 -74 30c-12 5 -18 16 -18 30c1 12 1 25 3 37
c6 39 13 78 8 117c-3 23 -4 39 -6 63c-1 7 -1 12 -1 21c18 -10 25 -14 42 -14c21 0 42 -1 65 6c15 5 31 8 46 13c14 4 28 7 42 14c88 40 176 76 269 101c27 8 55 14 83 15c13 0 25 2 38 3c55 6 109 -11 161 -28c38 -13 72 -36 102 -65c10 -11 17 -21 13 -37
c-2 -11 0 -24 -2 -36c-4 -25 -3 -44 -10 -68c-11 -41 -21 -82 -25 -123c0 -6 -2 -12 -3 -20zM78 502c-5 7 -8 15 -4 24c4 8 9 13 16 17c19 12 41 17 63 17c13 0 13 -5 2 -12c-8 -5 -20 -7 -30 -8c-18 -1 -20 -5 -18 -23l3 -20c0 -3 -12 -3 -13 -2c-9 1 -13 2 -19 7zM175 528
c1 -9 2 -15 4 -25l-44 -9c-2 8 -3 16 -4 22c15 4 28 8 44 12zM819 200c-23 -5 -46 -10 -68 -16c-1 2 -1 5 -1 6c32 12 64 29 101 21c2 -27 -2 -32 -26 -40c-6 -1 -12 -4 -20 -4c4 4 9 9 17 15l-29 -3c7 13 21 10 26 21z" />
    <glyph glyph-name="N" unicode="N" horiz-adv-x="1003" 
d="M306 425l17 2c17 0 25 2 38 6l53 18c11 4 23 8 35 12c28 12 55 25 83 37c25 10 50 19 74 29c34 14 67 30 101 43c22 9 44 17 66 22c35 7 68 11 102 4c28 -6 58 -20 77 -42c19 -21 29 -54 19 -81c-12 -36 -28 -69 -47 -101c-5 -9 -12 -17 -10 -31c5 1 11 1 12 3
c12 16 24 32 34 50c11 20 19 42 27 64c13 37 16 76 -3 113c-39 75 -156 74 -226 52c-14 -5 -29 -10 -43 -14c-77 -22 -149 -57 -220 -93c-35 -18 -69 -37 -107 -50c-41 -15 -85 -22 -129 -23c-44 0 -81 6 -120 30c-19 11 -26 21 -32 43c-5 21 9 47 39 41
c29 -5 59 -10 87 -20c42 -15 82 -15 123 3c18 7 30 21 39 37c4 6 3 11 -2 15c-7 5 -11 0 -14 -5c-22 -31 -54 -42 -90 -37c-20 2 -39 8 -57 15c-22 7 -42 16 -63 24c-19 8 -36 14 -57 13c-34 -3 -63 -29 -60 -64c2 -25 16 -45 33 -63c25 -25 58 -37 90 -47
c37 -11 93 -8 131 -5zM601 152c6 4 11 6 15 10c24 21 51 30 83 23c30 -6 61 -8 91 -3c31 4 59 17 83 39c10 8 15 18 17 32c2 21 -3 38 -19 53c-12 12 -27 21 -43 24c-40 8 -85 0 -121 -16c-52 -22 -98 -39 -149 -62l-74 -32c-52 -23 -110 -43 -165 -57
c-56 -14 -112 -19 -169 -6c-13 3 -31 9 -43 15c-25 15 -37 19 -51 48c-9 18 -21 65 -21 91c0 29 -1 53 4 81c1 9 3 17 -1 26c-12 1 -14 -7 -16 -15c-6 -35 -11 -51 -15 -87c-3 -24 -1 -68 10 -90l12 -25c15 -28 37 -51 66 -66c45 -20 77 -28 177 -13c18 3 35 8 53 13
c37 10 76 18 111 33c69 30 136 63 204 94c35 16 69 33 106 42c23 5 46 9 70 3c29 -8 37 -35 18 -58c-16 -20 -38 -31 -63 -33c-24 -2 -49 -3 -74 0c-38 5 -69 -9 -91 -39c-5 -7 -9 -14 -5 -25z" />
    <glyph glyph-name="O" unicode="O" horiz-adv-x="799" 
d="M676 625c-7 9 -14 13 -22 14c-20 2 -40 2 -60 -3c-41 -11 -81 -22 -121 -34c-22 -6 -43 -15 -64 -21c-28 -8 -56 -15 -84 -23c-39 -11 -79 -21 -120 -27c-25 -4 -50 -5 -75 1l-5 1c-3 -2 -6 -3 -7 -5c0 -2 2 -7 4 -8c5 -2 11 -3 17 -5c35 -7 69 -2 103 6
c40 9 80 19 119 30c27 7 54 17 81 25c12 4 23 9 35 12c27 7 55 13 82 22c33 10 67 17 102 14c4 0 9 1 15 1zM61 554c-5 -5 -6 -10 -1 -14c12 -9 24 -13 37 -2c13 12 16 28 6 40c-12 15 -33 21 -58 15c-34 -14 -40 -40 -40 -62c0 -7 1 -14 3 -19c7 -13 11 -20 23 -29
c15 -10 31 -17 49 -21c40 -9 80 -9 120 -8c40 2 102 7 153 23c50 15 99 33 147 51c3 1 6 3 9 4c15 6 30 13 45 18l104 29c6 2 12 7 18 8c17 2 34 4 50 4c21 -1 40 -7 55 -23c3 -3 7 -6 11 -9c3 7 3 12 -1 17c-11 18 -26 27 -46 31c-14 3 -29 2 -44 1
c-42 -4 -83 -12 -123 -24c-45 -13 -90 -27 -134 -45c-21 -8 -44 -13 -66 -21c-28 -10 -67 -22 -97 -26c-28 -5 -41 -7 -74 -11c-15 -4 -32 -5 -48 -6c-33 -2 -64 4 -96 13c-14 5 -24 13 -34 22c-6 6 -8 16 -8 26c0 24 21 42 47 42c4 0 9 0 13 -1c6 -1 12 -4 14 -11
c1 -6 -4 -14 -10 -17s-11 -4 -17 1c-2 2 -5 3 -7 4zM705 596c-6 -1 -12 -1 -18 -2v2c6 1 12 2 18 2v-2zM692 243c8 7 6 13 3 19c-10 20 -37 30 -57 20c-10 -5 -19 -12 -26 -20c-25 -31 -16 -72 20 -86c10 -4 19 -7 29 -8c5 -1 10 -1 15 -1c13 -1 31 -1 39 3c5 2 8 3 12 5
c8 4 15 9 23 14c16 11 28 28 31 49c1 9 2 19 0 28c-15 62 -68 74 -112 78c-41 3 -82 0 -121 -12c-25 -8 -50 -14 -74 -21c-25 -7 -50 -15 -75 -23c-28 -8 -56 -17 -84 -26c-17 -4 -34 -7 -51 -12c-42 -14 -85 -24 -128 -32c-20 -4 -41 -8 -61 -11c-9 -1 -19 -1 -28 2
c-11 2 -21 9 -23 22c-1 5 -5 9 -11 7s-6 -7 -5 -12c0 -1 0 -2 1 -3c7 -13 16 -25 30 -30c9 -3 18 -4 27 -5c19 0 38 3 58 5c31 3 62 11 94 16l63 12c11 2 22 4 32 7c34 11 67 23 101 35c23 8 47 16 71 23c36 11 72 23 110 28c30 4 50 7 81 4c24 -1 59 -15 72 -36
c8 -12 11 -23 11 -34c0 -14 -5 -27 -14 -39c-18 -25 -50 -30 -81 -25c-13 2 -26 5 -37 13c-16 11 -20 31 -9 46c5 7 11 13 18 18c19 12 39 7 51 -12c1 -2 3 -3 5 -6zM576 242c0 9 -4 11 -11 11c-3 0 -7 0 -10 -1c-69 -9 -134 -31 -200 -52c-45 -14 -91 -30 -138 -37
c-27 -4 -55 -6 -83 -7c-10 -1 -20 1 -28 6c-2 2 -7 2 -9 0c-4 -3 -1 -7 1 -9c3 -3 7 -6 11 -7c14 -6 29 -4 44 -4c41 0 81 6 120 17c16 4 32 9 48 13c25 8 50 14 75 23c41 14 83 27 127 35c18 3 35 8 53 12zM537 240c9 1 19 3 28 5v-2l-27 -6c0 1 -1 2 -1 3z" />
    <glyph glyph-name="P" unicode="P" horiz-adv-x="1025" 
d="M1019 351c2 -12 -1 -24 -8 -35c-6 -10 -7 -13 -15 -22c-6 -8 -28 -23 -36 -29c-30 -26 -55 -39 -89 -59c-36 -20 -66 -34 -97 -55c-26 -18 -54 -34 -84 -46c-19 -8 -38 -21 -56 -32s-35 -20 -53 -30c-18 -9 -37 -15 -57 -15c-19 1 -36 9 -53 16c-21 10 -38 20 -56 33
c-20 14 -45 24 -66 35c-13 7 -26 14 -40 21c-24 13 -49 27 -73 39l-45 23c-46 28 -92 57 -138 85c-11 7 -22 14 -30 23c-18 20 -22 43 -13 68c2 7 6 12 11 17c24 23 51 42 80 59c20 11 39 24 58 36c46 26 92 51 137 78c36 22 70 48 106 70c24 15 48 33 75 41
c38 11 66 -4 99 -20c24 -12 47 -24 70 -37l23 -12c9 -4 20 -8 29 -13c15 -9 29 -20 44 -29c30 -19 55 -46 87 -63c45 -25 89 -51 132 -79c22 -13 49 -33 57 -59c1 -3 1 -6 1 -9zM961 309c10 9 17 18 18 27c-1 17 -9 30 -19 38c-26 20 -52 41 -81 57c-19 10 -37 20 -55 32
c-34 21 -67 43 -100 64l-93 59c-17 8 -32 19 -49 27s-33 13 -48 24c-4 3 -9 6 -13 7c-11 4 -22 0 -32 -3c-43 -15 -79 -45 -117 -70c-15 -10 -29 -19 -44 -27c-42 -24 -84 -46 -125 -71c-45 -28 -88 -58 -132 -87c-8 -6 -17 -12 -24 -19c-10 -8 -12 -16 -7 -25
c11 -20 25 -35 46 -45c18 -8 35 -17 51 -27c13 -8 25 -19 38 -26c25 -15 51 -27 75 -42c30 -18 59 -37 89 -55c11 -6 22 -13 33 -18c25 -12 51 -23 76 -36c23 -12 45 -26 72 -30c31 -4 52 11 79 24c37 19 75 36 111 57c58 33 120 71 176 107c28 18 50 35 75 58z" />
    <glyph glyph-name="Q" unicode="Q" horiz-adv-x="1025" 
d="M1019 351c2 -12 -1 -24 -8 -35c-6 -10 -7 -13 -15 -22c-6 -8 -28 -23 -36 -29c-30 -26 -55 -39 -89 -59c-36 -20 -66 -34 -97 -55c-26 -18 -54 -34 -84 -46c-19 -8 -38 -21 -56 -32s-35 -20 -53 -30c-18 -9 -37 -15 -57 -15c-19 1 -36 9 -53 16c-21 10 -38 20 -56 33
c-20 14 -45 24 -66 35c-13 7 -26 14 -40 21c-24 13 -49 27 -73 39l-45 23c-46 28 -92 57 -138 85c-11 7 -22 14 -30 23c-18 20 -22 43 -13 68c2 7 6 12 11 17c24 23 51 42 80 59c20 11 39 24 58 36c46 26 92 51 137 78c36 22 70 48 106 70c24 15 48 33 75 41
c38 11 66 -4 99 -20c24 -12 47 -24 70 -37l23 -12c9 -4 20 -8 29 -13c15 -9 29 -20 44 -29c30 -19 55 -46 87 -63c45 -25 89 -51 132 -79c22 -13 49 -33 57 -59c1 -3 1 -6 1 -9zM961 309c10 9 17 18 18 27c-1 17 -9 30 -19 38c-26 20 -52 41 -81 57c-19 10 -37 20 -55 32
c-34 21 -67 43 -100 64l-93 59c-17 8 -32 19 -49 27s-33 13 -48 24c-4 3 -9 6 -13 7c-11 4 -22 0 -32 -3c-43 -15 -79 -45 -117 -70c-15 -10 -29 -19 -44 -27c-42 -24 -84 -46 -125 -71c-45 -28 -88 -58 -132 -87c-8 -6 -17 -12 -24 -19c-10 -8 -12 -16 -7 -25
c11 -20 25 -35 46 -45c18 -8 35 -17 51 -27c13 -8 25 -19 38 -26c25 -15 51 -27 75 -42c30 -18 59 -37 89 -55c11 -6 22 -13 33 -18c25 -12 51 -23 76 -36c23 -12 45 -26 72 -30c31 -4 52 11 79 24c37 19 75 36 111 57c58 33 120 71 176 107c28 18 50 35 75 58zM915 315
c-22 -20 -42 -36 -67 -52c-50 -32 -106 -66 -158 -96c-32 -19 -66 -34 -100 -51c-24 -12 -43 -25 -70 -22c-25 4 -44 17 -65 27c-22 12 -46 22 -68 33c-10 4 -20 10 -30 16c-27 16 -53 33 -80 49c-21 14 -45 24 -67 38c-12 6 -22 16 -34 23c-14 9 -30 17 -46 24
c-19 9 -31 23 -41 41c-5 8 -3 15 6 22c6 7 15 12 22 17c39 26 78 53 118 78c37 23 75 42 112 64c14 7 26 15 40 24c34 23 66 50 105 63c9 3 19 6 28 3c4 -1 9 -4 12 -7c14 -9 28 -14 43 -21s29 -17 44 -24l84 -53c29 -19 59 -39 89 -58c16 -10 33 -19 50 -28
c26 -15 49 -34 72 -51c9 -8 16 -19 17 -35c-1 -8 -7 -16 -16 -24z" />
    <glyph glyph-name="R" unicode="R" horiz-adv-x="1404" 
d="M1382 415c-12 6 -12 6 -21 -2c-9 -9 -20 -20 -29 -30c-6 -8 -12 -15 -20 -24c-12 0 -27 -2 -42 1c3 5 5 9 8 12c10 11 21 23 30 34c8 9 8 10 3 15c-5 4 -8 3 -14 -5c-15 -17 -30 -33 -43 -50c-5 -6 -9 -6 -17 -6c-24 2 -48 2 -71 3h-75c-65 0 -115 3 -179 -3
c-19 -2 -31 2 -41 14c-15 16 -33 30 -54 41c-12 6 -23 13 -34 22c-27 18 -57 38 -85 53c-3 1 -7 4 -16 -2c-11 -9 -13 -10 -24 -18c-31 -22 -60 -43 -93 -66c-21 -14 -44 -24 -63 -42c-5 -5 -12 -6 -20 -6c-10 1 -19 1 -30 1h-39c-39 0 -79 2 -118 2h-123
c-17 13 -30 24 -44 36c-5 4 -9 7 -15 3c0 -11 0 -11 6 -15c9 -6 23 -20 27 -27c-1 0 -3 -2 -4 -2c-22 -1 -41 -3 -61 -4c-3 0 -7 1 -9 4c-7 5 -13 11 -19 15c-5 6 -9 11 -12 17c-5 7 -9 10 -20 9c-3 -11 -3 -14 4 -20c5 -4 11 -7 16 -12c3 -4 7 -7 10 -10l-9 -12
c-3 -5 -6 -9 -9 -14c-8 -10 -15 -19 -23 -28c-7 -11 -7 -13 2 -22c1 0 3 -1 4 -3l9 9c13 16 25 31 35 46c5 4 9 6 15 6c14 0 29 1 42 1h9c-3 -4 -6 -6 -7 -9l-18 -18c-6 -7 -6 -9 0 -15c1 -2 3 -3 4 -5c3 3 5 3 8 6c7 7 15 14 22 22c17 16 35 25 58 25c4 -1 10 0 16 -1h79
c9 0 18 -2 28 0c49 0 98 -3 147 0c22 0 43 -2 63 -15c10 -9 22 -15 33 -23c23 -17 45 -32 66 -48c23 -15 44 -32 68 -44c8 -4 14 -4 20 2c15 10 30 21 43 33c18 13 37 27 53 40c23 17 45 32 68 49c4 4 10 6 16 6c20 3 40 4 61 6c34 1 54 0 90 0c35 0 68 0 103 -2
c25 -1 51 0 77 0c6 0 13 0 18 -3c18 -10 34 -22 52 -34c6 -5 12 -9 20 -14c5 -3 9 0 8 6c0 6 -3 11 -10 15c-9 6 -16 12 -25 18l-9 9h16c11 0 22 -1 31 0c6 0 10 -1 15 -4c16 -12 31 -23 48 -33c3 -3 7 -6 10 -3c3 10 -1 16 -10 22s-18 12 -27 20c-8 4 -15 10 -23 16
c14 21 35 32 44 55zM522 354c0 2 1 3 3 5c9 7 22 13 32 20c13 9 30 18 43 27c25 18 49 34 74 53c21 16 21 16 41 3c15 -12 34 -22 49 -34c15 -9 29 -19 44 -28c12 -6 22 -13 31 -21c5 -4 25 -17 24 -23c0 -3 -2 -5 -5 -6c-26 -25 -57 -46 -85 -68c-11 -9 -21 -18 -31 -27
c-11 -7 -22 -15 -33 -23c-6 -5 -10 -3 -16 0c-25 13 -47 31 -71 47l-72 49c-9 6 -21 10 -27 19c-1 4 -3 6 -1 7z" />
    <glyph glyph-name="S" unicode="S" horiz-adv-x="1099" 
d="M1093 260c-14 8 -19 22 -27 35c-21 34 -2 81 18 103c7 7 11 15 10 28c-8 1 -16 4 -24 2c-12 -2 -24 -7 -36 -11c-26 -8 -52 -18 -78 -24c-44 -10 -87 -16 -133 -13c-36 3 -71 3 -106 6c-42 5 -83 14 -124 22c-27 4 -52 11 -78 16c-31 6 -62 11 -94 16
c-45 7 -110 13 -158 11c-38 -2 -54 -2 -92 -5c-32 -4 -65 -12 -93 -28c-21 -13 -40 -23 -53 -44c-28 -38 -26 -70 2 -92c10 -7 21 -15 25 3c3 9 7 23 12 30c12 17 32 32 52 37c27 12 40 16 70 18c16 3 48 3 63 3c19 0 42 -2 61 -3c21 -2 40 -8 60 -13c35 -7 69 -15 103 -24
c46 -12 93 -25 140 -38c47 -14 93 -31 141 -41c40 -7 78 -15 117 -21c20 -3 40 -5 61 -6c30 -1 61 -1 92 1c20 1 40 6 60 11c4 0 7 4 8 7c2 4 1 9 1 14zM543 406c-8 2 -17 5 -25 6v3c9 -2 17 -3 26 -4c0 -2 -1 -3 -1 -5zM915 371c4 1 6 2 8 2s2 -1 7 -2c-5 0 -6 -1 -9 -1
c-1 0 -3 1 -6 1z" />
    <glyph glyph-name="T" unicode="T" horiz-adv-x="976" 
d="M37 259c2 2 5 3 7 5c12 14 22 30 22 49c0 10 -1 19 -1 28c0 10 3 18 10 25c5 6 12 10 19 8c12 -2 24 -5 34 -10c20 -10 37 -24 54 -37c18 -13 35 -26 53 -38c16 -10 33 -19 50 -28c2 -1 3 -2 5 -4c3 -2 6 -4 9 -5c30 -14 61 -26 93 -35c17 -5 53 -9 79 -5
c25 5 38 17 46 33c4 14 9 32 10 48c0 16 -2 31 -7 46c-3 10 -6 21 -8 31c-1 4 0 8 1 11c2 6 7 8 13 5c5 -4 10 -9 15 -14c4 -4 6 -9 10 -12c17 -16 39 -36 66 -55c20 -14 39 -22 62 -32c16 -6 32 -9 48 -14c24 -7 48 -7 73 -5c7 0 15 1 22 2c10 1 21 2 31 5
c38 11 71 31 97 61c4 5 8 11 11 17c6 12 9 25 10 39c1 13 0 26 -4 39c-4 18 -17 29 -34 36c-7 3 -14 6 -21 10c-9 6 -17 12 -14 26c-4 -1 -6 -2 -8 -3c-3 -4 -2 -15 2 -19c7 -6 13 -13 22 -16l12 -6c15 -9 22 -25 18 -42c-6 -26 -22 -41 -47 -46c-24 -5 -47 -7 -71 -5
c-19 1 -39 3 -57 11c-9 3 -17 6 -26 10l-88 37c-18 8 -36 15 -55 23c-1 1 -3 1 -5 2c-10 2 -19 5 -29 6c-20 4 -41 6 -58 -5c-9 -6 -25 -23 -22 -40c2 -10 3 -20 5 -30c1 -7 -1 -13 -7 -17c-10 -8 -21 -9 -32 -6c-30 9 -59 21 -88 32l-53 18c-7 2 -13 4 -19 7l-20 9
c-37 17 -75 30 -115 31c-16 1 -33 2 -49 0s-32 -8 -47 -17c-15 -8 -25 -22 -29 -38c-4 -15 -3 -30 2 -45c2 -3 3 -7 5 -10c6 -21 14 -42 -4 -62c-2 -3 -2 -6 2 -9z" />
    <glyph glyph-name="U" unicode="U" horiz-adv-x="951" 
d="M12 262c3 1 5 2 7 4c13 14 22 30 22 50v27c0 10 3 18 9 25c5 6 12 10 19 9c12 -3 24 -6 34 -11c20 -10 37 -24 55 -37c17 -13 34 -26 53 -38c15 -10 32 -19 49 -28l6 -3c3 -2 6 -5 9 -6c30 -14 60 -26 92 -35c18 -5 54 -9 79 -5c25 5 38 17 46 33c5 15 9 32 10 48
s-2 31 -7 46c-3 10 -6 21 -8 32c-1 3 0 7 1 10c2 6 7 8 13 5c6 -4 11 -9 16 -14c3 -3 6 -8 10 -12l16 -19c12 -15 26 -27 42 -37c22 -13 46 -21 69 -31c16 -6 33 -9 49 -14c23 -7 48 -6 72 -5c7 0 15 1 22 2c11 2 22 2 32 5c37 11 66 26 92 56c5 5 12 16 15 22
c6 13 9 26 10 39s0 26 -3 39c-5 18 -18 29 -35 36c-7 3 -14 6 -21 10c-9 6 -16 12 -14 26c-3 -1 -6 -1 -7 -3c-4 -4 -3 -15 1 -19c7 -6 14 -13 23 -16c4 -2 8 -4 11 -6c15 -9 22 -25 18 -42c-6 -25 -22 -41 -47 -46c-23 -5 -47 -7 -71 -5c-19 1 -39 3 -57 11
c-8 3 -17 6 -26 10c-29 12 -58 25 -88 37c-18 8 -36 16 -54 23c-2 1 -4 2 -6 2c-9 2 -19 6 -28 7c-20 3 -40 7 -58 -3c-6 -3 -13 -8 -16 -14c-6 -11 -8 -18 -7 -29c2 -10 4 -19 5 -29c1 -8 -1 -14 -7 -18c-10 -7 -21 -9 -32 -6c-30 9 -59 21 -88 32l-53 18c-6 2 -13 4 -19 7
c-7 3 -13 7 -20 10c-37 16 -74 29 -115 31c-16 0 -32 1 -48 -1c-17 -2 -33 -8 -48 -17c-15 -8 -24 -21 -29 -38c-4 -15 -3 -30 3 -44c1 -4 3 -8 4 -11c7 -21 14 -42 -4 -62c-2 -2 -2 -5 2 -8zM475 377c-2 9 -4 19 -4 28c-1 4 2 9 5 13c11 15 24 19 41 19c23 0 44 -8 65 -16
l12 -6c29 -12 59 -26 88 -38c23 -10 46 -18 69 -27c13 -5 26 -5 40 -6c4 -1 8 -1 13 -1h11c8 1 17 3 26 3c14 1 28 4 42 8c24 8 36 26 41 50c1 5 2 10 2 16c1 -3 3 -4 3 -6c6 -25 3 -50 -8 -74c-3 -6 -12 -17 -17 -21c-15 -15 -28 -21 -46 -31c-15 -8 -32 -13 -50 -16
c-59 -11 -105 -2 -153 12c-26 9 -48 21 -71 35c-17 10 -29 25 -42 39c-8 10 -17 19 -25 28c-6 5 -12 9 -20 9c-11 1 -16 -2 -19 -12c-1 -2 -1 -4 -1 -6h-2zM479 362c4 -16 10 -31 12 -47c2 -10 1 -21 -1 -31c-1 -9 -5 -18 -7 -27c-6 -13 -22 -27 -43 -30
c-30 -3 -69 4 -96 11l-10 3c-6 2 -11 4 -16 8c-4 3 -9 4 -13 6c-19 9 -38 17 -57 27c-21 11 -42 24 -61 40c-9 7 -18 13 -27 19c-15 10 -30 19 -45 28c-2 2 -5 3 -7 4c-5 2 -10 3 -13 7c-2 2 -6 3 -9 4c-30 5 -48 -7 -50 -39c0 -7 1 -15 1 -23c0 -3 -1 -6 -1 -10
c-1 1 -2 1 -2 2c-5 12 -9 24 -13 36c-7 23 -1 44 16 60c9 9 21 13 32 16c39 12 78 9 117 -2c22 -6 44 -14 66 -25c12 -6 24 -11 38 -15c21 -6 41 -14 62 -22c15 -5 30 -11 46 -17l29 -9c11 -3 22 -2 33 3c7 3 12 8 15 16c1 2 1 4 2 7h2z" />
    <glyph glyph-name="V" unicode="V" horiz-adv-x="1642" 
d="M1637 312c-6 1 -13 2 -20 2l-101 3c-34 0 -67 0 -100 1c-34 0 -57 15 -71 46c-9 23 -19 44 -31 67c-20 41 -52 65 -100 64c-21 -1 -42 0 -63 1c-23 1 -46 3 -69 3c-52 2 -336 -8 -388 -7c-13 1 -25 3 -38 3c-35 2 -69 2 -104 3c-21 0 -41 -1 -62 -1h-36
c-12 0 -93 7 -127 -46c-9 -15 -10 -26 -19 -42s-13 -30 -22 -46c-2 -3 -12 -19 -16 -22c-23 -15 -49 -24 -77 -25c-43 -1 -128 -1 -170 -2c-8 0 -17 1 -18 -10c-1 -6 4 -10 17 -10c31 -1 105 -1 137 -1c2 0 80 -10 97 -25c23 -22 15 -7 52 -99c14 -37 45 -62 87 -66
c16 -2 31 1 47 1c38 1 71 -1 109 -3c63 -4 115 -4 178 -1c22 1 276 -4 298 -4c22 1 45 0 67 1c39 2 77 5 116 8c10 1 21 4 30 8c34 13 58 38 77 67c20 31 46 73 76 94c15 10 31 20 51 19c50 -1 101 -1 151 -1c10 0 19 0 28 1c10 1 15 7 14 19zM264 298c-5 3 -1 9 3 11
c12 9 16 13 27 24c16 17 29 49 36 72c17 38 45 75 108 74c59 -2 105 -5 163 -6c25 -1 49 1 74 1c24 0 48 -3 72 -4c37 -1 306 9 344 8c20 -1 41 -2 61 -2c15 0 29 2 44 1c49 -3 79 -2 104 -60c11 -26 24 -49 37 -75c10 -20 26 -33 47 -39c2 0 4 -1 5 -2c1 0 2 -1 3 -2
c-1 -1 -1 -3 -1 -3c-38 -22 -63 -75 -91 -106c-13 -14 -26 -26 -39 -39c-17 -18 -39 -21 -44 -22c-28 -10 -48 -5 -79 -7c-10 0 -26 -2 -37 -2c-28 -2 -57 -2 -86 -3c-20 -1 -272 2 -292 2c-47 -1 -84 -1 -130 -1c-37 1 -74 4 -111 5c-21 0 -36 -1 -57 0c-14 0 -35 3 -49 7
c-25 6 -40 23 -47 48c-5 14 -19 37 -23 52c-7 34 -12 50 -42 68zM1346 296c0 13 -19 20 -25 29c-13 17 -23 36 -33 54c-7 12 -11 23 -18 34c-15 22 -34 40 -63 39c-7 0 -13 2 -19 2c-34 2 -68 6 -102 6c-26 1 -274 -9 -300 -10c-28 0 -65 1 -93 2c-11 1 -27 -2 -38 0
c-77 7 -110 2 -192 4c-53 -5 -73 -5 -94 -51c-14 -31 -40 -75 -63 -99c-6 -6 -6 -13 1 -20c4 -3 5 -8 9 -13c24 -29 26 -52 47 -90c16 -29 33 -42 110 -43c35 0 59 -2 93 -1l102 2c52 1 335 -4 386 -1c41 2 81 5 121 10c15 1 29 8 43 14c10 4 19 9 29 14c6 4 13 8 18 13
c20 19 39 58 59 77c7 7 16 12 20 21c1 3 2 5 2 7zM324 293c15 18 26 33 36 53c11 23 24 45 34 64c5 11 30 27 43 27c42 2 61 0 103 1c44 1 111 5 155 0c56 -5 285 6 328 7h21c56 3 112 0 167 -9c26 -5 44 -32 53 -56s20 -33 34 -53c4 -6 9 -12 14 -18c3 -4 8 -7 12 -10
c4 -6 -22 -32 -26 -38c-9 -14 -17 -31 -30 -43c-32 -30 -67 -55 -114 -54c-17 0 -34 -4 -51 -5l-74 -3c-27 -1 -286 5 -314 4l-121 -3c-31 -1 -57 -1 -87 -1s-44 -4 -62 -1c-32 5 -53 8 -70 45c-18 39 -19 49 -42 80c-4 4 -7 10 -9 13z" />
    <glyph glyph-name="W" unicode="W" horiz-adv-x="1381" 
d="M1376 404c0 -4 1 -9 0 -14c0 -8 0 -18 -3 -25c-19 -38 -27 -79 -30 -121c-2 -11 -6 -22 -10 -32c-1 -3 -2 -5 -4 -7c-2 -3 -6 -5 -9 -7c-13 -9 -31 -8 -44 -19l-30 -27c22 -20 51 -29 68 -52c-4 -9 -9 -10 -16 -9c-24 3 -49 5 -74 7c-29 2 -59 4 -88 5
c-46 2 -93 7 -138 16c-16 3 -31 4 -47 6c-23 3 -27 7 -21 30c4 16 8 33 13 50c-6 3 -12 6 -18 6c-308 5 -400 -3 -423 -3c-9 0 -18 -3 -29 -2c8 -15 31 -50 16 -67c-1 -1 -3 -2 -5 -3c-19 -10 -43 -8 -65 -10c-23 -2 -47 -4 -70 -7c-35 -3 -69 -7 -104 -10
c-15 -1 -30 -4 -45 -6c-8 -1 -16 0 -24 -1c-34 -3 -68 -3 -101 -14c-6 -2 -12 0 -17 5c0 4 1 9 2 11c27 21 53 40 79 60c-10 11 -19 22 -28 33c-1 1 -3 2 -4 2l-44 12l-18 3c-16 4 -22 16 -24 31s-1 31 4 46c7 21 6 41 -3 61c-6 15 -18 41 -17 57c2 19 9 30 27 33
c18 4 38 5 57 7h24s122 2 278 7c42 1 87 -1 133 1c190 6 395 -1 496 -4c44 -1 88 -2 133 -5l54 -3c29 -2 57 -4 86 -5c18 -1 37 -4 56 -6c18 -1 27 -12 27 -30zM1337 362c5 10 7 19 6 30c-2 16 -3 21 -25 23c-23 1 -44 4 -66 5c-24 1 -47 0 -72 4c-51 8 -103 4 -154 8
c-24 1 -174 4 -345 3c-48 0 -98 2 -148 0c-49 -2 -96 0 -141 -1c-134 -4 -239 -6 -243 -6c-28 1 -66 1 -94 -3c-10 -1 -14 -5 -16 -15c0 -4 2 -18 3 -22c2 -12 7 -23 11 -34c7 -17 11 -36 6 -54c-3 -16 -5 -31 -8 -46c0 -4 0 -8 2 -10c6 -7 13 -13 23 -12c9 1 24 1 33 1
c38 3 64 2 103 4c19 1 52 3 70 0c40 -5 75 -5 114 -4c12 1 24 2 35 1c37 -2 106 1 142 2c-23 -1 317 -1 320 -1c20 0 39 -4 58 -2c44 4 88 -2 133 -6c21 -2 45 2 65 -3c46 -5 76 -12 116 -9c27 2 45 17 47 43c3 36 11 71 25 104zM125 116c91 8 182 16 274 25c0 0 -1 1 -1 2
c-39 9 -79 19 -118 29s-80 9 -121 14c2 -10 3 -18 4 -26c1 -10 -1 -12 -9 -17l-33 -25c2 -1 3 -2 4 -2zM1227 161c6 7 12 12 21 21c-90 -13 -178 -23 -263 -44c23 -6 46 -5 70 -7c23 -2 46 -5 69 -7c24 -2 48 -3 72 -3c23 -1 46 -6 69 -4c-3 3 -7 6 -10 8c-6 2 -11 4 -16 7
c-4 2 -7 4 -11 7c-9 8 -9 13 -1 22z" />
    <glyph glyph-name="X" unicode="X" horiz-adv-x="742" 
d="M721 570c2 -10 -1 -21 -1 -31c-1 -8 -3 -16 -4 -24l-3 -23l-3 -21c-2 -21 -16 -36 -36 -39c-41 -7 -81 -13 -122 -19l-34 -6c-1 -1 -2 -1 -3 -4l14 -3c39 -8 79 -16 119 -24c12 -3 16 -1 29 -4c26 -10 31 -19 29 -47c-1 -12 -2 -24 0 -37c1 -10 -2 -38 -4 -48
c-2 -21 -4 -19 -22 -30c-17 -11 -41 -20 -60 -24c-22 -5 -44 -12 -66 -18c-4 -1 -8 -1 -12 -2c-3 0 -6 0 -9 -1c-14 -3 -29 -7 -44 -11c-27 -7 -55 -13 -83 -20c-10 -3 -20 -6 -30 -10l-58 -18c-17 -6 -34 -11 -51 -16c-4 -1 -7 -3 -13 -6c13 -9 23 -18 35 -25
c22 -14 44 -33 66 -47c8 -5 25 -14 25 -25c0 -8 -12 -5 -21 -6c-27 -3 -55 -4 -83 -3c-2 0 -4 0 -7 -1c1 -1 2 -2 2 -3c15 -14 26 -37 36 -54c4 -7 14 -22 19 -27c8 -12 11 -20 5 -28c-3 -3 -16 -2 -21 0c-4 1 -9 2 -13 4c-29 16 -53 41 -82 58c-19 11 -42 23 -61 35
c-12 9 -25 14 -37 22c-14 10 -27 14 -41 23c-5 4 -11 7 -16 10c-21 10 -41 15 -40 42c1 18 9 36 15 53c6 15 7 31 10 47c2 15 5 29 9 43c2 9 9 15 17 18l23 9c27 7 54 15 81 22c29 7 59 12 88 19c17 4 35 10 52 15v2c-2 1 -4 1 -6 2l-52 6c-22 3 -43 5 -65 8
c-9 1 -19 4 -28 5c-15 2 -30 4 -45 5c-18 1 -35 1 -53 1c-8 0 -15 1 -23 1c-6 0 -9 3 -10 7c-2 6 -4 13 -3 19c1 9 4 19 8 28c7 17 16 33 18 52c1 8 1 16 2 25c1 15 1 29 3 44c1 12 9 23 21 27c6 2 13 2 19 3c17 3 34 9 52 10c26 1 51 7 77 9c9 0 18 3 27 5l29 3
c11 0 23 3 34 5s22 2 34 3c24 2 49 8 74 11l3 2c-3 3 -5 5 -8 7c-14 7 -28 14 -41 21c-9 5 -18 11 -26 17c-7 4 -5 11 -6 18c0 1 4 4 6 4c16 1 32 2 48 2c13 -1 26 -2 39 -2c4 -1 9 0 13 1c2 8 0 15 -2 22c-4 14 -9 27 -14 41c-2 9 -3 18 2 26c4 5 4 12 6 18l3 7
c3 -1 5 -1 6 -3c14 -9 27 -19 41 -28c22 -15 45 -31 68 -45c8 -4 17 -10 25 -14c4 -2 8 -4 11 -6c24 -14 48 -22 72 -36c6 -4 12 -7 19 -10c15 -9 24 -22 28 -38zM470 665c-1 -1 -2 -2 -2 -3c26 -15 52 -30 77 -45c2 -1 4 0 5 -1c0 1 1 2 1 2c-27 17 -53 33 -81 47zM569 589
c-6 7 -86 50 -94 51c3 -3 4 -5 6 -6c27 -14 53 -29 79 -43c3 -1 6 -1 9 -2zM538 589l-53 29c-1 0 -1 1 -2 1c-2 1 -4 1 -6 1c-1 0 -1 -1 -1 -2l60 -31c1 0 1 1 2 2zM426 603l32 -17c1 0 1 1 1 1c-10 7 -20 13 -33 16zM706 558c3 11 -2 20 -10 27c-5 4 -8 4 -14 2
c-7 -3 -15 -5 -23 -6c-28 -4 -57 -6 -86 -10c-23 -3 -46 -8 -70 -12c-22 -3 -43 -6 -65 -10l-44 -6c-20 -2 -41 -1 -60 -5s-38 -7 -57 -10c-24 -4 -47 -8 -71 -11c-9 -2 -18 -3 -26 -4c-18 -2 -37 -4 -55 -7c-12 -2 -24 -5 -35 -9c-8 -2 -12 -7 -13 -15
c-1 -17 -3 -34 -4 -50c-1 -19 -3 -38 -12 -55c-6 -12 -11 -24 -14 -37c-1 -2 -1 -5 -2 -9c5 0 8 -1 12 -1c16 2 32 3 48 7c30 7 60 16 91 23c38 10 76 22 116 26l22 4c4 1 8 2 11 3c4 1 7 0 10 1c1 0 1 0 2 1c8 2 16 5 25 5c33 7 65 13 98 19c39 7 78 13 117 20
c26 4 52 9 77 14c11 3 17 10 19 20c1 5 2 9 2 13l6 41c1 10 3 21 5 31zM443 384v2l-18 3v-2zM481 374h11c-2 1 -4 1 -6 1c-2 1 -3 1 -5 1v-2zM540 318c-31 -9 -61 -18 -92 -23c-32 -6 -64 -13 -96 -20c-22 -4 -44 -11 -66 -16l-95 -21l-66 -18c-11 -3 -23 -6 -33 -10
s-21 -8 -24 -19c-4 -13 -8 -26 -10 -39c-2 -22 -6 -42 -15 -62c-6 -14 -10 -28 -7 -45c6 -1 12 -2 18 -2c13 2 27 5 41 8c23 7 46 15 69 22c10 4 18 9 27 12c26 8 51 16 77 23c51 16 101 32 152 47c54 16 108 32 163 43c27 5 62 13 87 26c4 2 6 5 10 8c9 11 11 26 11 40
c0 22 -1 34 -1 56c0 12 -13 20 -22 19c-23 -1 -33 -2 -56 -10c-23 -7 -48 -11 -72 -19zM207 343c18 -4 35 -7 52 -11c-11 7 -39 13 -52 11zM450 334l-16 3v-1l15 -3s0 1 1 1zM290 325v2c-2 0 -5 1 -7 1v-1c1 -1 2 -2 3 -2h4zM308 320c0 0 0 1 1 1c-3 1 -5 1 -7 1v-1
c2 0 4 -1 6 -1zM238 53c2 -1 4 -1 6 -2c-1 1 -3 2 -5 4c-1 -1 -1 -1 -1 -2zM283 26c-12 9 -23 17 -36 23v-2c11 -7 22 -15 32 -22c1 0 2 0 4 1zM149 38c2 -1 4 -1 6 -2c-1 1 -3 3 -5 4c0 -1 0 -1 -1 -2zM238 36c1 -4 2 -6 6 -4c-2 1 -4 2 -6 4zM204 2c3 -2 6 -2 9 2l-30 18
c-8 5 -16 7 -24 11l4 -3c14 -9 28 -17 41 -28zM299 25l-8 6c0 -4 2 -7 8 -6zM223 26c1 0 1 1 1 1l-4 3c-1 0 -1 -1 -2 -1c2 -1 4 -2 5 -3zM256 21c0 0 1 1 1 2c-1 1 -3 2 -5 3c0 -1 0 -1 -1 -2zM317 12c-4 4 -7 7 -11 9c3 -10 3 -10 11 -9zM289 -69c-1 -1 -2 -1 -2 -2
c0 -3 2 -6 7 -6zM274 -85c-3 1 -6 3 -9 5c1 -3 3 -5 5 -6c1 0 2 -1 3 -1c0 0 0 1 1 2zM286 -94c0 -1 0 -1 -1 -2l6 -3c1 0 1 1 1 1z" />
    <glyph glyph-name="Y" unicode="Y" horiz-adv-x="1173" 
d="M993 465c0 -25 5 -83 -7 -114c-5 -14 -8 -15 -21 -21c-8 -4 -23 -2 -31 -2c-60 -4 -118 -3 -177 0c-98 2 -197 8 -295 4c-81 -3 -160 -11 -242 -2c-7 2 -18 2 -23 5c-14 9 -12 32 -12 48c0 22 1 43 0 65c-3 19 -8 39 10 51c21 12 46 9 69 11c36 0 85 -3 121 -3
c72 -1 142 0 213 1c54 2 108 0 163 -1c54 -1 109 -3 165 1c23 2 51 3 62 -16c4 -8 5 -19 5 -27zM887 260c0 -4 1 -6 4 -6c1 -2 1 -2 2 -2h19c8 2 18 0 27 0c18 -1 35 0 53 -1c36 -3 66 -1 102 -1h38c7 1 31 -2 31 8c1 8 -12 15 -16 19c-9 6 -19 14 -27 23
c-7 5 -13 14 -11 22c2 3 6 6 8 8c11 9 21 15 31 23c3 3 4 4 6 7c1 7 -8 10 -15 11c-38 3 -70 0 -103 3c-13 0 -23 5 -27 -2c-7 -6 -4 -21 -5 -31c-2 -9 -4 -16 -12 -21c-14 -8 -60 -8 -79 -8h-8c-9 0 -17 -2 -18 -12c-2 -6 0 -13 0 -19c0 -4 -2 -14 0 -21zM287 259
c0 -4 -1 -7 -4 -7c0 -1 -1 -1 -3 -1h-19c-8 1 -17 0 -27 0c-17 -1 -35 0 -52 -1c-36 -3 -72 -2 -108 -2h-38c-6 2 -31 -1 -31 8c-1 8 13 15 17 19c9 7 18 15 27 23c6 6 13 15 10 23c-1 3 -5 5 -8 8l-31 23c-2 3 -4 4 -5 7c-2 7 8 9 15 11c37 2 70 0 107 2c14 0 23 6 27 -1
c7 -7 4 -22 6 -31c1 -10 4 -16 12 -22c13 -8 61 -8 78 -8h8c10 0 18 -1 19 -12c1 -5 0 -12 0 -19c0 -4 1 -13 0 -20z" />
    <glyph glyph-name="Z" unicode="Z" horiz-adv-x="555" 
d="M538 600c1 -102 -5 -369 -5 -377c-2 -58 -5 -116 -7 -173c-1 -12 -4 -23 -6 -34c-5 -23 -23 -27 -41 -11c-9 8 -19 16 -27 25c-27 32 -59 64 -85 95c-24 28 -46 62 -78 79c-18 6 -33 -5 -45 -18c-18 -18 -37 -49 -54 -67c-33 -34 -64 -78 -102 -104
c-9 -6 -19 -12 -29 -16c-17 -5 -32 1 -35 17c-2 9 -3 17 -4 26c0 84 3 185 1 273c2 27 -1 54 1 81c2 57 2 153 2 176c2 50 -2 95 75 93c72 -2 121 -7 194 -3c50 2 100 1 151 2c9 0 15 2 25 2c9 1 21 0 24 -2c33 -14 45 -28 45 -64zM464 50l1 -1c-3 33 -3 94 -4 121
c-4 39 1 78 -1 116c-3 58 -2 141 0 199c1 42 -4 84 -1 126l3 23c-37 10 -320 9 -355 -4c-6 -46 -5 -105 -8 -151c-2 -48 -2 -122 -3 -171c-2 -71 -4 -162 -5 -234c0 -6 1 -11 1 -17c2 -1 4 -1 6 -2c25 25 45 52 70 78c20 21 54 64 72 84c9 9 32 17 47 14
c36 -8 47 -32 73 -61c33 -37 69 -81 104 -120zM77 616c1 5 1 10 1 16c-12 -1 -15 -2 -23 -3c1 -27 -3 -65 -4 -90c0 -57 -1 -135 -4 -196c-4 -17 0 -34 0 -51c2 -76 1 -172 2 -247c0 -6 2 -11 3 -16c3 -1 5 -1 8 -1c1 6 4 13 4 19c2 103 12 221 8 324c3 35 0 98 2 132
c3 33 0 80 3 113zM505 361c1 74 4 175 5 250c0 5 0 10 -1 15c-2 3 -5 3 -10 4c-7 1 -10 -1 -10 -5c-5 -29 -1 -58 -3 -87c-4 -45 -4 -96 -2 -140c-1 -36 -4 -92 -3 -128c1 -12 2 -24 2 -36c3 -50 -1 -146 2 -196c1 -4 1 -7 1 -11c1 -2 3 -4 7 -4c9 0 9 39 9 55
c2 52 1 104 2 155c1 43 0 85 1 128z" />
    <glyph glyph-name="a" unicode="a" horiz-adv-x="1038" 
d="M805 385c6 4 11 7 18 10c27 13 57 17 86 14c41 -5 83 -39 97 -87c4 -12 6 -23 6 -35c0 -9 -1 -17 -3 -27c0 -13 -8 -35 -17 -46c-11 -13 -21 -22 -35 -31c-9 -5 -18 -8 -28 -11c-27 -7 -52 -5 -74 15c-3 3 -8 5 -11 0c-1 -3 0 -8 2 -11c6 -6 13 -13 21 -18
c21 -12 43 -10 66 -6c34 7 57 30 78 55c5 6 11 18 13 25c7 21 10 39 10 58c0 23 -6 46 -20 71c-11 21 -30 40 -53 52c-19 10 -37 17 -61 17c-35 0 -70 -3 -101 -22l-5 -2c-9 12 -21 20 -34 25c-19 6 -41 11 -62 11c-26 0 -52 -10 -72 -17c-55 -21 -99 -50 -151 -77
c-41 -20 -79 -44 -119 -67c-50 -28 -103 -48 -161 -58c-51 -8 -96 2 -136 33c-28 22 -41 55 -32 85c10 37 36 58 73 67c16 4 33 2 45 -13c1 -2 4 -4 6 -6c4 -3 9 -5 12 -1c2 2 2 8 0 11c-10 21 -43 38 -66 34c-48 -9 -90 -43 -92 -102c0 -23 6 -52 22 -70
c47 -51 102 -72 173 -60c41 7 79 21 116 38c39 18 76 39 113 60c69 40 134 75 208 107c22 9 50 15 74 14c20 0 38 -6 56 -15c3 -1 6 -5 11 -8c-4 -3 -7 -5 -9 -7c-14 -12 -28 -22 -39 -35c-12 -13 -16 -28 -10 -45c3 -9 16 -16 25 -16c23 0 44 11 52 31c5 11 7 23 9 36
c1 7 -1 15 -1 24zM785 373c5 -32 -18 -62 -37 -62c-4 0 -7 1 -10 3c-4 7 -4 14 0 21c7 10 32 31 47 38z" />
    <glyph glyph-name="b" unicode="b" horiz-adv-x="1039" 
d="M234 385c0 -9 -2 -17 -1 -24c2 -13 4 -25 9 -36c8 -20 29 -31 52 -31c9 0 22 7 25 16c6 17 2 32 -10 45c-11 13 -25 23 -39 35c-2 2 -5 4 -9 7c5 3 8 7 11 8c18 9 36 15 56 15c24 1 52 -5 74 -14c74 -32 139 -67 208 -107c37 -21 74 -42 113 -60c37 -17 75 -31 116 -38
c71 -12 128 9 175 60c16 18 20 47 20 70c-2 59 -44 93 -92 102c-23 4 -56 -13 -66 -34c-2 -3 -2 -9 0 -11c3 -4 8 -2 12 1c2 2 5 4 6 6c12 15 29 17 45 13c37 -9 63 -30 73 -67c9 -30 -4 -63 -32 -85c-40 -31 -85 -41 -136 -33c-58 10 -111 30 -161 58
c-40 23 -78 47 -119 67c-52 27 -96 56 -151 77c-20 7 -46 17 -72 17c-21 0 -43 -5 -62 -11c-13 -5 -25 -13 -34 -25l-5 2c-31 19 -66 22 -101 22c-24 0 -42 -7 -61 -17c-23 -12 -42 -31 -53 -52c-14 -25 -20 -48 -20 -71c0 -19 3 -37 10 -58c2 -7 8 -19 13 -25
c21 -25 44 -48 78 -55c23 -4 45 -6 66 6c8 5 15 12 21 18c2 3 3 8 2 11c-3 5 -8 3 -11 0c-22 -20 -47 -22 -74 -15c-10 3 -19 6 -28 11c-14 9 -24 18 -35 31c-9 11 -17 33 -17 46c-2 10 -3 18 -3 27c0 12 2 23 6 35c14 48 56 82 97 87c29 3 59 -1 86 -14c7 -3 12 -6 18 -10z
M254 373c15 -7 40 -28 47 -38c4 -7 4 -14 0 -21c-3 -2 -6 -3 -10 -3c-19 0 -42 30 -37 62z" />
    <glyph glyph-name="c" unicode="c" horiz-adv-x="625" 
d="M581 336c22 0 41 -21 40 -44c-2 -25 -13 -46 -34 -63c-35 -26 -75 -44 -114 -45h-10c-37 2 -76 10 -106 30c-4 2 -8 5 -11 8l-12 9c-2 2 -23 17 -24 18c-14 -14 -28 -26 -45 -36c-32 -22 -65 -33 -105 -34h-10c-44 0 -79 15 -112 41c-21 15 -32 36 -32 61
c-2 23 18 45 39 46c14 0 27 -8 30 -20c4 -11 -3 -25 -11 -25c-5 0 -5 7 -6 10s-1 5 -10 6c-9 0 -18 -9 -16 -22c2 -18 9 -34 28 -46c45 -27 91 -28 138 -17c22 4 44 14 63 28c5 4 11 9 16 14c9 8 18 21 15 17l-5 9c-19 24 -23 52 -23 83c0 25 20 47 43 48
c33 3 60 -32 53 -66c-2 -9 -4 -18 -7 -27c-5 -12 -9 -24 -14 -35l-7 -12c0 -1 1 -1 1 -2c25 -28 55 -47 91 -54c47 -9 94 -6 141 23c18 12 25 28 29 46c2 13 -8 22 -16 23c-7 0 -9 -4 -10 -7s2 -7 -3 -9c-10 0 -17 13 -14 24c4 12 16 20 30 20zM312 290c2 -5 4 -3 6 2
c12 25 24 50 13 76c-5 12 -13 18 -26 17c-13 0 -21 -19 -17 -30c4 -22 3 -33 16 -54c3 -4 5 -8 8 -11zM457 194c26 -2 66 -1 84 19c-25 -17 -57 -16 -84 -19zM140 189c27 -5 68 -5 86 13c-25 -15 -59 -12 -86 -13z" />
    <glyph glyph-name="d" unicode="d" 
d="M301 501c10 2 10 7 8 13c-2 7 -1 15 -1 22c-1 10 7 22 15 28c9 9 23 19 39 19c51 4 92 -5 141 -21c25 -8 52 -16 78 -22c14 -4 27 -7 41 -10c19 -3 38 -3 57 3c24 8 42 32 34 58c-2 3 -3 8 -8 6c-3 -2 -5 -6 -5 -10c2 -22 -11 -36 -32 -39c-25 -4 -51 -2 -76 4
c-40 12 -79 24 -119 35c-40 10 -71 17 -112 14c-26 -2 -48 -14 -61 -36c-2 -5 -9 -17 -9 -24c-1 -3 -1 -6 -1 -11c-16 5 -31 9 -45 12c-51 8 -91 3 -130 -23c-30 -20 -54 -57 -49 -94c1 -16 6 -30 14 -43l8 -13c-13 -6 -22 -12 -34 -20c-30 -22 -48 -64 -49 -91
c-1 -16 2 -32 5 -46c2 -17 8 -35 17 -51c18 -28 44 -48 76 -58c15 -5 35 -7 50 -6c12 2 27 8 33 18c4 4 4 8 -1 17c-3 -3 -6 -5 -8 -8c-8 -9 -24 -11 -36 -9c-48 3 -80 24 -102 64c-15 25 -23 54 -20 82c4 40 33 72 58 85l28 12c5 2 8 5 12 8c3 5 0 8 -5 11c-5 2 -8 5 -11 8
c-16 23 -24 47 -15 72c8 24 28 44 48 54c16 6 32 8 49 13c31 6 58 0 86 -5c13 -3 22 -10 32 -18z" />
    <glyph glyph-name="e" unicode="e" 
d="M419 501c10 8 19 15 32 18c28 5 55 11 86 5c17 -5 33 -7 49 -13c20 -10 40 -30 48 -54c9 -25 1 -49 -15 -72c-3 -3 -6 -6 -11 -8c-5 -3 -8 -6 -5 -11c4 -3 7 -6 12 -8l28 -12c25 -13 54 -45 58 -85c3 -28 -5 -57 -20 -82c-22 -40 -54 -61 -102 -64c-12 -2 -28 0 -36 9
c-2 3 -5 5 -8 8c-5 -9 -5 -13 -1 -17c6 -10 21 -16 33 -18c15 -1 35 1 50 6c32 10 58 30 76 58c9 16 15 34 17 51c3 14 6 30 5 46c-1 27 -19 69 -49 91c-12 8 -21 14 -34 20l8 13c8 13 13 27 14 43c5 37 -19 74 -49 94c-39 26 -79 31 -130 23c-14 -3 -29 -7 -45 -12
c0 5 0 8 -1 11c0 7 -7 19 -9 24c-13 22 -35 34 -61 36c-41 3 -72 -4 -112 -14c-40 -11 -79 -23 -119 -35c-25 -6 -51 -8 -76 -4c-21 3 -34 17 -32 39c0 4 -2 8 -5 10c-5 2 -6 -3 -8 -6c-8 -26 10 -50 34 -58c19 -6 38 -6 57 -3c14 3 27 6 41 10c26 6 53 14 78 22
c49 16 90 25 141 21c16 0 30 -10 39 -19c8 -6 16 -18 15 -28c0 -7 1 -15 -1 -22c-2 -6 -2 -11 8 -13z" />
    <glyph glyph-name="f" unicode="f" 
d="M301 197c-10 -8 -19 -15 -32 -18c-28 -5 -55 -11 -86 -5c-17 5 -33 7 -49 13c-20 10 -40 30 -48 54c-9 25 -1 49 15 72c3 3 6 6 11 8c5 3 8 6 5 11c-4 3 -7 6 -12 8l-28 12c-25 13 -54 45 -58 85c-3 28 5 57 20 82c22 40 54 61 102 64c12 2 28 0 36 -9c2 -3 5 -5 8 -8
c5 9 5 13 1 17c-6 10 -21 16 -33 18c-15 1 -35 -1 -50 -6c-32 -10 -58 -30 -76 -58c-9 -16 -15 -34 -17 -51c-3 -14 -6 -30 -5 -46c1 -27 19 -69 49 -91c12 -8 21 -14 34 -20l-8 -13c-8 -13 -13 -27 -14 -43c-5 -37 19 -74 49 -94c39 -26 79 -31 130 -23c14 3 29 7 45 12
c0 -5 0 -8 1 -11c0 -7 7 -19 9 -24c13 -22 35 -34 61 -36c41 -3 72 4 112 14c40 11 79 23 119 35c25 6 51 8 76 4c21 -3 34 -17 32 -39c0 -4 2 -8 5 -10c5 -2 6 3 8 6c8 26 -10 50 -34 58c-19 6 -38 6 -57 3c-14 -3 -27 -6 -41 -10c-26 -6 -53 -14 -78 -22
c-49 -16 -90 -25 -141 -21c-16 0 -30 10 -39 19c-8 6 -16 18 -15 28c0 7 -1 15 1 22c2 6 2 11 -8 13z" />
    <glyph glyph-name="g" unicode="g" 
d="M419 197c-10 -2 -10 -7 -8 -13c2 -7 1 -15 1 -22c1 -10 -7 -22 -15 -28c-9 -9 -23 -19 -39 -19c-51 -4 -92 5 -141 21c-25 8 -52 16 -78 22c-14 4 -27 7 -41 10c-19 3 -38 3 -57 -3c-24 -8 -42 -32 -34 -58c2 -3 3 -8 8 -6c3 2 5 6 5 10c-2 22 11 36 32 39
c25 4 51 2 76 -4c40 -12 79 -24 119 -35c40 -10 71 -17 112 -14c26 2 48 14 61 36c2 5 9 17 9 24c1 3 1 6 1 11c16 -5 31 -9 45 -12c51 -8 91 -3 130 23c30 20 54 57 49 94c-1 16 -6 30 -14 43l-8 13c13 6 22 12 34 20c30 22 48 64 49 91c1 16 -2 32 -5 46
c-2 17 -8 35 -17 51c-18 28 -44 48 -76 58c-15 5 -35 7 -50 6c-12 -2 -27 -8 -33 -18c-4 -4 -4 -8 1 -17c3 3 6 5 8 8c8 9 24 11 36 9c48 -3 80 -24 102 -64c15 -25 23 -54 20 -82c-4 -40 -33 -72 -58 -85l-28 -12c-5 -2 -8 -5 -12 -8c-3 -5 0 -8 5 -11c5 -2 8 -5 11 -8
c16 -23 24 -47 15 -72c-8 -24 -28 -44 -48 -54c-16 -6 -32 -8 -49 -13c-31 -6 -58 0 -86 5c-13 3 -22 10 -32 18z" />
    <glyph glyph-name="h" unicode="h" horiz-adv-x="886" 
d="M882 263c2 -30 -11 -61 -30 -84c-20 -24 -45 -37 -75 -37c-17 0 -45 3 -62 28c-7 9 -7 17 0 26c1 0 2 0 2 -1c11 -20 33 -34 56 -34c7 0 14 1 20 4c26 12 47 29 59 58c11 29 10 57 -1 82c-19 41 -63 49 -96 46c-12 -1 -10 -1 -14 -15c-6 -22 -18 -39 -40 -47
c-17 -6 -34 3 -37 20c-2 11 4 23 12 31c15 15 27 23 48 30c1 20 -12 34 -31 42c-13 6 -28 9 -43 10c-27 2 -53 -2 -79 -10c-72 -21 -141 -49 -210 -77c-31 -13 -69 -30 -102 -46c9 -20 23 -42 41 -50c22 -10 43 -11 67 -9c16 1 25 7 29 23c4 14 13 26 22 37
c10 13 25 16 41 15c10 -1 20 -17 18 -30c-2 -10 -7 -18 -14 -26c-14 -12 -28 -23 -45 -29l-9 -6c-4 -2 10 -25 12 -28c8 -13 20 -23 35 -27c5 -1 10 -2 16 -2c30 0 63 16 63 46c0 5 -1 9 -4 14c-3 4 -4 9 1 12c6 2 10 -1 13 -6c5 -8 7 -16 7 -24c0 -23 -15 -44 -37 -54
c-11 -5 -27 -8 -38 -8c-40 0 -76 31 -87 72c-11 -3 -21 -3 -34 -3c-44 -2 -83 16 -107 55c-2 3 -3 6 -5 10c-1 1 -3 5 -5 11c-5 -2 -13 -3 -16 -4c-41 -12 -83 -14 -126 -9s-86 45 -91 89c-4 35 11 64 39 86c16 12 33 20 54 18c12 -2 19 -9 26 -17c3 -6 4 -11 -1 -17
c-3 0 -6 0 -8 2c-15 9 -30 8 -44 0c-25 -13 -39 -34 -44 -61c-5 -23 7 -42 25 -56c10 -8 21 -13 34 -17c42 -13 102 -2 146 8c-1 4 -1 7 -2 12c-3 24 1 52 8 74c14 39 34 72 65 99c26 23 70 40 98 40c12 0 23 -2 34 -7c13 -5 19 -17 15 -29c-1 -2 -4 -5 -7 -6
c-2 0 -7 2 -7 4c-2 13 -13 13 -22 15c-13 3 -26 1 -39 -4c-43 -18 -78 -46 -100 -88c-11 -23 -20 -47 -24 -74c-1 -5 0 -17 2 -28c14 7 28 14 39 19c46 19 92 39 138 58c34 14 68 26 102 38c43 15 86 25 131 19c22 -3 42 -12 59 -26c10 -8 17 -20 19 -34c1 -3 1 -7 2 -12
c44 6 82 -1 112 -36c18 -22 24 -48 26 -75zM694 311c12 4 21 18 26 33c-14 -4 -23 -16 -32 -23c-2 -2 -4 -5 -3 -8c2 -3 6 -3 9 -2zM458 281c-19 1 -34 -12 -39 -35c16 8 33 15 39 35z" />
    <glyph glyph-name="i" unicode="i" horiz-adv-x="888" 
d="M843 444c28 -22 43 -51 39 -86c-5 -44 -48 -84 -91 -89s-85 -3 -126 9c-3 1 -11 2 -16 4c-2 -6 -4 -10 -5 -11c-2 -4 -3 -7 -5 -10c-24 -39 -63 -57 -107 -55c-13 0 -23 0 -34 3c-11 -41 -47 -72 -87 -72c-11 0 -27 3 -38 8c-22 10 -37 31 -37 54c0 8 2 16 7 24
c3 5 7 8 13 6c5 -3 4 -8 1 -12c-3 -5 -4 -9 -4 -14c0 -30 33 -46 63 -46c6 0 11 1 16 2c15 4 27 14 35 27c2 3 16 26 12 28l-9 6c-17 6 -31 17 -45 29c-7 8 -12 16 -14 26c-2 13 8 29 18 30c16 1 31 -2 41 -15c9 -11 18 -23 22 -37c4 -16 13 -22 29 -23c24 -2 45 -1 67 9
c18 8 32 30 41 50c-33 16 -71 33 -102 46c-69 28 -138 56 -210 77c-26 8 -52 12 -79 10c-15 -1 -30 -4 -43 -10c-19 -8 -32 -22 -31 -42c21 -7 33 -15 48 -30c8 -8 14 -20 12 -31c-3 -17 -20 -26 -37 -20c-22 8 -34 25 -40 47c-4 14 -2 14 -14 15c-33 3 -77 -5 -96 -46
c-11 -25 -12 -53 -1 -82c12 -29 33 -46 59 -58c6 -3 13 -4 20 -4c23 0 45 14 56 34c0 1 1 1 2 1c7 -9 7 -17 0 -26c-17 -25 -45 -28 -62 -28c-30 0 -55 13 -75 37c-19 23 -32 54 -30 84c2 27 8 53 26 75c30 35 68 42 112 36c1 5 1 9 2 12c2 14 9 26 19 34c17 14 37 23 59 26
c45 6 88 -4 131 -19c34 -12 68 -24 102 -38c46 -19 92 -39 138 -58c11 -5 25 -12 39 -19c2 11 3 23 2 28c-4 27 -13 51 -24 74c-22 42 -57 70 -100 88c-13 5 -26 7 -39 4c-9 -2 -20 -2 -22 -15c0 -2 -5 -4 -7 -4c-3 1 -6 4 -7 6c-4 12 2 24 15 29c11 5 22 7 34 7
c28 0 72 -17 98 -40c31 -27 51 -60 65 -99c7 -22 11 -50 8 -74c-1 -5 -1 -8 -2 -12c44 -10 104 -21 146 -8c13 4 24 9 34 17c18 14 30 33 25 56c-5 27 -19 48 -44 61c-14 8 -29 9 -44 0c-2 -2 -5 -2 -8 -2c-5 6 -4 11 -1 17c7 8 14 15 26 17c21 2 38 -6 54 -18zM200 321
c-9 7 -18 19 -32 23c5 -15 14 -29 26 -33c3 -1 7 -1 9 2c1 3 -1 6 -3 8zM430 281c6 -20 23 -27 39 -35c-5 23 -20 36 -39 35z" />
    <glyph glyph-name="j" unicode="j" horiz-adv-x="668" 
d="M426 309l2 2c6 3 11 6 17 9c28 14 43 37 46 69c1 16 -1 28 -7 45c-1 4 -6 14 -11 17c-10 10 -19 16 -34 19c-9 1 -13 4 -26 2c-26 -3 -40 -12 -55 -34c-10 -16 -13 -42 0 -59c6 -10 29 -19 41 -19c9 0 24 5 29 13c10 14 5 22 0 26c-3 0 -5 -6 -8 -10
c-4 -8 -12 -12 -20 -12c-12 -2 -28 7 -34 20c-3 8 0 24 3 31c9 14 17 20 33 26c5 2 11 3 16 3c17 0 35 -6 43 -14c13 -12 14 -29 16 -47c3 -24 -9 -43 -28 -58c-11 -8 -24 -12 -38 -16c-34 -10 -71 -7 -107 -8c-30 -1 -60 -1 -90 -2c-9 1 -21 1 -31 1c-26 -2 -52 -2 -78 -4
c-27 0 -53 -2 -80 -2c-16 0 -10 -13 -1 -13c6 0 13 -2 19 0c26 0 52 -1 78 0c34 0 69 1 104 1c42 -1 86 2 129 1l68 -3c27 0 53 -1 80 -1c32 0 62 0 94 1c14 1 21 3 35 7c14 5 27 19 27 33c0 6 -2 13 -5 19c-4 7 -8 10 -15 13l-9 1c-8 0 -15 -3 -20 -9c-6 -6 -7 -18 -4 -24
c5 -9 11 -9 16 -6c-2 3 -5 5 -6 10c-2 10 7 16 14 16c10 0 16 -8 14 -22c-4 -9 -9 -16 -18 -17c-12 -3 -26 -5 -38 -5c-36 0 -73 -1 -111 -1c-15 0 -31 1 -50 1z" />
    <glyph glyph-name="k" unicode="k" horiz-adv-x="668" 
d="M247 309c-19 0 -35 -1 -50 -1c-38 0 -75 1 -111 1c-12 0 -26 2 -38 5c-9 1 -14 8 -18 17c-2 14 4 22 14 22c7 0 16 -6 14 -16c-1 -5 -4 -7 -6 -10c5 -3 11 -3 16 6c3 6 2 18 -4 24c-5 6 -12 9 -20 9l-9 -1c-7 -3 -11 -6 -15 -13c-3 -6 -5 -13 -5 -19c0 -14 13 -28 27 -33
c14 -4 21 -6 35 -7c32 -1 62 -1 94 -1c27 0 53 1 80 1l68 3c43 1 87 -2 129 -1c35 0 70 -1 104 -1c26 -1 52 0 78 0c6 -2 13 0 19 0c9 0 15 13 -1 13c-27 0 -53 2 -80 2c-26 2 -52 2 -78 4c-10 0 -22 0 -31 -1c-30 1 -60 1 -90 2c-36 1 -73 -2 -107 8c-14 4 -27 8 -38 16
c-19 15 -31 34 -28 58c2 18 3 35 16 47c8 8 26 14 43 14c5 0 11 -1 16 -3c16 -6 24 -12 33 -26c3 -7 6 -23 3 -31c-6 -13 -22 -22 -34 -20c-8 0 -16 4 -20 12c-3 4 -5 10 -8 10c-5 -4 -10 -12 0 -26c5 -8 20 -13 29 -13c12 0 35 9 41 19c13 17 10 43 0 59
c-15 22 -29 31 -55 34c-13 2 -17 -1 -26 -2c-15 -3 -24 -9 -34 -19c-5 -3 -10 -13 -11 -17c-6 -17 -8 -29 -7 -45c3 -32 18 -55 46 -69l17 -9z" />
    <glyph glyph-name="l" unicode="l" horiz-adv-x="1268" 
d="M638 467c22 0 66 1 88 2c34 0 69 1 104 1c42 -1 86 2 129 1l68 -3c27 0 53 -1 80 -1c32 0 62 0 94 1c14 1 21 3 35 7c14 5 27 19 27 33c0 6 -2 13 -5 19c-4 7 -8 10 -15 13l-9 1c-8 0 -15 -3 -20 -9c-6 -6 -7 -18 -4 -24c5 -9 11 -9 16 -6c-2 3 -5 5 -6 10
c-2 10 7 16 14 16c10 0 16 -8 14 -22c-4 -9 -9 -16 -18 -17c-12 -3 -26 -5 -38 -5c-36 0 -73 -1 -111 -1c-15 0 -31 1 -50 1l2 2c6 3 11 6 17 9c28 14 43 37 46 69c1 16 -1 28 -7 45c-1 4 -6 14 -11 17c-10 10 -19 16 -34 19c-9 1 -13 4 -26 2c-26 -3 -40 -12 -55 -34
c-10 -16 -13 -42 0 -59c6 -10 29 -19 41 -19c9 0 24 5 29 13c10 14 5 22 0 26c-3 0 -5 -6 -8 -10c-4 -8 -12 -12 -20 -12c-12 -2 -28 7 -34 20c-3 8 0 24 3 31c9 14 17 20 33 26c5 2 11 3 16 3c17 0 35 -6 43 -14c13 -12 14 -29 16 -47c3 -24 -9 -43 -28 -58
c-11 -8 -24 -12 -38 -16c-34 -10 -71 -7 -107 -8c-30 -1 -60 -1 -90 -2c-9 1 -21 1 -31 1c-26 -2 -52 -2 -78 -4c-17 0 -34 -1 -50 -1c-19 1 -82 1 -102 1c-26 2 -52 2 -78 4c-10 0 -22 0 -31 -1c-30 1 -60 1 -90 2c-36 1 -73 -2 -107 8c-14 4 -27 8 -38 16
c-19 15 -31 34 -28 58c2 18 3 35 16 47c8 8 26 14 43 14c5 0 11 -1 16 -3c16 -6 24 -12 33 -26c3 -7 6 -23 3 -31c-6 -13 -22 -22 -34 -20c-8 0 -16 4 -20 12c-3 4 -5 10 -8 10c-5 -4 -10 -12 0 -26c5 -8 20 -13 29 -13c12 0 35 9 41 19c13 17 10 43 0 59
c-15 22 -29 31 -55 34c-13 2 -17 -1 -26 -2c-15 -3 -24 -9 -34 -19c-5 -3 -10 -13 -11 -17c-6 -17 -8 -29 -7 -45c3 -32 18 -55 46 -69l17 -9l2 -2c-19 0 -35 -1 -50 -1c-38 0 -75 1 -111 1c-12 0 -26 2 -38 5c-9 1 -14 8 -18 17c-2 14 4 22 14 22c7 0 16 -6 14 -16
c-1 -5 -4 -7 -6 -10c5 -3 11 -3 16 6c3 6 2 18 -4 24c-5 6 -12 9 -20 9l-9 -1c-7 -3 -11 -6 -15 -13c-3 -6 -5 -13 -5 -19c0 -14 13 -28 27 -33c14 -4 21 -6 35 -7c32 -1 62 -1 94 -1c27 0 53 1 80 1l68 3c43 1 87 -2 129 -1c35 0 70 -1 104 -1c24 -1 72 -2 96 -2zM638 218
c-24 0 -72 -1 -96 -2c-34 0 -69 -1 -104 -1c-42 1 -86 -2 -129 -1l-68 3c-27 0 -53 1 -80 1c-32 0 -62 0 -94 -1c-14 -1 -21 -3 -35 -7c-14 -5 -27 -19 -27 -33c0 -6 2 -13 5 -19c4 -7 8 -10 15 -13l9 -1c8 0 15 3 20 9c6 6 7 18 4 24c-5 9 -11 9 -16 6c2 -3 5 -5 6 -10
c2 -10 -7 -16 -14 -16c-10 0 -16 8 -14 22c4 9 9 16 18 17c12 3 26 5 38 5c36 0 73 1 111 1c15 0 31 -1 50 -1l-2 -2c-6 -3 -11 -6 -17 -9c-28 -14 -43 -37 -46 -69c-1 -16 1 -28 7 -45c1 -4 6 -14 11 -17c10 -10 19 -16 34 -19c9 -1 13 -4 26 -2c26 3 40 12 55 34
c10 16 13 42 0 59c-6 10 -29 19 -41 19c-9 0 -24 -5 -29 -13c-10 -14 -5 -22 0 -26c3 0 5 6 8 10c4 8 12 12 20 12c12 2 28 -7 34 -20c3 -8 0 -24 -3 -31c-9 -14 -17 -20 -33 -26c-5 -2 -11 -3 -16 -3c-17 0 -35 6 -43 14c-13 12 -14 29 -16 47c-3 24 9 43 28 58
c11 8 24 12 38 16c34 10 71 7 107 8c30 1 60 1 90 2c9 -1 21 -1 31 -1c26 2 52 2 78 4c20 0 83 0 102 1c16 0 33 -1 50 -1c26 -2 52 -2 78 -4c10 0 22 0 31 1c30 -1 60 -1 90 -2c36 -1 73 2 107 -8c14 -4 27 -8 38 -16c19 -15 31 -34 28 -58c-2 -18 -3 -35 -16 -47
c-8 -8 -26 -14 -43 -14c-5 0 -11 1 -16 3c-16 6 -24 12 -33 26c-3 7 -6 23 -3 31c6 13 22 22 34 20c8 0 16 -4 20 -12c3 -4 5 -10 8 -10c5 4 10 12 0 26c-5 8 -20 13 -29 13c-12 0 -35 -9 -41 -19c-13 -17 -10 -43 0 -59c15 -22 29 -31 55 -34c13 -2 17 1 26 2
c15 3 24 9 34 19c5 3 10 13 11 17c6 17 8 29 7 45c-3 32 -18 55 -46 69l-17 9l-2 2c19 0 35 1 50 1c38 0 75 -1 111 -1c12 0 26 -2 38 -5c9 -1 14 -8 18 -17c2 -14 -4 -22 -14 -22c-7 0 -16 6 -14 16c1 5 4 7 6 10c-5 3 -11 3 -16 -6c-3 -6 -2 -18 4 -24c5 -6 12 -9 20 -9
l9 1c7 3 11 6 15 13c3 6 5 13 5 19c0 14 -13 28 -27 33c-14 4 -21 6 -35 7c-32 1 -62 1 -94 1c-27 0 -53 -1 -80 -1l-68 -3c-43 -1 -87 2 -129 1c-35 0 -70 1 -104 1c-22 1 -66 2 -88 2z" />
    <glyph glyph-name="m" unicode="m" horiz-adv-x="543" 
d="M33 337c7 -6 12 -10 18 -13c6 -2 11 -2 14 -1c8 3 7 6 2 12c-6 8 -3 14 -2 23c4 13 12 22 20 29c7 6 18 12 27 14c14 3 28 4 41 4c36 2 71 2 109 0c28 0 57 -1 87 -1c39 -2 76 -2 115 -2c18 0 36 -1 53 -1c11 0 16 3 16 13c0 3 -8 5 -12 5c-41 -3 -48 -1 -75 -1h-27
c-51 0 -101 0 -153 1c-35 0 -70 2 -109 2c-47 0 -61 -3 -78 -11c-6 -3 -15 -7 -21 -11c-21 -15 -31 -28 -42 -51c-7 -17 -8 -34 -4 -50c6 -30 24 -52 58 -56c8 -1 26 1 34 5c19 11 27 26 27 44c0 3 -1 7 -2 10c-1 14 -17 23 -29 18c-7 -1 -11 -14 -10 -21c2 -7 3 -13 5 -19
c3 -16 -10 -21 -26 -21c-20 0 -36 16 -43 46c-1 9 -4 22 7 33z" />
    <glyph glyph-name="n" unicode="n" horiz-adv-x="543" 
d="M510 337c11 -11 8 -24 7 -33c-7 -30 -23 -46 -43 -46c-15 0 -29 5 -26 21c2 6 3 12 5 19c1 7 -3 20 -10 21c-12 5 -28 -4 -29 -18c-1 -3 -1 -7 -1 -10c0 -18 8 -33 27 -44c8 -4 26 -6 34 -5c34 4 52 26 58 56c3 16 2 33 -5 50c-10 23 -21 36 -42 51c-6 4 -14 8 -21 11
c-17 8 -30 11 -78 11c-38 0 -74 -2 -109 -2c-52 -1 -102 -1 -153 -1h-27c-26 0 -34 -2 -75 1c-3 0 -11 -2 -11 -5c0 -10 4 -13 15 -13c17 0 35 1 53 1c39 0 76 0 115 2c30 0 59 1 87 1c38 2 73 2 109 0c13 0 27 -1 41 -4c9 -2 21 -8 28 -14c8 -7 15 -16 19 -29
c1 -9 4 -15 -2 -23c-5 -6 -5 -9 3 -12c3 -1 8 -1 13 1c7 3 12 7 18 13z" />
    <glyph glyph-name="o" unicode="o" horiz-adv-x="587" 
d="M365 425c16 4 42 8 69 8c38 0 80 -13 105 -55c9 -17 12 -37 12 -59c0 -28 -12 -51 -29 -68c-4 -4 -11 -5 -15 -10c-13 -7 -29 -9 -43 -5c-25 9 -27 9 -19 35c0 2 2 3 2 5c5 15 9 30 4 45c-3 12 -8 16 -17 19c-30 7 -45 -15 -44 -37c0 -17 3 -33 12 -48
c4 -10 10 -17 20 -24c24 -15 41 -19 69 -18c2 0 18 2 20 3c36 13 66 58 66 111c0 23 -6 47 -19 71c-24 43 -75 62 -133 62c-37 0 -69 -5 -106 -18c-17 -7 -44 -19 -59 -29c-74 -46 -106 -66 -164 -117c-20 -19 -32 -37 -53 -52c-11 -10 -22 -22 -31 -33c-2 -2 -2 -8 -1 -10
s6 -3 9 -2c9 4 18 7 25 14c18 15 38 22 56 33c20 11 43 11 67 18c11 3 13 4 13 16c1 6 -1 12 -3 18s-4 11 1 16c12 10 22 23 34 30c26 19 47 33 75 49c22 14 50 25 77 32z" />
    <glyph glyph-name="p" unicode="p" horiz-adv-x="587" 
d="M222 425c27 -7 55 -18 77 -32c28 -16 49 -30 75 -49c12 -7 22 -20 34 -30c5 -5 3 -10 1 -16s-4 -12 -3 -18c0 -12 2 -13 13 -16c24 -7 47 -7 67 -18c18 -11 38 -18 56 -33c7 -7 16 -10 25 -14c3 -1 8 0 9 2s1 8 -1 10c-9 11 -20 23 -31 33c-21 15 -33 33 -53 52
c-58 51 -90 71 -164 117c-15 10 -42 22 -59 29c-37 13 -69 18 -106 18c-58 0 -109 -19 -133 -62c-13 -24 -19 -48 -19 -71c0 -53 30 -98 66 -111c2 -1 18 -3 20 -3c28 -1 45 3 69 18c10 7 16 14 20 24c9 15 12 31 12 48c1 22 -14 44 -44 37c-9 -3 -14 -7 -17 -19
c-5 -15 -1 -30 4 -45c0 -2 2 -3 2 -5c8 -26 6 -26 -19 -35c-14 -4 -30 -2 -43 5c-4 5 -11 6 -15 10c-17 17 -29 40 -29 68c0 22 3 42 12 59c25 42 67 55 105 55c27 0 53 -4 69 -8z" />
    <glyph glyph-name="q" unicode="q" horiz-adv-x="754" 
d="M259 431c5 5 1 13 -4 32c-3 11 -9 26 -14 43c-6 21 -9 39 -22 58c-11 14 -34 14 -30 -7c1 -7 5 -15 8 -21c9 -20 22 -40 33 -60c5 -11 10 -22 16 -33c7 -13 11 -15 13 -12zM133 503c0 -5 4 -7 7 -11c4 -3 8 -5 13 -7c18 -13 37 -24 55 -38c9 -7 17 -10 20 -6
c2 3 2 6 0 10c-2 3 -6 7 -8 10c-14 13 -27 26 -42 39c-7 7 -18 14 -27 20c-11 3 -20 -4 -18 -17zM288 410c5 4 3 6 3 15c0 17 -1 33 6 47c2 8 4 13 5 20c0 8 1 19 -10 21c-3 0 -6 2 -10 1c-11 -3 -16 -12 -16 -23c0 -26 5 -50 13 -73c2 -6 5 -9 9 -8zM368 296l-55 43
c-25 18 -47 34 -72 52c-22 16 -42 33 -66 45c-25 17 -53 29 -80 29c-24 0 -56 -10 -70 -36c-13 -24 -16 -30 -15 -56c0 -7 8 -33 13 -39c26 -25 50 -37 78 -37c12 0 25 2 39 8c15 6 36 26 29 49c-2 8 -5 15 -11 22c-9 9 -20 16 -33 18c-20 3 -33 -15 -23 -32
c5 -8 12 -13 22 -11c7 2 14 5 21 9c10 -9 11 -20 2 -29l-5 -6c-9 -6 -23 -10 -37 -10c-15 0 -39 5 -48 12c-21 16 -32 34 -28 70c4 33 38 49 62 49c31 0 54 -9 90 -34c28 -18 61 -50 90 -70c27 -19 51 -42 79 -61c31 -21 63 -43 96 -59c54 -25 106 -45 163 -45
c12 0 25 2 38 4c34 7 57 15 81 33c4 3 13 9 15 15c4 9 -2 14 -11 12c-11 -1 -22 -12 -31 -18c-27 -14 -31 -16 -62 -21c-17 -3 -53 -4 -66 -1c-27 6 -52 14 -80 28c-24 12 -61 33 -81 53c-22 21 -31 27 -51 54c-10 13 -19 29 -24 44c-7 20 -6 40 9 56c11 11 25 12 38 8
c25 -8 33 -26 40 -48c0 0 -2 -2 -2 -3c-5 1 -9 3 -12 3c-10 2 -20 0 -22 -5c-4 -6 -2 -20 3 -26c6 -7 12 -10 18 -10s16 2 22 10c9 11 13 33 6 53c-10 26 -36 45 -63 45c-30 0 -49 -19 -56 -43c-5 -26 2 -49 15 -71c9 -17 21 -34 32 -48c4 -5 7 -5 3 -5z" />
    <glyph glyph-name="r" unicode="r" horiz-adv-x="754" 
d="M495 431c2 -3 6 -1 13 12c6 11 11 22 16 33c11 20 24 40 33 60c3 6 7 14 8 21c4 21 -19 21 -30 7c-13 -19 -16 -37 -22 -58c-5 -17 -11 -32 -14 -43c-5 -19 -9 -27 -4 -32zM621 503c2 13 -7 20 -18 17c-9 -6 -20 -13 -27 -20c-15 -13 -28 -26 -42 -39c-2 -3 -6 -7 -8 -10
c-2 -4 -2 -7 0 -10c3 -4 11 -1 20 6c18 14 37 25 55 38c5 2 9 4 13 7c3 4 7 6 7 11zM466 410c4 -1 7 2 9 8c8 23 13 47 13 73c0 11 -5 20 -16 23c-4 1 -7 -1 -10 -1c-11 -2 -10 -13 -10 -21c1 -7 3 -12 5 -20c7 -14 6 -30 6 -47c0 -9 -2 -11 3 -15zM386 296c-4 0 -1 0 3 5
c11 14 23 31 32 48c13 22 20 45 15 71c-7 24 -26 43 -56 43c-27 0 -53 -19 -63 -45c-7 -20 -3 -42 6 -53c6 -8 16 -10 22 -10s12 3 18 10c5 6 7 20 3 26c-2 5 -12 7 -22 5c-3 0 -7 -2 -12 -3c0 1 -2 3 -2 3c7 22 15 40 40 48c13 4 27 3 38 -8c15 -16 16 -36 9 -56
c-5 -15 -14 -31 -24 -44c-20 -27 -29 -33 -51 -54c-20 -20 -57 -41 -81 -53c-28 -14 -53 -22 -80 -28c-13 -3 -49 -2 -66 1c-31 5 -35 7 -62 21c-9 6 -20 17 -31 18c-9 2 -15 -3 -11 -12c2 -6 11 -12 15 -15c24 -18 47 -26 81 -33c13 -2 26 -4 38 -4c57 0 109 20 163 45
c33 16 65 38 96 59c28 19 52 42 79 61c29 20 62 52 90 70c36 25 59 34 90 34c24 0 58 -16 62 -49c4 -36 -7 -54 -28 -70c-9 -7 -33 -12 -48 -12c-14 0 -28 4 -37 10l-5 6c-9 9 -8 20 2 29c7 -4 14 -7 21 -9c10 -2 17 3 22 11c10 17 -3 35 -23 32c-13 -2 -24 -9 -33 -18
c-6 -7 -9 -14 -11 -22c-7 -23 14 -43 29 -49c14 -6 27 -8 39 -8c28 0 52 12 78 37c5 6 13 32 13 39c1 26 -2 32 -15 56c-14 26 -46 36 -70 36c-27 0 -55 -12 -80 -29c-24 -12 -44 -29 -66 -45l-72 -52c-18 -14 -37 -29 -55 -43z" />
    <glyph glyph-name="s" unicode="s" horiz-adv-x="800" 
d="M642 454h5c7 -17 14 -34 21 -50c5 -12 4 -23 -6 -33c-13 -15 -20 -33 -23 -53c-2 -11 4 -25 12 -29c10 -5 20 -2 29 5s15 16 15 27c1 13 1 27 1 40c0 5 -1 12 1 15c13 14 27 27 47 31c11 1 18 -2 23 -11c4 -7 4 -20 -2 -27c-3 -4 -9 -11 -6 -14c15 -10 28 -2 33 14
c2 6 3 11 3 16c0 28 -28 44 -50 42c-14 -1 -30 -6 -42 -14c-3 -3 -8 -5 -12 -8c-8 19 -15 37 -23 54c-7 14 -9 28 -4 43c5 12 6 26 7 39c0 13 -12 20 -24 16c-6 -2 -11 -7 -14 -12c-10 -16 -6 -32 -1 -49c3 -9 1 -17 -4 -25c-18 -27 -36 -54 -53 -81c-1 -1 -2 -1 -4 -1
c-8 13 -15 28 -23 41c-5 10 -6 19 -3 29c4 8 2 15 -3 22c-22 0 -26 -4 -25 -24v-4c4 -10 0 -18 -6 -26c-9 -13 -19 -26 -28 -38c-6 -8 -13 -14 -21 -22c-6 11 -12 20 -18 29c3 4 5 8 7 11c3 8 2 20 -3 24c-8 7 -16 3 -24 1s-13 -12 -10 -20c6 -13 -1 -20 -11 -25
c-24 -12 -49 -25 -75 -33c-44 -15 -89 -23 -135 -24c-45 -1 -89 4 -132 17c-12 3 -24 9 -31 22c7 -1 10 3 12 4c3 3 4 7 3 10c0 4 -5 8 -8 9c-9 4 -21 0 -28 -8c-6 -7 -5 -20 2 -30c10 -15 32 -23 50 -28c72 -19 144 -20 217 -6c15 3 30 7 45 11c35 10 67 25 98 43
c3 2 6 4 10 6c3 -4 5 -7 7 -11c7 -10 10 -20 1 -31c-3 -5 -5 -11 -5 -16c1 -6 4 -13 8 -16c2 -3 10 -1 14 1c10 4 15 14 14 24c-1 13 6 21 14 30c11 12 21 25 31 37c5 6 10 13 16 20c14 -16 19 -34 24 -51c1 -4 -1 -10 -4 -13c-10 -12 -13 -28 -16 -43c-2 -12 2 -22 10 -25
c10 -4 24 1 30 10c11 15 13 32 9 50c-2 11 -1 20 6 29c3 3 5 8 7 11zM659 310c0 14 4 25 14 35c5 -19 3 -26 -14 -35z" />
    <glyph glyph-name="t" unicode="t" horiz-adv-x="800" 
d="M163 453c11 -23 23 -45 35 -68c2 -3 3 -8 6 -11c5 -9 5 -19 2 -30c-5 -18 -4 -35 5 -50c6 -8 20 -13 30 -8c8 4 13 14 12 26c-2 15 -4 31 -12 42c-4 3 -5 8 -4 12c8 17 15 35 32 51c5 -7 9 -14 13 -20c8 -12 15 -20 23 -34c5 -9 9 -18 5 -31c-4 -9 -1 -20 7 -25
c4 -3 10 -6 14 -3c4 2 9 9 12 14c2 5 1 11 -1 17c-5 11 0 21 10 33c2 4 8 7 11 11c4 -2 7 -4 9 -6c29 -18 59 -33 97 -43c15 -4 29 -8 44 -11c72 -14 144 -13 218 6c18 5 41 13 52 28c8 10 10 23 5 30c-7 8 -18 12 -28 8c-3 -1 -8 -5 -8 -9c-2 -3 -1 -7 2 -10
c2 -1 4 -5 11 -4c-8 -13 -20 -19 -32 -22c-45 -13 -89 -18 -134 -17c-46 1 -90 9 -133 24c-28 8 -51 21 -74 33c-9 5 -15 12 -7 25c4 8 0 18 -8 20c-7 2 -15 6 -24 -1c-5 -4 -8 -16 -6 -24c2 -3 3 -7 5 -11c-7 -9 -15 -19 -24 -29c-5 9 -11 14 -16 22c-7 12 -15 25 -22 38
c-5 8 -8 16 -3 26c1 1 1 2 1 4c4 20 0 24 -22 24c-6 -7 -9 -14 -6 -22c2 -10 0 -19 -7 -29c-10 -13 -19 -28 -29 -41c-2 0 -3 0 -3 1l-42 81c-4 8 -5 16 -1 25c8 17 14 33 6 49c-2 5 -6 10 -12 12c-12 4 -24 -3 -26 -16c-1 -13 -2 -27 1 -39c3 -15 -1 -29 -10 -43
c-10 -17 -20 -35 -30 -54c-4 3 -9 5 -11 8c-11 8 -27 13 -41 14c-21 2 -51 -14 -53 -42c-1 -5 0 -10 1 -16c4 -16 16 -24 32 -14c3 3 -2 10 -5 14c-5 7 -4 20 1 27c6 9 13 12 24 11c19 -4 31 -17 42 -31c1 -3 -1 -10 -1 -15c-2 -13 -4 -27 -5 -40c-2 -11 3 -20 11 -27
s18 -10 29 -5c8 4 16 18 16 29c-1 20 -5 38 -16 53c-9 10 -8 21 -1 33c9 16 18 33 28 50h5zM125 309c-15 9 -16 16 -9 35c9 -10 11 -21 9 -35z" />
    <glyph glyph-name="u" unicode="u" horiz-adv-x="994" 
d="M689 336c4 -12 11 -1 18 1c6 2 12 3 18 3c24 0 43 -18 45 -48c-5 1 -11 1 -16 2l-98 15c-50 7 -100 12 -150 19c-12 1 -24 4 -35 9c-25 12 -49 26 -72 41c-30 19 -63 36 -98 39c-37 3 -71 -1 -104 -33c-10 -10 -10 -14 -22 -14c-21 2 -43 4 -65 3c-30 -1 -52 -2 -80 -15
c-16 -8 -26 -24 -25 -37c0 -13 7 -26 24 -32c12 -4 25 -2 25 8c1 4 -20 4 -25 21c-1 18 15 23 28 26c36 7 72 3 110 1c4 0 8 -2 13 -4c-3 -26 2 -51 30 -67c23 -12 44 -10 66 -3c7 2 10 7 6 16h-18c-7 0 -14 -1 -21 0c-22 2 -39 18 -39 40c0 9 4 14 14 13c4 0 9 0 14 -1
c60 -8 121 -15 181 -23c20 -3 42 -6 61 -14c29 -12 56 -28 84 -44c33 -19 69 -37 107 -42c9 -1 25 -3 41 -3c44 0 76 16 95 47c10 0 16 3 28 1c15 -2 30 1 44 2c24 2 47 8 70 17c20 8 43 29 46 52c4 30 -18 50 -33 42c-6 -4 0 -8 2 -12c10 -22 -1 -46 -29 -59
c-7 -3 -15 -5 -22 -7c-30 -8 -61 -8 -92 -8c-4 0 -8 1 -11 2c0 4 0 28 -19 49c-4 4 -15 21 -45 24c-24 2 -52 -6 -51 -27zM398 346c-59 8 -121 15 -176 22c14 16 46 26 73 26c31 0 69 -14 103 -48zM762 263c-8 -13 -31 -23 -46 -24c-58 -4 -100 19 -149 49
c63 -4 131 -14 195 -25z" />
    <glyph glyph-name="v" unicode="v" horiz-adv-x="995" 
d="M306 336c1 21 -27 29 -51 27c-30 -3 -41 -20 -45 -24c-19 -21 -19 -45 -19 -49c-3 -1 -7 -2 -11 -2c-31 0 -62 0 -92 8c-7 2 -15 4 -22 7c-28 13 -39 37 -29 59c2 4 8 8 2 12c-15 8 -37 -12 -33 -42c3 -23 26 -44 46 -52c23 -9 46 -15 70 -17c14 -1 29 -4 44 -2
c12 2 18 -1 28 -1c19 -31 51 -47 95 -47c16 0 32 2 41 3c38 5 74 23 107 42c28 16 55 32 84 44c19 8 41 11 61 14c60 8 121 15 181 23c5 1 10 1 14 1c10 1 14 -4 14 -13c0 -22 -17 -38 -39 -40c-7 -1 -14 0 -21 0h-18c-4 -9 -1 -14 6 -16c22 -7 43 -9 66 3
c28 16 33 41 30 67c5 2 9 4 13 4c38 2 74 6 110 -1c13 -3 29 -8 28 -26c-5 -17 -26 -17 -25 -21c0 -10 13 -12 25 -8c17 6 24 19 24 32c1 13 -9 29 -25 37c-28 13 -50 14 -80 15c-22 1 -44 -1 -65 -3c-12 0 -12 4 -22 14c-33 32 -67 36 -104 33c-35 -3 -68 -20 -98 -39
c-23 -15 -47 -29 -72 -41c-11 -5 -23 -8 -35 -9c-50 -7 -100 -12 -150 -19l-98 -15c-5 -1 -11 -1 -16 -2c2 30 21 48 45 48c6 0 12 -1 18 -3c7 -2 14 -13 18 -1zM597 346c34 34 72 48 103 48c27 0 59 -10 73 -26c-55 -7 -117 -14 -176 -22zM233 263c64 11 132 21 195 25
c-49 -30 -91 -53 -149 -49c-15 1 -38 11 -46 24z" />
    <glyph glyph-name="w" unicode="w" horiz-adv-x="688" 
d="M93 415c-4 -4 -4 -8 -3 -13c3 -13 16 -20 27 -23c3 0 6 -1 9 -1c18 0 35 8 44 22c9 18 9 42 -3 58c22 -5 40 -21 60 -31c18 -9 40 -14 61 -12c13 1 27 6 35 16c10 9 13 24 11 36c-3 13 -10 24 -22 31c-9 5 -22 5 -32 0c-9 -6 -14 -19 -6 -27c4 -4 11 -5 14 -2
c5 5 5 13 0 14c8 4 19 2 26 -4c6 -7 9 -18 6 -26c-3 -11 -13 -19 -24 -22c-14 -4 -30 -2 -43 3c-32 9 -59 30 -90 46c-23 12 -47 23 -73 23c-14 0 -28 -3 -41 -10c-28 -16 -42 -45 -42 -71c0 -14 3 -28 10 -40c17 -33 57 -51 93 -59c33 -8 68 -7 103 -9c33 0 67 2 101 2
c46 0 92 1 139 3h56c41 -2 85 -2 127 1c8 0 16 -1 27 -1c6 0 20 -1 20 8c0 2 -3 6 -7 6c-9 3 -20 4 -30 3c-55 -1 -109 -1 -163 -1c-53 -2 -105 -3 -157 -3c-60 0 -119 1 -179 3c-14 0 -30 2 -43 6c-27 9 -52 19 -68 43c-8 11 -11 24 -11 37c0 21 11 44 26 54
c12 8 27 12 41 12c34 0 60 -20 70 -52c1 -4 1 -14 0 -19c-2 -5 -5 -9 -10 -13c-6 -4 -13 -8 -21 -9c-9 0 -19 5 -22 13c-2 3 -2 7 -5 9c-1 1 -6 4 -11 -1zM188 417l24 -39c6 -8 12 -8 22 -2c8 7 9 18 3 24c-11 10 -24 16 -35 24c-6 3 -10 4 -14 -7z" />
    <glyph glyph-name="x" unicode="x" horiz-adv-x="688" 
d="M586 416c-3 -2 -3 -6 -5 -9c-3 -8 -13 -13 -22 -13c-8 1 -15 5 -21 9c-5 4 -8 8 -10 13c-1 5 -1 15 0 19c10 32 36 52 70 52c14 0 29 -4 41 -12c15 -10 26 -33 26 -54c0 -13 -3 -26 -11 -37c-16 -24 -41 -34 -68 -43c-13 -4 -29 -6 -43 -6c-60 -2 -119 -3 -179 -3
c-52 0 -104 1 -157 3c-54 0 -108 0 -163 1c-10 1 -21 0 -30 -3c-4 0 -7 -4 -7 -6c0 -9 14 -8 20 -8c11 0 19 1 27 1c42 -3 86 -3 127 -1h56c47 -2 93 -3 139 -3c34 0 68 -2 101 -2c35 2 70 1 103 9c36 8 76 26 93 59c7 12 10 26 10 40c0 26 -14 55 -42 71
c-13 7 -27 10 -41 10c-26 0 -50 -11 -73 -23c-31 -16 -58 -37 -90 -46c-13 -5 -29 -7 -43 -3c-11 3 -21 11 -24 22c-3 8 0 19 6 26c7 6 18 8 26 4c-5 -1 -5 -9 0 -14c3 -3 10 -2 14 2c8 8 3 21 -6 27c-10 5 -23 5 -32 0c-12 -7 -19 -18 -22 -31c-2 -12 1 -27 11 -36
c8 -10 22 -15 35 -16c21 -2 43 3 61 12c20 10 38 26 60 31c-12 -16 -12 -40 -3 -58c9 -14 26 -22 44 -22c3 0 6 1 9 1c11 3 24 10 27 23c1 5 1 9 -3 13c-5 5 -10 2 -11 1zM502 417c-4 11 -8 10 -14 7c-11 -8 -24 -14 -35 -24c-6 -6 -5 -17 3 -24c10 -6 16 -6 22 2z" />
    <glyph glyph-name="y" unicode="y" horiz-adv-x="739" 
d="M586 412c6 8 -1 21 -7 29c-18 21 -42 32 -69 35c-26 3 -51 1 -76 -3l-95 -15c-61 -11 -134 -27 -188 0c-18 9 -28 20 -32 40c-5 25 16 44 41 38c9 -3 15 -9 22 -15c7 -3 10 -9 18 -9c3 8 -1 16 -4 23c-12 15 -28 24 -50 23c-21 -3 -37 -15 -44 -37c-2 -7 -3 -14 -3 -20
c0 -62 77 -85 141 -81c32 2 63 8 96 12c30 3 63 10 92 15c28 7 55 11 83 7c25 -3 49 -9 64 -29c2 -3 6 -16 11 -13zM734 381c-6 4 -13 5 -20 6c-29 0 -56 0 -84 2c-45 0 -90 -1 -134 0c-87 0 -176 2 -263 3c-37 -1 -74 -1 -111 -2c-26 0 -54 2 -79 2c-4 1 -13 -1 -16 -1
c3 -10 16 -9 26 -10c-8 -1 -31 -1 -41 -2c11 -7 37 -9 47 -11c11 0 21 0 32 -2c85 -3 168 0 252 2c6 0 22 0 29 1c-20 -8 -30 -16 -40 -24c-15 -13 -24 -33 -24 -53c0 -13 5 -23 11 -33c9 -13 28 -20 45 -20c19 0 35 13 42 29c8 20 -1 47 -26 51c-11 2 -19 0 -22 -15
c8 -3 17 -2 23 -7c7 -4 13 -14 9 -24c-3 -13 -18 -17 -28 -17c-20 0 -35 14 -36 27c-5 19 6 40 21 51c24 17 50 24 78 27c48 3 94 6 141 7c51 2 104 0 156 1c9 -1 12 2 12 12z" />
    <glyph glyph-name="z" unicode="z" horiz-adv-x="744" 
d="M160 412c5 -3 9 10 11 13c15 20 39 26 64 29c28 4 55 0 83 -7c29 -5 62 -12 92 -15c33 -4 64 -10 96 -12c64 -4 141 19 141 81c0 6 -1 13 -3 20c-7 22 -23 34 -44 37c-22 1 -38 -8 -50 -23c-3 -7 -7 -15 -4 -23c8 0 11 6 18 9c7 6 13 12 22 15c25 6 46 -13 41 -38
c-4 -20 -14 -31 -32 -40c-54 -27 -127 -11 -188 0l-95 15c-25 4 -50 6 -76 3c-27 -3 -51 -14 -69 -35c-6 -8 -13 -21 -7 -29zM12 381c0 -10 3 -13 12 -12c52 -1 105 1 156 -1c47 -1 93 -4 141 -7c28 -3 54 -10 78 -27c15 -11 26 -32 21 -51c-1 -13 -16 -27 -36 -27
c-10 0 -25 4 -28 17c-4 10 2 20 9 24c6 5 15 4 23 7c-3 15 -11 17 -22 15c-25 -4 -34 -31 -26 -51c7 -16 23 -29 42 -29c17 0 36 7 45 20c6 10 11 20 11 33c0 20 -9 40 -24 53c-10 8 -20 16 -40 24c7 -1 23 -1 29 -1c84 -2 167 -5 252 -2c11 2 21 2 32 2c10 2 36 4 47 11
c-10 1 -33 1 -41 2c10 1 23 0 26 10c-3 0 -12 2 -16 1c-25 0 -53 -2 -79 -2c-37 1 -74 1 -111 2c-87 -1 -176 -3 -263 -3c-44 -1 -89 0 -134 0c-28 -2 -55 -2 -84 -2c-7 -1 -14 -2 -20 -6z" />
    <glyph glyph-name="zero" unicode="0" horiz-adv-x="438" 
d="M23 412c0 -7 12 -11 19 -12c26 -5 55 -6 82 -4c48 6 92 9 132 37c10 8 20 19 26 30c12 23 -1 43 -26 45c-4 -5 -10 -7 -5 -16c9 -14 5 -19 -2 -28c-8 -6 -15 -13 -25 -17c-30 -14 -47 -21 -78 -27c-32 -9 -69 -8 -101 -5c-9 0 -18 2 -22 -3zM10 368c0 -6 0 -9 17 -11h8
c53 -1 107 -4 160 -5c54 0 108 2 163 -9c21 -3 43 -1 63 4c6 3 9 15 4 21c-12 9 -19 12 -38 13c-21 2 -42 -2 -62 -3c-41 0 -83 2 -124 1c-53 -1 -148 -1 -180 -3c-7 -1 -11 -7 -11 -8zM21 325c3 -5 12 -3 21 -3c33 1 70 -1 100 -11c31 -8 48 -17 77 -33c9 -4 16 -11 24 -17
c7 -11 11 -16 0 -29c-5 -8 1 -11 5 -17c25 2 38 20 28 45c-6 11 -14 22 -24 30c-38 31 -82 37 -130 45c-27 4 -56 5 -82 2c-7 -1 -19 -5 -19 -12z" />
    <glyph glyph-name="one" unicode="1" horiz-adv-x="745" 
d="M739 312c-4 4 -16 4 -23 4c-17 0 -35 -2 -52 0c-36 2 -72 5 -108 7c-60 2 -120 1 -181 4c-74 4 -149 5 -224 4c-11 0 -23 0 -34 7l3 16c8 22 7 45 2 67c-4 13 -13 25 -21 37c-3 4 -12 8 -17 7c-8 -1 -7 -10 -6 -17v-12c4 -25 -2 -47 -14 -68c-15 -26 -29 -54 -56 -72
c-3 -2 -3 -11 -2 -16c1 -6 6 -10 14 -9l83 12c20 3 40 4 59 3c47 -1 92 1 139 1c84 0 168 6 252 2c9 -1 19 2 28 2c49 -1 97 0 146 6c7 1 16 3 12 15z" />
    <glyph glyph-name="two" unicode="2" horiz-adv-x="745" 
d="M6 424c4 -4 16 -4 23 -4c17 0 35 2 52 0c36 -2 72 -5 108 -7c60 -2 120 -1 181 -4c74 -4 149 -5 224 -4c11 0 23 0 34 -7l-3 -16c-8 -22 -7 -45 -2 -67c4 -13 13 -25 21 -37c3 -4 12 -8 17 -7c8 1 7 10 6 17v12c-4 25 2 47 14 68c15 26 29 54 56 72c3 2 3 11 2 16
c-1 6 -6 10 -14 9l-83 -12c-20 -3 -40 -4 -59 -3c-47 1 -92 -1 -139 -1c-84 0 -168 -6 -252 -2c-9 1 -19 -2 -28 -2c-49 1 -97 0 -146 -6c-7 -1 -16 -3 -12 -15z" />
    <glyph glyph-name="three" unicode="3" horiz-adv-x="1040" 
d="M991 368c3 -9 31 -3 37 8c4 8 7 17 7 25c0 19 -18 40 -46 54c-15 8 -49 19 -80 22c-51 5 -124 2 -178 -11c-83 -20 -165 -43 -247 -66c-63 -17 -126 -36 -189 -55c-44 -13 -88 -27 -133 -39c-22 -5 -45 -7 -68 -7c-32 -1 -48 14 -53 43c-3 15 3 26 17 32c7 3 13 -2 20 4
c3 8 -9 17 -15 18c-13 4 -27 4 -38 -7c-17 -17 -25 -38 -18 -62c6 -20 17 -37 35 -50c37 -25 77 -36 121 -34c33 2 67 7 100 12c26 3 52 9 77 15l58 12c57 12 111 22 165 38c44 13 88 27 133 41c72 22 145 41 219 54c22 4 38 3 60 2c12 0 27 -4 32 -17
c0 -22 -18 -26 -16 -32zM162 276l7 3c33 8 65 15 97 24c34 9 66 22 100 32c47 14 94 27 141 40c46 12 92 26 138 37c47 11 93 21 140 29c23 4 46 3 69 1c-2 -1 -5 -3 -8 -4c-62 -18 -124 -37 -186 -54c-78 -21 -156 -39 -234 -60c-71 -20 -144 -33 -217 -46
c-15 -3 -31 -4 -46 -5c-1 1 -1 2 -1 3z" />
    <glyph glyph-name="four" unicode="4" horiz-adv-x="1040" 
d="M48 368c2 6 -16 10 -16 32c5 13 20 17 32 17c22 1 38 2 60 -2c74 -13 147 -32 219 -54c45 -14 89 -28 133 -41c54 -16 108 -26 165 -38l58 -12c25 -6 51 -12 77 -15c33 -5 67 -10 100 -12c44 -2 84 9 121 34c18 13 29 30 35 50c7 24 -1 45 -18 62c-11 11 -25 11 -38 7
c-6 -1 -18 -10 -15 -18c7 -6 13 -1 20 -4c14 -6 20 -17 17 -32c-5 -29 -21 -44 -53 -43c-23 0 -46 2 -68 7c-45 12 -89 26 -133 39c-63 19 -126 38 -189 55c-82 23 -164 46 -247 66c-54 13 -127 16 -178 11c-31 -3 -65 -14 -80 -22c-28 -14 -46 -35 -46 -54
c0 -8 3 -17 7 -25c6 -11 34 -17 37 -8zM877 276c0 -1 0 -2 -1 -3c-15 1 -31 2 -46 5c-73 13 -146 26 -217 46c-78 21 -156 39 -234 60c-62 17 -124 36 -186 54c-3 1 -6 3 -8 4c23 2 46 3 69 -1c47 -8 93 -18 140 -29c46 -11 92 -25 138 -37c47 -13 94 -26 141 -40
c34 -10 66 -23 100 -32c32 -9 64 -16 97 -24z" />
    <glyph glyph-name="five" unicode="5" horiz-adv-x="351" 
d="M176 262c10 0 10 15 12 27c1 8 11 73 14 82c4 18 12 57 13 83c0 16 -1 45 -33 45c-27 0 -39 -18 -36 -58c2 -29 8 -65 9 -81c3 -38 7 -53 9 -76c0 -2 1 -22 12 -22zM206 254c8 -4 13 2 17 9c8 16 23 30 36 39c10 9 23 14 34 20c13 7 26 18 31 33c7 13 5 32 -7 40
c-11 10 -27 13 -42 4c-7 -5 -22 -21 -26 -28c-18 -25 -21 -34 -33 -63c-4 -6 -11 -22 -13 -30c-1 -9 -4 -21 3 -24zM145 255c7 4 4 15 2 24c-2 8 -9 24 -13 30c-13 29 -16 38 -35 62c-4 7 -20 23 -27 27c-15 9 -31 6 -42 -5c-11 -8 -13 -27 -6 -40c6 -15 19 -25 32 -32
c11 -6 24 -10 35 -19c13 -9 28 -22 37 -38c4 -7 9 -13 17 -9z" />
    <glyph glyph-name="six" unicode="6" horiz-adv-x="286" 
d="M23 348c4 -8 15 -5 24 -3c8 2 24 8 31 12c29 12 38 15 62 33c8 4 24 20 28 26c10 15 7 31 -4 43c-7 11 -26 13 -39 7c-16 -6 -26 -19 -33 -31c-7 -11 -11 -24 -20 -35c-10 -13 -23 -27 -39 -36c-7 -3 -14 -8 -10 -16zM29 315c0 -10 15 -9 27 -11c8 -2 73 -10 82 -14
c18 -3 57 -10 84 -11c16 0 44 6 44 34s-18 37 -58 34c-30 -2 -65 -8 -81 -9c-38 -4 -53 -8 -77 -10c-2 0 -22 -2 -21 -13zM21 284c-4 -8 3 -13 10 -17c16 -8 29 -23 39 -36c9 -11 13 -24 20 -34c7 -13 18 -26 33 -31c13 -8 32 -5 39 7c11 10 14 27 4 42c-4 7 -20 22 -27 26
c-25 18 -34 21 -63 33c-7 4 -23 11 -31 12c-9 2 -21 5 -24 -2z" />
    <glyph glyph-name="seven" unicode="7" horiz-adv-x="472" 
d="M85 496c-6 -2 -12 -4 -18 -7c-34 -22 -55 -43 -56 -86c0 -13 2 -32 11 -43s17 -22 26 -34c-26 -28 -30 -42 -31 -80c0 -22 15 -50 29 -65c2 -1 2 -2 2 -3c6 -6 11 -14 19 -11c10 3 4 12 3 20c-5 30 2 62 24 84c16 16 49 29 72 31c69 6 126 7 196 6c25 -1 51 -6 77 -8
c10 -2 27 15 22 20c-3 3 -12 11 -19 15h-22c-40 0 -79 -2 -119 0c-43 2 -85 7 -128 14c-25 4 -49 14 -73 26c-17 8 -32 25 -36 43c-4 22 12 42 23 59c3 5 6 9 -2 19z" />
    <glyph glyph-name="eight" unicode="8" horiz-adv-x="472" 
d="M387 496c-8 -10 -5 -14 -2 -19c11 -17 27 -37 23 -59c-4 -18 -19 -35 -36 -43c-24 -12 -48 -22 -73 -26c-43 -7 -85 -12 -128 -14c-40 -2 -79 0 -119 0h-22c-7 -4 -16 -12 -19 -15c-5 -5 13 -22 22 -20c26 2 52 7 77 8c70 1 127 0 196 -6c23 -2 56 -15 72 -31
c22 -22 29 -54 24 -84c-1 -8 -7 -17 3 -20c8 -3 13 5 19 11c0 1 1 2 2 3c15 15 30 43 30 65c-1 38 -6 52 -32 80c9 12 17 23 26 34s12 30 12 43c-1 43 -23 64 -57 86c-6 3 -12 5 -18 7z" />
    <glyph glyph-name="nine" unicode="9" horiz-adv-x="438" 
d="M415 412c-4 5 -13 3 -22 3c-32 -3 -69 -4 -101 5c-31 6 -48 13 -78 27c-10 4 -17 11 -25 17c-7 9 -11 14 -2 28c5 9 -1 11 -5 16c-25 -2 -38 -22 -26 -45c6 -11 16 -22 26 -30c40 -28 84 -31 132 -37c27 -2 56 -1 82 4c7 1 19 5 19 12zM428 368c0 1 -4 7 -11 8
c-32 2 -127 2 -180 3c-41 1 -83 -1 -124 -1c-20 1 -41 5 -62 3c-19 -1 -26 -4 -38 -13c-5 -6 -2 -18 4 -21c20 -5 42 -7 63 -4c55 11 109 9 163 9c53 1 107 4 160 5h8c17 2 17 5 17 11zM417 325c0 7 -12 11 -19 12c-26 3 -55 2 -82 -2c-48 -8 -92 -14 -130 -45
c-10 -8 -18 -19 -24 -30c-10 -25 3 -43 28 -45c4 6 10 9 5 17c-11 13 -7 18 0 29c8 6 15 13 24 17c29 16 46 25 77 33c30 10 67 12 100 11c9 0 18 -2 21 3z" />
    <glyph glyph-name="asterisk" unicode="*" horiz-adv-x="593" 
d="M310 231c8 25 19 47 40 62c13 10 13 19 -2 29c-17 15 -28 33 -36 55c-2 7 -4 18 -14 18c-8 -1 -13 -17 -18 -27c-8 -19 -18 -37 -35 -50c-11 -7 -12 -18 -2 -24c19 -13 32 -32 39 -52l5 -14c2 -4 5 -7 11 -7s9 4 12 10zM264 203c7 5 -6 29 -13 40c-14 27 -43 35 -73 35
c-14 0 -28 -2 -41 -7c-22 -8 -43 -15 -65 -22c-8 -3 -16 -5 -24 -5c-10 0 -20 3 -30 10c-2 1 -7 3 -9 1c-5 -4 -5 -12 -1 -19c10 -16 37 -37 64 -37c39 0 70 21 98 32c8 5 17 7 26 7s17 -2 24 -6c11 -8 19 -14 27 -22c5 -3 8 -11 17 -7zM329 203c9 -4 12 4 17 7
c8 8 16 14 27 22c7 4 15 6 24 6s18 -2 26 -7c28 -11 59 -32 98 -32c27 0 54 21 64 37c5 7 4 15 -1 19c-2 2 -7 0 -9 -1c-10 -7 -20 -10 -30 -10c-8 0 -16 2 -24 5c-22 7 -43 14 -65 22c-13 5 -27 7 -41 7c-30 0 -59 -8 -73 -35c-7 -11 -20 -35 -13 -40z" />
    <glyph glyph-name="backslash" unicode="\" horiz-adv-x="985" 
d="M804 269c19 0 22 -3 22 -8c0 -3 2 -7 -10 -8c-21 -2 -33 -5 -76 -5c-9 0 -19 0 -28 -1c-37 -3 -57 2 -95 5c-14 2 -28 3 -42 6c-15 4 -30 9 -45 15c-10 4 -20 8 -29 13c-5 2 -9 4 -13 1c-17 -13 -38 -15 -58 -20c-46 -13 -94 -16 -142 -20c-65 -5 -76 1 -104 4
c-2 0 -6 3 -7 5c-2 4 5 10 16 10c7 0 15 -1 22 -1c13 -1 27 0 40 1c17 1 34 3 51 5c54 3 105 13 155 29c4 1 8 3 14 6l-31 36c-5 6 -11 13 -15 20c-7 11 -3 14 6 20c6 4 22 15 28 22c15 17 18 24 27 44c4 9 5 15 12 15c11 0 10 -7 13 -19c5 -22 27 -45 48 -63
c2 -1 5 -4 8 -6c4 -3 5 -10 -1 -16l-15 -16c-13 -13 -26 -24 -39 -37c-1 -1 -2 -2 -3 -5c20 -9 39 -18 60 -21c48 -8 80 -13 127 -12c50 0 54 -2 104 1zM495 316c14 12 40 33 51 51c-15 17 -30 28 -45 51c1 -1 -17 -21 -19 -23c-5 -6 -29 -24 -33 -28c5 -6 37 -43 46 -51z
M385 310c-17 -1 -35 -2 -52 -2c-75 0 -149 0 -224 1c-29 1 -69 6 -98 8c-2 1 -4 0 -5 4c-2 7 2 9 14 9c17 -1 35 -1 52 -2c33 -1 77 -1 109 -1c47 0 93 2 139 3c22 0 43 2 65 3c6 0 15 1 16 -9c-2 -11 -4 -14 -16 -14zM966 330c12 0 16 -2 14 -9c-1 -4 -3 -3 -5 -4
c-29 -2 -69 -7 -98 -8c-75 -1 -149 -1 -224 -1c-17 0 -35 1 -52 2c-12 0 -14 3 -16 14c1 10 10 9 16 9c22 -1 43 -3 65 -3c46 -1 92 -3 139 -3c32 0 76 0 109 1c17 1 35 1 52 2z" />
    <glyph glyph-name="colon" unicode=":" horiz-adv-x="980" 
d="M5 331c1 -9 5 -13 22 -14c45 -2 90 -1 135 -3c63 -1 125 2 188 0c38 -2 77 0 114 -2c16 0 27 -7 36 -19c7 -7 13 -16 19 -24c15 -14 25 -21 39 -35c6 -5 13 -11 20 -15c8 -6 15 -5 23 3c-3 34 -4 60 -30 89c9 1 14 4 18 4c26 0 50 -3 75 0c11 1 20 -7 28 -14
c13 -11 32 -26 47 -41c11 -12 20 -12 37 -5c62 28 115 56 187 59c15 3 17 17 4 22c-4 0 -8 1 -12 2c-23 1 -42 6 -65 8c-20 4 -43 12 -61 17c-18 6 -38 23 -56 30c-5 3 -13 6 -19 2c-12 -5 -27 -18 -37 -25c-27 -22 -50 -28 -84 -27c-5 1 -11 0 -17 0c-12 -1 -24 -1 -38 -1
c2 6 8 18 9 21c8 14 8 21 11 35c3 7 0 17 -5 21c-7 5 -15 -3 -19 -6c-29 -23 -57 -44 -85 -67c-8 -6 -14 -9 -24 -8c-11 1 -23 0 -35 1c-57 1 -114 -2 -170 -2c-37 0 -75 -1 -112 1c-38 1 -76 1 -115 3c-9 0 -28 -3 -28 -10zM602 325c5 0 17 2 20 1l14 -1
c-3 0 -41 -4 -46 -3c-17 2 -18 1 12 3z" />
    <glyph glyph-name="comma" unicode="," horiz-adv-x="942" 
d="M12 337c-11 -4 -12 -16 25 -19c61 -6 117 -26 166 -66c13 -12 22 -5 37 10s30 30 51 38c31 11 60 7 90 2c4 -1 8 -6 11 -10c13 -14 27 -22 48 -17c14 4 25 12 30 27h58c7 0 14 0 20 -1c7 -1 14 -3 19 -6c13 -7 25 -14 39 -9c3 0 10 3 12 5c7 10 18 11 28 13
c60 3 115 1 173 -1c31 -1 62 3 94 5c5 1 11 2 16 5c13 7 8 13 -2 15c-5 1 -12 2 -19 2c-57 1 -115 0 -172 -2c-28 -1 -56 4 -84 1c-15 -2 -26 -1 -38 9c-15 15 -27 12 -44 -3c-4 -4 -10 -7 -14 -7c-25 -1 -49 -1 -73 0c-5 0 -10 4 -13 8c-6 7 -11 16 -18 22
c-22 17 -47 9 -63 -19c-1 -3 -3 -5 -5 -9c-47 -7 -91 -2 -126 31c-12 12 -22 22 -36 33c-6 5 -11 3 -17 -2c-29 -25 -68 -39 -105 -43c-20 -3 -41 -5 -62 -7c-3 0 -6 -1 -8 -1zM790 312v2c5 0 36 -2 41 -1c0 -1 7 -1 7 -2c-5 0 -43 2 -48 1zM650 313v-1c-4 0 -8 -1 -13 -1
c1 1 1 1 1 2h12z" />
    <glyph glyph-name="exclam" unicode="!" horiz-adv-x="633" 
d="M485 296c16 -8 25 -15 43 -7c27 12 39 18 58 27c10 3 24 9 34 14c9 3 11 13 5 19c-3 3 -6 4 -9 5c-16 7 -35 16 -51 24s-27 13 -44 22c-6 3 -12 0 -17 -3c-23 -13 -32 -20 -59 -33c-4 -2 -22 -12 -26 -12l-108 -3h-199c-7 -1 -16 4 -21 7c-12 7 -19 13 -29 19
c-5 3 -8 3 -14 -2c-12 -10 -23 -17 -36 -27c-10 -8 -9 -13 0 -19l22 -16c5 -3 14 -10 21 -13c4 -2 9 1 12 4c9 6 20 15 29 21c10 7 14 9 27 9c44 0 88 1 131 1c24 -1 48 -2 72 -2c28 0 56 2 84 2c4 0 8 0 12 -2c29 -14 39 -23 63 -35z" />
    <glyph glyph-name="numbersign" unicode="#" horiz-adv-x="473" 
d="M232 210c6 -6 12 -7 17 1c6 8 15 23 19 34c5 15 12 29 14 44c6 48 -8 97 -29 133c-2 6 -11 22 -22 8c-11 -18 -23 -35 -30 -54c-23 -62 -7 -116 31 -166zM178 205c5 3 5 11 4 16c-7 27 -22 47 -45 62c-14 9 -31 14 -47 14c-9 0 -18 -1 -27 -4c-18 -8 -37 -22 -48 -40
c-7 -12 -15 -39 -4 -51c5 -4 11 -1 16 3c23 14 48 21 74 21c20 0 41 -4 60 -13c5 -3 12 -11 17 -8zM296 205c-5 3 -5 11 -3 16c6 27 21 47 45 62c14 9 30 14 47 14c8 0 17 -1 26 -4c19 -8 38 -22 48 -40c7 -12 15 -39 4 -51c-5 -4 -11 -1 -16 3c-22 14 -48 21 -73 21
c-21 0 -41 -4 -60 -13c-5 -3 -13 -11 -18 -8z" />
    <glyph glyph-name="period" unicode="." horiz-adv-x="943" 
d="M931 337l-18 4c-2 0 -5 1 -8 1c-21 2 -42 4 -62 7c-37 4 -76 18 -105 43c-6 5 -11 7 -17 2c-14 -11 -24 -21 -36 -33c-35 -33 -79 -38 -126 -31c-2 4 -4 6 -5 9c-16 28 -41 36 -63 19c-7 -6 -12 -15 -18 -22c-3 -4 -8 -8 -13 -8c-24 -1 -48 -1 -73 0c-4 0 -10 3 -14 7
c-17 15 -29 18 -44 3c-12 -10 -23 -11 -38 -9c-28 3 -56 -2 -84 -1c-57 2 -115 3 -172 2c-7 0 -14 -1 -19 -2c-10 -2 -15 -8 -2 -15c5 -3 11 -4 16 -5c32 -2 63 -6 94 -5c58 2 113 4 173 1c10 -2 21 -3 28 -13c2 -2 9 -5 12 -5c14 -5 26 2 39 9c5 3 12 5 19 6c6 1 13 1 20 1
h58c5 -15 16 -23 30 -27c21 -5 35 3 48 17c3 4 7 9 11 10c30 5 59 9 90 -2c21 -8 36 -23 51 -38s24 -22 37 -10c49 40 105 60 166 66c37 3 36 15 25 19zM153 312c-5 1 -43 -1 -48 -1c0 1 7 1 7 2c5 -1 36 1 41 1v-2zM293 313h12c0 -1 0 -1 1 -2c-5 0 -9 1 -13 1v1z" />
    <glyph glyph-name="question" unicode="?" horiz-adv-x="633" 
d="M148 296c24 12 34 21 63 35c4 2 8 2 12 2c28 0 56 -2 84 -2c24 0 48 1 72 2c43 0 87 -1 131 -1c13 0 17 -2 27 -9c9 -6 20 -15 29 -21c3 -3 8 -6 12 -4c7 3 16 10 21 13l22 16c9 6 10 11 0 19c-13 10 -24 17 -36 27c-6 5 -9 5 -14 2c-10 -6 -17 -12 -29 -19
c-5 -3 -14 -8 -21 -7h-199l-108 3c-4 0 -22 10 -26 12c-27 13 -36 20 -59 33c-5 3 -11 6 -17 3c-17 -9 -28 -14 -44 -22s-35 -17 -51 -24c-3 -1 -6 -2 -9 -5c-6 -6 -4 -16 5 -19c10 -5 24 -11 34 -14c19 -9 31 -15 58 -27c18 -8 27 -1 43 7z" />
    <glyph glyph-name="quotedbl" unicode="&#x22;" horiz-adv-x="726" 
d="M31 329c-2 1 -3 1 -4 2c-7 2 -15 11 -20 2c-6 -10 6 -13 11 -17c10 -10 21 -19 30 -27c-10 -10 -19 -19 -27 -28c-4 -3 -7 -7 -9 -11c-3 -6 2 -13 7 -11c9 6 14 -3 21 -4c7 7 15 14 25 23c-1 -10 -11 -15 -3 -22c7 -7 11 3 17 4c3 -4 7 -7 11 -11c6 4 12 7 17 11
c10 -9 10 -9 20 -2c3 2 6 4 9 4c11 -4 18 3 26 10l19 20c2 0 6 1 9 1c73 -1 145 -2 218 -2c38 -1 76 1 114 1h17c1 -26 5 -29 28 -25c7 2 15 3 22 5c38 9 77 15 115 16c10 1 16 5 17 16c0 11 -8 11 -18 12c-12 2 -24 3 -34 5c-32 5 -59 12 -91 20c-8 2 -15 6 -24 6
c-3 0 -8 -1 -10 -4s-4 -5 -4 -8c-1 -4 -2 -8 -2 -12c0 -3 1 -6 0 -9c0 -2 0 -3 -1 -3c-1 -1 -3 0 -5 0h-9h-15h-30c-46 0 -93 -1 -140 -2c-45 0 -90 1 -135 1c-14 0 -25 4 -34 15c-10 11 -22 21 -33 32c-10 9 -15 8 -20 -6c-4 3 -8 7 -12 8c-3 1 -8 1 -10 -1s-1 -7 0 -10
c3 -4 8 -8 11 -12c4 -5 10 -9 10 -16c-7 6 -14 13 -21 20c-4 5 -9 9 -14 14c-4 4 -8 3 -11 0c-2 -3 -2 -7 -1 -10c1 -4 4 -6 6 -9c-8 3 -14 7 -19 12c-8 8 -16 11 -24 2zM128 321c9 -9 19 -17 28 -25c-17 -1 -22 13 -28 25zM421 278h14v-2c-3 0 -11 0 -14 1v1z" />
    <glyph glyph-name="quotesingle" unicode="'" horiz-adv-x="726" 
d="M695 329c-8 9 -16 6 -24 -2c-5 -5 -11 -9 -19 -12c2 3 5 5 6 9c1 3 1 7 -1 10c-3 3 -7 4 -11 0c-5 -5 -10 -9 -14 -14c-7 -7 -14 -14 -21 -20c0 7 6 11 10 16c3 4 8 8 11 12c1 3 2 8 0 10s-7 2 -10 1c-4 -1 -8 -5 -12 -8c-5 14 -10 15 -20 6c-11 -11 -23 -21 -33 -32
c-9 -11 -20 -15 -34 -15c-45 0 -90 -1 -135 -1c-47 1 -94 2 -140 2h-30h-15h-9c-2 0 -4 -1 -5 0c-1 0 -1 1 -1 3c-1 3 0 6 0 9c0 4 -1 8 -2 12c0 3 -2 5 -4 8s-7 4 -10 4c-9 0 -16 -4 -24 -6c-32 -8 -59 -15 -91 -20c-10 -2 -22 -3 -34 -5c-10 -1 -18 -1 -18 -12
c1 -11 7 -15 17 -16c38 -1 77 -7 115 -16c7 -2 15 -3 22 -5c23 -4 27 -1 28 25h17c38 0 76 -2 114 -1c73 0 145 1 218 2c3 0 7 -1 9 -1l19 -20c8 -7 15 -14 26 -10c3 0 6 -2 9 -4c10 -7 10 -7 20 2c5 -4 11 -7 17 -11c4 4 8 7 11 11c6 -1 10 -11 17 -4c8 7 -2 12 -3 22
c10 -9 18 -16 25 -23c7 1 12 10 21 4c5 -2 10 5 7 11c-2 4 -5 8 -9 11c-8 9 -17 18 -27 28c9 8 20 17 30 27c5 4 17 7 11 17c-5 9 -13 0 -20 -2c-1 -1 -2 -1 -4 -2zM598 321c-6 -12 -11 -26 -28 -25c9 8 19 16 28 25zM307 278v-1c-3 -1 -13 -1 -16 -1v2h16z" />
    <glyph glyph-name="semicolon" unicode=";" horiz-adv-x="981" 
d="M976 332c0 6 -19 9 -28 9c-39 -2 -77 -2 -115 -3c-37 -2 -75 -1 -112 -1c-56 0 -113 3 -170 2c-12 -1 -24 0 -35 -1c-10 -1 -16 2 -24 8c-28 23 -56 44 -85 67c-4 3 -12 11 -19 6c-5 -4 -8 -14 -5 -21c3 -14 3 -21 11 -35c1 -3 7 -15 9 -21c-14 0 -26 0 -38 1
c-6 0 -12 1 -17 0c-34 -1 -57 5 -84 27c-10 7 -25 20 -37 25c-6 4 -14 1 -19 -2c-18 -7 -38 -24 -56 -30c-18 -5 -41 -13 -61 -17c-23 -2 -42 -7 -65 -8c-4 -1 -8 -2 -12 -2c-13 -5 -11 -19 4 -22c72 -3 125 -31 187 -59c17 -7 26 -7 37 5c15 15 34 30 47 41
c8 7 17 15 28 14c25 -3 49 0 75 0c4 0 9 -3 18 -4c-26 -29 -27 -55 -30 -89c8 -8 15 -9 23 -3c7 4 14 10 20 15c14 14 24 21 39 35c6 8 12 17 19 24c9 12 20 19 36 19c37 2 76 0 114 2c63 2 125 -1 188 0c45 2 90 1 135 3c17 1 21 5 22 15zM379 325c30 -2 29 -1 12 -3
c-5 -1 -43 3 -46 3l14 1c3 1 15 -1 20 -1z" />
    <glyph glyph-name="slash" unicode="/" horiz-adv-x="976" 
d="M963 353c-3 5 -39 4 -59 4l-71 3c-36 3 -75 2 -109 5c-2 1 -14 21 -20 27c-15 17 -33 25 -52 25c-14 0 -29 -5 -42 -12c-10 -7 -19 -14 -22 -25c-1 -4 -2 -9 -2 -14c0 -16 10 -31 27 -35h5c12 0 23 5 32 12c3 4 4 8 5 11c1 6 -4 11 -10 9c-3 -1 -6 -5 -10 -6
c-8 -4 -9 -4 -18 -4c-9 1 -10 9 -7 17c6 12 17 20 32 21c7 1 10 2 17 1c16 -3 29 -12 31 -30c1 -9 0 -24 -14 -31c-26 -11 -48 -14 -75 -8c-35 8 -70 19 -101 38c-15 9 -31 18 -46 26c-41 18 -81 33 -126 30c-23 -2 -44 -7 -63 -20c-7 -4 -15 -11 -19 -19
c-5 -8 -11 -11 -19 -12l-82 -10c-36 -3 -78 -5 -115 -7c-6 1 -12 -2 -17 -2c-8 -1 -9 -5 -8 -13c0 -7 25 -5 37 -5c30 -2 66 -3 97 -3c29 0 59 1 88 1c11 1 19 -3 24 -12c4 -6 9 -11 13 -15c21 -17 61 -23 81 10c6 10 7 18 -1 29c-14 16 -17 19 -36 15c-10 -2 -11 -6 -8 -19
c4 0 8 1 12 0s11 -2 12 -4c1 -5 0 -10 -3 -15c-4 -7 -10 -7 -18 -7c-11 2 -18 10 -22 20c-4 13 -10 27 0 37c12 12 26 22 46 18c26 -5 49 -14 73 -24c48 -23 92 -54 144 -66c25 -6 50 -14 77 -11c34 3 62 8 87 37c2 2 8 4 12 4c19 0 38 4 57 5c58 2 111 7 169 10
c16 1 23 1 17 14z" />
    <glyph glyph-name="underscore" unicode="_" horiz-adv-x="565" 
d="M16 343c-1 -1 -3 -3 -3 -4c0 -14 -3 -29 -3 -43c2 -9 0 -18 8 -25c18 -15 33 -34 52 -44c17 -9 28 -15 46 -23c19 -10 63 -21 86 -21h36c27 0 50 3 77 9c31 6 61 12 89 24c5 2 10 2 13 -1c10 -12 22 -24 33 -36c3 -5 4 -8 10 -6c6 0 9 3 11 7c4 11 9 21 14 32
c19 45 40 90 62 136c9 19 12 38 -3 57c-2 2 -2 3 -4 5c-3 6 -7 9 -13 9c-3 0 -6 0 -11 1c-6 0 -12 2 -18 2c-9 0 -19 -2 -30 -2c-33 0 -68 2 -101 2c-14 0 -26 0 -38 1c-8 2 -21 3 -24 -6c-2 -9 -3 -18 6 -25c10 -9 19 -20 30 -29c1 -3 3 -5 6 -8c-3 -3 -5 -3 -6 -4
c-48 -27 -101 -47 -156 -53c-18 -3 -34 -3 -51 1c-11 3 -21 8 -32 11c-21 6 -42 14 -60 27c-8 6 -15 11 -26 6zM368 345c-9 25 -33 39 -48 60c65 -1 130 -1 196 -3c-4 -12 -9 -24 -13 -36c-12 -30 -24 -59 -40 -86c-4 -8 -7 -17 -10 -26c-2 -3 -3 -7 -5 -13l-19 33
c-5 6 -8 13 -12 21c-3 6 -6 6 -11 1c-5 -4 -9 -9 -15 -12c-33 -18 -68 -33 -104 -42c-3 0 -5 -1 -8 -1c-35 0 -70 -2 -103 7c-19 6 -39 15 -57 21c-20 8 -38 18 -55 29c-6 4 -12 11 -18 17l2 1c1 0 4 -1 7 -3c25 -14 53 -20 80 -27c17 -5 35 -8 53 -5c12 2 25 5 35 8
c24 7 48 10 70 21c21 11 42 20 63 29c3 1 8 3 12 6zM306 325c17 9 23 11 40 18c0 0 0 -1 1 -1c-17 -9 -23 -12 -39 -18c0 0 0 1 -2 1zM36 292v9h1v-9h-1zM54 256c-3 1 -5 1 -5 3c0 9 2 18 3 27h2v-14v-16zM70 254c-4 8 -3 14 0 21c5 -7 3 -13 0 -21zM409 253
c0 -3 0 -6 -2 -9c0 0 -1 0 -1 1c0 2 1 5 1 8h2zM382 239c1 3 3 5 6 8c0 0 1 0 1 -2c-1 -3 -3 -4 -4 -8c-2 0 -2 2 -3 2zM355 228c-2 6 1 9 7 9c2 -6 -3 -7 -7 -9zM329 221c1 3 1 4 4 10c3 -7 3 -10 -4 -10zM217 212c0 -5 -1 -8 -6 -8c-2 2 -3 3 -3 5c1 6 5 4 9 3zM243 209
c-3 -2 -6 -3 -8 -3c0 0 -3 1 -1 3c0 1 1 3 3 3c1 1 3 -2 6 -3zM172 212v-11c-2 2 -3 2 -3 2c0 3 1 6 1 9h2zM188 206c0 3 2 4 2 6h1c0 -2 -1 -5 -1 -6h-2z" />
    <glyph glyph-name="braceleft" unicode="{" horiz-adv-x="591" 
d="M101 312c-18 -5 -20 -5 -28 7s-16 25 -23 37c-5 8 -9 14 -18 17c-6 3 -11 11 -17 5c-7 -7 -1 -14 2 -21c1 -2 3 -3 5 -5l35 -54c-14 -18 -29 -36 -43 -54c-4 -3 -6 -8 -8 -12c-3 -6 -1 -12 5 -16s9 0 14 5c16 18 32 36 49 53c9 9 20 16 37 10c-11 -13 -20 -26 -30 -38
c-5 -5 -13 -11 -12 -17c0 -6 8 -12 13 -18c4 3 8 5 9 7c19 23 37 44 55 67c5 5 9 7 16 7c57 1 113 3 169 2c46 -2 91 -5 136 -1c5 1 8 1 18 -1c-6 -5 -10 -9 -13 -11c-13 -12 -21 -25 -27 -42c-6 -16 -2 -39 13 -49c18 -12 51 -5 59 13c2 5 2 13 -1 17c-3 7 -10 11 -19 9
c-4 -1 -8 -4 -12 -7c2 -5 5 -11 8 -14c-15 -5 -15 -5 -27 0c-5 8 -1 27 3 33c18 31 44 42 79 50l35 8c6 0 4 19 -4 19c-33 0 -63 12 -92 21c-13 4 -23 12 -25 25c-2 14 3 29 15 39c8 7 15 6 21 -3c-4 -4 -10 -8 -15 -12c9 -11 17 -11 24 -11c13 0 16 4 16 16
c-1 24 -22 40 -45 35c-19 -6 -32 -19 -36 -40c-4 -26 4 -47 27 -62c3 -3 6 -5 12 -9c-8 -1 -12 -2 -17 -2c-30 -1 -59 -1 -88 -1h-236c-7 0 -13 1 -18 7c-4 7 -10 14 -14 21c-7 13 -12 24 -17 37c-3 4 -8 9 -11 14c-13 -10 -11 -20 -6 -29c8 -18 17 -34 27 -52z" />
    <glyph glyph-name="braceright" unicode="}" horiz-adv-x="591" 
d="M490 312c10 18 19 34 27 52c5 9 7 19 -6 29c-3 -5 -8 -10 -11 -14c-5 -13 -10 -24 -17 -37c-4 -7 -10 -14 -14 -21c-5 -6 -11 -7 -18 -7h-236c-29 0 -58 0 -88 1c-5 0 -9 1 -17 2c6 4 9 6 12 9c23 15 31 36 27 62c-4 21 -17 34 -36 40c-23 5 -44 -11 -45 -35
c0 -12 3 -16 16 -16c7 0 15 0 24 11c-5 4 -11 8 -15 12c6 9 13 10 21 3c12 -10 17 -25 15 -39c-2 -13 -12 -21 -25 -25c-29 -9 -59 -21 -92 -21c-8 0 -10 -19 -4 -19l35 -8c35 -8 61 -19 79 -50c4 -6 8 -25 3 -33c-12 -5 -12 -5 -27 0c3 3 6 9 8 14c-4 3 -8 6 -12 7
c-9 2 -16 -2 -19 -9c-3 -4 -3 -12 -1 -17c8 -18 41 -25 59 -13c15 10 19 33 13 49c-6 17 -14 30 -27 42c-3 2 -7 6 -13 11c10 2 13 2 18 1c45 -4 90 -1 136 1c56 1 112 -1 169 -2c7 0 11 -2 16 -7c18 -23 36 -44 55 -67c1 -2 5 -4 9 -7c5 6 13 12 13 18c1 6 -7 12 -12 17
c-10 12 -19 25 -30 38c17 6 28 -1 37 -10c17 -17 33 -35 49 -53c5 -5 8 -9 14 -5s8 10 5 16c-2 4 -4 9 -8 12l-43 54c12 18 23 36 35 54c2 2 4 3 5 5c3 7 9 14 2 21c-6 6 -11 -2 -17 -5c-9 -3 -13 -9 -18 -17c-7 -12 -15 -25 -23 -37s-10 -12 -28 -7z" />
    <glyph glyph-name="bracketleft" unicode="[" horiz-adv-x="712" 
d="M40 417c-17 2 -28 -7 -24 -22c2 -12 6 -21 17 -27c16 -8 33 -14 50 -18c13 -2 27 -6 41 -10c9 -3 17 -7 25 -15c4 -4 9 -11 8 -13c-8 1 -23 1 -31 1c-19 -1 -37 -2 -56 -1c-12 -1 -17 0 -29 7c-4 3 -8 4 -12 4c-7 0 -16 -4 -19 -10c-7 -9 -8 -19 2 -28c5 -5 10 -7 16 -6
c8 0 16 4 22 10c3 3 4 6 7 10c34 -1 68 0 102 -1c4 -21 -4 -33 -23 -38c-17 -4 -34 -5 -50 -8c-14 -1 -27 -2 -39 -6c-9 -2 -18 -6 -25 -11c-13 -9 -17 -28 -9 -41c1 -3 5 -4 7 -6c2 3 5 5 6 8c1 22 6 28 27 33c11 2 23 3 34 3c18 2 36 2 52 5c22 7 36 18 42 40c0 1 1 3 2 5
c1 1 1 3 1 5c1 1 1 2 2 4c0 1 0 2 1 4c0 2 1 2 4 2c2 0 4 -1 6 -2c5 -1 10 -1 14 -1h30c21 -1 43 -1 64 0c22 -1 43 0 65 0c5 1 64 2 64 2v-3c-17 -1 -34 -2 -50 -3c-18 0 -35 1 -53 -1c41 -1 81 -1 121 -2c40 0 80 2 120 2c3 -1 3 -3 1 -4c-12 -2 -15 -4 -19 -5
c-5 -2 -10 -3 -14 -5c-25 -8 -35 -24 -33 -50c0 -11 6 -18 19 -21c12 -3 16 -1 24 12c-3 1 -6 2 -8 2c-8 2 -15 3 -15 13c-1 11 2 18 12 22c11 4 23 9 34 10c36 5 81 8 117 13c4 0 9 2 13 3c5 3 5 24 -1 26c-5 2 -11 5 -18 6c-13 1 -27 1 -40 3c-34 3 -68 12 -98 27
c-10 6 -20 11 -23 23c6 14 18 4 27 9c-2 12 -11 13 -19 15c-5 1 -11 -2 -15 -6c-5 -3 -8 -8 -11 -14c-6 -10 -4 -15 4 -24c9 -10 20 -18 34 -24c5 -2 10 -6 18 -10c-7 -1 -11 -2 -15 -2c-73 1 -146 1 -220 1h-78c-19 -1 -38 0 -57 2c-5 1 -8 3 -14 13c-12 26 -37 34 -62 40
c-17 4 -34 7 -50 11c-5 2 -11 4 -16 7c-12 6 -13 11 -9 25c1 3 0 6 0 10zM120 293c2 0 15 1 23 2c0 1 -4 0 -4 0c-5 -1 -14 -1 -19 -2zM119 293c-5 0 -14 0 -19 1v-2c8 0 17 1 19 1z" />
    <glyph glyph-name="bracketright" unicode="]" horiz-adv-x="711" 
d="M671 417c0 -4 -1 -7 0 -10c4 -14 3 -19 -9 -25c-5 -3 -11 -5 -16 -7c-16 -4 -33 -7 -50 -11c-25 -6 -50 -14 -62 -40c-6 -10 -9 -12 -14 -13c-19 -2 -38 -3 -57 -2h-78c-74 0 -147 0 -220 -1c-4 0 -8 1 -15 2c8 4 13 8 18 10c14 6 25 14 34 24c8 9 10 14 4 24
c-3 6 -6 11 -11 14c-4 4 -10 7 -15 6c-8 -2 -17 -3 -19 -15c9 -5 21 5 27 -9c-3 -12 -13 -17 -23 -23c-30 -15 -64 -24 -98 -27c-13 -2 -27 -2 -40 -3c-7 -1 -13 -4 -18 -6c-6 -2 -6 -23 -1 -26c4 -1 9 -3 13 -3c36 -5 81 -8 117 -13c11 -1 23 -6 34 -10
c10 -4 13 -11 12 -22c0 -10 -7 -11 -15 -13c-2 0 -5 -1 -8 -2c8 -13 12 -15 24 -12c13 3 19 10 19 21c2 26 -8 42 -33 50c-4 2 -9 3 -14 5c-4 1 -7 3 -19 5c-2 1 -2 3 1 4c40 0 80 -2 120 -2c40 1 80 1 121 2c-18 2 -35 1 -53 1l-50 3v3c0 0 59 -1 64 -2c22 0 43 -1 65 0
c21 -1 43 -1 64 0h30c4 0 9 0 14 1c2 1 4 2 6 2c3 0 4 0 4 -2c1 -2 1 -3 1 -4c1 -2 1 -3 2 -4c0 -2 0 -4 1 -5c1 -2 2 -4 2 -5c6 -22 20 -33 42 -40c16 -3 34 -3 52 -5c11 0 23 -1 34 -3c21 -5 26 -11 27 -33c1 -3 4 -5 6 -8c2 2 6 3 7 6c8 13 4 32 -9 41c-7 5 -16 9 -25 11
c-12 4 -25 5 -39 6c-16 3 -33 4 -50 8c-19 5 -27 17 -23 38c34 1 68 0 102 1c3 -4 4 -7 7 -10c6 -6 14 -10 22 -10c6 -1 11 1 16 6c10 9 9 19 2 28c-3 6 -12 10 -19 10c-4 0 -8 -1 -12 -4c-12 -7 -17 -8 -29 -7c-19 -1 -37 0 -56 1c-8 0 -23 0 -31 -1c-1 2 4 9 8 13
c8 8 16 12 25 15c14 4 28 8 41 10c17 4 34 10 50 18c11 6 15 15 17 27c4 15 -7 24 -24 22zM591 293c-5 1 -14 1 -19 2c0 0 -4 1 -4 0c8 -1 21 -2 23 -2zM592 293c2 0 11 -1 19 -1v2c-5 -1 -14 -1 -19 -1z" />
    <glyph glyph-name="parenleft" unicode="(" horiz-adv-x="609" 
d="M487 239c5 3 10 7 16 9c33 15 65 29 98 43c2 2 3 5 3 7c0 4 -1 5 -2 7c-2 2 -6 3 -9 4c-10 3 -20 4 -29 8c-26 10 -52 22 -78 33l-19 6c-3 1 -6 0 -8 -1c-16 -8 -16 -16 -2 -27c4 -3 9 -5 12 -8s6 -5 10 -8c-2 -1 -4 -2 -5 -2c-7 -1 -15 -1 -22 -1
c-56 -1 -112 -1 -169 -1c-2 0 -4 -1 -6 -1c-31 -1 -62 -1 -93 -2c-5 0 -8 2 -11 7c-6 12 -13 23 -20 35c-4 6 -8 10 -16 10c-9 0 -19 2 -28 2c-15 -1 -30 -2 -44 -2c-10 -1 -20 1 -30 1c-9 0 -13 -4 -10 -14c2 -6 5 -13 9 -18c5 -10 12 -18 19 -28c-14 -14 -28 -27 -41 -39
c-4 -3 -9 -6 -6 -12c3 -3 8 -7 13 -7c30 -3 60 -5 91 -6c11 -1 14 4 19 10c2 3 7 8 9 10c12 10 18 16 30 26c7 7 15 8 24 8c25 -1 49 -2 74 -1c70 3 141 6 211 4c3 0 6 -1 11 -2c-3 -4 -4 -6 -6 -8c-9 -11 -18 -21 -28 -32c-5 -6 -5 -15 1 -19c3 -2 7 -3 11 -1
c5 2 15 6 21 10zM162 305h-29c-2 0 -5 1 -6 3l-21 30c27 8 41 0 56 -33zM113 305c-14 -4 -29 -5 -46 -2l-23 35c14 0 28 2 41 -1c4 -1 7 -4 9 -7c7 -8 13 -16 19 -25zM486 330c18 -7 35 -15 55 -24c-27 -7 -41 8 -55 24zM279 296c3 0 6 0 9 1c1 -1 1 -2 1 -3
c-4 0 -7 -1 -10 -1v3zM206 295h59l1 -1l-1 -1h-59v2zM544 284c-19 -10 -39 -20 -59 -30c0 1 -1 1 -1 2c1 2 2 5 4 8c3 4 7 7 9 11c7 14 18 16 31 14l16 -3v-2zM96 284l-32 -29c-2 -2 -5 -2 -8 -2c-7 0 -14 1 -23 2c2 4 4 6 6 8c5 5 12 9 17 15c7 8 15 11 25 9
c4 -1 8 -2 15 -3zM88 253c9 10 18 20 27 31c1 1 2 2 3 2h29l-10 -10c-8 -7 -16 -13 -24 -21c-9 -7 -14 -8 -25 -2z" />
    <glyph glyph-name="parenright" unicode=")" horiz-adv-x="609" 
d="M143 229c4 -2 8 -1 11 1c6 4 6 13 1 19c-10 11 -19 21 -28 32c-2 2 -3 4 -6 8c5 1 8 2 11 2c70 2 141 -1 211 -4c25 -1 49 0 74 1c9 0 17 -1 24 -8c12 -10 18 -16 30 -26c2 -2 7 -7 9 -10c5 -6 8 -11 19 -10c31 1 61 3 91 6c5 0 10 4 13 7c3 6 -2 9 -6 12
c-13 12 -27 25 -41 39c7 10 14 18 19 28c4 5 7 12 9 18c3 10 -1 14 -10 14c-10 0 -20 -2 -30 -1c-14 0 -29 1 -44 2c-9 0 -19 -2 -28 -2c-8 0 -12 -4 -16 -10c-7 -12 -14 -23 -20 -35c-3 -5 -6 -7 -11 -7c-31 1 -62 1 -93 2c-2 0 -4 1 -6 1c-57 0 -113 0 -169 1
c-7 0 -15 0 -22 1c-1 0 -3 1 -5 2c4 3 7 5 10 8s8 5 12 8c14 11 14 19 -2 27c-2 1 -5 2 -8 1l-19 -6c-26 -11 -52 -23 -78 -33c-9 -4 -19 -5 -29 -8c-3 -1 -7 -2 -9 -4c-1 -2 -2 -3 -2 -7c0 -2 1 -5 3 -7c33 -14 65 -28 98 -43c6 -2 11 -6 16 -9c6 -4 16 -8 21 -10zM447 305
c15 33 29 41 56 33l-21 -30c-1 -2 -4 -3 -6 -3h-29zM496 305c6 9 12 17 19 25c2 3 5 6 9 7c13 3 27 1 41 1l-23 -35c-17 -3 -32 -2 -46 2zM123 330c-14 -16 -28 -31 -55 -24c20 9 37 17 55 24zM330 296v-3c-3 0 -6 1 -10 1c0 1 0 2 1 3c3 -1 6 -1 9 -1zM403 295v-2h-59l-1 1
l1 1h59zM65 284v2c5 1 11 2 16 3c13 2 24 0 31 -14c2 -4 6 -7 9 -11c2 -3 3 -6 4 -8c0 -1 -1 -1 -1 -2c-20 10 -40 20 -59 30zM513 284c7 1 11 2 15 3c10 2 18 -1 25 -9c5 -6 12 -10 17 -15c2 -2 4 -4 6 -8c-9 -1 -16 -2 -23 -2c-3 0 -6 0 -8 2zM521 253
c-11 -6 -16 -5 -25 2c-8 8 -16 14 -24 21l-10 10h29c1 0 2 -1 3 -2c9 -11 18 -21 27 -31z" />
    <glyph glyph-name="hyphen" unicode="-" horiz-adv-x="565" 
d="M549 343c-11 5 -18 0 -26 -6c-18 -13 -39 -21 -60 -27c-11 -3 -21 -8 -32 -11c-17 -4 -33 -4 -51 -1c-55 6 -108 26 -156 53c-1 1 -3 1 -6 4c3 3 5 5 6 8c11 9 20 20 30 29c9 7 8 16 6 25c-3 9 -16 8 -24 6c-12 -1 -24 -1 -38 -1c-33 0 -68 -2 -101 -2c-11 0 -21 2 -30 2
c-6 0 -12 -2 -18 -2c-5 -1 -8 -1 -11 -1c-6 0 -10 -3 -13 -9c-2 -2 -2 -3 -4 -5c-15 -19 -12 -38 -3 -57c22 -46 43 -91 62 -136c5 -11 10 -21 14 -32c2 -4 5 -7 11 -7c6 -2 7 1 10 6c11 12 23 24 33 36c3 3 8 3 13 1c28 -12 58 -18 89 -24c27 -6 50 -9 77 -9h36
c23 0 67 11 86 21c18 8 29 14 46 23c19 10 34 29 52 44c8 7 6 16 8 25c0 14 -3 29 -3 43c0 1 -2 3 -3 4zM197 345c4 -3 9 -5 12 -6c21 -9 42 -18 63 -29c22 -11 46 -14 70 -21c10 -3 23 -6 35 -8c18 -3 36 0 53 5c27 7 55 13 80 27c3 2 6 3 7 3l2 -1c-6 -6 -12 -13 -18 -17
c-17 -11 -35 -21 -55 -29c-18 -6 -38 -15 -57 -21c-33 -9 -68 -7 -103 -7c-3 0 -5 1 -8 1c-36 9 -71 24 -104 42c-6 3 -10 8 -15 12c-5 5 -8 5 -11 -1c-4 -8 -7 -15 -12 -21l-19 -33c-2 6 -3 10 -5 13c-3 9 -6 18 -10 26c-16 27 -28 56 -40 86c-4 12 -9 24 -13 36
c66 2 131 2 196 3c-15 -21 -39 -35 -48 -60zM259 325c-2 0 -2 -1 -2 -1c-16 6 -22 9 -39 18c1 0 1 1 1 1c17 -7 23 -9 40 -18zM529 292h-1v9h1v-9zM511 256v16v14h2c1 -9 3 -18 3 -27c0 -2 -2 -2 -5 -3zM495 254c-3 8 -5 14 0 21c3 -7 4 -13 0 -21zM156 253h2
c0 -3 1 -6 1 -8c0 -1 -1 -1 -1 -1c-2 3 -2 6 -2 9zM183 239c-1 0 -1 -2 -3 -2c-1 4 -3 5 -4 8c0 2 1 2 1 2c3 -3 5 -5 6 -8zM210 228c-4 2 -9 3 -7 9c6 0 9 -3 7 -9zM236 221c-7 0 -7 3 -4 10c3 -6 3 -7 4 -10zM348 212c4 1 8 3 9 -3c0 -2 -1 -3 -3 -5c-5 0 -6 3 -6 8z
M322 209c3 1 5 4 6 3c2 0 3 -2 3 -3c2 -2 -1 -3 -1 -3c-2 0 -5 1 -8 3zM377 206h-2c0 1 -1 4 -1 6h1c0 -2 2 -3 2 -6zM393 212h2c0 -3 1 -6 1 -9c0 0 -1 0 -3 -2v11z" />
    <glyph glyph-name="space" unicode=" " horiz-adv-x="600" 
 />
    <glyph glyph-name="dollar" unicode="$" horiz-adv-x="651" 
d="M17 384c4 -11 20 -34 47 -45c43 -19 94 -21 140 -14l74 11c22 3 46 9 68 12c21 3 43 9 63 13c23 4 46 7 69 8c31 2 63 4 89 -1c14 -2 34 -4 48 -18s4 -26 10 -26c5 -2 13 6 13 18c0 7 -4 17 -7 21c-11 14 -30 32 -59 38c-61 14 -119 9 -181 -2
c-113 -21 -231 -75 -341 -28c-9 4 -13 8 -19 16c-3 5 -6 19 -14 14c0 -1 -6 -1 0 -17z" />
    <glyph glyph-name="divide" unicode="&#xf7;" horiz-adv-x="442" 
d="M432 409c-3 7 -8 6 -14 5c-29 -4 -57 -8 -86 -10c-58 -4 -115 -6 -173 -8c-36 -1 -73 1 -109 1c-4 0 -8 1 -13 2v16c-2 14 -3 27 -5 41c-1 5 -3 10 -9 10c-7 0 -9 -5 -9 -10c0 -14 -1 -27 -1 -40c0 -28 1 -57 1 -85c-1 -41 -2 -83 -4 -124c0 -6 0 -29 1 -36
c1 -13 1 -27 2 -40s4 -15 18 -14c1 3 2 6 2 9v36c0 16 1 17 16 17c9 0 17 0 26 1c24 1 48 4 72 4c58 0 119 -7 177 -8c33 0 97 -11 101 -5c6 8 2 14 -3 19c-25 22 -53 50 -78 71c-7 7 -15 13 -24 20l78 80c14 14 33 25 34 48zM394 391c-5 -6 -8 -9 -11 -12l-33 -34
c-9 -10 -20 -19 -30 -29c-9 -8 -18 -16 -22 -28c-4 -13 -3 -16 8 -25c23 -19 48 -44 73 -65c-115 0 -230 11 -342 10c-5 17 -3 153 2 168c16 0 32 0 48 -1c39 -2 78 0 117 2c47 4 94 5 141 8c13 1 26 3 39 5c2 0 4 0 10 1z" />
    <glyph glyph-name="equal" unicode="=" horiz-adv-x="744" 
d="M591 342c4 4 7 5 9 7l44 30c9 6 13 15 15 25c2 11 -5 18 -14 20c-6 1 -16 -1 -21 -4c-16 -8 -26 -24 -37 -38c-12 -15 -19 -20 -39 -21c-54 -4 -107 -5 -160 -8c-56 -3 -111 -5 -166 -7l-96 -3c-30 -1 -59 -3 -89 -5c-5 0 -12 -2 -17 -4c-3 -2 -6 -7 0 -12
c6 -2 13 -3 17 -3c169 8 338 -2 507 -1c16 0 26 -5 35 -21c9 -15 22 -29 37 -36c3 -1 8 -3 13 -3c10 0 21 5 21 19c0 7 -3 13 -8 20c-5 5 -10 10 -15 14c-11 10 -23 20 -36 31zM627 334c1 -5 48 -9 71 -11c15 -2 36 4 36 24c-1 15 -7 22 -22 24c-29 3 -54 -11 -79 -22
c-7 -4 -7 -6 -6 -15z" />
    <glyph glyph-name="greater" unicode="&#x3e;" horiz-adv-x="600" 
d="M451 278l-8 -15c-7 -16 2 -31 19 -31c8 -1 16 1 23 4c11 6 22 13 33 20c17 12 31 22 51 28c2 1 9 2 11 4c1 1 3 4 3 6c-1 6 -3 7 -14 11c-24 7 -49 17 -70 28c-7 4 -14 8 -22 10c-13 4 -22 2 -29 -6c-10 -13 -9 -22 0 -37c0 -1 0 -2 1 -5c-103 1 -207 0 -311 1
c-8 12 -16 25 -24 38c-6 8 -7 8 -16 6c-3 -1 -13 -1 -16 -1l-47 3c-5 0 -10 1 -13 -1c-3 -3 4 -15 6 -17l33 -33c2 -2 2 -5 3 -7c-19 -12 -54 -32 -54 -37c0 -7 4 -13 19 -12s28 1 43 1c4 0 9 1 12 -1c6 -2 13 0 16 3c14 13 26 23 39 36c4 4 9 5 14 5c14 1 28 0 41 1
c35 2 70 0 105 0c35 -1 71 -1 106 -2h46z" />
    <glyph glyph-name="less" unicode="&#x3c;" horiz-adv-x="600" 
d="M142 278h46c35 1 71 1 106 2c35 0 70 2 105 0c13 -1 27 0 41 -1c5 0 10 -1 14 -5c13 -13 25 -23 39 -36c3 -3 10 -5 16 -3c3 2 8 1 12 1c15 0 28 0 43 -1s19 5 19 12c0 5 -35 25 -54 37c1 2 1 5 3 7l33 33c2 2 9 14 6 17c-3 2 -8 1 -13 1l-47 -3c-3 0 -13 0 -16 1
c-9 2 -10 2 -16 -6c-8 -13 -16 -26 -24 -38c-104 -1 -208 0 -311 -1c1 3 1 4 1 5c9 15 10 24 0 37c-7 8 -16 10 -29 6c-8 -2 -15 -6 -22 -10c-21 -11 -46 -21 -70 -28c-11 -4 -13 -5 -14 -11c0 -2 2 -5 3 -6c2 -2 9 -3 11 -4c20 -6 34 -16 51 -28c11 -7 22 -14 33 -20
c7 -3 15 -5 23 -4c17 0 26 15 19 31z" />
    <glyph glyph-name="minus" unicode="&#x2212;" horiz-adv-x="281" 
d="M11 282c2 -6 21 -22 29 -29c14 -17 23 -27 48 -25c27 1 53 1 80 0c24 -1 48 -1 72 -2c6 -1 13 -2 20 -2c7 1 8 4 8 9c0 1 0 3 -1 5c-8 12 -15 20 -24 33c-8 15 -6 19 5 32c5 6 12 14 17 21c3 3 8 9 5 13c-1 4 -10 2 -14 2c-48 1 -95 2 -143 2c-13 0 -26 -1 -39 -2
c-10 0 -19 -3 -26 -10c-8 -8 -13 -16 -21 -23c-12 -11 -17 -14 -16 -24zM49 297c-1 1 -2 2 0 7c8 4 16 16 25 15c24 2 49 1 73 0c20 1 41 1 61 1h31c-7 -13 -16 -28 -30 -27c-40 3 -81 2 -121 4c-13 0 -26 1 -39 0zM68 265c-7 5 -13 9 -21 13c14 2 14 2 21 -13z" />
    <glyph glyph-name="multiply" unicode="&#xd7;" horiz-adv-x="442" 
d="M10 409c1 -23 20 -34 34 -48l78 -80c-9 -7 -17 -13 -24 -20c-25 -21 -53 -49 -78 -71c-5 -5 -9 -11 -3 -19c4 -6 68 5 101 5c58 1 119 8 177 8c24 0 48 -3 72 -4c9 -1 17 -1 26 -1c15 0 16 -1 16 -17v-36c0 -3 1 -6 2 -9c14 -1 17 1 18 14s1 27 2 40c1 7 1 30 1 36
c-2 41 -3 83 -4 124c0 28 1 57 1 85c0 13 -1 26 -1 40c0 5 -2 10 -9 10c-6 0 -8 -5 -9 -10l-5 -41v-16c-5 -1 -9 -2 -13 -2c-36 0 -73 -2 -109 -1c-58 2 -115 4 -173 8c-29 2 -57 6 -86 10c-6 1 -11 2 -14 -5zM48 391c6 -1 8 -1 10 -1c13 -2 26 -4 39 -5c47 -3 94 -4 141 -8
c39 -2 78 -4 117 -2c16 1 32 1 48 1c5 -15 7 -151 2 -168c-112 1 -227 -10 -342 -10c25 21 50 46 73 65c11 9 12 12 8 25c-4 12 -13 20 -22 28c-10 10 -21 19 -30 29l-33 34c-3 3 -6 6 -11 12z" />
    <glyph glyph-name="percent" unicode="%" horiz-adv-x="852" 
d="M831 417c10 -11 13 -25 10 -39c-2 -11 -7 -22 -18 -28c-17 -10 -41 -11 -61 -7c-35 8 -66 20 -99 35c-35 17 -66 33 -105 44c-25 8 -50 10 -76 4c-18 -5 -33 -15 -45 -31c3 -4 5 -9 8 -13c10 -18 14 -33 15 -54c0 -20 -10 -39 -34 -38c-24 -1 -34 18 -34 38
c1 21 5 36 15 54c3 4 5 9 8 13c-12 16 -27 26 -45 31c-26 6 -52 4 -77 -4c-38 -11 -70 -28 -107 -46c-33 -16 -56 -24 -91 -32c-20 -4 -49 -4 -66 6c-11 6 -17 17 -18 28c-3 14 0 28 10 39c5 7 11 8 15 3c5 -5 5 -10 0 -15c-2 -2 -4 -4 -5 -7c-9 -20 1 -35 24 -38
c28 -4 53 4 77 14c20 8 39 19 58 29c39 21 80 39 124 46c37 6 72 -1 103 -27l6 -6c3 -2 4 -1 5 0c3 2 4 4 7 6c31 26 66 33 103 27c44 -7 85 -25 124 -46c19 -10 38 -21 58 -29c24 -10 49 -18 77 -14c23 3 33 18 24 38c-1 3 -3 5 -5 7c-5 5 -5 10 0 15c4 5 10 4 15 -3z
M442 331c-2 16 -5 26 -13 41c-1 1 -1 3 -3 3s-2 -2 -3 -3c-8 -15 -11 -25 -13 -41c0 -3 0 -7 1 -10c2 -6 8 -8 8 -8c2 -1 4 -1 6 -1c10 0 17 4 17 19z" />
    <glyph glyph-name="perthousand" unicode="&#x2030;" horiz-adv-x="852" 
d="M831 324c-5 -7 -11 -8 -15 -3c-5 5 -5 10 0 15c2 2 4 4 5 7c9 20 -1 35 -24 38c-28 4 -53 -4 -77 -14c-20 -8 -39 -19 -58 -29c-39 -21 -80 -39 -124 -46c-37 -6 -72 1 -103 27c-3 2 -4 4 -7 6c-1 1 -2 2 -5 0l-6 -6c-31 -26 -66 -33 -103 -27c-44 7 -85 25 -124 46
c-19 10 -38 21 -58 29c-24 10 -49 18 -77 14c-23 -3 -33 -18 -24 -38c1 -3 3 -5 5 -7c5 -5 5 -10 0 -15c-4 -5 -10 -4 -15 3c-10 11 -13 25 -10 39c1 11 7 22 18 28c17 10 46 10 66 6c35 -8 58 -16 91 -32c37 -18 69 -35 107 -46c25 -8 51 -10 77 -4c18 5 33 15 45 31
c-3 4 -5 9 -8 13c-10 18 -14 33 -15 54c0 20 10 39 34 38c24 1 34 -18 34 -38c-1 -21 -5 -36 -15 -54c-3 -4 -5 -9 -8 -13c12 -16 27 -26 45 -31c26 -6 51 -4 76 4c39 11 70 27 105 44c33 15 64 27 99 35c20 4 44 3 61 -7c11 -6 16 -17 18 -28c3 -14 0 -28 -10 -39zM442 410
c0 15 -7 19 -17 19c-2 0 -4 0 -6 -1c0 0 -6 -2 -8 -8c-1 -3 -1 -7 -1 -10c2 -16 5 -26 13 -41c1 -1 1 -3 3 -3s2 2 3 3c8 15 11 25 13 41z" />
    <glyph glyph-name="plus" unicode="+" horiz-adv-x="281" 
d="M271 282c1 10 -4 13 -16 24c-8 7 -13 15 -21 23c-7 7 -16 10 -26 10c-13 1 -26 2 -39 2c-48 0 -95 -1 -143 -2c-4 0 -13 2 -14 -2c-3 -4 2 -10 5 -13c5 -7 12 -15 17 -21c11 -13 13 -17 5 -32c-9 -13 -16 -21 -24 -33c-1 -2 -1 -4 -1 -5c0 -5 1 -8 8 -9c7 0 14 1 20 2
c24 1 48 1 72 2c27 1 53 1 80 0c25 -2 34 8 48 25c8 7 27 23 29 29zM233 297c-13 1 -26 0 -39 0c-40 -2 -81 -1 -121 -4c-14 -1 -23 14 -30 27h31c20 0 41 0 61 -1c24 1 49 2 73 0c9 1 17 -11 25 -15c2 -5 1 -6 0 -7zM214 265c7 15 7 15 21 13c-8 -4 -14 -8 -21 -13z" />
    <glyph glyph-name="bar" unicode="|" horiz-adv-x="744" 
d="M160 342c-13 -11 -25 -21 -36 -31c-5 -4 -10 -9 -15 -14c-5 -7 -8 -13 -8 -20c0 -14 11 -19 21 -19c5 0 10 2 13 3c15 7 28 21 37 36c9 16 19 21 35 21c169 -1 338 9 507 1c4 0 11 1 17 3c6 5 3 10 0 12c-5 2 -12 4 -17 4c-30 2 -59 4 -89 5l-96 3c-55 2 -110 4 -166 7
c-53 3 -106 4 -160 8c-20 1 -27 6 -39 21c-11 14 -21 30 -37 38c-5 3 -15 5 -21 4c-9 -2 -16 -9 -14 -20c2 -10 6 -19 15 -25l44 -30c2 -2 5 -3 9 -7zM124 334c1 9 1 11 -6 15c-25 11 -50 25 -79 22c-15 -2 -21 -9 -22 -24c0 -20 21 -26 36 -24c23 2 70 6 71 11z" />
    <glyph glyph-name="at" unicode="@" horiz-adv-x="892" 
d="M869 554c10 6 20 -6 8 -13c-38 -22 -81 -29 -126 -29c-41 1 -80 7 -122 11c-20 3 -41 5 -62 9c-19 3 -38 7 -57 9c-38 6 -79 7 -114 -7c-16 -6 -32 -15 -43 -27c-4 -3 -9 -9 -12 -15c11 -12 18 -26 6 -41c-4 -3 -13 -5 -19 3c-7 9 -10 20 -9 30c-3 2 -6 4 -8 4
c-10 5 -21 6 -31 6c-38 1 -75 -16 -100 -46c-11 -13 -19 -29 -22 -46c15 -2 30 -8 35 -23c2 -8 1 -23 -6 -31c-8 -7 -21 -5 -29 0c-12 8 -18 21 -20 34c-33 -7 -62 -31 -80 -59c-20 -32 -22 -74 -19 -107c1 -13 -12 -13 -15 0c-5 25 -7 57 2 84c9 26 24 48 44 66
c19 18 41 31 65 35h2c1 5 2 9 3 13c14 47 54 82 101 95c22 6 47 7 70 0c4 -1 9 -3 13 -6c1 2 2 4 3 5c11 16 28 28 45 38c79 38 166 7 247 -2s175 -34 250 10zM175 369c0 3 -1 6 -4 8c-3 3 -8 5 -12 6c2 -9 6 -17 10 -19s6 -1 6 5z" />
    <glyph glyph-name="ampersand" unicode="&#x26;" horiz-adv-x="648" 
d="M635 384c6 16 0 16 0 17c-8 5 -11 -9 -14 -14c-6 -8 -10 -12 -19 -16c-110 -47 -228 7 -341 28c-62 11 -120 16 -181 2c-29 -6 -48 -24 -59 -38c-3 -4 -7 -14 -7 -21c0 -12 8 -20 13 -18c6 0 -4 12 10 26s34 16 48 18c26 5 58 3 89 1c23 -1 46 -4 69 -8
c20 -4 42 -10 63 -13c22 -3 46 -9 68 -12l74 -11c46 -7 97 -5 140 14c27 11 43 34 47 45z" />
    <glyph glyph-name="copyright" unicode="&#xa9;" horiz-adv-x="892" 
d="M876 300c9 -27 7 -59 2 -84c-3 -13 -16 -13 -15 0c3 33 1 75 -19 107c-18 28 -47 52 -80 59c-2 -13 -8 -26 -20 -34c-8 -5 -21 -7 -29 0c-7 8 -8 23 -6 31c5 15 20 21 35 23c-3 17 -11 33 -22 46c-25 30 -62 47 -100 46c-10 0 -21 -1 -31 -6c-2 0 -5 -2 -8 -4
c1 -10 -2 -21 -9 -30c-6 -8 -15 -6 -19 -3c-12 15 -5 29 6 41c-3 6 -8 12 -12 15c-11 12 -27 21 -43 27c-35 14 -76 13 -114 7c-19 -2 -38 -6 -57 -9c-21 -4 -42 -6 -62 -9c-42 -4 -81 -10 -122 -11c-45 0 -88 7 -126 29c-12 7 -2 19 8 13c75 -44 169 -19 250 -10
s168 40 247 2c17 -10 34 -22 45 -38c1 -1 2 -3 3 -5c4 3 9 5 13 6c23 7 48 6 70 0c47 -13 87 -48 101 -95l3 -13h2c24 -4 46 -17 65 -35c20 -18 35 -40 44 -66zM733 364c4 2 8 10 10 19c-4 -1 -9 -3 -12 -6c-3 -2 -4 -5 -4 -8c0 -6 2 -7 6 -5z" />
    <glyph glyph-name="degree" unicode="&#xb0;" horiz-adv-x="948" 
d="M476 88c-26 0 -63 1 -78 1h-80v-8c3 -13 1 -28 -9 -38c-6 -6 -8 -6 -16 -10c-2 -2 -14 -7 -20 -7c-6 1 -14 3 -20 7c-5 5 -9 12 -13 19c-2 8 1 12 10 15c1 -4 1 -6 2 -9c2 -8 9 -13 17 -15c19 -4 29 2 37 20c3 8 0 17 -5 24c-2 2 -8 2 -11 2h-69c-29 1 -59 0 -88 2
c-19 1 -39 7 -58 10c-10 1 -19 8 -23 19c-2 5 -3 9 -6 15c-1 2 -1 5 -4 6c-18 16 -19 35 -12 56c2 8 6 15 9 21c4 7 7 13 9 21c1 21 1 42 0 63c-9 -2 -14 -8 -15 -15c0 -4 4 -10 6 -16c-5 -4 -8 -3 -12 2c-6 5 -7 18 -3 26c6 7 13 14 24 17v15c-2 24 -3 51 -5 76
c0 7 -1 12 -7 17c-9 4 -15 13 -15 24c0 3 0 6 2 8c1 1 5 2 8 3c1 -2 2 -4 2 -5c-2 -9 1 -14 8 -18c0 2 1 4 1 5c1 20 1 42 1 63c2 8 -1 14 -5 20c-10 9 -16 20 -17 31c-1 8 -1 14 -1 20c1 7 3 13 7 19c4 7 9 12 16 17c3 1 7 1 8 3c1 1 2 1 2 2c8 13 19 23 34 26
c21 9 43 10 67 8l47 -3h24c26 0 52 1 78 1c5 0 9 1 15 1c2 15 -14 27 -34 25c0 -4 -1 -8 -2 -13c0 -2 -2 -4 -3 -4c-4 0 -6 1 -7 2c-7 10 2 27 15 29c19 2 33 -6 41 -20c4 -7 2 -16 2 -19c4 1 36 -4 69 0c9 1 17 0 25 0h39h66c41 0 84 1 88 0c1 4 1 7 1 10c1 2 1 7 2 9
c10 12 22 22 41 20c11 -2 20 -19 15 -29c-1 -1 -5 -2 -8 -2c-1 0 -2 2 -3 4c-1 5 -1 9 -2 13c-19 2 -35 -10 -33 -25c6 0 10 -1 15 -1c26 0 52 -1 79 -1h23c16 1 31 2 47 3c24 2 45 1 67 -8c13 -3 26 -13 32 -26l3 -2c2 -2 6 -2 9 -3c6 -5 13 -10 16 -17c4 -6 6 -12 6 -19
c1 -6 1 -12 0 -20c-2 -11 -8 -22 -17 -31c-5 -6 -7 -12 -7 -20c2 -21 2 -43 2 -63c0 -1 1 -3 2 -5c5 4 11 9 8 18c-2 1 1 3 3 5l7 -3c1 -2 1 -5 1 -8c1 -11 -5 -20 -15 -24c-5 -5 -6 -10 -8 -17c0 -25 -2 -52 -2 -76c-2 -6 0 -10 0 -15c9 -3 17 -10 21 -17
c6 -8 5 -21 -2 -26c-4 -5 -8 -6 -11 -2c2 6 6 12 4 16c-1 7 -5 13 -12 15c-2 -21 -3 -42 0 -63c0 -8 2 -14 7 -21c4 -6 8 -13 11 -21c6 -21 3 -40 -13 -56c-3 -1 -4 -4 -5 -6c-2 -6 -4 -10 -5 -15c-5 -11 -12 -18 -24 -19c-19 -3 -38 -9 -57 -10c-30 -2 -59 -1 -88 -2h-70
c-3 0 -9 0 -10 -2c-6 -7 -9 -16 -5 -24c8 -18 18 -24 36 -20c10 2 15 7 17 15c1 3 2 5 2 9c9 -3 13 -7 10 -15c-2 -7 -8 -14 -12 -19c-5 -4 -15 -7 -23 -7c-5 0 -14 1 -16 3c-6 4 -10 7 -16 13c-9 10 -13 26 -10 39c0 2 -1 5 -1 8h-80c-11 0 -62 0 -73 -1zM476 100
c29 2 100 3 130 1h23c3 0 9 1 11 2c7 6 15 13 21 17c9 7 19 12 30 13c11 2 22 3 33 3l88 3c11 0 23 2 33 2c16 0 32 4 46 11v2c1 22 1 43 -1 64c0 4 -1 6 -2 7c-10 6 -16 17 -20 26c-9 15 -9 31 -3 46c3 12 11 17 22 21l3 100c-2 1 -3 1 -6 2c-14 5 -23 15 -25 28
c-2 11 -1 22 2 32c6 13 12 25 22 33c5 5 6 11 6 18c-1 12 -1 23 -2 35c0 7 0 15 -1 22c-2 9 -3 12 -14 12c-10 1 -19 1 -29 1c-25 -1 -51 -4 -77 -2c-37 0 -73 -4 -110 3c-14 2 -24 9 -31 18c-4 4 -5 10 -8 15c-4 0 -7 0 -10 2c-2 0 -38 -2 -76 -1c-25 1 -52 0 -68 0h-60
c-31 1 -56 0 -59 0s-9 -1 -14 -1c-2 -5 -4 -11 -8 -15c-6 -9 -18 -16 -30 -18c-37 -7 -73 -3 -110 -3c-26 -2 -53 1 -78 2c-10 0 -19 0 -29 -1c-9 0 -13 -3 -14 -12v-22c-1 -12 -1 -23 -2 -35c-1 -7 0 -13 6 -18c9 -8 15 -20 21 -33c4 -10 4 -21 3 -32
c-3 -13 -12 -23 -27 -28c-1 -1 -2 -1 -4 -2c1 -34 2 -67 2 -100c11 -4 19 -9 24 -21c4 -15 5 -31 -5 -46c-4 -9 -9 -20 -19 -26c-1 -1 -2 -3 -2 -7c-2 -21 -3 -42 -2 -64l1 -2c14 -7 29 -11 44 -11c12 0 23 -2 34 -2l90 -3c10 0 21 -1 32 -3c11 -1 20 -6 30 -13
c6 -4 13 -11 20 -17c3 -1 7 -2 11 -2h24c33 2 95 0 134 -1zM85 629c-6 -2 -8 -5 -9 -10c12 -1 22 -4 34 -5c53 -3 105 -2 158 -2c9 1 19 2 29 4c9 3 14 7 19 18h-13c-23 0 -46 -1 -70 -1c-32 1 -66 1 -99 2c-17 2 -33 -2 -49 -6zM838 614c11 1 21 4 33 5c-1 5 -3 8 -8 10
c-15 4 -32 8 -50 6c-32 -1 -66 -1 -99 -2c-23 0 -47 1 -70 1h-13c6 -11 11 -15 19 -18c10 -2 20 -3 29 -4c53 0 106 -1 159 2zM46 541c2 17 2 35 3 55c-8 -3 -15 -11 -16 -19c-1 -7 0 -8 0 -16c1 -9 4 -16 10 -23c0 0 2 3 3 3zM905 538c6 7 8 14 8 23c2 8 2 9 0 16
c0 8 -7 16 -14 19c0 -20 2 -38 2 -55c1 0 2 -3 4 -3zM58 496c-1 -21 -3 -42 -1 -66c11 3 17 9 19 17c4 16 -4 38 -18 49zM890 430c3 24 0 45 0 66c-14 -11 -22 -33 -19 -49c3 -8 8 -14 19 -17zM61 301c0 -19 -1 -38 -1 -56c19 19 19 51 1 56zM886 301c-18 -5 -18 -37 2 -56
c-1 18 -1 37 -2 56zM42 165v33h-2c-3 -10 -3 -21 2 -33zM907 198h-2c0 -10 1 -21 1 -33c5 12 4 23 1 33zM266 101c6 0 13 1 21 2c-3 3 -4 4 -6 5c-12 8 -24 11 -38 12c-13 1 -27 1 -40 2c-30 3 -60 5 -90 6c-17 1 -35 3 -53 5c5 -12 6 -15 16 -19c8 -3 14 -4 22 -5
c18 -2 37 -6 56 -7c38 -1 76 -1 112 -1zM872 114c9 4 12 7 15 19c-17 -2 -35 -4 -53 -5c-30 -1 -60 -3 -89 -6c-13 -1 -27 -1 -39 -2c-15 -1 -28 -4 -40 -12l-6 -5c8 -1 15 -2 20 -2c38 0 75 0 114 1c19 1 37 5 56 7c7 1 15 2 22 5z" />
  </font>
</defs>
</svg>
