<?xml version="1.0" standalone="no"?>
<!DOCTYPE svg PUBLIC "-//W3C//DTD SVG 1.1//EN" "http://www.w3.org/Graphics/SVG/1.1/DTD/svg11.dtd" >
<svg xmlns="http://www.w3.org/2000/svg" xmlns:xlink="http://www.w3.org/1999/xlink" version="1.1">
<metadata>
Created by FontForge 20181014 at Mon Mar 27 21:13:52 2017
 By convertio
Copyright \(c\) 2017 by DearType, Veneta Rangelova. All rights reserved.
</metadata>
<defs>
<font id="Timeout-Regular" horiz-adv-x="0" >
  <font-face 
    font-family="Timeout"
    font-weight="400"
    font-stretch="normal"
    units-per-em="1000"
    panose-1="0 0 5 0 0 0 0 0 0 0"
    ascent="800"
    descent="-200"
    x-height="336"
    cap-height="653"
    bbox="-648 -466 1280 921"
    underline-thickness="50"
    underline-position="-100"
    unicode-range="U+0020-2265"
  />
<missing-glyph horiz-adv-x="500" 
d="M410 800v-1000h-317v1000h317zM333 733h-165v-33h65v-37h-66v-33h166v33h-66v37h66v33zM267 604h-100v-104h166v34h-66v70zM233 570v-36h-33v36h33zM333 473h-166v-33h66v-37h-66v-33h100v70h66v33zM333 413h-33v-66h-133v-34h166v100zM333 291h-100v-56h34v23h33v-47
h-100v80h-33v-113h166v113zM333 118h-166v-113h166v113zM300 85v-47h-100v47h100zM333 -18h-166v-33h70l-70 -47v-33h166v33h-102l70 47h32v33z" />
    <glyph glyph-name="A_r.liga" unicode="Ar" horiz-adv-x="871" 
d="M877 141c3 3 27 1 17 -11l-8 -10c-38 -47 -94 -96 -158 -96c-47 0 -81 31 -81 76c0 75 80 150 80 185c0 19 -23 28 -54 55c-53 -35 -120 -61 -191 -81c-55 -133 -106 -258 -119 -297c-3 -10 -24 -30 -39 -30s-25 20 -25 45c0 48 32 148 71 255c-56 -11 -111 -20 -159 -26
l-186 -256c-31 -42 -46 -66 -61 -66c-21 0 -34 36 -34 41c0 16 92 151 176 270c-73 -5 -131 7 -142 42c-10 35 -14 63 9 52c21 -10 97 -13 193 -10c73 104 197 278 270 356c42 45 83 82 126 82c37 0 84 -36 84 -73c-16 -36 -76 -177 -137 -322c59 13 111 30 148 50
c-3 19 3 41 13 59c13 24 34 42 54 42c24 0 44 -19 44 -28c0 -13 -48 -54 -48 -69c0 -23 97 -45 97 -96c0 -57 -87 -131 -87 -179c0 -19 11 -28 29 -28c40 0 79 29 112 62zM526 616c-15 0 -91 -93 -259 -330c43 4 87 9 129 15c42 105 85 205 109 259c15 35 27 56 21 56z" />
    <glyph glyph-name="C_r.liga" unicode="Cr" horiz-adv-x="851" 
d="M857 141c3 3 27 1 17 -11l-8 -10c-38 -47 -94 -96 -158 -96c-47 0 -81 31 -81 76c0 75 80 150 80 185c0 15 -14 24 -35 40c-75 -123 -309 -394 -516 -394c-104 0 -166 90 -166 201c0 222 269 560 466 557c188 -3 98 -286 -2 -284c-19 0 -39 14 -58 48
c56 59 92 144 46 145c-84 1 -354 -250 -354 -464c0 -85 44 -122 105 -122c130 0 318 158 456 332c-19 21 -14 59 1 87c13 24 34 42 54 42c24 0 44 -19 44 -28c0 -13 -48 -54 -48 -69c0 -23 97 -45 97 -96c0 -57 -87 -131 -87 -179c0 -19 11 -28 29 -28c40 0 79 29 112 62z
" />
    <glyph glyph-name="T_r.liga" unicode="Tr" horiz-adv-x="742" 
d="M813 688c9 0 61 -16 49 -29c0 -4 -36 -15 -99 -26c-35 -6 -116 -18 -180 -27l-83 -12c-18 -38 -59 -126 -144 -340l-130 -331c-8 -20 -8 -24 -16 -24c-6 -1 -29 18 -36 30c-14 22 -8 52 0 73l210 568c0 1 1 2 1 3l-26 -7c-91 -25 -183 -59 -220 -59c-45 0 -57 49 -57 78
c0 16 94 36 205 52c188 27 349 44 445 49c37 2 59 4 81 2zM748 141c3 3 27 1 17 -11l-8 -10c-38 -47 -94 -96 -158 -96c-47 0 -81 31 -81 76c0 75 80 150 80 185c0 16 -16 24 -38 42c-27 -56 -69 -121 -99 -121c-18 0 -34 15 -41 26c-3 4 2 7 2 7c43 30 75 58 112 113
c-12 22 -7 54 7 79c13 24 34 42 54 42c24 0 44 -19 44 -28c0 -13 -48 -54 -48 -69c0 -23 97 -45 97 -96c0 -57 -87 -131 -87 -179c0 -19 11 -28 29 -28c40 0 79 29 112 62z" />
    <glyph glyph-name="a_x.liga" unicode="ax" horiz-adv-x="710" 
d="M716 141c4 4 26 0 17 -11l-8 -10c-32 -40 -76 -84 -128 -84c-29 0 -56 15 -77 47c-58 -51 -113 -94 -134 -94c-19 0 -34 28 -25 33c31 18 83 61 138 110c-8 22 -14 46 -20 71c-5 20 -11 43 -18 64c-3 13 -8 13 -11 3c-58 -187 -148 -237 -192 -237c-39 0 -64 38 -45 102
c-46 -42 -121 -118 -179 -118c-25 0 -48 17 -48 61c0 95 122 272 252 272c38 0 63 -50 49 -55c-77 -20 -138 -64 -185 -120c-55 -72 -62 -130 24 -54c39 34 61 52 119 120c6 7 13 9 20 9c24 0 58 -32 49 -46c-17 -27 -42 -78 -42 -105c0 -12 5 -19 13 -19
c25 0 109 84 152 242c4 11 17 14 27 14c82 0 77 -53 90 -121l6 -26c27 26 53 53 75 76c29 30 33 39 38 44c3 3 5 3 7 3c6 0 22 -16 22 -35c0 -14 -6 -25 -66 -84c-18 -18 -39 -38 -61 -59c15 -40 30 -55 49 -55c31 0 66 36 86 56z" />
    <glyph glyph-name="b_s.liga" unicode="bs" horiz-adv-x="595" 
d="M601 141c4 4 26 0 17 -11l-8 -10c-61 -76 -144 -118 -221 -118c-29 0 -107 13 -115 78c0 31 30 38 45 24c1 -35 27 -45 45 -45c42 0 67 46 67 110c0 31 -9 71 -20 102c-37 -41 -103 -90 -164 -117c-13 -30 -32 -60 -54 -84c-36 -39 -79 -57 -113 -57
c-56 0 -77 50 -77 102c0 156 187 557 338 557c32 0 45 -25 45 -52c0 -83 -148 -257 -250 -308c-33 -72 -55 -144 -55 -199c0 -26 5 -40 19 -40c19 0 44 27 64 60c-28 2 -46 18 -46 57c0 37 36 108 93 108c35 0 58 -25 58 -64c0 -10 -2 -22 -5 -35c46 26 95 64 124 95
c36 38 57 87 105 87c13 0 24 -6 33 -21c11 -18 14 -42 0 -45c-47 -11 -57 -27 -37 -64c17 -31 25 -65 25 -97c0 -36 -11 -70 -35 -97c34 10 80 39 116 78zM266 535c-31 -40 -65 -93 -95 -150c38 34 81 78 112 121c63 85 62 135 -17 29zM171 224c-16 -26 -14 -53 15 -53
c11 23 18 45 18 58c0 8 -3 12 -8 12c-10 0 -19 -8 -25 -17z" />
    <glyph glyph-name="e_x.liga" unicode="ex" horiz-adv-x="573" 
d="M579 141c4 4 26 0 17 -11l-8 -10c-32 -40 -76 -84 -128 -84c-29 0 -56 15 -77 47c-58 -51 -113 -94 -134 -94c-19 0 -34 28 -25 33c31 18 83 61 138 110c-8 22 -14 46 -20 71c-5 20 -11 43 -18 64c-3 13 -8 13 -11 3c-58 -187 -155 -250 -216 -250
c-72 0 -107 46 -107 104c0 96 92 200 169 200c41 0 69 -23 69 -56c0 -28 -20 -63 -66 -97c-31 -23 -63 -40 -97 -44c0 -35 17 -62 46 -62c52 0 146 99 189 257c4 11 17 14 27 14c82 0 77 -53 90 -121l6 -26c27 26 53 53 75 76c29 30 33 39 38 44c3 3 5 3 7 3
c6 0 22 -16 22 -35c0 -14 -6 -25 -66 -84c-18 -18 -39 -38 -61 -59c15 -40 30 -55 49 -55c31 0 66 36 86 56zM160 269c-24 0 -72 -48 -89 -103c60 24 100 72 100 93c0 7 -4 10 -11 10z" />
    <glyph glyph-name="f_f.liga" unicode="ff" horiz-adv-x="512" 
d="M472 207c4 3 14 -7 14 -19c0 -34 -77 -58 -123 -36c2 -22 4 -49 4 -80c0 -116 -22 -269 -110 -269c-30 0 -56 28 -56 94c0 23 3 51 10 83c14 66 38 140 58 196c-25 -18 -102 -55 -156 -28c4 -26 6 -62 -2 -119c-17 -115 -54 -290 -142 -290c-30 0 -56 28 -56 94
c0 23 3 51 10 83c14 66 59 186 91 260c-5 0 -14 0 -19 2c-12 5 -20 36 -9 38c26 6 47 16 59 45c26 56 160 449 297 449c32 0 48 -25 48 -58c0 -110 -103 -290 -273 -418c-4 -10 -7 -19 -11 -28c58 -41 173 5 194 55c23 51 141 410 262 410c32 0 48 -25 48 -58
c0 -100 -90 -262 -238 -379c-4 -9 -7 -19 -11 -28c50 -35 101 -7 111 1zM331 629c-8 0 -37 -26 -112 -164c-20 -36 -39 -78 -57 -120c36 40 73 91 104 137c33 49 68 124 68 140c0 5 -1 7 -3 7zM551 590c-8 0 -32 -32 -77 -125c-19 -37 -38 -79 -56 -122c38 42 77 95 103 145
c20 38 33 79 33 95c0 5 -1 7 -3 7zM1 -97c-31 -149 9 -97 29 -10c22 96 35 168 40 216c-48 -119 -61 -167 -69 -206zM307 -53c7 42 11 93 14 137c-16 -50 -26 -86 -32 -117c-31 -149 3 -108 18 -20z" />
    <glyph glyph-name="f_f_l.liga" unicode="ffl" horiz-adv-x="722" 
d="M728 141c4 4 26 0 17 -11l-8 -10c-42 -52 -111 -128 -177 -128c-45 0 -76 38 -76 114c0 24 3 51 10 82c-45 -30 -97 -46 -129 -35c2 -21 4 -50 4 -81c0 -116 -22 -269 -110 -269c-30 0 -56 28 -56 94c0 23 3 51 10 83c14 66 38 140 58 196c-25 -18 -102 -55 -156 -28
c4 -26 6 -62 -2 -119c-17 -115 -54 -290 -142 -290c-30 0 -56 28 -56 94c0 23 3 51 10 83c14 66 59 186 91 260c-5 0 -14 0 -19 2c-12 5 -20 36 -9 38c26 6 47 16 59 45c26 56 160 449 297 449c32 0 48 -25 48 -58c0 -110 -103 -290 -273 -418c-4 -10 -7 -19 -11 -28
c58 -41 173 5 194 55c23 51 141 410 262 410c32 0 48 -25 48 -58c0 -100 -90 -262 -238 -379c-4 -9 -7 -19 -11 -28c38 -26 95 4 146 40c12 39 28 81 49 128c44 94 152 303 256 303c28 0 47 -20 47 -57c0 -88 -136 -302 -253 -371c-14 -24 -38 -105 -38 -156
c0 -27 6 -46 24 -46c35 0 95 55 128 88zM333 629c-8 0 -37 -26 -112 -164c-20 -36 -39 -78 -57 -120c36 40 73 91 104 137c33 49 68 124 68 140c0 5 -1 7 -3 7zM747 534c-75 -112 -120 -212 -120 -213c32 24 94 111 139 186c35 59 55 107 46 107c-7 0 -27 -22 -65 -80z
M553 590c-8 0 -32 -32 -77 -125c-19 -37 -38 -79 -56 -122c38 42 77 95 103 145c20 38 33 79 33 95c0 5 -1 7 -3 7zM3 -97c-31 -149 9 -97 29 -10c22 96 35 168 40 216c-48 -119 -61 -167 -69 -206zM309 -53c7 42 11 93 14 137c-16 -50 -26 -86 -32 -117
c-31 -149 3 -108 18 -20z" />
    <glyph glyph-name="f_i.liga" unicode="fi" horiz-adv-x="449" 
d="M455 141c4 4 26 0 17 -11l-8 -10c-44 -49 -89 -100 -157 -100c-29 0 -78 16 -78 73c0 26 8 60 28 105c-45 -34 -109 -56 -149 -43c2 -22 4 -51 4 -83c0 -116 -22 -269 -110 -269c-30 0 -56 28 -56 94c0 23 3 51 10 83c14 66 38 140 58 196c-5 0 -14 0 -19 2
c-12 5 -20 36 -9 38c26 6 47 16 59 45c23 51 141 410 262 410c32 0 48 -25 48 -58c0 -100 -90 -262 -238 -379c-4 -11 -9 -22 -13 -33c62 -33 163 40 195 75c3 4 7 8 10 11c27 24 95 15 86 -10c-7 -19 -38 -59 -60 -97c-19 -34 -32 -66 -32 -88c0 -17 8 -27 27 -27
c42 0 91 38 119 70zM296 590c-8 0 -32 -32 -77 -125c-18 -37 -38 -79 -56 -121c39 41 77 94 103 144c20 38 33 79 33 95c0 5 -1 7 -3 7zM345 354c-11 10 -4 56 14 71c21 17 77 -20 77 -49c0 -19 -21 -33 -50 -33c-18 0 -35 5 -41 11zM52 -53c7 42 11 93 14 137
c-16 -50 -26 -86 -32 -117c-31 -149 3 -108 18 -20z" />
    <glyph glyph-name="f_r.liga" unicode="fr" horiz-adv-x="562" 
d="M568 141c3 3 27 1 17 -11l-8 -10c-30 -38 -94 -96 -158 -96c-47 0 -81 31 -81 76c0 75 80 150 80 185c0 16 -16 25 -40 44c-68 -111 -186 -207 -273 -156c4 -22 7 -59 7 -101c0 -116 -22 -269 -110 -269c-30 0 -56 28 -56 94c0 23 3 51 10 83c14 66 38 140 58 196
c-5 0 -14 0 -19 2c-12 5 -20 36 -9 38c26 6 47 16 59 45c23 51 141 410 262 410c32 0 48 -25 48 -58c0 -99 -89 -260 -235 -376c-2 -8 -5 -15 -8 -22c70 -50 166 16 243 135c-14 23 -9 55 6 81c13 24 34 42 54 42c24 0 44 -19 44 -28c0 -13 -48 -54 -48 -69
c0 -23 97 -45 97 -96c0 -57 -87 -131 -87 -179c0 -19 11 -28 29 -28c40 0 74 24 112 62zM296 590c-8 0 -32 -32 -77 -125c-19 -38 -37 -78 -55 -120c39 42 76 93 102 143c20 38 33 79 33 95c0 5 -1 7 -3 7zM52 -53c7 41 11 92 13 135c-14 -50 -25 -86 -31 -115
c-31 -149 3 -108 18 -20z" />
    <glyph glyph-name="g_r.liga" unicode="gr" horiz-adv-x="634" 
d="M640 141c3 3 27 1 17 -11l-8 -10c-34 -43 -94 -96 -158 -96c-47 0 -81 31 -81 76c0 75 80 150 80 185c0 15 -14 23 -34 39c-56 -81 -139 -193 -244 -280c-24 -21 -26 -39 -56 -100c-32 -65 -108 -181 -182 -181c-28 0 -47 19 -47 51c0 89 119 187 204 233
c13 27 24 57 46 104c-29 -30 -82 -70 -124 -70c-57 0 -70 74 -21 167c46 87 145 162 202 162c35 0 57 -26 64 -70c1 -9 -27 -20 -39 -20c-21 0 -17 16 -31 16c-20 0 -68 -42 -103 -89c-41 -53 -66 -113 -48 -113c29 0 83 84 137 133c22 21 42 36 62 36c17 0 35 -9 48 -32
c5 -8 3 -12 -3 -17c-33 -31 -89 -118 -100 -156c70 61 156 163 212 245c-21 22 -16 59 0 88c13 24 34 42 54 42c24 0 44 -19 44 -28c0 -13 -48 -54 -48 -69c0 -23 97 -45 97 -96c0 -57 -87 -131 -87 -179c0 -19 11 -28 29 -28c40 0 72 22 112 62zM48 -102c25 33 67 91 60 91
c-5 0 -29 -22 -78 -79c-65 -76 -74 -132 18 -12z" />
    <glyph glyph-name="i_x.liga" unicode="ix" horiz-adv-x="539" 
d="M115 354c-11 10 -4 56 14 71c21 17 77 -20 77 -49c0 -19 -21 -33 -50 -33c-18 0 -35 5 -41 11zM545 141c4 4 26 0 17 -11l-8 -10c-32 -40 -76 -84 -128 -84c-29 0 -56 15 -77 47c-58 -51 -113 -94 -134 -94c-19 0 -34 28 -25 33c31 18 83 61 138 110c-8 22 -14 46 -20 71
c-5 20 -11 43 -18 64c-3 13 -8 13 -11 3c-58 -187 -151 -250 -212 -250c-29 0 -68 16 -68 73c0 29 10 68 35 121c14 30 29 59 45 73c27 24 95 15 86 -10c-7 -19 -40 -58 -60 -97c-14 -29 -33 -69 -33 -94c0 -13 4 -21 20 -21c52 0 131 99 174 257c4 11 17 14 27 14
c82 0 77 -53 90 -121l6 -26c27 26 53 53 75 76c29 30 33 39 38 44c3 3 5 3 7 3c6 0 22 -16 22 -35c0 -14 -6 -25 -66 -84c-18 -18 -39 -38 -61 -59c15 -40 30 -55 49 -55c31 0 66 36 86 56z" />
    <glyph glyph-name="o_n.liga" unicode="on" horiz-adv-x="682" 
d="M79 2c-54 0 -83 41 -83 99c0 114 109 264 194 264c32 0 53 -20 53 -51c0 -24 -8 -15 -30 -21c-82 -26 -145 -162 -145 -219c0 -15 5 -24 16 -24c30 0 76 59 86 95c-20 43 -5 84 17 105c26 27 175 83 215 83c23 0 49 -13 49 -46c0 -41 -34 -99 -56 -136c-8 -12 -3 -9 15 6
c42 35 128 102 171 102c20 0 45 -28 45 -50c0 -24 -70 -136 -40 -136c17 0 76 40 96 62l6 6c4 4 26 0 17 -11l-8 -10c-59 -66 -105 -102 -151 -102c-33 0 -54 23 -54 54c0 26 11 58 27 87c2 4 1 6 -2 5c-38 -13 -160 -142 -185 -142c-15 0 -46 22 -46 40c0 4 32 78 59 147
c22 56 34 87 -115 21c55 -37 -41 -228 -151 -228z" />
    <glyph glyph-name="o_r.liga" unicode="or" horiz-adv-x="574" 
d="M580 141c3 3 27 1 17 -11l-8 -10c-38 -47 -94 -96 -158 -96c-47 0 -81 31 -81 76c0 75 80 150 80 185c0 16 -16 25 -38 42c-32 -58 -77 -113 -143 -150c-20 -78 -94 -175 -170 -175c-54 0 -83 41 -83 99c0 109 109 251 194 251c32 0 53 -20 53 -51c0 -24 -8 -15 -30 -21
c-82 -26 -145 -152 -145 -206c0 -15 5 -24 16 -24c30 0 76 59 86 95c-28 61 13 120 49 120c18 0 34 -15 35 -50c60 42 94 93 115 133c-16 22 -11 56 4 83c13 24 34 42 54 42c24 0 44 -19 44 -28c0 -13 -48 -54 -48 -69c0 -23 97 -45 97 -96c0 -57 -87 -131 -87 -179
c0 -19 11 -28 29 -28c40 0 79 29 112 62z" />
    <glyph glyph-name="o_s.liga" unicode="os" horiz-adv-x="576" 
d="M582 142c4 4 26 0 17 -11l-8 -10c-58 -72 -145 -119 -234 -119c-67 0 -116 34 -116 93c0 20 20 48 48 48c23 0 17 -20 17 -43c0 -30 17 -44 35 -44c34 0 71 33 71 114c0 31 -5 64 -19 102c-33 -35 -93 -76 -146 -101c-21 -77 -94 -169 -168 -169c-54 0 -83 41 -83 99
c0 109 109 251 194 251c32 0 53 -20 53 -51c0 -24 -8 -15 -30 -21c-82 -26 -145 -152 -145 -206c0 -15 5 -24 16 -24c30 0 76 59 86 95c-28 61 13 120 49 120c18 0 35 -16 35 -52v-5c46 26 91 61 114 86c52 55 75 88 97 88c40 0 62 -60 46 -64c-34 -9 -51 -20 -51 -37
c0 -27 35 -63 35 -126c0 -35 -10 -70 -35 -98c34 10 78 41 116 79z" />
    <glyph glyph-name="o_x.liga" unicode="ox" horiz-adv-x="587" 
d="M593 141c4 4 26 0 17 -11l-8 -10c-32 -40 -76 -84 -128 -84c-29 0 -56 15 -77 47c-58 -51 -113 -94 -134 -94c-19 0 -34 28 -25 33c32 17 83 61 137 110c-7 22 -14 46 -19 71c-13 49 -22 72 -67 57c-17 -6 -38 -15 -59 -30c55 -37 -41 -228 -151 -228
c-54 0 -83 41 -83 99c0 114 109 264 194 264c32 0 53 -20 53 -51c0 -24 -8 -15 -30 -21c-82 -26 -145 -162 -145 -219c0 -15 5 -24 16 -24c30 0 76 59 86 95c-20 43 -5 84 17 105c21 20 136 83 183 83c48 0 51 -70 61 -118l6 -25c27 26 53 52 75 75c29 30 33 39 38 44
c3 3 5 3 7 3c6 0 22 -16 22 -35c0 -14 -6 -24 -66 -84c-17 -17 -38 -38 -61 -59c15 -40 30 -55 49 -55c31 0 58 28 86 56z" />
    <glyph glyph-name="r_r.liga" unicode="rr" horiz-adv-x="568" 
d="M574 141c3 3 27 1 17 -11l-8 -10c-30 -38 -94 -96 -158 -96c-47 0 -81 31 -81 76c0 75 80 150 80 185c0 13 -10 21 -26 33c-65 -137 -150 -330 -259 -330c-42 0 -75 29 -75 74c0 75 96 188 96 223c0 13 -11 21 -28 34c-33 -69 -60 -129 -105 -184l-4 -5
c-8 -10 -27 -25 -39 -32c-10 -5 -17 -3 -18 5c11 9 24 21 32 30l3 3c47 54 77 125 107 202l-2 2c-24 21 -20 61 -3 91c13 24 34 42 54 42c24 0 44 -19 44 -28c0 -13 -48 -54 -48 -69c0 -23 97 -45 97 -96c0 -61 -104 -162 -104 -218c0 -14 6 -25 19 -25
c61 0 160 181 209 300l-4 3c-24 21 -20 61 -3 91c13 24 34 42 54 42c24 0 44 -19 44 -28c0 -13 -48 -54 -48 -69c0 -23 97 -45 97 -96c0 -57 -87 -131 -87 -179c0 -19 11 -28 29 -28c40 0 74 24 112 62z" />
    <glyph glyph-name="s_s.liga" unicode="ss" horiz-adv-x="578" 
d="M584 142c4 4 26 -1 17 -12l-6 -7c-74 -86 -172 -168 -286 -168c-46 0 -87 15 -87 56c0 19 19 35 36 38c13 2 9 -8 13 -21c5 -18 19 -29 39 -29c70 0 97 88 97 143c0 41 -11 77 -7 134c-117 -198 -197 -274 -319 -274c-78 0 -135 44 -135 110c0 20 20 48 48 48
c11 0 16 -5 17 -13c40 50 60 99 99 163c33 54 61 72 83 72c40 0 58 -60 42 -64c-34 -9 -51 -20 -51 -37c0 -27 35 -63 35 -126c0 -35 -10 -70 -35 -98c75 20 160 174 208 253c33 54 57 72 79 72c40 0 58 -60 42 -64c-31 -10 -46 -23 -46 -42c0 -37 29 -92 29 -139
c0 -30 -10 -57 -28 -83c29 11 88 56 110 81zM65 56c34 0 71 33 71 114c0 33 -6 68 -18 98c-29 -46 -62 -113 -107 -152c1 -38 26 -60 54 -60z" />
    <glyph glyph-name="t_t.liga" unicode="tt" horiz-adv-x="438" 
d="M539 434c-38 -5 -76 -11 -119 -17c-60 -120 -130 -266 -130 -330c0 -25 11 -30 29 -30c31 0 77 34 118 78l6 6c4 4 26 0 17 -11l-8 -10c-31 -35 -94 -116 -172 -116c-34 0 -62 17 -70 53c-41 -61 -96 -123 -157 -123c-39 0 -69 29 -69 89c0 112 69 248 131 374h-61
c-47 0 -50 31 -38 50c5 8 8 5 19 4c15 -3 52 -4 104 -4c20 41 38 81 51 118c25 65 20 80 31 80c54 0 72 -20 72 -42c0 -24 -17 -52 -30 -78c-11 -25 -23 -51 -37 -78c37 0 78 1 122 1c21 45 40 86 52 117c25 65 20 80 31 80c54 0 72 -20 72 -42c0 -24 -17 -52 -30 -78
c-11 -22 -23 -48 -37 -75c28 1 57 1 86 2c23 -1 21 -11 17 -18zM208 100c9 74 68 199 120 308c-37 -4 -78 -6 -125 -8c-64 -128 -137 -270 -137 -369c0 -28 8 -44 24 -44c32 0 84 63 118 113z" />
    <glyph glyph-name="u_x.liga" unicode="ux" horiz-adv-x="707" 
d="M713 141c4 4 26 0 17 -11l-8 -10c-32 -40 -76 -84 -128 -84c-29 0 -56 15 -77 47c-58 -51 -113 -94 -134 -94c-19 0 -34 28 -25 33c31 18 83 61 138 110c-8 22 -14 46 -20 71c-5 20 -11 43 -18 64c-3 13 -8 13 -11 3c-58 -187 -141 -236 -199 -236c-42 0 -68 39 -53 96
c1 2 -1 2 -2 1c-29 -25 -80 -77 -131 -77c-35 0 -61 23 -61 70c0 21 5 43 17 76c14 41 33 84 49 121s17 58 43 44c18 -9 44 -34 44 -55c0 -24 -17 -52 -35 -90c-23 -50 -46 -103 -24 -103c47 0 137 131 179 194c3 6 9 8 24 -2c19 -13 33 -28 33 -40c0 -19 -25 -53 -48 -107
c-18 -41 -24 -76 3 -76c31 0 105 78 148 236c4 11 17 14 27 14c82 0 77 -53 90 -121l6 -26c27 26 53 53 75 76c29 30 33 39 38 44c3 3 5 3 7 3c6 0 22 -16 22 -35c0 -14 -6 -25 -66 -84c-18 -18 -39 -38 -61 -59c15 -40 30 -55 49 -55c31 0 66 36 86 56z" />
    <glyph glyph-name="y_r.liga" unicode="yr" horiz-adv-x="620" 
d="M626 141c3 3 27 1 17 -11l-8 -10c-38 -47 -94 -96 -158 -96c-47 0 -81 31 -81 76c0 75 80 150 80 185c0 15 -13 23 -34 39c-54 -91 -124 -158 -206 -223c-27 -48 -52 -91 -61 -106c-29 -48 -61 -90 -104 -135c-39 -40 -83 -73 -123 -73c-44 0 -85 43 -85 72
c0 37 41 79 98 113c40 27 107 53 182 97c0 1 1 1 1 2c21 39 40 78 57 112c-48 -53 -103 -113 -156 -113c-39 0 -59 36 -36 100c12 36 46 110 58 187c3 8 6 11 15 9c15 -3 52 -23 52 -58c0 -24 -11 -52 -25 -85c-19 -44 -40 -82 -28 -82c10 0 58 42 108 92c44 43 57 62 77 90
c5 6 10 9 15 6c28 -19 39 -37 39 -57c0 -13 -24 -61 -52 -114c53 47 106 105 153 183c-23 21 -19 60 -2 90c13 24 34 42 54 42c24 0 44 -19 44 -28c0 -14 -44 -59 -44 -76c0 -21 93 -42 93 -89c0 -57 -87 -131 -87 -179c0 -19 11 -28 29 -28c40 0 79 29 112 62zM43 -75
c15 15 35 41 60 78c-42 -29 -86 -60 -132 -94c-23 -17 -61 -62 -44 -62c22 0 71 31 116 78z" />
    <glyph glyph-name="z_r.liga" unicode="zr" horiz-adv-x="579" 
d="M585 141c3 3 27 1 17 -11l-8 -10c-38 -47 -94 -96 -158 -96c-47 0 -81 31 -81 76c0 75 80 150 80 185c0 15 -14 23 -34 39c-57 -97 -93 -154 -170 -228c1 -4 1 -8 1 -12c0 -102 -150 -311 -279 -311c-45 0 -86 34 -86 65c0 48 100 119 207 187c34 22 64 42 90 61v4
c0 22 -19 30 -42 30c-26 0 -58 -5 -89 -16c-14 -5 -27 26 -27 33c0 9 8 14 19 23c16 12 69 53 119 98c3 3 4 5 -1 5c-48 0 -118 -6 -118 46c0 16 8 29 13 29c3 0 7 -1 13 -3c29 -10 67 -13 93 -13c31 0 52 5 69 12c16 6 21 12 31 8c13 -6 35 -25 35 -44
c0 -13 -8 -27 -33 -47c-30 -25 -74 -53 -107 -81c36 -4 63 -18 79 -40c65 58 109 120 160 212c-21 22 -16 60 0 89c13 24 34 42 54 42c24 0 44 -19 44 -28c0 -13 -48 -54 -48 -69c0 -23 97 -45 97 -96c0 -57 -87 -131 -87 -179c0 -19 11 -28 29 -28c40 0 79 29 112 62z
M86 -59c21 24 38 48 51 71c-15 -13 -30 -25 -47 -39c-49 -39 -71 -55 -90 -70c-45 -35 -78 -66 -60 -66c12 0 43 15 62 28c29 20 60 49 84 76z" />
    <glyph glyph-name="z_y.liga" unicode="zy" horiz-adv-x="641" 
d="M513 30c68 -4 132 -49 132 -68c0 -4 -3 -8 -10 -11c-20 10 -58 38 -143 28c-11 -1 -33 -30 -41 -41c-44 -63 -120 -151 -186 -151c-44 0 -85 43 -85 72c0 64 119 140 221 167c30 8 40 10 54 36c21 39 46 87 63 121c-48 -53 -103 -113 -156 -113c-39 0 -59 36 -36 100
c2 6 4 12 7 19c-30 -36 -62 -64 -101 -95c2 -17 0 -36 -8 -57c-40 -96 -159 -264 -271 -264c-45 0 -86 28 -86 65c0 43 22 67 77 109c63 48 130 84 220 145v3c0 21 -23 25 -49 25c-35 0 -64 -13 -83 -13c-16 0 -26 23 -26 30c0 9 8 14 19 23c16 12 69 53 119 98
c3 3 4 5 -1 5c-38 0 -116 -5 -116 36c0 9 -1 32 4 37c10 10 37 -14 79 -14c45 0 109 16 130 16c25 0 40 -32 40 -47c0 -32 -89 -76 -141 -121c34 -3 62 -17 79 -40c76 57 121 104 159 191c3 12 5 24 7 36c3 8 6 11 15 9c15 -3 52 -23 52 -58c0 -24 -11 -52 -25 -85
c-19 -44 -40 -82 -28 -82c10 0 58 42 108 92c44 43 57 62 77 90c5 6 10 9 15 6c28 -19 39 -37 39 -57c0 -32 -28 -67 -55 -113c-29 -51 -58 -109 -69 -129zM-61 -162c50 1 134 82 173 134c4 6 16 26 28 49c-57 -44 -135 -107 -167 -137l-38 -38c-4 -5 -2 -8 4 -8zM360 -75
c23 23 32 36 32 41c0 14 -79 -38 -104 -57c-23 -17 -61 -62 -44 -62c22 0 71 31 116 78z" />
    <glyph glyph-name="z_z.liga" unicode="zz" horiz-adv-x="615" 
d="M540 37c67 -10 135 -49 135 -71c0 -6 -4 -11 -13 -14c-37 25 -75 44 -142 36c-23 -60 -139 -215 -251 -215c-45 0 -86 34 -86 65c0 64 152 163 272 195c14 18 25 37 25 57c0 22 -19 30 -42 30c-26 0 -58 -5 -88 -18c-14 -6 -28 28 -28 35c0 9 8 14 19 23
c16 12 69 53 119 98c3 3 4 5 -1 5c-30 0 -68 -2 -93 8c-30 -80 -70 -123 -134 -176c1 -4 1 -9 1 -14c0 -36 -40 -121 -62 -152c-48 -69 -134 -156 -218 -156c-45 0 -86 34 -86 65c0 29 32 68 77 103c63 49 129 89 220 152c-2 20 -20 27 -42 27c-26 0 -58 -5 -88 -18
c-14 -6 -28 28 -28 35c0 9 8 14 19 23c16 12 69 53 119 98c3 3 4 5 -1 5c-48 0 -118 -6 -118 46c0 16 8 29 13 29c3 0 7 -1 13 -3c29 -10 67 -13 93 -13c31 0 52 5 69 12c16 6 21 12 31 8c13 -6 35 -25 35 -44c0 -13 -8 -27 -33 -47c-30 -25 -74 -53 -107 -81
c33 -4 61 -17 78 -39c74 59 112 115 124 171v7c0 16 8 29 13 29c3 0 7 -1 13 -3c29 -10 67 -13 93 -13c31 0 52 5 69 12c16 6 21 12 31 8c13 -6 35 -25 35 -44c0 -13 -8 -27 -33 -47c-30 -25 -74 -53 -107 -81c68 -7 114 -56 85 -133zM86 -59c15 17 38 50 55 83
c-58 -45 -141 -110 -174 -142c-25 -25 -40 -45 -27 -45c12 0 43 15 62 28c29 20 60 49 84 76zM402 -59c39 43 31 43 9 30c-30 -18 -65 -45 -95 -68c-45 -35 -78 -66 -60 -66c12 0 43 15 62 28c29 20 60 49 84 76z" />
    <glyph glyph-name=".notdef" horiz-adv-x="500" 
d="M410 800v-1000h-317v1000h317zM333 733h-165v-33h65v-37h-66v-33h166v33h-66v37h66v33zM267 604h-100v-104h166v34h-66v70zM233 570v-36h-33v36h33zM333 473h-166v-33h66v-37h-66v-33h100v70h66v33zM333 413h-33v-66h-133v-34h166v100zM333 291h-100v-56h34v23h33v-47
h-100v80h-33v-113h166v113zM333 118h-166v-113h166v113zM300 85v-47h-100v47h100zM333 -18h-166v-33h70l-70 -47v-33h166v33h-102l70 47h32v33z" />
    <glyph glyph-name="A" unicode="A" horiz-adv-x="600" 
d="M606 325c24 -4 42 -12 42 -29c0 -16 -1 -10 -57 -18c-35 -5 -71 -12 -109 -20c-55 -133 -106 -257 -119 -296c-3 -10 -24 -30 -39 -30s-25 20 -25 45c0 49 33 151 73 260c-50 -10 -106 -21 -160 -29c-46 -64 -106 -148 -187 -258c-31 -42 -46 -66 -61 -66
c-21 0 -34 36 -34 41c0 16 91 150 175 269c-70 -6 -124 1 -135 36c-10 35 -1 40 23 44c15 2 37 4 65 7c33 4 76 9 120 15c74 104 188 265 258 339c42 45 83 82 126 82c37 0 84 -36 84 -73c-16 -36 -74 -171 -134 -314h32c21 -1 43 -2 62 -5zM526 616
c-15 0 -85 -87 -241 -305c40 5 81 10 121 14c39 96 77 185 99 235c15 35 27 56 21 56z" />
    <glyph glyph-name="Aacute" unicode="&#xc1;" horiz-adv-x="600" 
d="M685 878c16 0 41 -27 41 -41c0 -8 -7 -15 -21 -23c-34 -20 -69 -43 -103 -63c-8 -6 -25 -14 -35 -14c-9 1 -8 17 -7 24c3 16 11 26 20 35c30 26 56 53 89 76c6 4 11 6 16 6zM606 325c24 -4 42 -12 42 -29c0 -16 -1 -10 -57 -18c-35 -5 -71 -12 -109 -20
c-55 -133 -106 -257 -119 -296c-3 -10 -24 -30 -39 -30s-25 20 -25 45c0 49 33 151 73 260c-50 -10 -106 -21 -160 -29c-46 -64 -106 -148 -187 -258c-31 -42 -46 -66 -61 -66c-21 0 -34 36 -34 41c0 16 91 150 175 269c-70 -6 -124 1 -135 36c-10 35 -1 40 23 44
c15 2 37 4 65 7c33 4 76 9 120 15c74 104 188 265 258 339c42 45 83 82 126 82c37 0 84 -36 84 -73c-16 -36 -74 -171 -134 -314h32c21 -1 43 -2 62 -5zM526 616c-15 0 -85 -87 -241 -305c40 5 81 10 121 14c39 96 77 185 99 235c15 35 27 56 21 56z" />
    <glyph glyph-name="Abreve" unicode="&#x102;" horiz-adv-x="600" 
d="M723 876c16 -8 17 -22 13 -32c-19 -57 -65 -106 -127 -108c-37 -1 -71 15 -87 41c-15 23 -20 45 -20 71c0 23 2 32 17 32c32 1 52 -16 53 -44c2 -20 7 -48 45 -48s78 61 89 84c5 9 7 9 17 4zM606 325c24 -4 42 -12 42 -29c0 -16 -1 -10 -57 -18c-35 -5 -71 -12 -109 -20
c-55 -133 -106 -257 -119 -296c-3 -10 -24 -30 -39 -30s-25 20 -25 45c0 49 33 151 73 260c-50 -10 -106 -21 -160 -29c-46 -64 -106 -148 -187 -258c-31 -42 -46 -66 -61 -66c-21 0 -34 36 -34 41c0 16 91 150 175 269c-70 -6 -124 1 -135 36c-10 35 -1 40 23 44
c15 2 37 4 65 7c33 4 76 9 120 15c74 104 188 265 258 339c42 45 83 82 126 82c37 0 84 -36 84 -73c-16 -36 -74 -171 -134 -314h32c21 -1 43 -2 62 -5zM526 616c-15 0 -85 -87 -241 -305c40 5 81 10 121 14c39 96 77 185 99 235c15 35 27 56 21 56z" />
    <glyph glyph-name="Acircumflex" unicode="&#xc2;" horiz-adv-x="600" 
d="M724 796c7 -9 12 -21 12 -35c0 -7 -4 -23 -14 -24c-22 0 -63 38 -100 64c-38 -19 -117 -64 -132 -64c-13 0 -7 17 -4 24c8 16 19 26 30 35c33 22 113 84 128 84c14 0 56 -56 80 -84zM606 325c24 -4 42 -12 42 -29c0 -16 -1 -10 -57 -18c-35 -5 -71 -12 -109 -20
c-55 -133 -106 -257 -119 -296c-3 -10 -24 -30 -39 -30s-25 20 -25 45c0 49 33 151 73 260c-50 -10 -106 -21 -160 -29c-46 -64 -106 -148 -187 -258c-31 -42 -46 -66 -61 -66c-21 0 -34 36 -34 41c0 16 91 150 175 269c-70 -6 -124 1 -135 36c-10 35 -1 40 23 44
c15 2 37 4 65 7c33 4 76 9 120 15c74 104 188 265 258 339c42 45 83 82 126 82c37 0 84 -36 84 -73c-16 -36 -74 -171 -134 -314h32c21 -1 43 -2 62 -5zM526 616c-15 0 -85 -87 -241 -305c40 5 81 10 121 14c39 96 77 185 99 235c15 35 27 56 21 56z" />
    <glyph glyph-name="Adieresis" unicode="&#xc4;" horiz-adv-x="600" 
d="M546 777c-28 0 -42 29 -42 49c0 33 32 59 51 59c16 0 31 -21 42 -34c6 -8 9 -18 9 -27c0 -27 -31 -47 -60 -47zM745 851c6 -8 9 -18 9 -27c0 -27 -31 -47 -60 -47c-28 0 -42 29 -42 49c0 33 32 59 51 59c16 0 31 -21 42 -34zM606 325c24 -4 42 -12 42 -29
c0 -16 -1 -10 -57 -18c-35 -5 -71 -12 -109 -20c-55 -133 -106 -257 -119 -296c-3 -10 -24 -30 -39 -30s-25 20 -25 45c0 49 33 151 73 260c-50 -10 -106 -21 -160 -29c-46 -64 -106 -148 -187 -258c-31 -42 -46 -66 -61 -66c-21 0 -34 36 -34 41c0 16 91 150 175 269
c-70 -6 -124 1 -135 36c-10 35 -1 40 23 44c15 2 37 4 65 7c33 4 76 9 120 15c74 104 188 265 258 339c42 45 83 82 126 82c37 0 84 -36 84 -73c-16 -36 -74 -171 -134 -314h32c21 -1 43 -2 62 -5zM526 616c-15 0 -85 -87 -241 -305c40 5 81 10 121 14c39 96 77 185 99 235
c15 35 27 56 21 56z" />
    <glyph glyph-name="Agrave" unicode="&#xc0;" horiz-adv-x="600" 
d="M472 812c-14 8 -21 15 -21 23c0 14 25 41 41 41c5 0 10 -2 16 -6c33 -23 59 -50 89 -76c9 -9 17 -19 20 -35c1 -7 2 -23 -7 -24c-10 0 -27 8 -35 14c-34 20 -69 43 -103 63zM606 325c24 -4 42 -12 42 -29c0 -16 -1 -10 -57 -18c-35 -5 -71 -12 -109 -20
c-55 -133 -106 -257 -119 -296c-3 -10 -24 -30 -39 -30s-25 20 -25 45c0 49 33 151 73 260c-50 -10 -106 -21 -160 -29c-46 -64 -106 -148 -187 -258c-31 -42 -46 -66 -61 -66c-21 0 -34 36 -34 41c0 16 91 150 175 269c-70 -6 -124 1 -135 36c-10 35 -1 40 23 44
c15 2 37 4 65 7c33 4 76 9 120 15c74 104 188 265 258 339c42 45 83 82 126 82c37 0 84 -36 84 -73c-16 -36 -74 -171 -134 -314h32c21 -1 43 -2 62 -5zM526 616c-15 0 -85 -87 -241 -305c40 5 81 10 121 14c39 96 77 185 99 235c15 35 27 56 21 56z" />
    <glyph glyph-name="Amacron" unicode="&#x100;" horiz-adv-x="600" 
d="M644 839c39 -1 96 3 95 -38c0 -17 -3 -21 -14 -21c-120 7 -167 5 -227 2c-8 0 -24 0 -27 3c-6 5 -4 15 -4 19c0 19 20 23 48 29c36 6 85 7 129 6zM606 325c24 -4 42 -12 42 -29c0 -16 -1 -10 -57 -18c-35 -5 -71 -12 -109 -20c-55 -133 -106 -257 -119 -296
c-3 -10 -24 -30 -39 -30s-25 20 -25 45c0 49 33 151 73 260c-50 -10 -106 -21 -160 -29c-46 -64 -106 -148 -187 -258c-31 -42 -46 -66 -61 -66c-21 0 -34 36 -34 41c0 16 91 150 175 269c-70 -6 -124 1 -135 36c-10 35 -1 40 23 44c15 2 37 4 65 7c33 4 76 9 120 15
c74 104 188 265 258 339c42 45 83 82 126 82c37 0 84 -36 84 -73c-16 -36 -74 -171 -134 -314h32c21 -1 43 -2 62 -5zM526 616c-15 0 -85 -87 -241 -305c40 5 81 10 121 14c39 96 77 185 99 235c15 35 27 56 21 56z" />
    <glyph glyph-name="Aogonek" unicode="&#x104;" horiz-adv-x="600" 
d="M606 325c24 -4 42 -12 42 -29c0 -16 -1 -10 -57 -18c-35 -5 -71 -12 -109 -20c-55 -133 -106 -257 -119 -296c-3 -10 -23 -29 -37 -30c-5 -1 -10 -3 -15 -5c-60 -28 -73 -70 -76 -94c-2 -15 8 -17 19 -17c26 0 55 13 72 19c7 3 13 1 13 -8c0 -34 -57 -53 -94 -53
c-39 0 -68 17 -68 62c0 58 70 115 124 124c-1 5 -2 11 -2 17c0 49 33 151 73 260c-50 -10 -106 -21 -160 -29c-46 -64 -106 -148 -187 -258c-31 -42 -46 -66 -61 -66c-21 0 -34 36 -34 41c0 16 91 150 175 269c-70 -6 -124 1 -135 36c-10 35 -1 40 23 44c15 2 37 4 65 7
c33 4 76 9 120 15c74 104 188 265 258 339c42 45 83 82 126 82c37 0 84 -36 84 -73c-16 -36 -74 -171 -134 -314h32c21 -1 43 -2 62 -5zM526 616c-15 0 -85 -87 -241 -305c40 5 81 10 121 14c39 96 77 185 99 235c15 35 27 56 21 56z" />
    <glyph glyph-name="Aring" unicode="&#xc5;" horiz-adv-x="600" 
d="M629 921c31 0 92 -30 92 -83c0 -43 -36 -78 -85 -79c-57 0 -92 32 -92 71c0 34 27 91 85 91zM620 799c35 10 50 43 25 78c-4 6 -12 6 -19 2c-29 -14 -36 -48 -24 -73c4 -8 8 -10 18 -7zM606 325c24 -4 42 -12 42 -29c0 -16 -1 -10 -57 -18c-35 -5 -71 -12 -109 -20
c-55 -133 -106 -257 -119 -296c-3 -10 -24 -30 -39 -30s-25 20 -25 45c0 49 33 151 73 260c-50 -10 -106 -21 -160 -29c-46 -64 -106 -148 -187 -258c-31 -42 -46 -66 -61 -66c-21 0 -34 36 -34 41c0 16 91 150 175 269c-70 -6 -124 1 -135 36c-10 35 -1 40 23 44
c15 2 37 4 65 7c33 4 76 9 120 15c74 104 188 265 258 339c42 45 83 82 126 82c37 0 84 -36 84 -73c-16 -36 -74 -171 -134 -314h32c21 -1 43 -2 62 -5zM526 616c-15 0 -85 -87 -241 -305c40 5 81 10 121 14c39 96 77 185 99 235c15 35 27 56 21 56z" />
    <glyph glyph-name="Atilde" unicode="&#xc3;" horiz-adv-x="600" 
d="M734 872c12 8 17 7 20 -13c0 -35 -52 -89 -96 -89c-42 0 -69 52 -92 52c-23 -1 -33 -9 -51 -25c-9 -8 -16 -11 -23 -11c-15 0 -26 27 -19 36c22 26 57 57 96 57s67 -49 91 -49c17 0 50 26 74 42zM606 325c24 -4 42 -12 42 -29c0 -16 -1 -10 -57 -18
c-35 -5 -71 -12 -109 -20c-55 -133 -106 -257 -119 -296c-3 -10 -24 -30 -39 -30s-25 20 -25 45c0 49 33 151 73 260c-50 -10 -106 -21 -160 -29c-46 -64 -106 -148 -187 -258c-31 -42 -46 -66 -61 -66c-21 0 -34 36 -34 41c0 16 91 150 175 269c-70 -6 -124 1 -135 36
c-10 35 -1 40 23 44c15 2 37 4 65 7c33 4 76 9 120 15c74 104 188 265 258 339c42 45 83 82 126 82c37 0 84 -36 84 -73c-16 -36 -74 -171 -134 -314h32c21 -1 43 -2 62 -5zM526 616c-15 0 -85 -87 -241 -305c40 5 81 10 121 14c39 96 77 185 99 235c15 35 27 56 21 56z" />
    <glyph glyph-name="AE" unicode="&#xc6;" horiz-adv-x="842" 
d="M993 583c2 -9 -21 -14 -29 -14c-39 0 -42 59 -95 59s-223 -97 -314 -196c-12 -29 -25 -59 -37 -89c2 -2 4 -3 7 -4c9 -3 21 -7 36 -10c15 -1 31 -2 45 -4l15 -3c8 -1 16 -1 25 -1c64 0 100 23 138 23c33 0 76 -63 53 -74c-42 -20 -384 -128 -384 -238
c0 -15 11 -19 37 -19c135 0 183 32 270 58c15 4 21 -8 21 -19c0 -21 -21 -53 -46 -63c-26 -10 -142 -49 -233 -49c-60 0 -102 44 -102 106c0 5 0 11 1 16c-18 -46 -32 -82 -38 -100c-3 -10 -24 -30 -39 -30s-25 20 -25 45c0 49 33 151 73 260c-50 -10 -106 -21 -160 -29
c-46 -64 -106 -148 -187 -258c-31 -42 -46 -66 -61 -66c-21 0 -34 36 -34 41c0 16 91 150 175 269c-70 -6 -124 1 -135 36c-10 35 -1 40 23 44c15 2 37 4 65 7c33 4 76 9 120 15c74 104 188 265 258 339c42 45 83 82 126 82c37 0 84 -36 84 -73l-5 -12c18 13 36 24 54 35
c73 42 144 55 192 55c51 0 101 -91 106 -139zM526 616c-15 0 -85 -87 -241 -305c40 5 81 10 121 14c39 96 77 185 99 235c15 35 27 56 21 56zM424 118c29 47 82 94 137 132c-15 4 -31 8 -48 14l-31 -6c-21 -49 -40 -97 -58 -140z" />
    <glyph glyph-name="B" unicode="B" horiz-adv-x="877" 
d="M543 371c117 -21 301 -50 301 -196c0 -75 -89 -135 -201 -177c-120 -44 -270 -69 -393 -69c-297 0 -257 149 -234 149c5 0 16 -6 19 -9c3 -49 54 -68 124 -71c28 73 68 168 130 284l-77 -4c-33 0 -47 28 -47 52c0 12 7 13 20 15c37 6 94 17 157 35c34 57 72 119 115 184
c1 1 4 5 7 10c-122 -9 -243 -40 -303 -88c-18 -15 -38 21 -38 50c0 89 351 105 369 104c28 38 35 54 45 54c24 0 27 -32 46 -62c67 -14 163 -33 163 -119c0 -44 -19 -67 -50 -84c-25 -13 -121 -53 -153 -58zM558 577c-5 -10 -41 -74 -88 -156c9 3 18 6 27 10
c23 9 184 86 184 106c0 8 -33 36 -123 40zM458 36c155 42 327 123 327 180c0 46 -101 64 -218 70c-56 3 -117 2 -171 1c-62 -112 -124 -227 -152 -286c81 6 166 22 214 35z" />
    <glyph glyph-name="C" unicode="C" horiz-adv-x="578" 
d="M174 -69c-131 0 -184 92 -184 201c0 233 266 560 473 557c194 -3 104 -286 -2 -284c-19 0 -39 14 -58 48c56 59 92 144 46 145c-84 1 -354 -250 -354 -464c0 -90 37 -124 112 -124c89 0 232 62 332 126c22 14 45 30 58 35c7 -2 12 -9 13 -14c8 -47 -253 -226 -436 -226z
" />
    <glyph glyph-name="Cacute" unicode="&#x106;" horiz-adv-x="578" 
d="M480 717c10 0 27 8 35 14c34 20 69 43 103 63c14 8 21 15 21 23c0 14 -25 41 -41 41c-5 0 -10 -2 -16 -6c-33 -23 -59 -50 -89 -76c-9 -9 -17 -19 -20 -35c-1 -7 -2 -23 7 -24zM174 -69c-131 0 -184 92 -184 201c0 233 266 560 473 557c194 -3 104 -286 -2 -284
c-19 0 -39 14 -58 48c56 59 92 144 46 145c-84 1 -354 -250 -354 -464c0 -90 37 -124 112 -124c89 0 232 62 332 126c22 14 45 30 58 35c7 -2 12 -9 13 -14c8 -47 -253 -226 -436 -226z" />
    <glyph glyph-name="Ccaron" unicode="&#x10c;" horiz-adv-x="578" 
d="M644 836c4 7 9 24 -2 24s-27 -8 -36 -13c-33 -17 -65 -35 -98 -51c-22 16 -45 34 -67 51c-7 5 -22 13 -33 13c-9 -1 -13 -17 -13 -24c0 -13 4 -26 12 -34c24 -29 67 -85 81 -85c12 0 96 63 127 85c10 8 22 19 29 34zM174 -69c-131 0 -184 92 -184 201
c0 233 266 560 473 557c194 -3 104 -286 -2 -284c-19 0 -39 14 -58 48c56 59 92 144 46 145c-84 1 -354 -250 -354 -464c0 -90 37 -124 112 -124c89 0 232 62 332 126c22 14 45 30 58 35c7 -2 12 -9 13 -14c8 -47 -253 -226 -436 -226z" />
    <glyph glyph-name="Ccedilla" unicode="&#xc7;" horiz-adv-x="578" 
d="M610 157c8 -45 -234 -213 -416 -225c-6 -14 -13 -27 -19 -38c15 -3 29 -8 39 -16c21 -14 31 -36 31 -54c0 -50 -86 -83 -146 -83c-21 0 -36 7 -36 16c0 3 2 7 8 11c56 15 84 28 119 58c5 5 7 8 0 13c-8 6 -17 9 -28 9c-22 0 -28 -11 -37 -1c-9 9 -14 15 -14 22
c0 15 17 44 31 64c-108 14 -152 99 -152 199c0 233 266 560 473 557c194 -3 104 -286 -2 -284c-19 0 -39 14 -58 48c56 59 92 144 46 145c-84 1 -354 -250 -354 -464c0 -90 37 -124 112 -124c89 0 232 62 332 126c22 14 45 30 58 35c7 -2 12 -9 13 -14z" />
    <glyph glyph-name="D" unicode="D" horiz-adv-x="835" 
d="M796 468c44 -37 74 -80 74 -130c0 -234 -701 -406 -738 -406c-17 0 -51 7 -69 19c-9 6 -13 13 -13 19c0 17 19 26 26 33c5 4 11 11 17 20c40 83 132 309 222 498c-28 2 -57 2 -81 3c-75 1 -160 -19 -172 -10c-16 16 17 70 40 76c70 20 160 20 252 12c34 66 62 112 74 112
c18 0 39 -25 39 -56c0 -13 -7 -37 -18 -67c129 -17 255 -48 347 -123zM530 155c136 64 261 165 261 222c0 89 -274 123 -376 135c-44 -94 -135 -271 -223 -469c142 32 253 71 338 112z" />
    <glyph glyph-name="Eth" unicode="&#xd0;" horiz-adv-x="835" 
d="M796 468c44 -37 74 -80 74 -130c0 -234 -701 -406 -738 -406c-17 0 -51 7 -69 19c-9 6 -13 13 -13 19c0 17 19 26 26 33c5 4 11 11 17 20c27 56 78 177 136 309h-68c-19 0 -33 -1 -33 5c0 13 4 20 15 23c10 3 53 7 103 10c23 51 46 102 69 151c-28 2 -57 2 -81 3
c-75 1 -160 -19 -172 -10c-16 16 17 70 40 76c70 20 160 20 252 12c34 66 62 112 74 112c18 0 39 -25 39 -56c0 -13 -7 -37 -18 -67c129 -17 255 -48 347 -123zM530 155c136 64 261 165 261 222c0 89 -274 123 -376 135c-16 -35 -40 -82 -67 -138h7c48 0 108 0 108 -31
c0 -16 -5 -15 -16 -15c-44 2 -84 3 -120 4c-41 -84 -88 -184 -135 -289c142 32 253 71 338 112z" />
    <glyph glyph-name="Dcaron" unicode="&#x10e;" horiz-adv-x="835" 
d="M543 685c-14 0 -57 56 -81 85c-8 8 -12 21 -12 34c0 7 4 23 13 24c11 0 26 -8 33 -13c22 -17 45 -35 67 -51c33 16 65 34 98 51c9 5 25 13 36 13s6 -17 2 -24c-7 -15 -19 -26 -29 -34c-31 -22 -115 -85 -127 -85zM796 468c44 -37 74 -80 74 -130
c0 -234 -701 -406 -738 -406c-17 0 -51 7 -69 19c-9 6 -13 13 -13 19c0 17 19 26 26 33c5 4 11 11 17 20c40 83 132 309 222 498c-28 2 -57 2 -81 3c-75 1 -160 -19 -172 -10c-16 16 17 70 40 76c70 20 160 20 252 12c34 66 62 112 74 112c18 0 39 -25 39 -56
c0 -13 -7 -37 -18 -67c129 -17 255 -48 347 -123zM530 155c136 64 261 165 261 222c0 89 -274 123 -376 135c-44 -94 -135 -271 -223 -469c142 32 253 71 338 112z" />
    <glyph glyph-name="Dcroat" unicode="&#x110;" horiz-adv-x="835" 
d="M796 468c44 -37 74 -80 74 -130c0 -234 -701 -406 -738 -406c-17 0 -51 7 -69 19c-9 6 -13 13 -13 19c0 17 19 26 26 33c5 4 11 11 17 20c27 56 78 177 136 309h-68c-19 0 -33 -1 -33 5c0 13 4 20 15 23c10 3 53 7 103 10c23 51 46 102 69 151c-28 2 -57 2 -81 3
c-75 1 -160 -19 -172 -10c-16 16 17 70 40 76c70 20 160 20 252 12c34 66 62 112 74 112c18 0 39 -25 39 -56c0 -13 -7 -37 -18 -67c129 -17 255 -48 347 -123zM530 155c136 64 261 165 261 222c0 89 -274 123 -376 135c-16 -35 -40 -82 -67 -138h7c48 0 108 0 108 -31
c0 -16 -5 -15 -16 -15c-44 2 -84 3 -120 4c-41 -84 -88 -184 -135 -289c142 32 253 71 338 112z" />
    <glyph glyph-name="E" unicode="E" horiz-adv-x="517" 
d="M154 -82c-87 0 -146 33 -146 103c0 71 92 153 216 213c-126 -3 -188 39 -181 98c16 135 297 371 500 371c29 0 54 -9 73 -25c34 -28 47 -74 52 -120c-6 -11 -35 -24 -48 -21c-32 9 -51 67 -101 67c-154 0 -378 -192 -387 -263c-4 -33 92 -34 141 -29c52 5 104 12 146 17
c26 3 71 -27 48 -77c-112 -28 -381 -151 -392 -228c-4 -28 37 -33 84 -33c69 0 166 28 222 69c34 -44 6 -79 -53 -106c-51 -23 -116 -36 -174 -36z" />
    <glyph glyph-name="Eacute" unicode="&#xc9;" horiz-adv-x="517" 
d="M502 724c10 0 27 8 35 14c34 20 69 43 103 63c14 8 21 15 21 23c0 14 -25 41 -41 41c-5 0 -10 -2 -16 -6c-33 -23 -59 -50 -89 -76c-9 -9 -17 -19 -20 -35c-1 -7 -2 -23 7 -24zM154 -82c-87 0 -146 33 -146 103c0 71 92 153 216 213c-126 -3 -188 39 -181 98
c16 135 297 371 500 371c29 0 54 -9 73 -25c34 -28 47 -74 52 -120c-6 -11 -35 -24 -48 -21c-32 9 -51 67 -101 67c-154 0 -378 -192 -387 -263c-4 -33 92 -34 141 -29c52 5 104 12 146 17c26 3 71 -27 48 -77c-112 -28 -381 -151 -392 -228c-4 -28 37 -33 84 -33
c69 0 166 28 222 69c34 -44 6 -79 -53 -106c-51 -23 -116 -36 -174 -36z" />
    <glyph glyph-name="Ecaron" unicode="&#x11a;" horiz-adv-x="517" 
d="M666 843c4 7 9 24 -2 24s-27 -8 -36 -13c-33 -17 -65 -35 -98 -51c-22 16 -45 34 -67 51c-7 5 -22 13 -33 13c-9 -1 -13 -17 -13 -24c0 -13 4 -26 12 -34c24 -29 67 -85 81 -85c12 0 96 63 127 85c10 8 22 19 29 34zM154 -82c-87 0 -146 33 -146 103c0 71 92 153 216 213
c-126 -3 -188 39 -181 98c16 135 297 371 500 371c29 0 54 -9 73 -25c34 -28 47 -74 52 -120c-6 -11 -35 -24 -48 -21c-32 9 -51 67 -101 67c-154 0 -378 -192 -387 -263c-4 -33 92 -34 141 -29c52 5 104 12 146 17c26 3 71 -27 48 -77c-112 -28 -381 -151 -392 -228
c-4 -28 37 -33 84 -33c69 0 166 28 222 69c34 -44 6 -79 -53 -106c-51 -23 -116 -36 -174 -36z" />
    <glyph glyph-name="Ecircumflex" unicode="&#xca;" horiz-adv-x="517" 
d="M421 748c-3 -7 -9 -24 4 -24c15 0 94 45 132 64c37 -26 78 -64 100 -64c10 1 14 17 14 24c0 14 -5 26 -12 35c-24 28 -66 84 -80 84c-15 0 -95 -62 -128 -84c-11 -9 -22 -19 -30 -35zM154 -82c-87 0 -146 33 -146 103c0 71 92 153 216 213c-126 -3 -188 39 -181 98
c16 135 297 371 500 371c29 0 54 -9 73 -25c34 -28 47 -74 52 -120c-6 -11 -35 -24 -48 -21c-32 9 -51 67 -101 67c-154 0 -378 -192 -387 -263c-4 -33 92 -34 141 -29c52 5 104 12 146 17c26 3 71 -27 48 -77c-112 -28 -381 -151 -392 -228c-4 -28 37 -33 84 -33
c69 0 166 28 222 69c34 -44 6 -79 -53 -106c-51 -23 -116 -36 -174 -36z" />
    <glyph glyph-name="Edieresis" unicode="&#xcb;" horiz-adv-x="517" 
d="M481 764c29 0 60 20 60 47c0 9 -3 19 -9 27c-11 13 -26 34 -42 34c-19 0 -51 -26 -51 -59c0 -20 14 -49 42 -49zM629 764c29 0 60 20 60 47c0 9 -3 19 -9 27c-11 13 -26 34 -42 34c-19 0 -51 -26 -51 -59c0 -20 14 -49 42 -49zM154 -82c-87 0 -146 33 -146 103
c0 71 92 153 216 213c-126 -3 -188 39 -181 98c16 135 297 371 500 371c29 0 54 -9 73 -25c34 -28 47 -74 52 -120c-6 -11 -35 -24 -48 -21c-32 9 -51 67 -101 67c-154 0 -378 -192 -387 -263c-4 -33 92 -34 141 -29c52 5 104 12 146 17c26 3 71 -27 48 -77
c-112 -28 -381 -151 -392 -228c-4 -28 37 -33 84 -33c69 0 166 28 222 69c34 -44 6 -79 -53 -106c-51 -23 -116 -36 -174 -36z" />
    <glyph glyph-name="Edotaccent" unicode="&#x116;" horiz-adv-x="517" 
d="M537 764c29 0 60 20 60 47c0 9 -3 19 -9 27c-11 13 -26 34 -42 34c-19 0 -51 -26 -51 -59c0 -20 14 -49 42 -49zM154 -82c-87 0 -146 33 -146 103c0 71 92 153 216 213c-126 -3 -188 39 -181 98c16 135 297 371 500 371c29 0 54 -9 73 -25c34 -28 47 -74 52 -120
c-6 -11 -35 -24 -48 -21c-32 9 -51 67 -101 67c-154 0 -378 -192 -387 -263c-4 -33 92 -34 141 -29c52 5 104 12 146 17c26 3 71 -27 48 -77c-112 -28 -381 -151 -392 -228c-4 -28 37 -33 84 -33c69 0 166 28 222 69c34 -44 6 -79 -53 -106c-51 -23 -116 -36 -174 -36z" />
    <glyph glyph-name="Egrave" unicode="&#xc8;" horiz-adv-x="517" 
d="M545 722c9 1 8 17 7 24c-3 16 -11 26 -20 35c-30 26 -56 53 -89 76c-6 4 -11 6 -16 6c-16 0 -41 -27 -41 -41c0 -8 7 -15 21 -23c34 -20 69 -43 103 -63c8 -6 25 -14 35 -14zM154 -82c-87 0 -146 33 -146 103c0 71 92 153 216 213c-126 -3 -188 39 -181 98
c16 135 297 371 500 371c29 0 54 -9 73 -25c34 -28 47 -74 52 -120c-6 -11 -35 -24 -48 -21c-32 9 -51 67 -101 67c-154 0 -378 -192 -387 -263c-4 -33 92 -34 141 -29c52 5 104 12 146 17c26 3 71 -27 48 -77c-112 -28 -381 -151 -392 -228c-4 -28 37 -33 84 -33
c69 0 166 28 222 69c34 -44 6 -79 -53 -106c-51 -23 -116 -36 -174 -36z" />
    <glyph glyph-name="Emacron" unicode="&#x112;" horiz-adv-x="517" 
d="M674 788c1 41 -56 37 -95 38c-44 1 -93 0 -129 -6c-28 -6 -48 -10 -48 -29c0 -4 -2 -14 4 -19c3 -3 19 -3 27 -3c60 3 107 5 227 -2c11 0 14 4 14 21zM154 -82c-87 0 -146 33 -146 103c0 71 92 153 216 213c-126 -3 -188 39 -181 98c16 135 297 371 500 371
c29 0 54 -9 73 -25c34 -28 47 -74 52 -120c-6 -11 -35 -24 -48 -21c-32 9 -51 67 -101 67c-154 0 -378 -192 -387 -263c-4 -33 92 -34 141 -29c52 5 104 12 146 17c26 3 71 -27 48 -77c-112 -28 -381 -151 -392 -228c-4 -28 37 -33 84 -33c69 0 166 28 222 69
c34 -44 6 -79 -53 -106c-51 -23 -116 -36 -174 -36z" />
    <glyph glyph-name="Eogonek" unicode="&#x118;" horiz-adv-x="517" 
d="M616 678c34 -28 47 -74 52 -120c-6 -11 -35 -24 -48 -21c-32 9 -51 67 -101 67c-154 0 -378 -192 -387 -263c-4 -33 92 -34 141 -29c52 5 104 12 146 17c26 3 71 -27 48 -77c-112 -28 -381 -151 -392 -228c-4 -28 37 -33 84 -33c69 0 166 28 222 69
c34 -44 6 -79 -53 -106c-37 -17 -82 -28 -126 -33l-7 -3c-60 -28 -73 -70 -76 -94c-2 -15 8 -17 19 -17c26 0 55 13 72 19c7 3 13 1 13 -8c0 -34 -57 -53 -94 -53c-39 0 -68 17 -68 62c0 35 26 69 57 93c-67 8 -110 41 -110 101c0 71 92 153 216 213
c-126 -3 -188 39 -181 98c16 135 297 371 500 371c29 0 54 -9 73 -25z" />
    <glyph glyph-name="F" unicode="F" horiz-adv-x="570" 
d="M74 -56c-25 0 -43 48 -43 59c0 55 96 244 114 280c-24 4 -47 7 -67 13c-25 6 -43 20 -43 50c0 14 31 9 45 10c36 3 84 -1 104 19c19 19 84 144 99 192c-40 -8 -80 -19 -102 -19c-33 0 -63 37 -63 57c0 11 7 21 21 24c38 10 131 22 191 28c15 17 29 39 47 39
c22 0 31 -33 75 -29c185 16 290 20 393 6c36 -5 48 -18 38 -41c-172 0 -307 -12 -410 -30c-14 -2 -42 -6 -51 -12c-13 -8 -94 -139 -120 -198c-8 -16 -8 -30 15 -30c29 1 159 15 159 15c39 3 63 -4 63 -28c0 -9 -8 -9 -16 -10c-41 -6 -177 -36 -249 -49
c-14 -2 -23 -4 -32 -15c-15 -19 -119 -234 -146 -308c-6 -15 -10 -23 -22 -23z" />
    <glyph glyph-name="G" unicode="G" horiz-adv-x="606" 
d="M96 -237c-49 0 -80 29 -80 71c0 75 225 208 301 243c25 13 37 24 49 45c1 1 41 76 50 101c-37 -30 -171 -150 -280 -150c-167 0 -95 254 60 442c127 153 249 200 323 200c106 0 158 -104 158 -165c0 -6 -10 -62 -71 -53c-9 3 -11 16 -13 45c-4 65 -26 91 -58 91
c-64 0 -190 -99 -264 -187c-116 -139 -184 -307 -110 -307c102 0 332 268 388 268c30 0 48 -29 48 -40c0 -8 -7 -10 -12 -16c-21 -23 -104 -192 -109 -203c25 7 81 29 89 31c12 3 10 -8 10 -14c-35 -28 -76 -49 -123 -68c-3 -5 -10 -11 -14 -18
c-128 -235 -260 -316 -342 -316zM101 -186c12 0 120 29 196 178c2 4 3 6 2 7c0 1 -3 -1 -5 -3l-48 -33c-27 -19 -153 -108 -153 -143c0 -3 3 -6 8 -6z" />
    <glyph glyph-name="Gcommaaccent" unicode="&#x122;" horiz-adv-x="606" 
d="M96 -237c-49 0 -80 29 -80 71c0 75 225 208 301 243c25 13 37 24 49 45c1 1 41 76 50 101c-37 -30 -171 -150 -280 -150c-167 0 -95 254 60 442c127 153 249 200 323 200c106 0 158 -104 158 -165c0 -6 -10 -62 -71 -53c-9 3 -11 16 -13 45c-4 65 -26 91 -58 91
c-64 0 -190 -99 -264 -187c-116 -139 -184 -307 -110 -307c102 0 332 268 388 268c30 0 48 -29 48 -40c0 -8 -7 -10 -12 -16c-21 -23 -104 -192 -109 -203c25 7 81 29 89 31c12 3 10 -8 10 -14c-35 -28 -76 -49 -123 -68c-3 -5 -10 -11 -14 -18
c-128 -235 -260 -316 -342 -316zM101 -186c12 0 120 29 196 178c2 4 3 6 2 7c0 1 -3 -1 -5 -3l-48 -33c-27 -19 -153 -108 -153 -143c0 -3 3 -6 8 -6zM29 -454c9 -8 16 -12 23 -12c17 0 69 47 88 71c17 22 32 45 32 64c0 34 -18 64 -53 64c-31 0 -60 -17 -60 -51
c0 -10 4 -21 11 -32c7 -9 11 -19 7 -29c-10 -25 -24 -38 -43 -60c-6 -6 -9 -10 -5 -15z" />
    <glyph glyph-name="H" unicode="H" horiz-adv-x="640" 
d="M694 693c16 0 59 -10 59 -37c0 -14 -14 -12 -43 -59c-23 -37 -77 -147 -134 -267c41 0 79 -2 79 -12c0 -24 -28 -40 -70 -51c-13 -3 -27 -6 -43 -8c-74 -158 -145 -314 -156 -341c-9 -21 -11 -26 -20 -26c-14 0 -22 7 -34 18c-19 16 -25 43 -23 64c0 6 58 131 125 273
c-64 -4 -130 -7 -179 -11c-17 -1 -35 -3 -53 -4c-70 -147 -140 -296 -153 -327c-9 -21 -10 -26 -21 -26s-22 7 -34 18c-19 16 -25 42 -23 64l135 272c-29 3 -53 9 -70 19c-17 11 -24 27 -24 40c0 12 8 26 16 26c0 0 37 -6 117 -6l34 68c15 33 83 170 109 242
c24 66 45 78 78 78c23 0 48 -10 48 -28c0 -24 -54 -107 -143 -295c-9 -20 -19 -40 -29 -61c19 0 40 1 62 2l168 8c78 164 156 326 163 335c14 21 26 32 59 32z" />
    <glyph glyph-name="I" unicode="I" horiz-adv-x="442" 
d="M60 -81c-34 0 -106 37 -106 68c0 4 2 8 15 9c58 4 79 5 115 7c17 18 222 559 226 568c-20 -4 -46 -7 -61 -7c-22 0 -48 14 -72 59c-24 43 319 36 344 30c38 -11 44 -16 44 -23c0 -19 -156 -45 -157 -45c-28 -73 -195 -495 -216 -571c78 4 161 11 188 11c6 0 8 -5 8 -11
s-3 -14 -6 -18c-9 -13 -32 -17 -100 -32c-103 -23 -180 -45 -222 -45z" />
    <glyph glyph-name="Iacute" unicode="&#xcd;" horiz-adv-x="442" 
d="M379 691c10 0 27 8 35 14c34 20 69 43 103 63c14 8 21 15 21 23c0 14 -25 41 -41 41c-5 0 -10 -2 -16 -6c-33 -23 -59 -50 -89 -76c-9 -9 -17 -19 -20 -35c-1 -7 -2 -23 7 -24zM60 -81c-34 0 -106 37 -106 68c0 4 2 8 15 9c58 4 79 5 115 7c17 18 222 559 226 568
c-20 -4 -46 -7 -61 -7c-22 0 -48 14 -72 59c-24 43 319 36 344 30c38 -11 44 -16 44 -23c0 -19 -156 -45 -157 -45c-28 -73 -195 -495 -216 -571c78 4 161 11 188 11c6 0 8 -5 8 -11s-3 -14 -6 -18c-9 -13 -32 -17 -100 -32c-103 -23 -180 -45 -222 -45z" />
    <glyph glyph-name="Icircumflex" unicode="&#xce;" horiz-adv-x="442" 
d="M298 715c-3 -7 -9 -24 4 -24c15 0 94 45 132 64c37 -26 78 -64 100 -64c10 1 14 17 14 24c0 14 -5 26 -12 35c-24 28 -66 84 -80 84c-15 0 -95 -62 -128 -84c-11 -9 -22 -19 -30 -35zM60 -81c-34 0 -106 37 -106 68c0 4 2 8 15 9c58 4 79 5 115 7c17 18 222 559 226 568
c-20 -4 -46 -7 -61 -7c-22 0 -48 14 -72 59c-24 43 319 36 344 30c38 -11 44 -16 44 -23c0 -19 -156 -45 -157 -45c-28 -73 -195 -495 -216 -571c78 4 161 11 188 11c6 0 8 -5 8 -11s-3 -14 -6 -18c-9 -13 -32 -17 -100 -32c-103 -23 -180 -45 -222 -45z" />
    <glyph glyph-name="Idieresis" unicode="&#xcf;" horiz-adv-x="442" 
d="M358 731c29 0 60 20 60 47c0 9 -3 19 -9 27c-11 13 -26 34 -42 34c-19 0 -51 -26 -51 -59c0 -20 14 -49 42 -49zM506 731c29 0 60 20 60 47c0 9 -3 19 -9 27c-11 13 -26 34 -42 34c-19 0 -51 -26 -51 -59c0 -20 14 -49 42 -49zM60 -81c-34 0 -106 37 -106 68
c0 4 2 8 15 9c58 4 79 5 115 7c17 18 222 559 226 568c-20 -4 -46 -7 -61 -7c-22 0 -48 14 -72 59c-24 43 319 36 344 30c38 -11 44 -16 44 -23c0 -19 -156 -45 -157 -45c-28 -73 -195 -495 -216 -571c78 4 161 11 188 11c6 0 8 -5 8 -11s-3 -14 -6 -18
c-9 -13 -32 -17 -100 -32c-103 -23 -180 -45 -222 -45z" />
    <glyph glyph-name="Igrave" unicode="&#xcc;" horiz-adv-x="442" 
d="M422 689c9 1 8 17 7 24c-3 16 -11 26 -20 35c-30 26 -56 53 -89 76c-6 4 -11 6 -16 6c-16 0 -41 -27 -41 -41c0 -8 7 -15 21 -23c34 -20 69 -43 103 -63c8 -6 25 -14 35 -14zM60 -81c-34 0 -106 37 -106 68c0 4 2 8 15 9c58 4 79 5 115 7c17 18 222 559 226 568
c-20 -4 -46 -7 -61 -7c-22 0 -48 14 -72 59c-24 43 319 36 344 30c38 -11 44 -16 44 -23c0 -19 -156 -45 -157 -45c-28 -73 -195 -495 -216 -571c78 4 161 11 188 11c6 0 8 -5 8 -11s-3 -14 -6 -18c-9 -13 -32 -17 -100 -32c-103 -23 -180 -45 -222 -45z" />
    <glyph glyph-name="Imacron" unicode="&#x12a;" horiz-adv-x="442" 
d="M551 755c1 41 -56 37 -95 38c-44 1 -93 0 -129 -6c-28 -6 -48 -10 -48 -29c0 -4 -2 -14 4 -19c3 -3 19 -3 27 -3c60 3 107 5 227 -2c11 0 14 4 14 21zM60 -81c-34 0 -106 37 -106 68c0 4 2 8 15 9c58 4 79 5 115 7c17 18 222 559 226 568c-20 -4 -46 -7 -61 -7
c-22 0 -48 14 -72 59c-24 43 319 36 344 30c38 -11 44 -16 44 -23c0 -19 -156 -45 -157 -45c-28 -73 -195 -495 -216 -571c78 4 161 11 188 11c6 0 8 -5 8 -11s-3 -14 -6 -18c-9 -13 -32 -17 -100 -32c-103 -23 -180 -45 -222 -45z" />
    <glyph glyph-name="Iogonek" unicode="&#x12e;" horiz-adv-x="442" 
d="M521 653c38 -11 44 -16 44 -23c0 -19 -156 -45 -157 -45c-28 -73 -195 -495 -216 -571c78 4 161 11 188 11c6 0 8 -5 8 -11s-3 -14 -6 -18c-9 -13 -32 -17 -100 -32c-47 -10 -88 -21 -123 -29c-2 0 -4 -1 -6 -2c-60 -28 -73 -70 -76 -94c-2 -15 8 -17 19 -17
c26 0 55 13 72 19c7 3 13 1 13 -8c0 -34 -57 -53 -94 -53c-39 0 -68 17 -68 62c0 28 16 55 39 77c-35 2 -104 38 -104 68c0 4 2 8 15 9c58 4 79 5 115 7c17 18 222 559 226 568c-20 -4 -46 -7 -61 -7c-22 0 -48 14 -72 59c-24 43 319 36 344 30z" />
    <glyph glyph-name="J" unicode="J" horiz-adv-x="600" 
d="M143 -136c-66 0 -108 49 -108 104c0 67 232 159 288 178c33 52 179 345 179 433c0 17 -8 24 -21 24c-48 0 -272 -123 -315 -243c-9 -24 -10 -47 -12 -66c-3 -30 -12 -42 -23 -42c-22 0 -50 51 -50 85c0 147 286 336 432 336c54 0 91 -26 91 -92
c0 -110 -105 -294 -173 -420c32 10 88 17 103 17c17 0 32 -3 32 -17c0 -5 -2 -10 -5 -16c-38 -6 -153 -30 -178 -73c-20 -43 -141 -208 -240 -208zM86 -67c7 -15 45 -8 89 20c31 19 66 54 93 88c5 8 -5 7 -15 4c-23 -6 -52 -19 -75 -30c-32 -18 -101 -62 -92 -82z" />
    <glyph glyph-name="K" unicode="K" horiz-adv-x="599" 
d="M525 -120c-17 6 -38 21 -54 31c-135 91 -265 230 -280 245c-13 -22 -103 -263 -128 -263c-6 0 -23 5 -34 28c-8 17 -13 40 -6 58c68 150 101 241 101 243c10 38 -13 63 -13 104c0 11 1 22 5 35c4 16 12 22 19 22c10 0 20 -10 47 -30c15 33 62 161 89 233
c24 66 33 92 56 79c21 -11 54 -54 54 -72c0 -24 -104 -215 -127 -266c31 -7 132 47 216 100c165 106 177 165 222 217c41 11 72 4 67 -26c0 -92 -339 -350 -526 -369c13 -40 345 -349 320 -325c13 -12 22 -32 12 -42c-6 -6 -27 -6 -40 -2z" />
    <glyph glyph-name="Kcommaaccent" unicode="&#x136;" horiz-adv-x="599" 
d="M525 -120c-17 6 -38 21 -54 31c-135 91 -265 230 -280 245c-13 -22 -103 -263 -128 -263c-6 0 -23 5 -34 28c-8 17 -13 40 -6 58c68 150 101 241 101 243c10 38 -13 63 -13 104c0 11 1 22 5 35c4 16 12 22 19 22c10 0 20 -10 47 -30c15 33 62 161 89 233
c24 66 33 92 56 79c21 -11 54 -54 54 -72c0 -24 -104 -215 -127 -266c31 -7 132 47 216 100c165 106 177 165 222 217c41 11 72 4 67 -26c0 -92 -339 -350 -526 -369c13 -40 345 -349 320 -325c13 -12 22 -32 12 -42c-6 -6 -27 -6 -40 -2zM147 -277c9 -8 16 -12 23 -12
c17 0 69 47 88 71c17 22 32 45 32 64c0 34 -18 64 -53 64c-31 0 -60 -17 -60 -51c0 -10 4 -21 11 -32c7 -9 11 -19 7 -29c-10 -25 -24 -38 -43 -60c-6 -6 -9 -10 -5 -15z" />
    <glyph glyph-name="L" unicode="L" horiz-adv-x="492" 
d="M-10 -116c-13 0 -33 9 -48 20c-17 13 -24 23 -24 30c0 23 94 40 104 44c127 288 208 510 261 663c8 23 10 28 20 28c5 0 17 -6 30 -16c20 -16 41 -40 40 -62c-2 -57 -113 -298 -256 -593c24 4 134 24 212 23c44 0 113 -4 151 -21c19 -9 34 -23 34 -31
c1 -14 -7 -16 -17 -15c-23 3 -56 7 -190 -4c-155 -12 -208 -43 -296 -63c-8 -2 -15 -3 -21 -3z" />
    <glyph glyph-name="Lacute" unicode="&#x139;" horiz-adv-x="492" 
d="M360 686c10 0 27 8 35 14c34 20 69 43 103 63c14 8 21 15 21 23c0 14 -25 41 -41 41c-5 0 -10 -2 -16 -6c-33 -23 -59 -50 -89 -76c-9 -9 -17 -19 -20 -35c-1 -7 -2 -23 7 -24zM-10 -116c-13 0 -33 9 -48 20c-17 13 -24 23 -24 30c0 23 94 40 104 44
c127 288 208 510 261 663c8 23 10 28 20 28c5 0 17 -6 30 -16c20 -16 41 -40 40 -62c-2 -57 -113 -298 -256 -593c24 4 134 24 212 23c44 0 113 -4 151 -21c19 -9 34 -23 34 -31c1 -14 -7 -16 -17 -15c-23 3 -56 7 -190 -4c-155 -12 -208 -43 -296 -63c-8 -2 -15 -3 -21 -3z
" />
    <glyph glyph-name="Lcaron" unicode="&#x13d;" horiz-adv-x="492" 
d="M327 695c12 0 63 91 83 129c9 11 12 22 9 28c-6 14 -37 28 -50 22c-5 -3 -8 -7 -10 -13c-19 -35 -30 -70 -44 -108c-4 -10 -6 -24 -3 -40c2 -7 4 -18 15 -18zM-10 -116c-13 0 -33 9 -48 20c-17 13 -24 23 -24 30c0 23 94 40 104 44c127 288 208 510 261 663
c8 23 10 28 20 28c5 0 17 -6 30 -16c20 -16 41 -40 40 -62c-2 -57 -113 -298 -256 -593c24 4 134 24 212 23c44 0 113 -4 151 -21c19 -9 34 -23 34 -31c1 -14 -7 -16 -17 -15c-23 3 -56 7 -190 -4c-155 -12 -208 -43 -296 -63c-8 -2 -15 -3 -21 -3z" />
    <glyph glyph-name="Lcommaaccent" unicode="&#x13b;" horiz-adv-x="492" 
d="M-10 -116c-13 0 -33 9 -48 20c-17 13 -24 23 -24 30c0 23 94 40 104 44c127 288 208 510 261 663c8 23 10 28 20 28c5 0 17 -6 30 -16c20 -16 41 -40 40 -62c-2 -57 -113 -298 -256 -593c24 4 134 24 212 23c44 0 113 -4 151 -21c19 -9 34 -23 34 -31
c1 -14 -7 -16 -17 -15c-23 3 -56 7 -190 -4c-155 -12 -208 -43 -296 -63c-8 -2 -15 -3 -21 -3zM130 -295c9 -8 16 -12 23 -12c17 0 69 47 88 71c17 22 32 45 32 64c0 34 -18 64 -53 64c-31 0 -60 -17 -60 -51c0 -10 4 -21 11 -32c7 -9 11 -19 7 -29c-10 -25 -24 -38 -43 -60
c-6 -6 -9 -10 -5 -15z" />
    <glyph glyph-name="Lslash" unicode="&#x141;" horiz-adv-x="492" 
d="M514 -31c1 -14 -7 -16 -17 -15c-23 3 -56 7 -190 -4c-155 -12 -208 -43 -296 -63c-8 -2 -15 -3 -21 -3c-13 0 -33 9 -48 20c-17 13 -24 23 -24 30c0 23 94 40 104 44c46 105 87 202 122 289l-61 -20c-10 -3 -30 -9 -39 -9c-13 0 -16 17 -13 20c13 8 69 30 130 53
c52 132 92 242 122 330c8 23 10 28 20 28c5 0 17 -6 30 -16c20 -16 41 -40 40 -62c-1 -31 -34 -116 -88 -235c29 10 50 16 57 18c29 7 54 0 54 -20c0 -9 -8 -10 -17 -12c-11 -3 -60 -18 -116 -36c-41 -90 -91 -195 -146 -308c24 4 134 24 212 23c44 0 113 -4 151 -21
c19 -9 34 -23 34 -31z" />
    <glyph glyph-name="M" unicode="M" horiz-adv-x="703" 
d="M-15 -123c-6 1 -17 8 -28 20c-18 17 -27 44 -24 65c5 35 417 720 488 720c28 0 50 -55 50 -76c0 -35 -129 -260 -139 -410c137 163 397 463 446 463c26 0 39 -59 39 -78c0 -33 -46 -63 -174 -338c-83 -178 -107 -254 -130 -320c-2 -7 -6 -20 -19 -20c-22 0 -52 51 -48 79
c5 33 39 113 59 164c38 97 91 200 129 265c41 70 45 73 48 86c-210 -236 -293 -347 -336 -391c-22 -23 -35 -28 -49 -23c-105 38 20 376 19 376c-6 0 -279 -494 -309 -557c-10 -21 -13 -26 -22 -25z" />
    <glyph glyph-name="N" unicode="N" horiz-adv-x="590" 
d="M22 -148c-6 0 -18 7 -30 17c-19 16 -28 37 -27 63c2 23 136 299 226 479c98 195 104 234 140 234c48 0 77 -81 74 -118c-2 -22 -7 -87 -12 -122c-16 -120 -18 -253 -6 -298c129 277 219 436 253 492c13 22 25 41 38 50c29 20 82 23 82 -3c0 -2 -3 -6 -7 -11
c-13 -17 -24 -31 -39 -53c-69 -107 -269 -514 -283 -543c-10 -23 -30 -73 -49 -73c-20 0 -65 43 -74 68c-28 93 -3 366 1 435c1 13 -1 17 -8 2c-13 -29 -236 -531 -259 -592c-8 -23 -11 -28 -20 -27z" />
    <glyph glyph-name="Nacute" unicode="&#x143;" horiz-adv-x="590" 
d="M536 678c10 0 27 8 35 14c34 20 69 43 103 63c14 8 21 15 21 23c0 14 -25 41 -41 41c-5 0 -10 -2 -16 -6c-33 -23 -59 -50 -89 -76c-9 -9 -17 -19 -20 -35c-1 -7 -2 -23 7 -24zM22 -148c-6 0 -18 7 -30 17c-19 16 -28 37 -27 63c2 23 136 299 226 479
c98 195 104 234 140 234c48 0 77 -81 74 -118c-2 -22 -7 -87 -12 -122c-16 -120 -18 -253 -6 -298c129 277 219 436 253 492c13 22 25 41 38 50c29 20 82 23 82 -3c0 -2 -3 -6 -7 -11c-13 -17 -24 -31 -39 -53c-69 -107 -269 -514 -283 -543c-10 -23 -30 -73 -49 -73
c-20 0 -65 43 -74 68c-28 93 -3 366 1 435c1 13 -1 17 -8 2c-13 -29 -236 -531 -259 -592c-8 -23 -11 -28 -20 -27z" />
    <glyph glyph-name="Ncaron" unicode="&#x147;" horiz-adv-x="590" 
d="M700 797c4 7 9 24 -2 24s-27 -8 -36 -13c-33 -17 -65 -35 -98 -51c-22 16 -45 34 -67 51c-7 5 -22 13 -33 13c-9 -1 -13 -17 -13 -24c0 -13 4 -26 12 -34c24 -29 67 -85 81 -85c12 0 96 63 127 85c10 8 22 19 29 34zM22 -148c-6 0 -18 7 -30 17c-19 16 -28 37 -27 63
c2 23 136 299 226 479c98 195 104 234 140 234c48 0 77 -81 74 -118c-2 -22 -7 -87 -12 -122c-16 -120 -18 -253 -6 -298c129 277 219 436 253 492c13 22 25 41 38 50c29 20 82 23 82 -3c0 -2 -3 -6 -7 -11c-13 -17 -24 -31 -39 -53c-69 -107 -269 -514 -283 -543
c-10 -23 -30 -73 -49 -73c-20 0 -65 43 -74 68c-28 93 -3 366 1 435c1 13 -1 17 -8 2c-13 -29 -236 -531 -259 -592c-8 -23 -11 -28 -20 -27z" />
    <glyph glyph-name="Ncommaaccent" unicode="&#x145;" horiz-adv-x="590" 
d="M22 -148c-6 0 -18 7 -30 17c-19 16 -28 37 -27 63c2 23 136 299 226 479c98 195 104 234 140 234c48 0 77 -81 74 -118c-2 -22 -7 -87 -12 -122c-16 -120 -18 -253 -6 -298c129 277 219 436 253 492c13 22 25 41 38 50c29 20 82 23 82 -3c0 -2 -3 -6 -7 -11
c-13 -17 -24 -31 -39 -53c-69 -107 -269 -514 -283 -543c-10 -23 -30 -73 -49 -73c-20 0 -65 43 -74 68c-28 93 -3 366 1 435c1 13 -1 17 -8 2c-13 -29 -236 -531 -259 -592c-8 -23 -11 -28 -20 -27zM116 -261c9 -8 16 -12 23 -12c17 0 69 47 88 71c17 22 32 45 32 64
c0 34 -18 64 -53 64c-31 0 -60 -17 -60 -51c0 -10 4 -21 11 -32c7 -9 11 -19 7 -29c-10 -25 -24 -38 -43 -60c-6 -6 -9 -10 -5 -15z" />
    <glyph glyph-name="Eng" unicode="&#x14a;" horiz-adv-x="593" 
d="M678 649c29 20 82 23 82 -3c0 -2 -3 -6 -7 -11c-13 -17 -24 -31 -39 -53c-65 -101 -249 -472 -279 -535l-10 -21c-2 -6 -6 -13 -9 -20l-16 -34c-3 -6 1 -5 8 -3c19 5 67 8 100 8c20 0 39 -7 39 -22c0 -13 -37 -10 -81 -20c-35 -7 -58 -14 -76 -20c-15 -5 -32 -15 -41 -32
c-32 -79 -147 -207 -230 -207c-59 0 -101 33 -101 81c0 74 223 185 288 205l26 37c-11 12 -20 25 -24 35c-28 93 -3 366 1 435c1 13 -1 17 -8 2c-13 -29 -236 -531 -259 -592c-8 -23 -11 -28 -20 -27c-6 0 -18 7 -30 17c-19 16 -28 37 -27 63c2 23 136 299 226 479
c98 195 104 234 140 234c48 0 77 -81 74 -118c-2 -22 -7 -87 -12 -122c-16 -120 -18 -253 -6 -298c129 277 219 436 253 492c13 22 25 41 38 50zM248 -153c5 7 3 11 -7 9c-46 -10 -131 -64 -170 -115c-6 -8 -3 -11 4 -12c63 -7 123 46 173 118z" />
    <glyph glyph-name="Ntilde" unicode="&#xd1;" horiz-adv-x="590" 
d="M461 727c7 0 14 3 23 11c18 16 28 24 51 25c23 0 50 -52 92 -52c44 0 96 54 96 89c-3 20 -8 21 -20 13c-24 -16 -57 -42 -74 -42c-24 0 -52 49 -91 49s-74 -31 -96 -57c-7 -9 4 -36 19 -36zM22 -148c-6 0 -18 7 -30 17c-19 16 -28 37 -27 63c2 23 136 299 226 479
c98 195 104 234 140 234c48 0 77 -81 74 -118c-2 -22 -7 -87 -12 -122c-16 -120 -18 -253 -6 -298c129 277 219 436 253 492c13 22 25 41 38 50c29 20 82 23 82 -3c0 -2 -3 -6 -7 -11c-13 -17 -24 -31 -39 -53c-69 -107 -269 -514 -283 -543c-10 -23 -30 -73 -49 -73
c-20 0 -65 43 -74 68c-28 93 -3 366 1 435c1 13 -1 17 -8 2c-13 -29 -236 -531 -259 -592c-8 -23 -11 -28 -20 -27z" />
    <glyph glyph-name="O" unicode="O" horiz-adv-x="556" 
d="M204 -67c-107 0 -165 83 -165 195c0 228 195 574 386 574c106 0 171 -113 171 -206s-55 -234 -131 -352c-59 -93 -152 -211 -261 -211zM179 -14c74 0 187 177 224 241c68 119 123 254 123 334c0 55 -19 77 -39 77c-80 0 -220 -272 -234 -475c-1 -8 1 -27 -12 -28
c-12 -2 -23 26 -25 42c-19 149 72 338 75 366c-117 -146 -168 -307 -168 -418c0 -83 23 -139 56 -139z" />
    <glyph glyph-name="Oacute" unicode="&#xd3;" horiz-adv-x="556" 
d="M431 723c10 0 27 8 35 14c34 20 69 43 103 63c14 8 21 15 21 23c0 14 -25 41 -41 41c-5 0 -10 -2 -16 -6c-33 -23 -59 -50 -89 -76c-9 -9 -17 -19 -20 -35c-1 -7 -2 -23 7 -24zM204 -67c-107 0 -165 83 -165 195c0 228 195 574 386 574c106 0 171 -113 171 -206
s-55 -234 -131 -352c-59 -93 -152 -211 -261 -211zM179 -14c74 0 187 177 224 241c68 119 123 254 123 334c0 55 -19 77 -39 77c-80 0 -220 -272 -234 -475c-1 -8 1 -27 -12 -28c-12 -2 -23 26 -25 42c-19 149 72 338 75 366c-117 -146 -168 -307 -168 -418
c0 -83 23 -139 56 -139z" />
    <glyph glyph-name="Ocircumflex" unicode="&#xd4;" horiz-adv-x="556" 
d="M350 747c-3 -7 -9 -24 4 -24c15 0 94 45 132 64c37 -26 78 -64 100 -64c10 1 14 17 14 24c0 14 -5 26 -12 35c-24 28 -66 84 -80 84c-15 0 -95 -62 -128 -84c-11 -9 -22 -19 -30 -35zM204 -67c-107 0 -165 83 -165 195c0 228 195 574 386 574c106 0 171 -113 171 -206
s-55 -234 -131 -352c-59 -93 -152 -211 -261 -211zM179 -14c74 0 187 177 224 241c68 119 123 254 123 334c0 55 -19 77 -39 77c-80 0 -220 -272 -234 -475c-1 -8 1 -27 -12 -28c-12 -2 -23 26 -25 42c-19 149 72 338 75 366c-117 -146 -168 -307 -168 -418
c0 -83 23 -139 56 -139z" />
    <glyph glyph-name="Odieresis" unicode="&#xd6;" horiz-adv-x="556" 
d="M410 763c29 0 60 20 60 47c0 9 -3 19 -9 27c-11 13 -26 34 -42 34c-19 0 -51 -26 -51 -59c0 -20 14 -49 42 -49zM558 763c29 0 60 20 60 47c0 9 -3 19 -9 27c-11 13 -26 34 -42 34c-19 0 -51 -26 -51 -59c0 -20 14 -49 42 -49zM204 -67c-107 0 -165 83 -165 195
c0 228 195 574 386 574c106 0 171 -113 171 -206s-55 -234 -131 -352c-59 -93 -152 -211 -261 -211zM179 -14c74 0 187 177 224 241c68 119 123 254 123 334c0 55 -19 77 -39 77c-80 0 -220 -272 -234 -475c-1 -8 1 -27 -12 -28c-12 -2 -23 26 -25 42c-19 149 72 338 75 366
c-117 -146 -168 -307 -168 -418c0 -83 23 -139 56 -139z" />
    <glyph glyph-name="Ograve" unicode="&#xd2;" horiz-adv-x="556" 
d="M474 721c9 1 8 17 7 24c-3 16 -11 26 -20 35c-30 26 -56 53 -89 76c-6 4 -11 6 -16 6c-16 0 -41 -27 -41 -41c0 -8 7 -15 21 -23c34 -20 69 -43 103 -63c8 -6 25 -14 35 -14zM204 -67c-107 0 -165 83 -165 195c0 228 195 574 386 574c106 0 171 -113 171 -206
s-55 -234 -131 -352c-59 -93 -152 -211 -261 -211zM179 -14c74 0 187 177 224 241c68 119 123 254 123 334c0 55 -19 77 -39 77c-80 0 -220 -272 -234 -475c-1 -8 1 -27 -12 -28c-12 -2 -23 26 -25 42c-19 149 72 338 75 366c-117 -146 -168 -307 -168 -418
c0 -83 23 -139 56 -139z" />
    <glyph glyph-name="Ohungarumlaut" unicode="&#x150;" horiz-adv-x="556" 
d="M358 713c10 1 26 11 33 18c31 24 63 51 95 75c13 10 19 18 18 26c-2 13 -30 37 -46 35c-5 0 -10 -3 -15 -8c-30 -26 -53 -56 -79 -86c-8 -10 -15 -21 -16 -37c0 -7 1 -23 10 -23zM499 715c10 0 26 10 33 17c32 23 65 49 97 72c14 9 20 17 19 25c-1 13 -29 38 -45 37
c-5 0 -10 -3 -15 -8c-31 -25 -55 -54 -81 -84c-9 -9 -16 -20 -18 -36c0 -7 1 -23 10 -23zM204 -67c-107 0 -165 83 -165 195c0 228 195 574 386 574c106 0 171 -113 171 -206s-55 -234 -131 -352c-59 -93 -152 -211 -261 -211zM179 -14c74 0 187 177 224 241
c68 119 123 254 123 334c0 55 -19 77 -39 77c-80 0 -220 -272 -234 -475c-1 -8 1 -27 -12 -28c-12 -2 -23 26 -25 42c-19 149 72 338 75 366c-117 -146 -168 -307 -168 -418c0 -83 23 -139 56 -139z" />
    <glyph glyph-name="Omacron" unicode="&#x14c;" horiz-adv-x="556" 
d="M603 787c1 41 -56 37 -95 38c-44 1 -93 0 -129 -6c-28 -6 -48 -10 -48 -29c0 -4 -2 -14 4 -19c3 -3 19 -3 27 -3c60 3 107 5 227 -2c11 0 14 4 14 21zM204 -67c-107 0 -165 83 -165 195c0 228 195 574 386 574c106 0 171 -113 171 -206s-55 -234 -131 -352
c-59 -93 -152 -211 -261 -211zM179 -14c74 0 187 177 224 241c68 119 123 254 123 334c0 55 -19 77 -39 77c-80 0 -220 -272 -234 -475c-1 -8 1 -27 -12 -28c-12 -2 -23 26 -25 42c-19 149 72 338 75 366c-117 -146 -168 -307 -168 -418c0 -83 23 -139 56 -139z" />
    <glyph glyph-name="Oslash" unicode="&#xd8;" horiz-adv-x="556" 
d="M633 661c0 -7 -7 -13 -10 -17c-16 -18 -32 -34 -48 -53c14 -31 21 -64 21 -95c0 -93 -55 -234 -131 -352c-59 -93 -152 -211 -261 -211c-43 0 -79 14 -105 37c-6 -6 -10 -11 -14 -16c-9 -10 -26 -30 -35 -30c-12 0 -19 15 -19 24c0 18 19 34 35 61l1 1
c-19 32 -28 73 -28 118c0 228 195 574 386 574c51 0 93 -26 122 -64c10 12 17 20 21 24c19 18 34 18 38 18c17 0 27 -10 27 -19zM487 638c-65 0 -171 -182 -215 -359c91 121 190 252 249 326c-8 23 -21 33 -34 33zM123 125c0 -14 1 -28 2 -40c25 32 55 73 89 117
c-7 144 74 315 77 341c-117 -146 -168 -307 -168 -418zM403 227c59 104 109 220 120 301c-61 -78 -172 -227 -269 -356c-1 -3 -1 -6 -1 -9c-1 -8 1 -27 -12 -28c-4 -1 -8 2 -11 6l-91 -119c10 -23 24 -36 40 -36c74 0 187 177 224 241z" />
    <glyph glyph-name="Otilde" unicode="&#xd5;" horiz-adv-x="556" 
d="M356 772c7 0 14 3 23 11c18 16 28 24 51 25c23 0 50 -52 92 -52c44 0 96 54 96 89c-3 20 -8 21 -20 13c-24 -16 -57 -42 -74 -42c-24 0 -52 49 -91 49s-74 -31 -96 -57c-7 -9 4 -36 19 -36zM204 -67c-107 0 -165 83 -165 195c0 228 195 574 386 574
c106 0 171 -113 171 -206s-55 -234 -131 -352c-59 -93 -152 -211 -261 -211zM179 -14c74 0 187 177 224 241c68 119 123 254 123 334c0 55 -19 77 -39 77c-80 0 -220 -272 -234 -475c-1 -8 1 -27 -12 -28c-12 -2 -23 26 -25 42c-19 149 72 338 75 366
c-117 -146 -168 -307 -168 -418c0 -83 23 -139 56 -139z" />
    <glyph glyph-name="OE" unicode="&#x152;" horiz-adv-x="951" 
d="M1050 678c34 -28 47 -74 52 -120c-6 -11 -35 -24 -48 -21c-32 9 -51 67 -101 67c-154 0 -378 -192 -387 -263c-4 -33 92 -34 141 -29c52 5 104 12 146 17c26 3 71 -27 48 -77c-112 -28 -381 -151 -392 -228c-4 -28 37 -33 84 -33c69 0 166 28 222 69
c34 -44 6 -79 -53 -106c-51 -23 -116 -36 -174 -36c-87 0 -146 33 -146 103c0 71 92 153 216 213c-57 -1 -101 6 -131 21c-18 -38 -39 -75 -62 -111c-59 -93 -152 -211 -261 -211c-107 0 -165 83 -165 195c0 228 195 574 386 574c99 0 162 -98 170 -187
c104 100 258 188 382 188c29 0 54 -9 73 -25zM403 227c68 119 123 254 123 334c0 55 -19 77 -39 77c-80 0 -220 -272 -234 -475c-1 -8 1 -27 -12 -28c-12 -2 -23 26 -25 42c-19 149 72 338 75 366c-117 -146 -168 -307 -168 -418c0 -83 23 -139 56 -139
c74 0 187 177 224 241z" />
    <glyph glyph-name="P" unicode="P" horiz-adv-x="700" 
d="M542 645c121 -31 212 -105 212 -211c0 -104 -147 -172 -252 -200c-56 -15 -116 -25 -175 -32c-59 -126 -112 -239 -123 -267c-9 -22 -11 -27 -20 -26c-7 0 -18 7 -30 18c-34 31 -32 59 -21 83l85 181c-38 -3 -74 -6 -107 -8c-26 -2 -93 -12 -93 25c0 8 5 15 9 16
c25 4 54 8 86 14c42 7 90 15 139 25l151 320c-51 -2 -108 -9 -166 -25c-56 -15 -60 -20 -93 -38c-15 -9 -30 -17 -35 -17c-23 0 -12 94 25 113c61 32 195 46 266 46c13 0 27 0 40 -1c14 31 26 52 59 52c22 0 61 -20 61 -34c0 -11 -7 -18 -18 -34zM530 344
c85 36 150 83 150 139c0 57 -91 85 -175 95l-136 -288c55 15 111 32 161 54z" />
    <glyph glyph-name="Thorn" unicode="&#xde;" horiz-adv-x="658" 
d="M492 553c125 -30 220 -104 220 -213c0 -104 -147 -172 -252 -200c-48 -14 -113 -24 -178 -30c-40 -85 -72 -154 -80 -175c-9 -22 -11 -27 -20 -26c-7 0 -18 7 -30 18c-19 16 -29 42 -27 63l53 114c-53 -1 -97 0 -115 4c-24 5 -45 15 -45 36c0 8 5 16 9 16
c45 -3 111 1 183 12l147 317c-49 -2 -105 -10 -162 -25c-56 -15 -60 -20 -93 -38c-15 -9 -30 -17 -35 -17c-23 0 -12 94 25 113c61 31 195 46 266 46c12 0 24 0 36 -1l41 88c17 34 27 58 62 58c22 0 61 -20 61 -34c0 -18 -19 -25 -46 -83zM488 250c85 36 150 83 150 139
c0 58 -94 86 -179 95c-38 -79 -90 -189 -137 -290c58 14 115 33 166 56z" />
    <glyph glyph-name="Q" unicode="Q" horiz-adv-x="544" 
d="M612 -80c7 -5 9 -11 9 -17c0 -31 -71 -73 -125 -73c-84 0 -127 37 -172 125c-8 15 -18 36 -25 52c-45 -35 -94 -60 -145 -60c-107 0 -158 81 -148 190c20 222 244 559 435 559c106 0 162 -110 154 -200c-8 -91 -75 -229 -162 -344c-24 -32 -52 -66 -83 -98
c11 -15 23 -43 31 -57c18 -34 40 -70 81 -82c14 -5 30 -7 50 -7c22 0 51 3 88 9c4 2 9 1 12 3zM294 541c-130 -142 -195 -299 -204 -407c-1 -7 -1 -14 -1 -21c31 20 64 29 97 29c34 0 68 -10 100 -30c39 46 74 94 93 121c78 116 144 248 151 326c5 54 -12 75 -32 75
c-80 0 -244 -265 -275 -463c-2 -8 -1 -26 -14 -27c-13 -2 -21 25 -22 41c-6 145 101 329 107 356zM134 -2c33 0 76 34 118 77c-19 10 -38 15 -59 15c-32 0 -67 -13 -100 -37c6 -34 21 -55 41 -55z" />
    <glyph glyph-name="R" unicode="R" horiz-adv-x="658" 
d="M548 24c51 -45 84 -70 99 -92c10 -15 -23 -23 -42 -21c-28 3 -63 23 -100 50c-96 73 -215 189 -273 254h-1c-11 -21 -150 -318 -174 -318c-7 0 -43 27 -45 61c-1 11 1 24 7 38l162 322c56 111 110 220 131 263c-82 -16 -137 -52 -196 -115c-23 -27 -22 -37 -38 -33
c-14 3 -33 21 -44 38c-13 18 -11 56 22 86c73 65 209 105 333 105c147 0 279 -76 279 -196c0 -144 -196 -201 -341 -232c49 -48 169 -169 221 -210zM422 591l-136 -282c113 15 316 134 316 197c0 57 -107 85 -170 85h-10z" />
    <glyph glyph-name="Racute" unicode="&#x154;" horiz-adv-x="658" 
d="M465 704c-9 1 -8 17 -7 24c3 16 11 26 20 35c30 26 56 53 89 76c6 4 11 6 16 6c16 0 41 -27 41 -41c0 -8 -7 -15 -21 -23c-34 -20 -69 -43 -103 -63c-8 -6 -25 -14 -35 -14zM548 24c51 -45 84 -70 99 -92c10 -15 -23 -23 -42 -21c-28 3 -63 23 -100 50
c-96 73 -215 189 -273 254h-1c-11 -21 -150 -318 -174 -318c-7 0 -43 27 -45 61c-1 11 1 24 7 38l162 322c56 111 110 220 131 263c-82 -16 -137 -52 -196 -115c-23 -27 -22 -37 -38 -33c-14 3 -33 21 -44 38c-13 18 -11 56 22 86c73 65 209 105 333 105
c147 0 279 -76 279 -196c0 -144 -196 -201 -341 -232c49 -48 169 -169 221 -210zM422 591l-136 -282c113 15 316 134 316 197c0 57 -107 85 -170 85h-10z" />
    <glyph glyph-name="Rcaron" unicode="&#x158;" horiz-adv-x="658" 
d="M473 704c-14 0 -57 56 -81 85c-8 8 -12 21 -12 34c0 7 4 23 13 24c11 0 26 -8 33 -13c22 -17 45 -35 67 -51c33 16 65 34 98 51c9 5 25 13 36 13s6 -17 2 -24c-7 -15 -19 -26 -29 -34c-31 -22 -115 -85 -127 -85zM548 24c51 -45 84 -70 99 -92c10 -15 -23 -23 -42 -21
c-28 3 -63 23 -100 50c-96 73 -215 189 -273 254h-1c-11 -21 -150 -318 -174 -318c-7 0 -43 27 -45 61c-1 11 1 24 7 38l162 322c56 111 110 220 131 263c-82 -16 -137 -52 -196 -115c-23 -27 -22 -37 -38 -33c-14 3 -33 21 -44 38c-13 18 -11 56 22 86
c73 65 209 105 333 105c147 0 279 -76 279 -196c0 -144 -196 -201 -341 -232c49 -48 169 -169 221 -210zM422 591l-136 -282c113 15 316 134 316 197c0 57 -107 85 -170 85h-10z" />
    <glyph glyph-name="Rcommaaccent" unicode="&#x156;" horiz-adv-x="658" 
d="M548 24c51 -45 84 -70 99 -92c10 -15 -23 -23 -42 -21c-28 3 -63 23 -100 50c-96 73 -215 189 -273 254h-1c-11 -21 -150 -318 -174 -318c-7 0 -43 27 -45 61c-1 11 1 24 7 38l162 322c56 111 110 220 131 263c-82 -16 -137 -52 -196 -115c-23 -27 -22 -37 -38 -33
c-14 3 -33 21 -44 38c-13 18 -11 56 22 86c73 65 209 105 333 105c147 0 279 -76 279 -196c0 -144 -196 -201 -341 -232c49 -48 169 -169 221 -210zM422 591l-136 -282c113 15 316 134 316 197c0 57 -107 85 -170 85h-10zM301 -32c35 0 53 -30 53 -64c0 -19 -15 -42 -32 -64
c-19 -24 -71 -71 -88 -71c-7 0 -14 4 -23 12c-4 5 -1 9 5 15c19 22 33 35 43 60c4 10 0 20 -7 29c-7 11 -11 22 -11 32c0 34 29 51 60 51z" />
    <glyph glyph-name="S" unicode="S" horiz-adv-x="642" 
d="M60 -59c-23 -1 -93 -5 -93 18c0 14 28 52 57 52c107 0 437 83 437 130c0 24 -77 56 -152 81c-96 31 -207 41 -207 138c0 43 25 89 63 127c62 62 158 106 236 129c65 20 210 46 263 12c35 -22 64 -65 75 -103c8 -30 1 -39 -10 -39c-23 0 -24 36 -71 52
c-18 7 -42 10 -68 10c-156 0 -403 -115 -403 -190c0 -32 77 -43 165 -67c99 -28 204 -68 204 -159c0 -38 -25 -76 -81 -104c-54 -27 -167 -52 -264 -69c-15 -2 -92 -14 -151 -18z" />
    <glyph glyph-name="Sacute" unicode="&#x15a;" horiz-adv-x="642" 
d="M515 682c10 0 27 8 35 14c34 20 69 43 103 63c14 8 21 15 21 23c0 14 -25 41 -41 41c-5 0 -10 -2 -16 -6c-33 -23 -59 -50 -89 -76c-9 -9 -17 -19 -20 -35c-1 -7 -2 -23 7 -24zM60 -59c-23 -1 -93 -5 -93 18c0 14 28 52 57 52c107 0 437 83 437 130c0 24 -77 56 -152 81
c-96 31 -207 41 -207 138c0 43 25 89 63 127c62 62 158 106 236 129c65 20 210 46 263 12c35 -22 64 -65 75 -103c8 -30 1 -39 -10 -39c-23 0 -24 36 -71 52c-18 7 -42 10 -68 10c-156 0 -403 -115 -403 -190c0 -32 77 -43 165 -67c99 -28 204 -68 204 -159
c0 -38 -25 -76 -81 -104c-54 -27 -167 -52 -264 -69c-15 -2 -92 -14 -151 -18z" />
    <glyph glyph-name="Scaron" unicode="&#x160;" horiz-adv-x="642" 
d="M679 801c4 7 9 24 -2 24s-27 -8 -36 -13c-33 -17 -65 -35 -98 -51c-22 16 -45 34 -67 51c-7 5 -22 13 -33 13c-9 -1 -13 -17 -13 -24c0 -13 4 -26 12 -34c24 -29 67 -85 81 -85c12 0 96 63 127 85c10 8 22 19 29 34zM60 -59c-23 -1 -93 -5 -93 18c0 14 28 52 57 52
c107 0 437 83 437 130c0 24 -77 56 -152 81c-96 31 -207 41 -207 138c0 43 25 89 63 127c62 62 158 106 236 129c65 20 210 46 263 12c35 -22 64 -65 75 -103c8 -30 1 -39 -10 -39c-23 0 -24 36 -71 52c-18 7 -42 10 -68 10c-156 0 -403 -115 -403 -190
c0 -32 77 -43 165 -67c99 -28 204 -68 204 -159c0 -38 -25 -76 -81 -104c-54 -27 -167 -52 -264 -69c-15 -2 -92 -14 -151 -18z" />
    <glyph glyph-name="Scedilla" unicode="&#x15e;" horiz-adv-x="642" 
d="M739 525c8 -30 1 -39 -10 -39c-23 0 -24 36 -71 52c-18 7 -42 10 -68 10c-156 0 -403 -115 -403 -190c0 -32 77 -43 165 -67c99 -28 204 -68 204 -159c0 -38 -25 -76 -81 -104c-43 -21 -122 -41 -201 -57c-7 -15 -15 -29 -21 -41c15 -3 29 -8 39 -16
c21 -14 31 -36 31 -54c0 -50 -86 -83 -146 -83c-21 0 -36 7 -36 16c0 3 2 7 8 11c56 15 84 28 119 58c5 5 7 8 0 13c-8 6 -17 9 -28 9c-22 0 -28 -11 -37 -1c-9 9 -14 15 -14 22c0 13 13 36 25 55c-1 -1 -2 -1 -3 -1c-15 -2 -92 -14 -151 -18c-23 -1 -93 -5 -93 18
c0 14 28 52 57 52c107 0 437 83 437 130c0 24 -77 56 -152 81c-96 31 -207 41 -207 138c0 43 25 89 63 127c62 62 158 106 236 129c65 20 210 46 263 12c35 -22 64 -65 75 -103z" />
    <glyph glyph-name="T" unicode="T" horiz-adv-x="508" 
d="M813 688c9 0 61 -16 49 -29c0 -4 -36 -15 -99 -26c-35 -6 -116 -18 -180 -27l-83 -12c-18 -38 -59 -126 -144 -340l-130 -331c-8 -20 -8 -24 -16 -24c-6 -1 -29 18 -36 30c-14 22 -8 52 0 73l210 568c0 1 1 2 1 3l-26 -7c-91 -25 -183 -59 -220 -59c-45 0 -57 49 -57 78
c0 16 94 36 205 52c188 27 349 44 445 49c37 2 59 4 81 2z" />
    <glyph glyph-name="Tbar" unicode="&#x166;" horiz-adv-x="508" 
d="M813 688c9 0 61 -16 49 -29c0 -4 -36 -15 -99 -26c-35 -6 -116 -18 -180 -27l-83 -12c-14 -30 -43 -91 -96 -220h11c48 0 108 0 108 -31c0 -16 -5 -15 -16 -15c-44 2 -84 3 -120 4c-10 -24 -20 -50 -31 -78l-130 -331c-8 -20 -8 -24 -16 -24c-6 -1 -29 18 -36 30
c-14 22 -8 52 0 73l122 330h-75c-19 0 -33 -1 -33 5c0 13 4 20 15 23c10 3 55 7 107 11l74 199c0 1 1 2 1 3l-26 -7c-91 -25 -183 -59 -220 -59c-45 0 -57 49 -57 78c0 16 94 36 205 52c188 27 349 44 445 49c37 2 59 4 81 2z" />
    <glyph glyph-name="Tcaron" unicode="&#x164;" horiz-adv-x="508" 
d="M479 708c-14 0 -57 56 -81 85c-8 8 -12 21 -12 34c0 7 4 23 13 24c11 0 26 -8 33 -13c22 -17 45 -35 67 -51c33 16 65 34 98 51c9 5 25 13 36 13s6 -17 2 -24c-7 -15 -19 -26 -29 -34c-31 -22 -115 -85 -127 -85zM813 688c9 0 61 -16 49 -29c0 -4 -36 -15 -99 -26
c-35 -6 -116 -18 -180 -27l-83 -12c-18 -38 -59 -126 -144 -340l-130 -331c-8 -20 -8 -24 -16 -24c-6 -1 -29 18 -36 30c-14 22 -8 52 0 73l210 568c0 1 1 2 1 3l-26 -7c-91 -25 -183 -59 -220 -59c-45 0 -57 49 -57 78c0 16 94 36 205 52c188 27 349 44 445 49
c37 2 59 4 81 2z" />
    <glyph glyph-name="uni0162" unicode="&#x162;" horiz-adv-x="508" 
d="M813 688c9 0 61 -16 49 -29c0 -4 -36 -15 -99 -26c-35 -6 -116 -18 -180 -27l-83 -12c-18 -38 -59 -126 -144 -340l-130 -331c-8 -20 -8 -24 -16 -24c-1 0 -3 0 -5 1c-6 -11 -11 -22 -16 -31c15 -3 29 -8 39 -16c21 -14 31 -36 31 -54c0 -50 -86 -83 -146 -83
c-21 0 -36 7 -36 16c0 3 2 7 8 11c56 15 84 28 119 58c5 5 7 8 0 13c-8 6 -17 9 -28 9c-22 0 -28 -11 -37 -1c-9 9 -14 15 -14 22c0 24 45 83 48 87c-13 22 -7 51 1 71l210 568c0 1 1 2 1 3l-26 -7c-91 -25 -183 -59 -220 -59c-45 0 -57 49 -57 78c0 16 94 36 205 52
c188 27 349 44 445 49c37 2 59 4 81 2z" />
    <glyph glyph-name="U" unicode="U" horiz-adv-x="725" 
d="M212 -103c-36 0 -57 41 -57 102c0 75 27 174 52 234c21 54 86 196 89 201c-38 -25 -146 -119 -206 -217c-3 -4 -7 -13 -17 -13c-20 0 -67 63 -17 122c42 49 119 127 247 237c59 51 83 69 110 69c41 0 85 -23 85 -44c0 -3 -4 -8 -8 -13c-72 -84 -157 -227 -213 -356
c-11 -24 -59 -143 -59 -186c0 -12 3 -17 9 -17c41 0 271 323 399 514c92 135 95 151 107 151c7 0 59 -26 59 -66c0 -37 -26 -67 -59 -133c-42 -83 -96 -202 -121 -313c-28 -129 -5 -183 0 -194c1 -4 -8 -25 -22 -25c-21 0 -62 36 -62 131c0 112 50 251 61 278
c-108 -163 -279 -462 -377 -462z" />
    <glyph glyph-name="Uacute" unicode="&#xda;" horiz-adv-x="725" 
d="M539 686c10 0 27 8 35 14c34 20 69 43 103 63c14 8 21 15 21 23c0 14 -25 41 -41 41c-5 0 -10 -2 -16 -6c-33 -23 -59 -50 -89 -76c-9 -9 -17 -19 -20 -35c-1 -7 -2 -23 7 -24zM212 -103c-36 0 -57 41 -57 102c0 75 27 174 52 234c21 54 86 196 89 201
c-38 -25 -146 -119 -206 -217c-3 -4 -7 -13 -17 -13c-20 0 -67 63 -17 122c42 49 119 127 247 237c59 51 83 69 110 69c41 0 85 -23 85 -44c0 -3 -4 -8 -8 -13c-72 -84 -157 -227 -213 -356c-11 -24 -59 -143 -59 -186c0 -12 3 -17 9 -17c41 0 271 323 399 514
c92 135 95 151 107 151c7 0 59 -26 59 -66c0 -37 -26 -67 -59 -133c-42 -83 -96 -202 -121 -313c-28 -129 -5 -183 0 -194c1 -4 -8 -25 -22 -25c-21 0 -62 36 -62 131c0 112 50 251 61 278c-108 -163 -279 -462 -377 -462z" />
    <glyph glyph-name="Ucircumflex" unicode="&#xdb;" horiz-adv-x="725" 
d="M458 710c-3 -7 -9 -24 4 -24c15 0 94 45 132 64c37 -26 78 -64 100 -64c10 1 14 17 14 24c0 14 -5 26 -12 35c-24 28 -66 84 -80 84c-15 0 -95 -62 -128 -84c-11 -9 -22 -19 -30 -35zM212 -103c-36 0 -57 41 -57 102c0 75 27 174 52 234c21 54 86 196 89 201
c-38 -25 -146 -119 -206 -217c-3 -4 -7 -13 -17 -13c-20 0 -67 63 -17 122c42 49 119 127 247 237c59 51 83 69 110 69c41 0 85 -23 85 -44c0 -3 -4 -8 -8 -13c-72 -84 -157 -227 -213 -356c-11 -24 -59 -143 -59 -186c0 -12 3 -17 9 -17c41 0 271 323 399 514
c92 135 95 151 107 151c7 0 59 -26 59 -66c0 -37 -26 -67 -59 -133c-42 -83 -96 -202 -121 -313c-28 -129 -5 -183 0 -194c1 -4 -8 -25 -22 -25c-21 0 -62 36 -62 131c0 112 50 251 61 278c-108 -163 -279 -462 -377 -462z" />
    <glyph glyph-name="Udieresis" unicode="&#xdc;" horiz-adv-x="725" 
d="M518 726c29 0 60 20 60 47c0 9 -3 19 -9 27c-11 13 -26 34 -42 34c-19 0 -51 -26 -51 -59c0 -20 14 -49 42 -49zM666 726c29 0 60 20 60 47c0 9 -3 19 -9 27c-11 13 -26 34 -42 34c-19 0 -51 -26 -51 -59c0 -20 14 -49 42 -49zM212 -103c-36 0 -57 41 -57 102
c0 75 27 174 52 234c21 54 86 196 89 201c-38 -25 -146 -119 -206 -217c-3 -4 -7 -13 -17 -13c-20 0 -67 63 -17 122c42 49 119 127 247 237c59 51 83 69 110 69c41 0 85 -23 85 -44c0 -3 -4 -8 -8 -13c-72 -84 -157 -227 -213 -356c-11 -24 -59 -143 -59 -186
c0 -12 3 -17 9 -17c41 0 271 323 399 514c92 135 95 151 107 151c7 0 59 -26 59 -66c0 -37 -26 -67 -59 -133c-42 -83 -96 -202 -121 -313c-28 -129 -5 -183 0 -194c1 -4 -8 -25 -22 -25c-21 0 -62 36 -62 131c0 112 50 251 61 278c-108 -163 -279 -462 -377 -462z" />
    <glyph glyph-name="Ugrave" unicode="&#xd9;" horiz-adv-x="725" 
d="M582 684c9 1 8 17 7 24c-3 16 -11 26 -20 35c-30 26 -56 53 -89 76c-6 4 -11 6 -16 6c-16 0 -41 -27 -41 -41c0 -8 7 -15 21 -23c34 -20 69 -43 103 -63c8 -6 25 -14 35 -14zM212 -103c-36 0 -57 41 -57 102c0 75 27 174 52 234c21 54 86 196 89 201
c-38 -25 -146 -119 -206 -217c-3 -4 -7 -13 -17 -13c-20 0 -67 63 -17 122c42 49 119 127 247 237c59 51 83 69 110 69c41 0 85 -23 85 -44c0 -3 -4 -8 -8 -13c-72 -84 -157 -227 -213 -356c-11 -24 -59 -143 -59 -186c0 -12 3 -17 9 -17c41 0 271 323 399 514
c92 135 95 151 107 151c7 0 59 -26 59 -66c0 -37 -26 -67 -59 -133c-42 -83 -96 -202 -121 -313c-28 -129 -5 -183 0 -194c1 -4 -8 -25 -22 -25c-21 0 -62 36 -62 131c0 112 50 251 61 278c-108 -163 -279 -462 -377 -462z" />
    <glyph glyph-name="Uhungarumlaut" unicode="&#x170;" horiz-adv-x="725" 
d="M466 676c10 1 26 11 33 18c31 24 63 51 95 75c13 10 19 18 18 26c-2 13 -30 37 -46 35c-5 0 -10 -3 -15 -8c-30 -26 -53 -56 -79 -86c-8 -10 -15 -21 -16 -37c0 -7 1 -23 10 -23zM607 678c10 0 26 10 33 17c32 23 65 49 97 72c14 9 20 17 19 25c-1 13 -29 38 -45 37
c-5 0 -10 -3 -15 -8c-31 -25 -55 -54 -81 -84c-9 -9 -16 -20 -18 -36c0 -7 1 -23 10 -23zM212 -103c-36 0 -57 41 -57 102c0 75 27 174 52 234c21 54 86 196 89 201c-38 -25 -146 -119 -206 -217c-3 -4 -7 -13 -17 -13c-20 0 -67 63 -17 122c42 49 119 127 247 237
c59 51 83 69 110 69c41 0 85 -23 85 -44c0 -3 -4 -8 -8 -13c-72 -84 -157 -227 -213 -356c-11 -24 -59 -143 -59 -186c0 -12 3 -17 9 -17c41 0 271 323 399 514c92 135 95 151 107 151c7 0 59 -26 59 -66c0 -37 -26 -67 -59 -133c-42 -83 -96 -202 -121 -313
c-28 -129 -5 -183 0 -194c1 -4 -8 -25 -22 -25c-21 0 -62 36 -62 131c0 112 50 251 61 278c-108 -163 -279 -462 -377 -462z" />
    <glyph glyph-name="Umacron" unicode="&#x16a;" horiz-adv-x="725" 
d="M711 750c1 41 -56 37 -95 38c-44 1 -93 0 -129 -6c-28 -6 -48 -10 -48 -29c0 -4 -2 -14 4 -19c3 -3 19 -3 27 -3c60 3 107 5 227 -2c11 0 14 4 14 21zM212 -103c-36 0 -57 41 -57 102c0 75 27 174 52 234c21 54 86 196 89 201c-38 -25 -146 -119 -206 -217
c-3 -4 -7 -13 -17 -13c-20 0 -67 63 -17 122c42 49 119 127 247 237c59 51 83 69 110 69c41 0 85 -23 85 -44c0 -3 -4 -8 -8 -13c-72 -84 -157 -227 -213 -356c-11 -24 -59 -143 -59 -186c0 -12 3 -17 9 -17c41 0 271 323 399 514c92 135 95 151 107 151c7 0 59 -26 59 -66
c0 -37 -26 -67 -59 -133c-42 -83 -96 -202 -121 -313c-28 -129 -5 -183 0 -194c1 -4 -8 -25 -22 -25c-21 0 -62 36 -62 131c0 112 50 251 61 278c-108 -163 -279 -462 -377 -462z" />
    <glyph glyph-name="Uogonek" unicode="&#x172;" horiz-adv-x="725" 
d="M733 482c-42 -83 -96 -202 -121 -313c-28 -129 -5 -183 0 -194c1 -4 -8 -25 -22 -25c-5 -2 -13 -4 -21 -7c-60 -28 -73 -70 -76 -94c-2 -15 8 -17 19 -17c26 0 55 13 72 19c7 3 13 1 13 -8c0 -34 -57 -53 -94 -53c-39 0 -68 17 -68 62c0 56 67 111 119 123
c-14 20 -26 55 -26 106c0 112 50 251 61 278c-108 -163 -279 -462 -377 -462c-36 0 -57 41 -57 102c0 75 27 174 52 234c21 54 86 196 89 201c-38 -25 -146 -119 -206 -217c-3 -4 -7 -13 -17 -13c-20 0 -67 63 -17 122c42 49 119 127 247 237c59 51 83 69 110 69
c41 0 85 -23 85 -44c0 -3 -4 -8 -8 -13c-72 -84 -157 -227 -213 -356c-11 -24 -59 -143 -59 -186c0 -12 3 -17 9 -17c41 0 271 323 399 514c92 135 95 151 107 151c7 0 59 -26 59 -66c0 -37 -26 -67 -59 -133z" />
    <glyph glyph-name="Uring" unicode="&#x16e;" horiz-adv-x="725" 
d="M608 708c49 1 85 36 85 79c0 53 -61 83 -92 83c-58 0 -85 -57 -85 -91c0 -39 35 -71 92 -71zM617 826c25 -35 10 -68 -25 -78c-10 -3 -14 -1 -18 7c-12 25 -5 59 24 73c7 4 15 4 19 -2zM212 -103c-36 0 -57 41 -57 102c0 75 27 174 52 234c21 54 86 196 89 201
c-38 -25 -146 -119 -206 -217c-3 -4 -7 -13 -17 -13c-20 0 -67 63 -17 122c42 49 119 127 247 237c59 51 83 69 110 69c41 0 85 -23 85 -44c0 -3 -4 -8 -8 -13c-72 -84 -157 -227 -213 -356c-11 -24 -59 -143 -59 -186c0 -12 3 -17 9 -17c41 0 271 323 399 514
c92 135 95 151 107 151c7 0 59 -26 59 -66c0 -37 -26 -67 -59 -133c-42 -83 -96 -202 -121 -313c-28 -129 -5 -183 0 -194c1 -4 -8 -25 -22 -25c-21 0 -62 36 -62 131c0 112 50 251 61 278c-108 -163 -279 -462 -377 -462z" />
    <glyph glyph-name="V" unicode="V" horiz-adv-x="557" 
d="M108 -117c-41 0 -74 38 -68 126c4 64 22 156 48 282s50 232 55 305c3 45 -7 56 7 60c5 2 51 9 89 -7c34 -14 44 -41 44 -71c0 -58 -46 -179 -86 -305c-42 -131 -98 -311 -60 -311c71 0 367 488 416 612c13 32 16 58 17 75c0 22 15 24 40 19c26 -6 53 -22 53 -59
c0 -33 -15 -74 -50 -144c-113 -229 -362 -582 -505 -582z" />
    <glyph glyph-name="W" unicode="W" horiz-adv-x="873" 
d="M81 -110c-47 0 -76 23 -78 87c-3 78 37 194 75 296c56 150 111 315 122 367c9 44 10 62 25 64c6 1 33 5 70 -17c29 -17 32 -46 30 -75c-7 -70 -42 -140 -146 -368c-52 -114 -86 -200 -84 -246c1 -20 10 -28 31 -17c30 16 147 107 272 328c62 108 53 136 82 136
c36 0 79 -35 78 -87c-2 -21 -8 -63 -18 -109c-38 -163 -23 -212 10 -212c72 0 288 289 265 586c-1 22 2 38 27 35c18 -2 29 -7 42 -16c29 -19 33 -36 34 -72c9 -250 -260 -610 -390 -610c-93 0 -128 61 -120 223c-55 -88 -225 -293 -327 -293z" />
    <glyph glyph-name="Wacute" unicode="&#x1e82;" horiz-adv-x="873" 
d="M546 663c10 0 27 8 35 14c34 20 69 43 103 63c14 8 21 15 21 23c0 14 -25 41 -41 41c-5 0 -10 -2 -16 -6c-33 -23 -59 -50 -89 -76c-9 -9 -17 -19 -20 -35c-1 -7 -2 -23 7 -24zM81 -110c-47 0 -76 23 -78 87c-3 78 37 194 75 296c56 150 111 315 122 367
c9 44 10 62 25 64c6 1 33 5 70 -17c29 -17 32 -46 30 -75c-7 -70 -42 -140 -146 -368c-52 -114 -86 -200 -84 -246c1 -20 10 -28 31 -17c30 16 147 107 272 328c62 108 53 136 82 136c36 0 79 -35 78 -87c-2 -21 -8 -63 -18 -109c-38 -163 -23 -212 10 -212
c72 0 288 289 265 586c-1 22 2 38 27 35c18 -2 29 -7 42 -16c29 -19 33 -36 34 -72c9 -250 -260 -610 -390 -610c-93 0 -128 61 -120 223c-55 -88 -225 -293 -327 -293z" />
    <glyph glyph-name="Wcircumflex" unicode="&#x174;" horiz-adv-x="873" 
d="M465 687c-3 -7 -9 -24 4 -24c15 0 94 45 132 64c37 -26 78 -64 100 -64c10 1 14 17 14 24c0 14 -5 26 -12 35c-24 28 -66 84 -80 84c-15 0 -95 -62 -128 -84c-11 -9 -22 -19 -30 -35zM81 -110c-47 0 -76 23 -78 87c-3 78 37 194 75 296c56 150 111 315 122 367
c9 44 10 62 25 64c6 1 33 5 70 -17c29 -17 32 -46 30 -75c-7 -70 -42 -140 -146 -368c-52 -114 -86 -200 -84 -246c1 -20 10 -28 31 -17c30 16 147 107 272 328c62 108 53 136 82 136c36 0 79 -35 78 -87c-2 -21 -8 -63 -18 -109c-38 -163 -23 -212 10 -212
c72 0 288 289 265 586c-1 22 2 38 27 35c18 -2 29 -7 42 -16c29 -19 33 -36 34 -72c9 -250 -260 -610 -390 -610c-93 0 -128 61 -120 223c-55 -88 -225 -293 -327 -293z" />
    <glyph glyph-name="Wdieresis" unicode="&#x1e84;" horiz-adv-x="873" 
d="M525 703c29 0 60 20 60 47c0 9 -3 19 -9 27c-11 13 -26 34 -42 34c-19 0 -51 -26 -51 -59c0 -20 14 -49 42 -49zM673 703c29 0 60 20 60 47c0 9 -3 19 -9 27c-11 13 -26 34 -42 34c-19 0 -51 -26 -51 -59c0 -20 14 -49 42 -49zM81 -110c-47 0 -76 23 -78 87
c-3 78 37 194 75 296c56 150 111 315 122 367c9 44 10 62 25 64c6 1 33 5 70 -17c29 -17 32 -46 30 -75c-7 -70 -42 -140 -146 -368c-52 -114 -86 -200 -84 -246c1 -20 10 -28 31 -17c30 16 147 107 272 328c62 108 53 136 82 136c36 0 79 -35 78 -87
c-2 -21 -8 -63 -18 -109c-38 -163 -23 -212 10 -212c72 0 288 289 265 586c-1 22 2 38 27 35c18 -2 29 -7 42 -16c29 -19 33 -36 34 -72c9 -250 -260 -610 -390 -610c-93 0 -128 61 -120 223c-55 -88 -225 -293 -327 -293z" />
    <glyph glyph-name="Wgrave" unicode="&#x1e80;" horiz-adv-x="873" 
d="M589 661c9 1 8 17 7 24c-3 16 -11 26 -20 35c-30 26 -56 53 -89 76c-6 4 -11 6 -16 6c-16 0 -41 -27 -41 -41c0 -8 7 -15 21 -23c34 -20 69 -43 103 -63c8 -6 25 -14 35 -14zM81 -110c-47 0 -76 23 -78 87c-3 78 37 194 75 296c56 150 111 315 122 367c9 44 10 62 25 64
c6 1 33 5 70 -17c29 -17 32 -46 30 -75c-7 -70 -42 -140 -146 -368c-52 -114 -86 -200 -84 -246c1 -20 10 -28 31 -17c30 16 147 107 272 328c62 108 53 136 82 136c36 0 79 -35 78 -87c-2 -21 -8 -63 -18 -109c-38 -163 -23 -212 10 -212c72 0 288 289 265 586
c-1 22 2 38 27 35c18 -2 29 -7 42 -16c29 -19 33 -36 34 -72c9 -250 -260 -610 -390 -610c-93 0 -128 61 -120 223c-55 -88 -225 -293 -327 -293z" />
    <glyph glyph-name="X" unicode="X" horiz-adv-x="700" 
d="M727 651c15 8 38 -12 38 -35c0 -16 -20 -37 -31 -47c-35 -37 -279 -287 -293 -304c14 -142 32 -220 78 -214c41 6 111 64 138 74c10 4 18 -35 -5 -60c-10 -10 -24 -23 -46 -40c-38 -32 -91 -66 -133 -66c-76 0 -107 100 -122 231c-107 -121 -254 -287 -272 -310
c-12 -15 -15 -19 -23 -16c-4 2 -12 10 -19 21c-11 18 -13 41 -7 58c5 10 287 323 312 351c-4 62 -7 126 -11 188c-5 61 -2 97 -18 97s-52 -32 -86 -73c-69 -85 -71 -116 -103 -141c-21 -16 -50 35 -50 62c0 63 183 229 261 229c51 0 81 -46 87 -131c4 -58 7 -111 11 -159
c41 45 209 221 294 285zM343 296c1 1 0 0 0 0z" />
    <glyph glyph-name="Y" unicode="Y" horiz-adv-x="736" 
d="M236 -204c-59 0 -84 64 -84 95c0 113 162 190 267 236c24 11 40 8 54 32c60 102 110 203 167 305c7 13 16 28 26 46c14 25 -20 8 -122 -107c-135 -154 -253 -329 -362 -329c-48 0 -70 50 -10 198c57 142 152 299 143 317c-7 15 -96 -74 -161 -143
c-86 -89 -75 -107 -90 -107c-6 0 -29 14 -41 27c-7 6 -17 15 1 45c32 52 247 260 331 260c41 0 55 -29 55 -61c0 -43 -25 -96 -50 -153l-74 -162c-42 -87 -63 -138 34 -44c68 65 126 139 194 215c80 89 172 186 231 186c20 0 46 -23 46 -63c0 -24 -11 -53 -73 -171
c-60 -115 -138 -240 -142 -245c29 9 85 24 116 24c14 0 28 -5 28 -10c0 -11 -17 -20 -41 -29c-46 -18 -120 -37 -146 -75c-33 -49 -192 -287 -297 -287zM244 -135c49 26 124 127 170 185c4 5 3 8 -5 5c-74 -25 -175 -122 -179 -185c0 -8 2 -11 14 -5z" />
    <glyph glyph-name="Yacute" unicode="&#xdd;" horiz-adv-x="736" 
d="M541 715c10 0 27 8 35 14c34 20 69 43 103 63c14 8 21 15 21 23c0 14 -25 41 -41 41c-5 0 -10 -2 -16 -6c-33 -23 -59 -50 -89 -76c-9 -9 -17 -19 -20 -35c-1 -7 -2 -23 7 -24zM236 -204c-59 0 -84 64 -84 95c0 113 162 190 267 236c24 11 40 8 54 32
c60 102 110 203 167 305c7 13 16 28 26 46c14 25 -20 8 -122 -107c-135 -154 -253 -329 -362 -329c-48 0 -70 50 -10 198c57 142 152 299 143 317c-7 15 -96 -74 -161 -143c-86 -89 -75 -107 -90 -107c-6 0 -29 14 -41 27c-7 6 -17 15 1 45c32 52 247 260 331 260
c41 0 55 -29 55 -61c0 -43 -25 -96 -50 -153l-74 -162c-42 -87 -63 -138 34 -44c68 65 126 139 194 215c80 89 172 186 231 186c20 0 46 -23 46 -63c0 -24 -11 -53 -73 -171c-60 -115 -138 -240 -142 -245c29 9 85 24 116 24c14 0 28 -5 28 -10c0 -11 -17 -20 -41 -29
c-46 -18 -120 -37 -146 -75c-33 -49 -192 -287 -297 -287zM244 -135c49 26 124 127 170 185c4 5 3 8 -5 5c-74 -25 -175 -122 -179 -185c0 -8 2 -11 14 -5z" />
    <glyph glyph-name="Ycircumflex" unicode="&#x176;" horiz-adv-x="736" 
d="M460 739c-3 -7 -9 -24 4 -24c15 0 94 45 132 64c37 -26 78 -64 100 -64c10 1 14 17 14 24c0 14 -5 26 -12 35c-24 28 -66 84 -80 84c-15 0 -95 -62 -128 -84c-11 -9 -22 -19 -30 -35zM236 -204c-59 0 -84 64 -84 95c0 113 162 190 267 236c24 11 40 8 54 32
c60 102 110 203 167 305c7 13 16 28 26 46c14 25 -20 8 -122 -107c-135 -154 -253 -329 -362 -329c-48 0 -70 50 -10 198c57 142 152 299 143 317c-7 15 -96 -74 -161 -143c-86 -89 -75 -107 -90 -107c-6 0 -29 14 -41 27c-7 6 -17 15 1 45c32 52 247 260 331 260
c41 0 55 -29 55 -61c0 -43 -25 -96 -50 -153l-74 -162c-42 -87 -63 -138 34 -44c68 65 126 139 194 215c80 89 172 186 231 186c20 0 46 -23 46 -63c0 -24 -11 -53 -73 -171c-60 -115 -138 -240 -142 -245c29 9 85 24 116 24c14 0 28 -5 28 -10c0 -11 -17 -20 -41 -29
c-46 -18 -120 -37 -146 -75c-33 -49 -192 -287 -297 -287zM244 -135c49 26 124 127 170 185c4 5 3 8 -5 5c-74 -25 -175 -122 -179 -185c0 -8 2 -11 14 -5z" />
    <glyph glyph-name="Ydieresis" unicode="&#x178;" horiz-adv-x="736" 
d="M520 755c29 0 60 20 60 47c0 9 -3 19 -9 27c-11 13 -26 34 -42 34c-19 0 -51 -26 -51 -59c0 -20 14 -49 42 -49zM668 755c29 0 60 20 60 47c0 9 -3 19 -9 27c-11 13 -26 34 -42 34c-19 0 -51 -26 -51 -59c0 -20 14 -49 42 -49zM236 -204c-59 0 -84 64 -84 95
c0 113 162 190 267 236c24 11 40 8 54 32c60 102 110 203 167 305c7 13 16 28 26 46c14 25 -20 8 -122 -107c-135 -154 -253 -329 -362 -329c-48 0 -70 50 -10 198c57 142 152 299 143 317c-7 15 -96 -74 -161 -143c-86 -89 -75 -107 -90 -107c-6 0 -29 14 -41 27
c-7 6 -17 15 1 45c32 52 247 260 331 260c41 0 55 -29 55 -61c0 -43 -25 -96 -50 -153l-74 -162c-42 -87 -63 -138 34 -44c68 65 126 139 194 215c80 89 172 186 231 186c20 0 46 -23 46 -63c0 -24 -11 -53 -73 -171c-60 -115 -138 -240 -142 -245c29 9 85 24 116 24
c14 0 28 -5 28 -10c0 -11 -17 -20 -41 -29c-46 -18 -120 -37 -146 -75c-33 -49 -192 -287 -297 -287zM244 -135c49 26 124 127 170 185c4 5 3 8 -5 5c-74 -25 -175 -122 -179 -185c0 -8 2 -11 14 -5z" />
    <glyph glyph-name="Ygrave" unicode="&#x1ef2;" horiz-adv-x="736" 
d="M584 713c9 1 8 17 7 24c-3 16 -11 26 -20 35c-30 26 -56 53 -89 76c-6 4 -11 6 -16 6c-16 0 -41 -27 -41 -41c0 -8 7 -15 21 -23c34 -20 69 -43 103 -63c8 -6 25 -14 35 -14zM236 -204c-59 0 -84 64 -84 95c0 113 162 190 267 236c24 11 40 8 54 32
c60 102 110 203 167 305c7 13 16 28 26 46c14 25 -20 8 -122 -107c-135 -154 -253 -329 -362 -329c-48 0 -70 50 -10 198c57 142 152 299 143 317c-7 15 -96 -74 -161 -143c-86 -89 -75 -107 -90 -107c-6 0 -29 14 -41 27c-7 6 -17 15 1 45c32 52 247 260 331 260
c41 0 55 -29 55 -61c0 -43 -25 -96 -50 -153l-74 -162c-42 -87 -63 -138 34 -44c68 65 126 139 194 215c80 89 172 186 231 186c20 0 46 -23 46 -63c0 -24 -11 -53 -73 -171c-60 -115 -138 -240 -142 -245c29 9 85 24 116 24c14 0 28 -5 28 -10c0 -11 -17 -20 -41 -29
c-46 -18 -120 -37 -146 -75c-33 -49 -192 -287 -297 -287zM244 -135c49 26 124 127 170 185c4 5 3 8 -5 5c-74 -25 -175 -122 -179 -185c0 -8 2 -11 14 -5z" />
    <glyph glyph-name="Z" unicode="Z" horiz-adv-x="590" 
d="M15 -28c-19 0 -31 9 -31 42c0 36 84 133 205 245c165 151 300 252 363 302c-8 0 -63 -1 -124 2c-91 4 -229 15 -229 112c0 14 4 17 14 13c56 -20 94 -36 202 -42c51 -3 102 -3 155 -3c14 0 26 1 38 1c53 0 79 -35 89 -50c13 -20 7 -21 -31 -52
c-71 -58 -413 -342 -512 -455c97 12 273 15 360 -13c30 -10 41 -27 41 -39c0 -5 -3 -10 -8 -11c-8 -2 -23 -1 -42 -1c-29 -1 -76 -3 -135 -7c-210 -17 -283 -35 -355 -44z" />
    <glyph glyph-name="Zacute" unicode="&#x179;" horiz-adv-x="590" 
d="M469 705c10 0 27 8 35 14c34 20 69 43 103 63c14 8 21 15 21 23c0 14 -25 41 -41 41c-5 0 -10 -2 -16 -6c-33 -23 -59 -50 -89 -76c-9 -9 -17 -19 -20 -35c-1 -7 -2 -23 7 -24zM15 -28c-19 0 -31 9 -31 42c0 36 84 133 205 245c165 151 300 252 363 302
c-8 0 -63 -1 -124 2c-91 4 -229 15 -229 112c0 14 4 17 14 13c56 -20 94 -36 202 -42c51 -3 102 -3 155 -3c14 0 26 1 38 1c53 0 79 -35 89 -50c13 -20 7 -21 -31 -52c-71 -58 -413 -342 -512 -455c97 12 273 15 360 -13c30 -10 41 -27 41 -39c0 -5 -3 -10 -8 -11
c-8 -2 -23 -1 -42 -1c-29 -1 -76 -3 -135 -7c-210 -17 -283 -35 -355 -44z" />
    <glyph glyph-name="Zcaron" unicode="&#x17d;" horiz-adv-x="590" 
d="M633 824c4 7 9 24 -2 24s-27 -8 -36 -13c-33 -17 -65 -35 -98 -51c-22 16 -45 34 -67 51c-7 5 -22 13 -33 13c-9 -1 -13 -17 -13 -24c0 -13 4 -26 12 -34c24 -29 67 -85 81 -85c12 0 96 63 127 85c10 8 22 19 29 34zM15 -28c-19 0 -31 9 -31 42c0 36 84 133 205 245
c165 151 300 252 363 302c-8 0 -63 -1 -124 2c-91 4 -229 15 -229 112c0 14 4 17 14 13c56 -20 94 -36 202 -42c51 -3 102 -3 155 -3c14 0 26 1 38 1c53 0 79 -35 89 -50c13 -20 7 -21 -31 -52c-71 -58 -413 -342 -512 -455c97 12 273 15 360 -13c30 -10 41 -27 41 -39
c0 -5 -3 -10 -8 -11c-8 -2 -23 -1 -42 -1c-29 -1 -76 -3 -135 -7c-210 -17 -283 -35 -355 -44z" />
    <glyph glyph-name="Zdotaccent" unicode="&#x17b;" horiz-adv-x="590" 
d="M504 745c29 0 60 20 60 47c0 9 -3 19 -9 27c-11 13 -26 34 -42 34c-19 0 -51 -26 -51 -59c0 -20 14 -49 42 -49zM15 -28c-19 0 -31 9 -31 42c0 36 84 133 205 245c165 151 300 252 363 302c-8 0 -63 -1 -124 2c-91 4 -229 15 -229 112c0 14 4 17 14 13
c56 -20 94 -36 202 -42c51 -3 102 -3 155 -3c14 0 26 1 38 1c53 0 79 -35 89 -50c13 -20 7 -21 -31 -52c-71 -58 -413 -342 -512 -455c97 12 273 15 360 -13c30 -10 41 -27 41 -39c0 -5 -3 -10 -8 -11c-8 -2 -23 -1 -42 -1c-29 -1 -76 -3 -135 -7
c-210 -17 -283 -35 -355 -44z" />
    <glyph glyph-name="a" unicode="a" horiz-adv-x="368" 
d="M34 17c-25 0 -48 17 -48 61c0 95 122 272 252 272c38 0 63 -50 49 -55c-77 -20 -138 -64 -185 -120c-55 -72 -62 -130 24 -54c39 34 61 52 119 120c6 7 13 9 20 9c24 0 58 -32 49 -46c-17 -27 -42 -78 -42 -105c0 -12 5 -19 15 -19c23 0 65 37 81 55l6 6c4 4 26 0 17 -11
l-8 -10c-30 -38 -79 -87 -125 -87c-39 0 -64 38 -45 102c-46 -42 -121 -118 -179 -118z" />
    <glyph glyph-name="aacute" unicode="&#xe1;" horiz-adv-x="368" 
d="M192 389c10 0 27 8 35 14c34 20 69 43 103 63c14 8 21 15 21 23c0 14 -25 41 -41 41c-5 0 -10 -2 -16 -6c-33 -23 -59 -50 -89 -76c-9 -9 -17 -19 -20 -35c-1 -7 -2 -23 7 -24zM34 17c-25 0 -48 17 -48 61c0 95 122 272 252 272c38 0 63 -50 49 -55
c-77 -20 -138 -64 -185 -120c-55 -72 -62 -130 24 -54c39 34 61 52 119 120c6 7 13 9 20 9c24 0 58 -32 49 -46c-17 -27 -42 -78 -42 -105c0 -12 5 -19 15 -19c23 0 65 37 81 55l6 6c4 4 26 0 17 -11l-8 -10c-30 -38 -79 -87 -125 -87c-39 0 -64 38 -45 102
c-46 -42 -121 -118 -179 -118z" />
    <glyph glyph-name="abreve" unicode="&#x103;" horiz-adv-x="368" 
d="M127 500c0 -26 5 -48 20 -71c16 -26 50 -42 87 -41c62 2 108 51 127 108c4 10 3 24 -13 32c-10 5 -12 5 -17 -4c-11 -23 -51 -84 -89 -84s-43 28 -45 48c-1 28 -21 45 -53 44c-15 0 -17 -9 -17 -32zM34 17c-25 0 -48 17 -48 61c0 95 122 272 252 272c38 0 63 -50 49 -55
c-77 -20 -138 -64 -185 -120c-55 -72 -62 -130 24 -54c39 34 61 52 119 120c6 7 13 9 20 9c24 0 58 -32 49 -46c-17 -27 -42 -78 -42 -105c0 -12 5 -19 15 -19c23 0 65 37 81 55l6 6c4 4 26 0 17 -11l-8 -10c-30 -38 -79 -87 -125 -87c-39 0 -64 38 -45 102
c-46 -42 -121 -118 -179 -118z" />
    <glyph glyph-name="acircumflex" unicode="&#xe2;" horiz-adv-x="368" 
d="M111 413c-3 -7 -9 -24 4 -24c15 0 94 45 132 64c37 -26 78 -64 100 -64c10 1 14 17 14 24c0 14 -5 26 -12 35c-24 28 -66 84 -80 84c-15 0 -95 -62 -128 -84c-11 -9 -22 -19 -30 -35zM34 17c-25 0 -48 17 -48 61c0 95 122 272 252 272c38 0 63 -50 49 -55
c-77 -20 -138 -64 -185 -120c-55 -72 -62 -130 24 -54c39 34 61 52 119 120c6 7 13 9 20 9c24 0 58 -32 49 -46c-17 -27 -42 -78 -42 -105c0 -12 5 -19 15 -19c23 0 65 37 81 55l6 6c4 4 26 0 17 -11l-8 -10c-30 -38 -79 -87 -125 -87c-39 0 -64 38 -45 102
c-46 -42 -121 -118 -179 -118z" />
    <glyph glyph-name="adieresis" unicode="&#xe4;" horiz-adv-x="368" 
d="M171 429c29 0 60 20 60 47c0 9 -3 19 -9 27c-11 13 -26 34 -42 34c-19 0 -51 -26 -51 -59c0 -20 14 -49 42 -49zM319 429c29 0 60 20 60 47c0 9 -3 19 -9 27c-11 13 -26 34 -42 34c-19 0 -51 -26 -51 -59c0 -20 14 -49 42 -49zM34 17c-25 0 -48 17 -48 61
c0 95 122 272 252 272c38 0 63 -50 49 -55c-77 -20 -138 -64 -185 -120c-55 -72 -62 -130 24 -54c39 34 61 52 119 120c6 7 13 9 20 9c24 0 58 -32 49 -46c-17 -27 -42 -78 -42 -105c0 -12 5 -19 15 -19c23 0 65 37 81 55l6 6c4 4 26 0 17 -11l-8 -10
c-30 -38 -79 -87 -125 -87c-39 0 -64 38 -45 102c-46 -42 -121 -118 -179 -118z" />
    <glyph glyph-name="agrave" unicode="&#xe0;" horiz-adv-x="368" 
d="M235 387c9 1 8 17 7 24c-3 16 -11 26 -20 35c-30 26 -56 53 -89 76c-6 4 -11 6 -16 6c-16 0 -41 -27 -41 -41c0 -8 7 -15 21 -23c34 -20 69 -43 103 -63c8 -6 25 -14 35 -14zM34 17c-25 0 -48 17 -48 61c0 95 122 272 252 272c38 0 63 -50 49 -55
c-77 -20 -138 -64 -185 -120c-55 -72 -62 -130 24 -54c39 34 61 52 119 120c6 7 13 9 20 9c24 0 58 -32 49 -46c-17 -27 -42 -78 -42 -105c0 -12 5 -19 15 -19c23 0 65 37 81 55l6 6c4 4 26 0 17 -11l-8 -10c-30 -38 -79 -87 -125 -87c-39 0 -64 38 -45 102
c-46 -42 -121 -118 -179 -118z" />
    <glyph glyph-name="amacron" unicode="&#x101;" horiz-adv-x="368" 
d="M364 453c1 41 -56 37 -95 38c-44 1 -93 0 -129 -6c-28 -6 -48 -10 -48 -29c0 -4 -2 -14 4 -19c3 -3 19 -3 27 -3c60 3 107 5 227 -2c11 0 14 4 14 21zM34 17c-25 0 -48 17 -48 61c0 95 122 272 252 272c38 0 63 -50 49 -55c-77 -20 -138 -64 -185 -120
c-55 -72 -62 -130 24 -54c39 34 61 52 119 120c6 7 13 9 20 9c24 0 58 -32 49 -46c-17 -27 -42 -78 -42 -105c0 -12 5 -19 15 -19c23 0 65 37 81 55l6 6c4 4 26 0 17 -11l-8 -10c-30 -38 -79 -87 -125 -87c-39 0 -64 38 -45 102c-46 -42 -121 -118 -179 -118z" />
    <glyph glyph-name="aogonek" unicode="&#x105;" horiz-adv-x="368" 
d="M374 141c4 4 26 0 17 -11l-8 -10c-27 -34 -70 -78 -111 -86c-5 -1 -11 -3 -16 -5c-60 -28 -73 -70 -76 -94c-2 -15 8 -17 19 -17c26 0 55 13 72 19c7 3 13 1 13 -8c0 -34 -57 -53 -94 -53c-39 0 -68 17 -68 62c0 48 49 95 96 115c-12 18 -16 46 -5 82
c-46 -42 -121 -118 -179 -118c-25 0 -48 17 -48 61c0 95 122 272 252 272c38 0 63 -50 49 -55c-77 -20 -138 -64 -185 -120c-55 -72 -62 -130 24 -54c39 34 61 52 119 120c6 7 13 9 20 9c24 0 58 -32 49 -46c-17 -27 -42 -78 -42 -105c0 -12 5 -19 15 -19c23 0 65 37 81 55z
" />
    <glyph glyph-name="aring" unicode="&#xe5;" horiz-adv-x="368" 
d="M261 411c49 1 85 36 85 79c0 53 -61 83 -92 83c-58 0 -85 -57 -85 -91c0 -39 35 -71 92 -71zM270 529c25 -35 10 -68 -25 -78c-10 -3 -14 -1 -18 7c-12 25 -5 59 24 73c7 4 15 4 19 -2zM34 17c-25 0 -48 17 -48 61c0 95 122 272 252 272c38 0 63 -50 49 -55
c-77 -20 -138 -64 -185 -120c-55 -72 -62 -130 24 -54c39 34 61 52 119 120c6 7 13 9 20 9c24 0 58 -32 49 -46c-17 -27 -42 -78 -42 -105c0 -12 5 -19 15 -19c23 0 65 37 81 55l6 6c4 4 26 0 17 -11l-8 -10c-30 -38 -79 -87 -125 -87c-39 0 -64 38 -45 102
c-46 -42 -121 -118 -179 -118z" />
    <glyph glyph-name="atilde" unicode="&#xe3;" horiz-adv-x="368" 
d="M117 438c7 0 14 3 23 11c18 16 28 24 51 25c23 0 50 -52 92 -52c44 0 96 54 96 89c-3 20 -8 21 -20 13c-24 -16 -57 -42 -74 -42c-24 0 -52 49 -91 49s-74 -31 -96 -57c-7 -9 4 -36 19 -36zM34 17c-25 0 -48 17 -48 61c0 95 122 272 252 272c38 0 63 -50 49 -55
c-77 -20 -138 -64 -185 -120c-55 -72 -62 -130 24 -54c39 34 61 52 119 120c6 7 13 9 20 9c24 0 58 -32 49 -46c-17 -27 -42 -78 -42 -105c0 -12 5 -19 15 -19c23 0 65 37 81 55l6 6c4 4 26 0 17 -11l-8 -10c-30 -38 -79 -87 -125 -87c-39 0 -64 38 -45 102
c-46 -42 -121 -118 -179 -118z" />
    <glyph glyph-name="ae" unicode="&#xe6;" horiz-adv-x="437" 
d="M443 141c4 4 26 0 17 -11l-8 -10c-29 -33 -82 -100 -171 -100c-49 0 -80 21 -96 52c-37 -33 -80 -52 -110 -52c-51 0 -83 43 -83 86c0 64 122 107 186 119c5 1 13 1 0 17c-10 15 -30 28 -61 28c-24 0 -56 -13 -70 -19c-8 6 -12 13 -12 20c0 24 55 51 105 51
c41 0 82 -16 105 -46c30 29 65 48 98 48c41 0 69 -23 69 -56c0 -28 -20 -63 -66 -97c-31 -23 -63 -40 -97 -44c0 -35 18 -62 56 -62c46 0 99 35 132 70zM344 269c-24 0 -72 -48 -89 -103c60 24 100 72 100 93c0 7 -4 10 -11 10zM158 170c2 8 0 7 -4 6
c-44 -17 -86 -49 -103 -71c-2 -3 -4 -7 1 -10c34 -24 90 20 106 75z" />
    <glyph glyph-name="b" unicode="b" horiz-adv-x="305" 
d="M310 141c4 4 26 0 17 -11l-8 -10c-23 -26 -67 -70 -115 -70c-9 0 -18 2 -26 5c-33 -29 -69 -42 -98 -42c-56 0 -77 50 -77 102c0 156 187 557 338 557c32 0 45 -25 45 -52c0 -83 -148 -257 -250 -308c-33 -72 -55 -144 -55 -199c0 -26 5 -40 19 -40c10 0 23 8 35 21
c-11 20 -17 45 -17 71c0 62 36 133 93 133c35 0 58 -25 58 -64c0 -40 -27 -105 -66 -153c3 -1 6 -1 10 -1c30 0 65 28 91 55zM266 535c-31 -40 -65 -93 -95 -150c38 34 81 78 112 121c63 85 62 135 -17 29zM161 162c0 -10 1 -20 3 -30c22 35 40 77 40 97c0 8 -3 12 -8 12
c-21 0 -35 -39 -35 -79z" />
    <glyph glyph-name="c" unicode="c" horiz-adv-x="266" 
d="M100 12c-57 0 -98 37 -98 98c0 108 104 230 200 230c39 0 59 -24 59 -54c0 -35 -20 -64 -56 -64c-11 0 -19 3 -19 8c0 10 19 40 -2 40c-46 0 -109 -96 -109 -159c0 -36 20 -53 50 -53c38 0 93 27 141 77l6 6c4 4 26 0 17 -11l-8 -10c-60 -76 -128 -108 -181 -108z" />
    <glyph glyph-name="cacute" unicode="&#x107;" horiz-adv-x="266" 
d="M193 386c10 0 27 8 35 14c34 20 69 43 103 63c14 8 21 15 21 23c0 14 -25 41 -41 41c-5 0 -10 -2 -16 -6c-33 -23 -59 -50 -89 -76c-9 -9 -17 -19 -20 -35c-1 -7 -2 -23 7 -24zM100 12c-57 0 -98 37 -98 98c0 108 104 230 200 230c39 0 59 -24 59 -54
c0 -35 -20 -64 -56 -64c-11 0 -19 3 -19 8c0 10 19 40 -2 40c-46 0 -109 -96 -109 -159c0 -36 20 -53 50 -53c38 0 93 27 141 77l6 6c4 4 26 0 17 -11l-8 -10c-60 -76 -128 -108 -181 -108z" />
    <glyph glyph-name="ccaron" unicode="&#x10d;" horiz-adv-x="266" 
d="M357 505c4 7 9 24 -2 24s-27 -8 -36 -13c-33 -17 -65 -35 -98 -51c-22 16 -45 34 -67 51c-7 5 -22 13 -33 13c-9 -1 -13 -17 -13 -24c0 -13 4 -26 12 -34c24 -29 67 -85 81 -85c12 0 96 63 127 85c10 8 22 19 29 34zM100 12c-57 0 -98 37 -98 98c0 108 104 230 200 230
c39 0 59 -24 59 -54c0 -35 -20 -64 -56 -64c-11 0 -19 3 -19 8c0 10 19 40 -2 40c-46 0 -109 -96 -109 -159c0 -36 20 -53 50 -53c38 0 93 27 141 77l6 6c4 4 26 0 17 -11l-8 -10c-60 -76 -128 -108 -181 -108z" />
    <glyph glyph-name="ccedilla" unicode="&#xe7;" horiz-adv-x="266" 
d="M272 141c4 4 26 0 17 -11l-8 -10c-52 -66 -110 -99 -159 -106c-7 -15 -15 -29 -21 -41c15 -3 29 -8 39 -16c21 -14 31 -36 31 -54c0 -50 -86 -83 -146 -83c-21 0 -36 7 -36 16c0 3 2 7 8 11c56 15 84 28 119 58c5 5 7 8 0 13c-8 6 -17 9 -28 9c-22 0 -28 -11 -37 -1
c-9 9 -14 15 -14 22c0 16 20 47 34 68c-41 10 -69 44 -69 94c0 108 104 230 200 230c39 0 59 -24 59 -54c0 -35 -20 -64 -56 -64c-11 0 -19 3 -19 8c0 10 19 40 -2 40c-46 0 -109 -96 -109 -159c0 -36 20 -53 50 -53c38 0 93 27 141 77z" />
    <glyph glyph-name="d" unicode="d" horiz-adv-x="431" 
d="M437 141c4 4 26 0 17 -11l-8 -10c-32 -37 -77 -89 -128 -89c-56 0 -78 51 -80 116c-55 -62 -121 -123 -173 -123c-35 0 -69 26 -69 78c0 87 102 235 197 235c28 0 51 -12 67 -28c22 88 57 177 84 237c54 117 97 156 125 156c25 0 39 -29 39 -62c0 -86 -97 -289 -174 -377
c-6 -38 -9 -74 -9 -103c0 -49 9 -80 29 -80c16 0 41 17 77 55zM466 621c0 21 -26 -16 -68 -122c-16 -41 -30 -84 -41 -128c22 38 48 85 68 130c29 64 41 106 41 120zM88 94c21 0 80 45 155 128l6 39c-9 9 -21 16 -37 16c-62 0 -128 -140 -128 -175c0 -5 1 -8 4 -8z" />
    <glyph glyph-name="eth" unicode="&#xf0;" horiz-adv-x="328" 
d="M414 619c24 9 43 -15 35 -40c-13 -4 -33 -13 -56 -23c1 -11 2 -22 2 -33c0 -94 -56 -264 -141 -375c-57 -72 -117 -140 -185 -140c-54 0 -86 57 -86 111c0 102 109 263 210 263c30 0 55 -16 67 -53c28 42 58 127 62 194c-45 -23 -87 -45 -101 -54c-7 -5 -21 29 -5 43
c18 14 59 38 103 62c-8 29 -26 44 -48 44c-18 0 -39 -10 -60 -31c-22 11 -32 25 -32 40c0 29 39 57 84 57c57 0 97 -33 117 -80c12 6 24 11 34 15zM57 79c49 0 163 149 163 210c0 15 -7 25 -25 25c-52 0 -113 -108 -136 -172c-12 -34 -16 -63 -2 -63z" />
    <glyph glyph-name="dcaron" unicode="&#x10f;" horiz-adv-x="431" 
d="M508 640c0 -86 -97 -289 -174 -377c-6 -38 -9 -74 -9 -103c0 -49 9 -80 29 -80c16 0 41 17 77 55l6 6c4 4 26 0 17 -11l-8 -10c-32 -37 -77 -89 -128 -89c-56 0 -78 51 -80 116c-55 -62 -121 -123 -173 -123c-35 0 -69 26 -69 78c0 87 102 235 197 235
c28 0 51 -12 67 -28c22 88 57 177 84 237c54 117 97 156 125 156c25 0 39 -29 39 -62zM626 675c3 -6 0 -17 -9 -28c-20 -38 -71 -129 -83 -129c-11 0 -13 11 -15 18c-3 16 -1 30 3 40c14 38 25 73 44 108c2 6 5 10 10 13c13 6 44 -8 50 -22zM466 621c0 21 -26 -16 -68 -122
c-16 -41 -30 -84 -41 -128c22 38 48 85 68 130c29 64 41 106 41 120zM88 94c21 0 80 45 155 128l6 39c-9 9 -21 16 -37 16c-62 0 -128 -140 -128 -175c0 -5 1 -8 4 -8z" />
    <glyph glyph-name="dcroat" unicode="&#x111;" horiz-adv-x="431" 
d="M489 549c21 -2 37 -8 37 -22c0 -13 -4 -12 -12 -12c-13 1 -25 1 -37 2c-35 -91 -93 -196 -143 -254c-6 -38 -9 -74 -9 -103c0 -49 9 -80 29 -80c16 0 41 17 77 55l6 6c4 4 26 0 17 -11l-8 -10c-32 -37 -77 -89 -128 -89c-56 0 -78 51 -80 116
c-55 -62 -121 -123 -173 -123c-35 0 -69 26 -69 78c0 87 102 235 197 235c28 0 51 -12 67 -28c19 75 47 151 72 209h-41c-15 0 -26 0 -26 4c0 10 3 16 12 18c7 2 34 5 68 7c53 116 96 155 124 155c25 0 39 -29 39 -62c0 -23 -7 -55 -19 -91zM466 621c0 17 -17 -4 -46 -70h22
h4c14 36 20 60 20 70zM425 501l8 17h-27c-3 -6 -5 -12 -8 -19c-16 -41 -30 -84 -41 -128c22 38 48 85 68 130zM88 94c21 0 80 45 155 128l6 39c-9 9 -21 16 -37 16c-62 0 -128 -140 -128 -175c0 -5 1 -8 4 -8z" />
    <glyph glyph-name="e" unicode="e" horiz-adv-x="253" 
d="M259 141c4 4 26 0 17 -11l-8 -10c-29 -33 -82 -100 -171 -100c-72 0 -107 46 -107 104c0 96 92 200 169 200c41 0 69 -23 69 -56c0 -28 -20 -63 -66 -97c-31 -23 -63 -40 -97 -44c0 -35 18 -62 56 -62c46 0 99 35 132 70zM160 269c-24 0 -72 -48 -89 -103
c60 24 100 72 100 93c0 7 -4 10 -11 10z" />
    <glyph glyph-name="eacute" unicode="&#xe9;" horiz-adv-x="253" 
d="M269 513c16 0 41 -27 41 -41c0 -8 -7 -15 -21 -23c-34 -20 -69 -43 -103 -63c-8 -6 -25 -14 -35 -14c-9 1 -8 17 -7 24c3 16 11 26 20 35c30 26 56 53 89 76c6 4 11 6 16 6zM259 141c4 4 26 0 17 -11l-8 -10c-29 -33 -82 -100 -171 -100c-72 0 -107 46 -107 104
c0 96 92 200 169 200c41 0 69 -23 69 -56c0 -28 -20 -63 -66 -97c-31 -23 -63 -40 -97 -44c0 -35 18 -62 56 -62c46 0 99 35 132 70zM160 269c-24 0 -72 -48 -89 -103c60 24 100 72 100 93c0 7 -4 10 -11 10z" />
    <glyph glyph-name="ecaron" unicode="&#x11b;" horiz-adv-x="253" 
d="M313 515c11 0 6 -17 2 -24c-7 -15 -19 -26 -29 -34c-31 -22 -115 -85 -127 -85c-14 0 -57 56 -81 85c-8 8 -12 21 -12 34c0 7 4 23 13 24c11 0 26 -8 33 -13c22 -17 45 -35 67 -51c33 16 65 34 98 51c9 5 25 13 36 13zM259 141c4 4 26 0 17 -11l-8 -10
c-29 -33 -82 -100 -171 -100c-72 0 -107 46 -107 104c0 96 92 200 169 200c41 0 69 -23 69 -56c0 -28 -20 -63 -66 -97c-31 -23 -63 -40 -97 -44c0 -35 18 -62 56 -62c46 0 99 35 132 70zM160 269c-24 0 -72 -48 -89 -103c60 24 100 72 100 93c0 7 -4 10 -11 10z" />
    <glyph glyph-name="ecircumflex" unicode="&#xea;" horiz-adv-x="253" 
d="M308 431c7 -9 12 -21 12 -35c0 -7 -4 -23 -14 -24c-22 0 -63 38 -100 64c-38 -19 -117 -64 -132 -64c-13 0 -7 17 -4 24c8 16 19 26 30 35c33 22 113 84 128 84c14 0 56 -56 80 -84zM259 141c4 4 26 0 17 -11l-8 -10c-29 -33 -82 -100 -171 -100c-72 0 -107 46 -107 104
c0 96 92 200 169 200c41 0 69 -23 69 -56c0 -28 -20 -63 -66 -97c-31 -23 -63 -40 -97 -44c0 -35 18 -62 56 -62c46 0 99 35 132 70zM160 269c-24 0 -72 -48 -89 -103c60 24 100 72 100 93c0 7 -4 10 -11 10z" />
    <glyph glyph-name="edieresis" unicode="&#xeb;" horiz-adv-x="253" 
d="M130 412c-28 0 -42 29 -42 49c0 33 32 59 51 59c16 0 31 -21 42 -34c6 -8 9 -18 9 -27c0 -27 -31 -47 -60 -47zM329 486c6 -8 9 -18 9 -27c0 -27 -31 -47 -60 -47c-28 0 -42 29 -42 49c0 33 32 59 51 59c16 0 31 -21 42 -34zM259 141c4 4 26 0 17 -11l-8 -10
c-29 -33 -82 -100 -171 -100c-72 0 -107 46 -107 104c0 96 92 200 169 200c41 0 69 -23 69 -56c0 -28 -20 -63 -66 -97c-31 -23 -63 -40 -97 -44c0 -35 18 -62 56 -62c46 0 99 35 132 70zM160 269c-24 0 -72 -48 -89 -103c60 24 100 72 100 93c0 7 -4 10 -11 10z" />
    <glyph glyph-name="edotaccent" unicode="&#x117;" horiz-adv-x="253" 
d="M186 412c-28 0 -42 29 -42 49c0 33 32 59 51 59c16 0 31 -21 42 -34c6 -8 9 -18 9 -27c0 -27 -31 -47 -60 -47zM259 141c4 4 26 0 17 -11l-8 -10c-29 -33 -82 -100 -171 -100c-72 0 -107 46 -107 104c0 96 92 200 169 200c41 0 69 -23 69 -56c0 -28 -20 -63 -66 -97
c-31 -23 -63 -40 -97 -44c0 -35 18 -62 56 -62c46 0 99 35 132 70zM160 269c-24 0 -72 -48 -89 -103c60 24 100 72 100 93c0 7 -4 10 -11 10z" />
    <glyph glyph-name="egrave" unicode="&#xe8;" horiz-adv-x="253" 
d="M56 447c-14 8 -21 15 -21 23c0 14 25 41 41 41c5 0 10 -2 16 -6c33 -23 59 -50 89 -76c9 -9 17 -19 20 -35c1 -7 2 -23 -7 -24c-10 0 -27 8 -35 14c-34 20 -69 43 -103 63zM259 141c4 4 26 0 17 -11l-8 -10c-29 -33 -82 -100 -171 -100c-72 0 -107 46 -107 104
c0 96 92 200 169 200c41 0 69 -23 69 -56c0 -28 -20 -63 -66 -97c-31 -23 -63 -40 -97 -44c0 -35 18 -62 56 -62c46 0 99 35 132 70zM160 269c-24 0 -72 -48 -89 -103c60 24 100 72 100 93c0 7 -4 10 -11 10z" />
    <glyph glyph-name="emacron" unicode="&#x113;" horiz-adv-x="253" 
d="M228 474c39 -1 96 3 95 -38c0 -17 -3 -21 -14 -21c-120 7 -167 5 -227 2c-8 0 -24 0 -27 3c-6 5 -4 15 -4 19c0 19 20 23 48 29c36 6 85 7 129 6zM259 141c4 4 26 0 17 -11l-8 -10c-29 -33 -82 -100 -171 -100c-72 0 -107 46 -107 104c0 96 92 200 169 200
c41 0 69 -23 69 -56c0 -28 -20 -63 -66 -97c-31 -23 -63 -40 -97 -44c0 -35 18 -62 56 -62c46 0 99 35 132 70zM160 269c-24 0 -72 -48 -89 -103c60 24 100 72 100 93c0 7 -4 10 -11 10z" />
    <glyph glyph-name="eogonek" unicode="&#x119;" horiz-adv-x="253" 
d="M259 141c4 4 26 0 17 -11l-8 -10c-22 -25 -58 -70 -113 -90c-2 -1 -5 -2 -8 -3c-2 0 -3 0 -4 -1c-4 -1 -8 -2 -12 -4c-60 -28 -73 -70 -76 -94c-2 -15 8 -17 19 -17c26 0 55 13 72 19c7 3 13 1 13 -8c0 -34 -57 -53 -94 -53c-39 0 -68 17 -68 62c0 36 27 71 60 95
c-45 14 -67 52 -67 98c0 96 92 200 169 200c41 0 69 -23 69 -56c0 -28 -20 -63 -66 -97c-31 -23 -63 -40 -97 -44c0 -35 18 -62 56 -62c46 0 99 35 132 70zM160 269c-24 0 -72 -48 -89 -103c60 24 100 72 100 93c0 7 -4 10 -11 10z" />
    <glyph glyph-name="f" unicode="f" horiz-adv-x="257" 
d="M217 207c4 3 14 -7 14 -19c0 -34 -77 -58 -123 -36c2 -22 4 -49 4 -80c0 -116 -22 -269 -110 -269c-30 0 -56 28 -56 94c0 23 3 51 10 83c14 66 38 140 58 196c-5 0 -14 0 -19 2c-12 5 -20 36 -9 38c26 6 47 16 59 45c23 51 141 410 262 410c32 0 48 -25 48 -58
c0 -100 -90 -262 -238 -379c-4 -9 -7 -19 -11 -28c50 -35 101 -7 111 1zM296 590c-8 0 -32 -32 -77 -125c-19 -37 -38 -79 -56 -122c38 42 77 95 103 145c20 38 33 79 33 95c0 5 -1 7 -3 7zM52 -53c7 42 11 93 14 137c-16 -50 -26 -86 -32 -117c-31 -149 3 -108 18 -20z" />
    <glyph glyph-name="g" unicode="g" horiz-adv-x="338" 
d="M-26 -237c-28 0 -47 19 -47 51c0 89 119 187 204 233c13 27 24 57 46 104c-29 -30 -82 -70 -124 -70c-57 0 -70 74 -21 167c46 87 145 162 202 162c35 0 57 -26 64 -70c1 -9 -27 -20 -39 -20c-21 0 -17 16 -31 16c-20 0 -68 -42 -103 -89c-41 -53 -66 -113 -48 -113
c29 0 83 84 137 133c22 21 42 36 62 36c17 0 35 -9 48 -32c5 -8 3 -12 -3 -17c-38 -37 -104 -144 -116 -190c35 9 98 34 133 71l6 6c4 4 26 0 17 -11l-8 -10c-37 -46 -96 -77 -156 -104c-18 -15 -19 -28 -41 -72c-32 -65 -108 -181 -182 -181zM48 -102c25 33 67 91 60 91
c-5 0 -29 -22 -78 -79c-65 -76 -74 -132 18 -12z" />
    <glyph glyph-name="gcommaaccent" unicode="&#x123;" horiz-adv-x="338" 
d="M333 616c-8 7 -15 10 -21 10c-15 0 -62 -41 -78 -63c-16 -19 -29 -41 -29 -57c0 -30 16 -57 47 -57c28 0 54 15 54 45c0 9 -3 19 -10 28c-6 9 -10 18 -6 27c9 22 21 34 38 53c6 6 9 10 5 14zM-26 -237c-28 0 -47 19 -47 51c0 89 119 187 204 233c13 27 24 57 46 104
c-29 -30 -82 -70 -124 -70c-57 0 -70 74 -21 167c46 87 145 162 202 162c35 0 57 -26 64 -70c1 -9 -27 -20 -39 -20c-21 0 -17 16 -31 16c-20 0 -68 -42 -103 -89c-41 -53 -66 -113 -48 -113c29 0 83 84 137 133c22 21 42 36 62 36c17 0 35 -9 48 -32c5 -8 3 -12 -3 -17
c-38 -37 -104 -144 -116 -190c35 9 98 34 133 71l6 6c4 4 26 0 17 -11l-8 -10c-37 -46 -96 -77 -156 -104c-18 -15 -19 -28 -41 -72c-32 -65 -108 -181 -182 -181zM48 -102c25 33 67 91 60 91c-5 0 -29 -22 -78 -79c-65 -76 -74 -132 18 -12z" />
    <glyph glyph-name="h" unicode="h" horiz-adv-x="350" 
d="M356 141c4 4 26 0 17 -11l-8 -10c-37 -46 -103 -98 -147 -98c-27 0 -50 19 -50 59c0 45 45 139 28 144s-87 -83 -147 -228c-3 -9 -8 -14 -19 -14c-24 0 -64 22 -58 45c49 170 90 327 183 488c49 86 114 171 177 171c30 0 57 -25 57 -71c0 -111 -150 -269 -259 -335
c-28 -63 -48 -113 -48 -117c0 -3 2 -1 3 1c61 89 110 121 147 121c32 0 56 -23 56 -55c0 -39 -32 -110 -32 -140c0 -9 3 -15 10 -15c17 0 55 29 84 59zM245 511c-25 -41 -52 -94 -77 -147c39 33 78 77 109 119c55 77 69 132 53 132c-15 0 -47 -41 -85 -104z" />
    <glyph glyph-name="i" unicode="i" horiz-adv-x="219" 
d="M156 343c-18 0 -35 5 -41 11c-11 10 -4 56 14 71c21 17 77 -20 77 -49c0 -19 -21 -33 -50 -33zM77 20c-29 0 -78 16 -78 73c0 29 10 68 35 121c14 30 29 59 45 73c27 24 95 15 86 -10c-7 -19 -38 -59 -60 -97c-19 -34 -32 -66 -32 -88c0 -17 8 -27 27 -27
c42 0 91 38 119 70l6 6c4 4 26 0 17 -11l-8 -10c-44 -49 -89 -100 -157 -100z" />
    <glyph glyph-name="dotlessi" unicode="&#x131;" horiz-adv-x="219" 
d="M77 20c-29 0 -78 16 -78 73c0 29 10 68 35 121c14 30 29 59 45 73c27 24 95 15 86 -10c-7 -19 -38 -59 -60 -97c-19 -34 -32 -66 -32 -88c0 -17 8 -27 27 -27c42 0 91 38 119 70l6 6c4 4 26 0 17 -11l-8 -10c-44 -49 -89 -100 -157 -100z" />
    <glyph glyph-name="iacute" unicode="&#xed;" horiz-adv-x="219" 
d="M123 389c10 0 27 8 35 14c34 20 69 43 103 63c14 8 21 15 21 23c0 14 -25 41 -41 41c-5 0 -10 -2 -16 -6c-33 -23 -59 -50 -89 -76c-9 -9 -17 -19 -20 -35c-1 -7 -2 -23 7 -24zM77 20c-29 0 -78 16 -78 73c0 29 10 68 35 121c14 30 29 59 45 73c27 24 95 15 86 -10
c-7 -19 -38 -59 -60 -97c-19 -34 -32 -66 -32 -88c0 -17 8 -27 27 -27c42 0 91 38 119 70l6 6c4 4 26 0 17 -11l-8 -10c-44 -49 -89 -100 -157 -100z" />
    <glyph glyph-name="icircumflex" unicode="&#xee;" horiz-adv-x="219" 
d="M42 413c-3 -7 -9 -24 4 -24c15 0 94 45 132 64c37 -26 78 -64 100 -64c10 1 14 17 14 24c0 14 -5 26 -12 35c-24 28 -66 84 -80 84c-15 0 -95 -62 -128 -84c-11 -9 -22 -19 -30 -35zM77 20c-29 0 -78 16 -78 73c0 29 10 68 35 121c14 30 29 59 45 73c27 24 95 15 86 -10
c-7 -19 -38 -59 -60 -97c-19 -34 -32 -66 -32 -88c0 -17 8 -27 27 -27c42 0 91 38 119 70l6 6c4 4 26 0 17 -11l-8 -10c-44 -49 -89 -100 -157 -100z" />
    <glyph glyph-name="idieresis" unicode="&#xef;" horiz-adv-x="219" 
d="M102 429c29 0 60 20 60 47c0 9 -3 19 -9 27c-11 13 -26 34 -42 34c-19 0 -51 -26 -51 -59c0 -20 14 -49 42 -49zM250 429c29 0 60 20 60 47c0 9 -3 19 -9 27c-11 13 -26 34 -42 34c-19 0 -51 -26 -51 -59c0 -20 14 -49 42 -49zM77 20c-29 0 -78 16 -78 73
c0 29 10 68 35 121c14 30 29 59 45 73c27 24 95 15 86 -10c-7 -19 -38 -59 -60 -97c-19 -34 -32 -66 -32 -88c0 -17 8 -27 27 -27c42 0 91 38 119 70l6 6c4 4 26 0 17 -11l-8 -10c-44 -49 -89 -100 -157 -100z" />
    <glyph glyph-name="igrave" unicode="&#xec;" horiz-adv-x="219" 
d="M166 387c9 1 8 17 7 24c-3 16 -11 26 -20 35c-30 26 -56 53 -89 76c-6 4 -11 6 -16 6c-16 0 -41 -27 -41 -41c0 -8 7 -15 21 -23c34 -20 69 -43 103 -63c8 -6 25 -14 35 -14zM77 20c-29 0 -78 16 -78 73c0 29 10 68 35 121c14 30 29 59 45 73c27 24 95 15 86 -10
c-7 -19 -38 -59 -60 -97c-19 -34 -32 -66 -32 -88c0 -17 8 -27 27 -27c42 0 91 38 119 70l6 6c4 4 26 0 17 -11l-8 -10c-44 -49 -89 -100 -157 -100z" />
    <glyph glyph-name="imacron" unicode="&#x12b;" horiz-adv-x="219" 
d="M295 453c1 41 -56 37 -95 38c-44 1 -93 0 -129 -6c-28 -6 -48 -10 -48 -29c0 -4 -2 -14 4 -19c3 -3 19 -3 27 -3c60 3 107 5 227 -2c11 0 14 4 14 21zM77 20c-29 0 -78 16 -78 73c0 29 10 68 35 121c14 30 29 59 45 73c27 24 95 15 86 -10c-7 -19 -38 -59 -60 -97
c-19 -34 -32 -66 -32 -88c0 -17 8 -27 27 -27c42 0 91 38 119 70l6 6c4 4 26 0 17 -11l-8 -10c-44 -49 -89 -100 -157 -100z" />
    <glyph glyph-name="iogonek" unicode="&#x12f;" horiz-adv-x="219" 
d="M158 429c-28 0 -42 29 -42 49c0 33 32 59 51 59c16 0 31 -21 42 -34c6 -8 9 -18 9 -27c0 -27 -31 -47 -60 -47zM225 141c4 4 26 0 17 -11l-8 -10c-38 -43 -77 -87 -131 -97c-4 -2 -9 -3 -13 -5c-60 -28 -73 -70 -76 -94c-2 -15 8 -17 19 -17c26 0 55 13 72 19
c7 3 13 1 13 -8c0 -34 -57 -53 -94 -53c-39 0 -68 17 -68 62c0 41 36 82 76 105c-18 11 -33 30 -33 61c0 29 10 68 35 121c14 30 29 59 45 73c27 24 95 15 86 -10c-7 -19 -38 -59 -60 -97c-19 -34 -32 -66 -32 -88c0 -17 8 -27 27 -27c42 0 91 38 119 70z" />
    <glyph glyph-name="j" unicode="j" horiz-adv-x="192" 
d="M183 538c21 0 49 -28 49 -51s-40 -72 -73 -72c-9 0 -17 1 -28 6c-3 1 -5 4 -3 9c11 28 15 54 24 81c4 12 9 27 31 27zM119 348c28 0 52 -26 52 -44c0 -48 -80 -234 -109 -292c47 0 80 -11 103 -30c9 -7 -9 -21 -21 -15c-15 7 -35 12 -46 12c-12 0 -28 1 -43 -4
c-10 -13 -14 -21 -28 -50c-43 -87 -98 -142 -177 -142c-31 0 -70 17 -70 57c0 59 101 129 177 163c24 8 24 14 35 33c21 37 37 80 52 122c-7 -10 -13 -18 -17 -23l-4 -5c-8 -10 -27 -25 -39 -32c-10 -5 -17 -3 -18 5c11 10 24 21 32 30l3 3c44 49 82 150 96 187
c7 18 6 25 22 25zM-34 -43c3 9 0 8 -6 5c-31 -20 -80 -56 -117 -105c-9 -12 -13 -20 6 -20c46 2 102 81 117 120z" />
    <glyph glyph-name="uni0237" unicode="&#x237;" horiz-adv-x="131" 
d="M165 -18c9 -7 -9 -21 -21 -15c-15 7 -35 12 -46 12c-12 0 -28 1 -43 -4c-11 -8 -14 -21 -28 -50c-43 -87 -98 -142 -177 -142c-31 0 -70 17 -70 57c0 59 101 129 177 163c24 8 24 14 35 33c21 37 37 80 52 122c-7 -10 -13 -18 -17 -23l-4 -5c-8 -10 -27 -25 -39 -32
c-10 -5 -17 -3 -18 5c11 10 24 21 32 30l3 3c38 42 82 150 96 187c7 18 6 25 22 25c28 0 52 -26 52 -44c0 -48 -80 -234 -109 -292c47 0 80 -11 103 -30zM-34 -43c3 9 0 8 -6 5c-31 -20 -80 -56 -117 -105c-9 -12 -13 -20 6 -20c46 2 102 81 117 120z" />
    <glyph glyph-name="k" unicode="k" horiz-adv-x="321" 
d="M24 2c-7 -6 -67 3 -46 65c170 464 241 579 240 634c0 12 77 14 77 -35c0 -19 -7 -42 -20 -69c-29 -65 -98 -210 -145 -317c-17 -39 -21 -47 -18 -47c13 0 110 50 133 108c6 15 63 -17 63 -47c0 -27 -36 -52 -74 -69c-32 -15 -64 -28 -92 -33c19 -66 52 -108 93 -108
c26 0 49 14 86 51l6 6c4 4 26 0 17 -11l-8 -10c-49 -62 -98 -81 -136 -81c-59 0 -100 53 -118 108c-15 -32 -39 -89 -51 -129c-2 -7 -4 -14 -7 -16z" />
    <glyph glyph-name="kcommaaccent" unicode="&#x137;" horiz-adv-x="321" 
d="M24 2c-7 -6 -67 3 -46 65c170 464 241 579 240 634c0 12 77 14 77 -35c0 -19 -7 -42 -20 -69c-29 -65 -98 -210 -145 -317c-17 -39 -21 -47 -18 -47c13 0 110 50 133 108c6 15 63 -17 63 -47c0 -27 -36 -52 -74 -69c-32 -15 -64 -28 -92 -33c19 -66 52 -108 93 -108
c26 0 49 14 86 51l6 6c4 4 26 0 17 -11l-8 -10c-49 -62 -98 -81 -136 -81c-59 0 -100 53 -118 108c-15 -32 -39 -89 -51 -129c-2 -7 -4 -14 -7 -16zM6 -203c9 -8 16 -12 23 -12c17 0 69 47 88 71c17 22 32 45 32 64c0 34 -18 64 -53 64c-31 0 -60 -17 -60 -51
c0 -10 4 -21 11 -32c7 -9 11 -19 7 -29c-10 -25 -24 -38 -43 -60c-6 -6 -9 -10 -5 -15z" />
    <glyph glyph-name="l" unicode="l" horiz-adv-x="234" 
d="M72 -8c-45 0 -76 38 -76 114c0 63 22 152 74 268c44 94 152 303 256 303c28 0 47 -20 47 -57c0 -88 -136 -302 -253 -371c-14 -24 -38 -105 -38 -156c0 -27 6 -46 24 -46c35 0 95 55 128 88l6 6c4 4 26 0 17 -11l-8 -10c-42 -52 -111 -128 -177 -128zM139 321
c32 24 94 111 139 186c35 59 55 107 46 107c-7 0 -27 -22 -65 -80c-75 -112 -120 -212 -120 -213z" />
    <glyph glyph-name="lacute" unicode="&#x13a;" horiz-adv-x="234" 
d="M322 706c10 0 27 8 35 14c34 20 69 43 103 63c14 8 21 15 21 23c0 14 -25 41 -41 41c-5 0 -10 -2 -16 -6c-33 -23 -59 -50 -89 -76c-9 -9 -17 -19 -20 -35c-1 -7 -2 -23 7 -24zM72 -8c-45 0 -76 38 -76 114c0 63 22 152 74 268c44 94 152 303 256 303c28 0 47 -20 47 -57
c0 -88 -136 -302 -253 -371c-14 -24 -38 -105 -38 -156c0 -27 6 -46 24 -46c35 0 95 55 128 88l6 6c4 4 26 0 17 -11l-8 -10c-42 -52 -111 -128 -177 -128zM139 321c32 24 94 111 139 186c35 59 55 107 46 107c-7 0 -27 -22 -65 -80c-75 -112 -120 -212 -120 -213z" />
    <glyph glyph-name="lcaron" unicode="&#x13e;" horiz-adv-x="234" 
d="M318 706c12 0 63 91 83 129c9 11 12 22 9 28c-6 14 -37 28 -50 22c-5 -3 -8 -7 -10 -13c-19 -35 -30 -70 -44 -108c-4 -10 -6 -24 -3 -40c2 -7 4 -18 15 -18zM72 -8c-45 0 -76 38 -76 114c0 63 22 152 74 268c44 94 152 303 256 303c28 0 47 -20 47 -57
c0 -88 -136 -302 -253 -371c-14 -24 -38 -105 -38 -156c0 -27 6 -46 24 -46c35 0 95 55 128 88l6 6c4 4 26 0 17 -11l-8 -10c-42 -52 -111 -128 -177 -128zM139 321c32 24 94 111 139 186c35 59 55 107 46 107c-7 0 -27 -22 -65 -80c-75 -112 -120 -212 -120 -213z" />
    <glyph glyph-name="lcommaaccent" unicode="&#x13c;" horiz-adv-x="234" 
d="M72 -8c-45 0 -76 38 -76 114c0 63 22 152 74 268c44 94 152 303 256 303c28 0 47 -20 47 -57c0 -88 -136 -302 -253 -371c-14 -24 -38 -105 -38 -156c0 -27 6 -46 24 -46c35 0 95 55 128 88l6 6c4 4 26 0 17 -11l-8 -10c-42 -52 -111 -128 -177 -128zM139 321
c32 24 94 111 139 186c35 59 55 107 46 107c-7 0 -27 -22 -65 -80c-75 -112 -120 -212 -120 -213zM-7 -224c9 -8 16 -12 23 -12c17 0 69 47 88 71c17 22 32 45 32 64c0 34 -18 64 -53 64c-31 0 -60 -17 -60 -51c0 -10 4 -21 11 -32c7 -9 11 -19 7 -29
c-10 -25 -24 -38 -43 -60c-6 -6 -9 -10 -5 -15z" />
    <glyph glyph-name="lslash" unicode="&#x142;" horiz-adv-x="234" 
d="M369 557c29 7 54 0 54 -20c0 -9 -8 -10 -17 -12c-8 -2 -36 -10 -71 -21c-48 -96 -136 -208 -215 -255c-14 -24 -38 -105 -38 -156c0 -27 6 -46 24 -46c35 0 95 55 128 88l6 6c4 4 26 0 17 -11l-8 -10c-42 -52 -111 -128 -177 -128c-45 0 -76 38 -76 114
c0 63 22 152 74 268c7 15 15 32 25 52c-9 -3 -18 -5 -24 -5c-13 0 -16 17 -13 20c8 5 30 14 59 26c54 97 132 210 209 210c28 0 47 -20 47 -57c0 -18 -5 -40 -15 -66c5 1 9 3 11 3zM259 534c-4 -6 -8 -12 -12 -19l45 17c26 47 40 82 32 82c-7 0 -27 -22 -65 -80zM139 321
c28 21 80 91 122 159l-46 -15c-48 -81 -76 -143 -76 -144z" />
    <glyph glyph-name="m" unicode="m" horiz-adv-x="538" 
d="M19 30c-9 0 -18 6 -25 19c-6 11 -9 20 -9 28c0 13 6 26 16 52c18 51 44 132 57 179c2 6 9 10 19 10c22 0 51 -15 51 -42c0 -14 -17 -61 -28 -86c-8 -17 -5 -13 6 -2c65 64 110 113 145 113c27 0 58 -20 58 -47c0 -13 -11 -49 -23 -80c-13 -37 -18 -48 -18 -51
c0 -14 118 119 146 119c27 0 55 -21 55 -45c0 -23 -23 -91 -23 -110c0 -6 2 -11 9 -11c13 0 50 23 83 59l6 6c4 4 26 0 17 -11l-8 -10c-32 -40 -83 -90 -135 -90c-28 0 -50 16 -50 49c0 22 9 52 16 69c2 7 4 12 4 14s0 2 -1 2c-2 0 -7 -3 -17 -11
c-40 -31 -115 -115 -134 -115c-24 0 -54 26 -54 53c0 32 39 117 39 132c0 2 0 2 -1 2c-12 0 -171 -195 -201 -195z" />
    <glyph glyph-name="n" unicode="n" horiz-adv-x="366" 
d="M230 18c-30 0 -51 23 -51 54c0 26 12 62 28 91c2 4 1 6 -2 5c-38 -13 -164 -146 -189 -146c-15 0 -46 22 -46 40c0 4 32 78 59 147c14 35 25 66 32 87c8 28 3 34 12 37c3 1 62 7 62 -46c0 -41 -34 -99 -56 -136c-8 -12 -2 -10 15 6c41 36 128 102 171 102
c20 0 45 -28 45 -50c0 -24 -70 -136 -40 -136c17 0 76 40 96 62l6 6c4 4 26 0 17 -11l-8 -10c-59 -66 -105 -102 -151 -102z" />
    <glyph glyph-name="nacute" unicode="&#x144;" horiz-adv-x="366" 
d="M199 339c10 0 27 8 35 14c34 20 69 43 103 63c14 8 21 15 21 23c0 14 -25 41 -41 41c-5 0 -10 -2 -16 -6c-33 -23 -59 -50 -89 -76c-9 -9 -17 -19 -20 -35c-1 -7 -2 -23 7 -24zM230 18c-30 0 -51 23 -51 54c0 26 12 62 28 91c2 4 1 6 -2 5c-38 -13 -164 -146 -189 -146
c-15 0 -46 22 -46 40c0 4 32 78 59 147c14 35 25 66 32 87c8 28 3 34 12 37c3 1 62 7 62 -46c0 -41 -34 -99 -56 -136c-8 -12 -2 -10 15 6c41 36 128 102 171 102c20 0 45 -28 45 -50c0 -24 -70 -136 -40 -136c17 0 76 40 96 62l6 6c4 4 26 0 17 -11l-8 -10
c-59 -66 -105 -102 -151 -102z" />
    <glyph glyph-name="ncaron" unicode="&#x148;" horiz-adv-x="366" 
d="M363 458c4 7 9 24 -2 24s-27 -8 -36 -13c-33 -17 -65 -35 -98 -51c-22 16 -45 34 -67 51c-7 5 -22 13 -33 13c-9 -1 -13 -17 -13 -24c0 -13 4 -26 12 -34c24 -29 67 -85 81 -85c12 0 96 63 127 85c10 8 22 19 29 34zM230 18c-30 0 -51 23 -51 54c0 26 12 62 28 91
c2 4 1 6 -2 5c-38 -13 -164 -146 -189 -146c-15 0 -46 22 -46 40c0 4 32 78 59 147c14 35 25 66 32 87c8 28 3 34 12 37c3 1 62 7 62 -46c0 -41 -34 -99 -56 -136c-8 -12 -2 -10 15 6c41 36 128 102 171 102c20 0 45 -28 45 -50c0 -24 -70 -136 -40 -136c17 0 76 40 96 62
l6 6c4 4 26 0 17 -11l-8 -10c-59 -66 -105 -102 -151 -102z" />
    <glyph glyph-name="ncommaaccent" unicode="&#x146;" horiz-adv-x="366" 
d="M230 18c-30 0 -51 23 -51 54c0 26 12 62 28 91c2 4 1 6 -2 5c-38 -13 -164 -146 -189 -146c-15 0 -46 22 -46 40c0 4 32 78 59 147c14 35 25 66 32 87c8 28 3 34 12 37c3 1 62 7 62 -46c0 -41 -34 -99 -56 -136c-8 -12 -2 -10 15 6c41 36 128 102 171 102
c20 0 45 -28 45 -50c0 -24 -70 -136 -40 -136c17 0 76 40 96 62l6 6c4 4 26 0 17 -11l-8 -10c-59 -66 -105 -102 -151 -102zM19 -189c9 -8 16 -12 23 -12c17 0 69 47 88 71c17 22 32 45 32 64c0 34 -18 64 -53 64c-31 0 -60 -17 -60 -51c0 -10 4 -21 11 -32
c7 -9 11 -19 7 -29c-10 -25 -24 -38 -43 -60c-6 -6 -9 -10 -5 -15z" />
    <glyph glyph-name="eng" unicode="&#x14b;" horiz-adv-x="322" 
d="M-38 -355c-41 0 -71 17 -71 54c0 64 100 131 177 166c24 8 25 14 35 33c33 66 95 243 100 257c3 8 1 10 -2 9c-38 -13 -160 -142 -185 -142c-15 0 -46 22 -46 40c0 4 32 78 59 147c14 35 25 66 32 87c8 28 2 34 11 37c2 0 63 7 63 -46c0 -41 -34 -99 -56 -136
c-8 -12 -2 -10 15 6c41 36 128 102 171 102c20 0 45 -28 45 -50c0 -20 -124 -305 -137 -335c47 0 80 -11 103 -30c3 -6 -9 -21 -21 -15c-40 19 -84 11 -94 8c-14 -29 -83 -192 -199 -192zM-40 -301c46 2 102 81 117 120c1 4 2 7 -1 7c-7 0 -59 -37 -90 -65
c-34 -32 -54 -62 -26 -62z" />
    <glyph glyph-name="ntilde" unicode="&#xf1;" horiz-adv-x="366" 
d="M124 388c7 0 14 3 23 11c18 16 28 24 51 25c23 0 50 -52 92 -52c44 0 96 54 96 89c-3 20 -8 21 -20 13c-24 -16 -57 -42 -74 -42c-24 0 -52 49 -91 49s-74 -31 -96 -57c-7 -9 4 -36 19 -36zM230 18c-30 0 -51 23 -51 54c0 26 12 62 28 91c2 4 1 6 -2 5
c-38 -13 -164 -146 -189 -146c-15 0 -46 22 -46 40c0 4 32 78 59 147c14 35 25 66 32 87c8 28 3 34 12 37c3 1 62 7 62 -46c0 -41 -34 -99 -56 -136c-8 -12 -2 -10 15 6c41 36 128 102 171 102c20 0 45 -28 45 -50c0 -24 -70 -136 -40 -136c17 0 76 40 96 62l6 6
c4 4 26 0 17 -11l-8 -10c-59 -66 -105 -102 -151 -102z" />
    <glyph glyph-name="o" unicode="o" horiz-adv-x="298" 
d="M304 141c4 4 26 0 17 -11l-8 -10c-28 -35 -68 -64 -129 -61c-30 -33 -67 -57 -105 -57c-54 0 -83 41 -83 99c0 109 109 251 194 251c32 0 53 -20 53 -51c0 -24 -8 -15 -30 -21c-82 -26 -144 -152 -144 -206c0 -15 3 -27 14 -27c27 0 77 62 87 98c-28 61 13 120 49 120
c18 0 35 -16 35 -52c0 -37 -19 -85 -47 -126c35 -2 64 21 91 48z" />
    <glyph glyph-name="oacute" unicode="&#xf3;" horiz-adv-x="298" 
d="M290 530c16 0 41 -27 41 -41c0 -8 -7 -15 -21 -23c-34 -20 -69 -43 -103 -63c-8 -6 -25 -14 -35 -14c-9 1 -8 17 -7 24c3 16 11 26 20 35c30 26 56 53 89 76c6 4 11 6 16 6zM304 141c4 4 26 0 17 -11l-8 -10c-28 -35 -68 -64 -129 -61c-30 -33 -67 -57 -105 -57
c-54 0 -83 41 -83 99c0 109 109 251 194 251c32 0 53 -20 53 -51c0 -24 -8 -15 -30 -21c-82 -26 -144 -152 -144 -206c0 -15 3 -27 14 -27c27 0 77 62 87 98c-28 61 13 120 49 120c18 0 35 -16 35 -52c0 -37 -19 -85 -47 -126c35 -2 64 21 91 48z" />
    <glyph glyph-name="ocircumflex" unicode="&#xf4;" horiz-adv-x="298" 
d="M329 448c7 -9 12 -21 12 -35c0 -7 -4 -23 -14 -24c-22 0 -63 38 -100 64c-38 -19 -117 -64 -132 -64c-13 0 -7 17 -4 24c8 16 19 26 30 35c33 22 113 84 128 84c14 0 56 -56 80 -84zM304 141c4 4 26 0 17 -11l-8 -10c-28 -35 -68 -64 -129 -61c-30 -33 -67 -57 -105 -57
c-54 0 -83 41 -83 99c0 109 109 251 194 251c32 0 53 -20 53 -51c0 -24 -8 -15 -30 -21c-82 -26 -144 -152 -144 -206c0 -15 3 -27 14 -27c27 0 77 62 87 98c-28 61 13 120 49 120c18 0 35 -16 35 -52c0 -37 -19 -85 -47 -126c35 -2 64 21 91 48z" />
    <glyph glyph-name="odieresis" unicode="&#xf6;" horiz-adv-x="298" 
d="M151 429c-28 0 -42 29 -42 49c0 33 32 59 51 59c16 0 31 -21 42 -34c6 -8 9 -18 9 -27c0 -27 -31 -47 -60 -47zM350 503c6 -8 9 -18 9 -27c0 -27 -31 -47 -60 -47c-28 0 -42 29 -42 49c0 33 32 59 51 59c16 0 31 -21 42 -34zM304 141c4 4 26 0 17 -11l-8 -10
c-28 -35 -68 -64 -129 -61c-30 -33 -67 -57 -105 -57c-54 0 -83 41 -83 99c0 109 109 251 194 251c32 0 53 -20 53 -51c0 -24 -8 -15 -30 -21c-82 -26 -144 -152 -144 -206c0 -15 3 -27 14 -27c27 0 77 62 87 98c-28 61 13 120 49 120c18 0 35 -16 35 -52
c0 -37 -19 -85 -47 -126c35 -2 64 21 91 48z" />
    <glyph glyph-name="ograve" unicode="&#xf2;" horiz-adv-x="298" 
d="M77 464c-14 8 -21 15 -21 23c0 14 25 41 41 41c5 0 10 -2 16 -6c33 -23 59 -50 89 -76c9 -9 17 -19 20 -35c1 -7 2 -23 -7 -24c-10 0 -27 8 -35 14c-34 20 -69 43 -103 63zM304 141c4 4 26 0 17 -11l-8 -10c-28 -35 -68 -64 -129 -61c-30 -33 -67 -57 -105 -57
c-54 0 -83 41 -83 99c0 109 109 251 194 251c32 0 53 -20 53 -51c0 -24 -8 -15 -30 -21c-82 -26 -144 -152 -144 -206c0 -15 3 -27 14 -27c27 0 77 62 87 98c-28 61 13 120 49 120c18 0 35 -16 35 -52c0 -37 -19 -85 -47 -126c35 -2 64 21 91 48z" />
    <glyph glyph-name="ohungarumlaut" unicode="&#x151;" horiz-adv-x="298" 
d="M99 379c-9 0 -10 16 -10 23c1 16 8 27 16 37c26 30 49 60 79 86c5 5 10 8 15 8c16 2 44 -22 46 -35c1 -8 -5 -16 -18 -26c-32 -24 -64 -51 -95 -75c-7 -7 -23 -17 -33 -18zM389 495c1 -8 -5 -16 -19 -25c-32 -23 -65 -49 -97 -72c-7 -7 -23 -17 -33 -17
c-9 0 -10 16 -10 23c2 16 9 27 18 36c26 30 50 59 81 84c5 5 10 8 15 8c16 1 44 -24 45 -37zM304 141c4 4 26 0 17 -11l-8 -10c-28 -35 -68 -64 -129 -61c-30 -33 -67 -57 -105 -57c-54 0 -83 41 -83 99c0 109 109 251 194 251c32 0 53 -20 53 -51c0 -24 -8 -15 -30 -21
c-82 -26 -144 -152 -144 -206c0 -15 3 -27 14 -27c27 0 77 62 87 98c-28 61 13 120 49 120c18 0 35 -16 35 -52c0 -37 -19 -85 -47 -126c35 -2 64 21 91 48z" />
    <glyph glyph-name="omacron" unicode="&#x14d;" horiz-adv-x="298" 
d="M249 491c39 -1 96 3 95 -38c0 -17 -3 -21 -14 -21c-120 7 -167 5 -227 2c-8 0 -24 0 -27 3c-6 5 -4 15 -4 19c0 19 20 23 48 29c36 6 85 7 129 6zM304 141c4 4 26 0 17 -11l-8 -10c-28 -35 -68 -64 -129 -61c-30 -33 -67 -57 -105 -57c-54 0 -83 41 -83 99
c0 109 109 251 194 251c32 0 53 -20 53 -51c0 -24 -8 -15 -30 -21c-82 -26 -144 -152 -144 -206c0 -15 3 -27 14 -27c27 0 77 62 87 98c-28 61 13 120 49 120c18 0 35 -16 35 -52c0 -37 -19 -85 -47 -126c35 -2 64 21 91 48z" />
    <glyph glyph-name="oslash" unicode="&#xf8;" horiz-adv-x="404" 
d="M304 141c4 4 26 0 17 -11l-8 -10c-29 -36 -68 -64 -129 -61c-30 -33 -67 -57 -105 -57c-21 0 -38 6 -51 17c-8 -9 -16 -19 -27 -30c-5 -5 -17 -19 -22 -21c-7 -2 -6 -1 -7 2c-2 2 -5 12 -4 14c8 15 19 27 28 41c5 5 10 10 14 15c-9 17 -14 37 -14 61
c0 109 109 251 194 251c26 0 44 -13 51 -34c9 11 16 19 22 25c7 7 19 16 26 18c11 3 17 -3 19 -13l-8 -7c-17 -17 -27 -25 -43 -45c-4 -4 -14 -16 -28 -33c14 -5 25 -21 25 -50c0 -37 -19 -85 -48 -126c35 -2 64 20 92 48zM208 280c-65 -21 -118 -105 -137 -166
c63 76 106 129 137 166zM83 47c27 0 81 62 91 98c-6 13 -9 26 -10 39c-42 -53 -85 -106 -99 -122c2 -9 7 -15 18 -15z" />
    <glyph glyph-name="otilde" unicode="&#xf5;" horiz-adv-x="298" 
d="M339 524c12 8 17 7 20 -13c0 -35 -52 -89 -96 -89c-42 0 -69 52 -92 52c-23 -1 -33 -9 -51 -25c-9 -8 -16 -11 -23 -11c-15 0 -26 27 -19 36c22 26 57 57 96 57s67 -49 91 -49c17 0 50 26 74 42zM304 141c4 4 26 0 17 -11l-8 -10c-28 -35 -68 -64 -129 -61
c-30 -33 -67 -57 -105 -57c-54 0 -83 41 -83 99c0 109 109 251 194 251c32 0 53 -20 53 -51c0 -24 -8 -15 -30 -21c-82 -26 -144 -152 -144 -206c0 -15 3 -27 14 -27c27 0 77 62 87 98c-28 61 13 120 49 120c18 0 35 -16 35 -52c0 -37 -19 -85 -47 -126c35 -2 64 21 91 48z
" />
    <glyph glyph-name="oe" unicode="&#x153;" horiz-adv-x="425" 
d="M431 141c4 4 26 0 17 -11l-8 -10c-29 -33 -82 -100 -171 -100c-42 0 -71 15 -88 40c-29 -33 -65 -57 -102 -57c-101 0 -99 118 -51 214c38 77 105 136 161 136c33 0 51 -26 51 -52c0 -24 -8 -15 -30 -21c-67 -21 -149 -152 -149 -204c0 -14 6 -22 18 -22
c24 0 67 42 83 78c5 94 94 192 169 192c41 0 69 -23 69 -56c0 -28 -20 -63 -66 -97c-31 -23 -63 -40 -97 -44c0 -35 18 -62 56 -62c46 0 99 35 132 70zM332 269c-24 0 -72 -48 -89 -103c60 24 100 72 100 93c0 7 -4 10 -11 10z" />
    <glyph glyph-name="p" unicode="p" horiz-adv-x="350" 
d="M356 141c4 4 26 0 17 -11l-8 -10c-41 -51 -85 -74 -145 -74c-7 0 -15 1 -24 2c-14 -11 -29 -20 -44 -26c-18 -8 -36 -12 -51 -12c-66 0 -70 78 20 78c12 0 22 0 32 -1c14 20 29 45 41 70c26 55 40 109 15 109c-28 0 -92 -61 -142 -160c-53 -107 -92 -244 -104 -291
c-2 -8 -4 -18 -5 -24c-1 -8 -32 -9 -50 6c-14 12 -17 24 7 103c11 36 28 85 52 155c24 62 118 318 122 371c1 14 62 10 62 -32c0 -25 -17 -68 -53 -158c-1 -3 -1 -5 1 -2c57 71 105 90 140 90c45 0 70 -39 70 -83c0 -55 -32 -115 -76 -161c48 0 73 11 117 55zM101 43
c8 0 19 7 30 18c-8 1 -15 2 -19 2c-28 0 -30 -20 -11 -20z" />
    <glyph glyph-name="thorn" unicode="&#xfe;" horiz-adv-x="350" 
d="M356 141c4 4 26 0 17 -11l-8 -10c-41 -51 -85 -74 -145 -74c-7 0 -15 1 -24 2c-14 -11 -29 -20 -44 -26c-18 -8 -36 -12 -51 -12c-66 0 -70 78 20 78c12 0 22 0 32 -1c14 20 29 45 41 70c26 55 40 109 15 109c-28 0 -92 -61 -142 -160c-53 -107 -92 -244 -104 -291
c-2 -8 -4 -18 -5 -24c-1 -8 -32 -9 -50 6c-14 12 -17 24 7 103c11 36 28 85 52 155c24 62 181 514 185 571c1 14 62 10 62 -32c0 -25 -80 -268 -116 -358c-1 -3 -1 -5 1 -2c57 71 105 90 140 90c45 0 70 -39 70 -83c0 -55 -32 -115 -76 -161c48 0 73 11 117 55zM101 43
c8 0 19 7 30 18c-8 1 -15 2 -19 2c-28 0 -30 -20 -11 -20z" />
    <glyph glyph-name="q" unicode="q" horiz-adv-x="358" 
d="M55 -210c-14 0 -33 13 -32 33c8 50 105 257 148 329c7 11 7 15 -8 6c-31 -18 -93 -57 -114 -57c-16 0 -52 18 -52 49c0 96 146 221 230 221c46 0 85 -38 91 -75c1 -7 -19 -16 -30 -6c-15 13 -19 21 -43 21c-50 0 -205 -152 -172 -152c21 0 101 61 132 84
c12 9 24 17 42 17c17 0 55 -8 47 -33c-6 -18 -50 -92 -69 -129c12 -10 25 -14 38 -14c32 0 67 23 95 51l6 6c4 4 26 0 17 -11l-8 -10c-22 -28 -65 -66 -108 -66c-13 0 -31 4 -43 12c-3 2 -10 7 -8 -1c18 -113 -64 -275 -159 -275zM104 -127c-14 -28 26 6 57 73
c28 59 28 114 15 88c-24 -49 -43 -88 -72 -161z" />
    <glyph glyph-name="r" unicode="r" horiz-adv-x="304" 
d="M310 141c3 3 27 1 17 -11l-8 -10c-30 -38 -94 -96 -158 -96c-47 0 -81 31 -81 76c0 75 80 150 80 185c0 13 -11 21 -28 34c-33 -69 -60 -129 -105 -184l-4 -5c-8 -10 -27 -25 -39 -32c-10 -5 -17 -3 -18 5c11 9 24 21 32 30l3 3c47 54 77 125 107 202l-2 2
c-24 21 -20 61 -3 91c13 24 34 42 54 42c24 0 44 -19 44 -28c0 -13 -48 -54 -48 -69c0 -23 97 -45 97 -96c0 -57 -87 -131 -87 -179c0 -19 11 -28 29 -28c40 0 74 24 112 62z" />
    <glyph glyph-name="racute" unicode="&#x155;" horiz-adv-x="304" 
d="M355 577c16 0 41 -27 41 -41c0 -8 -7 -15 -21 -23c-34 -20 -69 -43 -103 -63c-8 -6 -25 -14 -35 -14c-9 1 -8 17 -7 24c3 16 11 26 20 35c30 26 56 53 89 76c6 4 11 6 16 6zM310 141c3 3 27 1 17 -11l-8 -10c-30 -38 -94 -96 -158 -96c-47 0 -81 31 -81 76
c0 75 80 150 80 185c0 13 -11 21 -28 34c-33 -69 -60 -129 -105 -184l-4 -5c-8 -10 -27 -25 -39 -32c-10 -5 -17 -3 -18 5c11 9 24 21 32 30l3 3c47 54 77 125 107 202l-2 2c-24 21 -20 61 -3 91c13 24 34 42 54 42c24 0 44 -19 44 -28c0 -13 -48 -54 -48 -69
c0 -23 97 -45 97 -96c0 -57 -87 -131 -87 -179c0 -19 11 -28 29 -28c40 0 74 24 112 62z" />
    <glyph glyph-name="rcaron" unicode="&#x159;" horiz-adv-x="304" 
d="M399 579c11 0 6 -17 2 -24c-7 -15 -19 -26 -29 -34c-31 -22 -115 -85 -127 -85c-14 0 -57 56 -81 85c-8 8 -12 21 -12 34c0 7 4 23 13 24c11 0 26 -8 33 -13c22 -17 45 -35 67 -51c33 16 65 34 98 51c9 5 25 13 36 13zM310 141c3 3 27 1 17 -11l-8 -10
c-30 -38 -94 -96 -158 -96c-47 0 -81 31 -81 76c0 75 80 150 80 185c0 13 -11 21 -28 34c-33 -69 -60 -129 -105 -184l-4 -5c-8 -10 -27 -25 -39 -32c-10 -5 -17 -3 -18 5c11 9 24 21 32 30l3 3c47 54 77 125 107 202l-2 2c-24 21 -20 61 -3 91c13 24 34 42 54 42
c24 0 44 -19 44 -28c0 -13 -48 -54 -48 -69c0 -23 97 -45 97 -96c0 -57 -87 -131 -87 -179c0 -19 11 -28 29 -28c40 0 74 24 112 62z" />
    <glyph glyph-name="rcommaaccent" unicode="&#x157;" horiz-adv-x="304" 
d="M310 141c3 3 27 1 17 -11l-8 -10c-30 -38 -94 -96 -158 -96c-47 0 -81 31 -81 76c0 75 80 150 80 185c0 13 -11 21 -28 34c-33 -69 -60 -129 -105 -184l-4 -5c-8 -10 -27 -25 -39 -32c-10 -5 -17 -3 -18 5c11 9 24 21 32 30l3 3c47 54 77 125 107 202l-2 2
c-24 21 -20 61 -3 91c13 24 34 42 54 42c24 0 44 -19 44 -28c0 -13 -48 -54 -48 -69c0 -23 97 -45 97 -96c0 -57 -87 -131 -87 -179c0 -19 11 -28 29 -28c40 0 74 24 112 62zM137 -17c35 0 53 -30 53 -64c0 -19 -15 -42 -32 -64c-19 -24 -71 -71 -88 -71c-7 0 -14 4 -23 12
c-4 5 -1 9 5 15c19 22 33 35 43 60c4 10 0 20 -7 29c-7 11 -11 22 -11 32c0 34 29 51 60 51z" />
    <glyph glyph-name="s" unicode="s" horiz-adv-x="300" 
d="M306 142c4 4 26 -1 17 -12l-6 -7c-60 -70 -147 -121 -236 -121c-78 0 -135 44 -135 110c0 20 20 48 48 48c11 0 16 -5 17 -13c40 50 60 99 99 163c33 54 61 72 83 72c40 0 58 -60 42 -64c-34 -9 -51 -20 -51 -37c0 -27 35 -63 35 -126c0 -35 -10 -70 -35 -98
c34 10 91 48 116 78zM65 56c34 0 71 33 71 114c0 33 -6 68 -18 98c-29 -46 -62 -113 -107 -152c1 -38 26 -60 54 -60z" />
    <glyph glyph-name="sacute" unicode="&#x15b;" horiz-adv-x="300" 
d="M318 574c16 0 41 -27 41 -41c0 -8 -7 -15 -21 -23c-34 -20 -69 -43 -103 -63c-8 -6 -25 -14 -35 -14c-9 1 -8 17 -7 24c3 16 11 26 20 35c30 26 56 53 89 76c6 4 11 6 16 6zM306 142c4 4 26 -1 17 -12l-6 -7c-60 -70 -147 -121 -236 -121c-78 0 -135 44 -135 110
c0 20 20 48 48 48c11 0 16 -5 17 -13c40 50 60 99 99 163c33 54 61 72 83 72c40 0 58 -60 42 -64c-34 -9 -51 -20 -51 -37c0 -27 35 -63 35 -126c0 -35 -10 -70 -35 -98c34 10 91 48 116 78zM65 56c34 0 71 33 71 114c0 33 -6 68 -18 98c-29 -46 -62 -113 -107 -152
c1 -38 26 -60 54 -60z" />
    <glyph glyph-name="scaron" unicode="&#x161;" horiz-adv-x="300" 
d="M362 576c11 0 6 -17 2 -24c-7 -15 -19 -26 -29 -34c-31 -22 -115 -85 -127 -85c-14 0 -57 56 -81 85c-8 8 -12 21 -12 34c0 7 4 23 13 24c11 0 26 -8 33 -13c22 -17 45 -35 67 -51c33 16 65 34 98 51c9 5 25 13 36 13zM306 142c4 4 26 -1 17 -12l-6 -7
c-60 -70 -147 -121 -236 -121c-78 0 -135 44 -135 110c0 20 20 48 48 48c11 0 16 -5 17 -13c40 50 60 99 99 163c33 54 61 72 83 72c40 0 58 -60 42 -64c-34 -9 -51 -20 -51 -37c0 -27 35 -63 35 -126c0 -35 -10 -70 -35 -98c34 10 91 48 116 78zM65 56c34 0 71 33 71 114
c0 33 -6 68 -18 98c-29 -46 -62 -113 -107 -152c1 -38 26 -60 54 -60z" />
    <glyph glyph-name="scedilla" unicode="&#x15f;" horiz-adv-x="300" 
d="M306 142c4 4 26 -1 17 -12l-6 -7c-51 -59 -121 -105 -195 -118c-8 -16 -17 -33 -24 -46c15 -3 29 -8 39 -16c21 -14 31 -36 31 -54c0 -50 -86 -83 -146 -83c-21 0 -36 7 -36 16c0 3 2 7 8 11c56 15 84 28 119 58c5 5 7 8 0 13c-8 6 -17 9 -28 9c-22 0 -28 -11 -37 -1
c-9 9 -14 15 -14 22c0 16 20 48 34 68c-71 5 -122 48 -122 110c0 20 20 48 48 48c11 0 16 -5 17 -13c40 50 60 99 99 163c33 54 61 72 83 72c40 0 58 -60 42 -64c-34 -9 -51 -20 -51 -37c0 -27 35 -63 35 -126c0 -35 -10 -70 -35 -98c34 10 91 48 116 78zM65 56
c34 0 71 33 71 114c0 33 -6 68 -18 98c-29 -46 -62 -113 -107 -152c1 -38 26 -60 54 -60z" />
    <glyph glyph-name="germandbls" unicode="&#xdf;" horiz-adv-x="415" 
d="M-33 -107c-30 6 -54 27 -38 61c13 32 32 87 45 121c45 115 86 232 130 346c45 122 112 272 229 272c62 0 99 -41 99 -86c0 -43 -35 -89 -79 -135l-23 -23c-8 -7 -10 -14 -3 -18c50 -31 99 -67 99 -114c0 -119 -168 -276 -294 -276c-20 0 -38 29 -38 46c0 5 4 7 12 8
c83 10 251 141 251 222c0 29 -57 51 -75 61c-44 23 -57 45 -51 60c5 12 10 10 29 28c44 43 96 101 96 146c0 35 -35 41 -82 -19c-33 -42 -61 -99 -104 -224c-56 -160 -124 -325 -153 -401c-8 -21 -34 -78 -50 -75z" />
    <glyph glyph-name="t" unicode="t" horiz-adv-x="224" 
d="M326 434c-48 -7 -87 -12 -119 -17c-60 -120 -130 -266 -130 -330c0 -25 11 -30 29 -30c31 0 80 40 118 78l6 6c4 4 26 0 17 -11l-8 -10c-13 -17 -94 -116 -172 -116c-41 0 -73 25 -73 78c0 69 63 204 120 322c-52 -7 -50 -7 -59 -7c-35 0 -43 15 -43 29c0 9 4 18 6 21
c4 8 7 5 18 4c26 -4 43 -5 98 -4c22 46 41 87 53 118c25 65 20 80 31 80c54 0 72 -20 72 -42c0 -24 -17 -52 -30 -78c-11 -22 -23 -48 -37 -75l86 2c23 -1 21 -11 17 -18z" />
    <glyph glyph-name="tbar" unicode="&#x167;" horiz-adv-x="224" 
d="M326 434c-48 -7 -87 -12 -119 -17l-35 -70h12c41 0 93 0 93 -26c0 -14 -4 -13 -14 -13c-40 2 -75 3 -108 3c-42 -91 -78 -178 -78 -224c0 -25 11 -30 29 -30c31 0 80 40 118 78l6 6c4 4 26 0 17 -11l-8 -10c-13 -17 -94 -116 -172 -116c-41 0 -73 25 -73 78
c0 51 35 139 76 229h-53c-16 0 -28 -1 -28 5c0 11 3 17 13 19c8 3 42 6 83 9c10 20 19 40 29 60c-52 -7 -50 -7 -59 -7c-35 0 -43 15 -43 29c0 9 4 18 6 21c4 8 7 5 18 4c26 -4 43 -5 98 -4c22 46 41 87 53 118c25 65 20 80 31 80c54 0 72 -20 72 -42c0 -24 -17 -52 -30 -78
c-11 -22 -23 -48 -37 -75l86 2c23 -1 21 -11 17 -18z" />
    <glyph glyph-name="tcaron" unicode="&#x165;" horiz-adv-x="224" 
d="M403 636c3 -6 -3 -21 -10 -32c-20 -38 -49 -94 -61 -94c-25 -1 -28 17 -18 44c14 38 19 56 32 91c2 6 5 10 10 13c13 6 41 -8 47 -22zM309 452c23 -1 21 -11 17 -18c-48 -7 -87 -12 -119 -17c-60 -120 -130 -266 -130 -330c0 -25 11 -30 29 -30c31 0 80 40 118 78l6 6
c4 4 26 0 17 -11l-8 -10c-13 -17 -94 -116 -172 -116c-41 0 -73 25 -73 78c0 69 63 204 120 322c-52 -7 -50 -7 -59 -7c-35 0 -43 15 -43 29c0 9 4 18 6 21c4 8 7 5 18 4c26 -4 43 -5 98 -4c22 46 41 87 53 118c25 65 20 80 31 80c54 0 72 -20 72 -42c0 -24 -17 -52 -30 -78
c-11 -22 -23 -48 -37 -75z" />
    <glyph glyph-name="uni0163" unicode="&#x163;" horiz-adv-x="224" 
d="M326 434c-48 -7 -87 -12 -119 -17c-60 -120 -130 -266 -130 -330c0 -25 11 -30 29 -30c31 0 80 40 118 78l6 6c4 4 26 0 17 -11l-8 -10c-12 -16 -86 -106 -160 -115c-7 -15 -15 -29 -21 -41c15 -3 29 -8 39 -16c21 -14 31 -36 31 -54c0 -50 -86 -83 -146 -83
c-21 0 -36 7 -36 16c0 3 2 7 8 11c56 15 84 28 119 58c5 5 7 8 0 13c-8 6 -17 9 -28 9c-22 0 -28 -11 -37 -1c-9 9 -14 15 -14 22c0 17 23 53 37 73c-22 11 -37 34 -37 70c0 69 63 204 120 322c-52 -7 -50 -7 -59 -7c-35 0 -43 15 -43 29c0 9 4 18 6 21c4 8 7 5 18 4
c26 -4 43 -5 98 -4c22 46 41 87 53 118c25 65 20 80 31 80c54 0 72 -20 72 -42c0 -24 -17 -52 -30 -78c-11 -22 -23 -48 -37 -75l86 2c23 -1 21 -11 17 -18z" />
    <glyph glyph-name="u" unicode="u" horiz-adv-x="365" 
d="M248 34c-42 0 -68 39 -53 96c1 2 -1 2 -2 1c-29 -25 -80 -77 -131 -77c-35 0 -61 23 -61 70c0 21 5 43 17 76c14 41 33 84 49 121s17 58 43 44c18 -9 44 -34 44 -55c0 -24 -17 -52 -35 -90c-23 -50 -46 -103 -24 -103c47 0 137 131 179 194c3 6 9 8 24 -2
c19 -13 33 -28 33 -40c0 -19 -25 -53 -48 -107c-18 -41 -24 -76 3 -76c20 0 68 36 79 49l6 6c4 4 26 0 17 -11l-8 -10c-32 -36 -84 -86 -132 -86z" />
    <glyph glyph-name="uacute" unicode="&#xfa;" horiz-adv-x="365" 
d="M215 395c10 0 27 8 35 14c34 20 69 43 103 63c14 8 21 15 21 23c0 14 -25 41 -41 41c-5 0 -10 -2 -16 -6c-33 -23 -59 -50 -89 -76c-9 -9 -17 -19 -20 -35c-1 -7 -2 -23 7 -24zM248 34c-42 0 -68 39 -53 96c1 2 -1 2 -2 1c-29 -25 -80 -77 -131 -77c-35 0 -61 23 -61 70
c0 21 5 43 17 76c14 41 33 84 49 121s17 58 43 44c18 -9 44 -34 44 -55c0 -24 -17 -52 -35 -90c-23 -50 -46 -103 -24 -103c47 0 137 131 179 194c3 6 9 8 24 -2c19 -13 33 -28 33 -40c0 -19 -25 -53 -48 -107c-18 -41 -24 -76 3 -76c20 0 68 36 79 49l6 6c4 4 26 0 17 -11
l-8 -10c-32 -36 -84 -86 -132 -86z" />
    <glyph glyph-name="ucircumflex" unicode="&#xfb;" horiz-adv-x="365" 
d="M134 419c-3 -7 -9 -24 4 -24c15 0 94 45 132 64c37 -26 78 -64 100 -64c10 1 14 17 14 24c0 14 -5 26 -12 35c-24 28 -66 84 -80 84c-15 0 -95 -62 -128 -84c-11 -9 -22 -19 -30 -35zM248 34c-42 0 -68 39 -53 96c1 2 -1 2 -2 1c-29 -25 -80 -77 -131 -77
c-35 0 -61 23 -61 70c0 21 5 43 17 76c14 41 33 84 49 121s17 58 43 44c18 -9 44 -34 44 -55c0 -24 -17 -52 -35 -90c-23 -50 -46 -103 -24 -103c47 0 137 131 179 194c3 6 9 8 24 -2c19 -13 33 -28 33 -40c0 -19 -25 -53 -48 -107c-18 -41 -24 -76 3 -76c20 0 68 36 79 49
l6 6c4 4 26 0 17 -11l-8 -10c-32 -36 -84 -86 -132 -86z" />
    <glyph glyph-name="udieresis" unicode="&#xfc;" horiz-adv-x="365" 
d="M194 435c29 0 60 20 60 47c0 9 -3 19 -9 27c-11 13 -26 34 -42 34c-19 0 -51 -26 -51 -59c0 -20 14 -49 42 -49zM342 435c29 0 60 20 60 47c0 9 -3 19 -9 27c-11 13 -26 34 -42 34c-19 0 -51 -26 -51 -59c0 -20 14 -49 42 -49zM248 34c-42 0 -68 39 -53 96c1 2 -1 2 -2 1
c-29 -25 -80 -77 -131 -77c-35 0 -61 23 -61 70c0 21 5 43 17 76c14 41 33 84 49 121s17 58 43 44c18 -9 44 -34 44 -55c0 -24 -17 -52 -35 -90c-23 -50 -46 -103 -24 -103c47 0 137 131 179 194c3 6 9 8 24 -2c19 -13 33 -28 33 -40c0 -19 -25 -53 -48 -107
c-18 -41 -24 -76 3 -76c20 0 68 36 79 49l6 6c4 4 26 0 17 -11l-8 -10c-32 -36 -84 -86 -132 -86z" />
    <glyph glyph-name="ugrave" unicode="&#xf9;" horiz-adv-x="365" 
d="M258 393c9 1 8 17 7 24c-3 16 -11 26 -20 35c-30 26 -56 53 -89 76c-6 4 -11 6 -16 6c-16 0 -41 -27 -41 -41c0 -8 7 -15 21 -23c34 -20 69 -43 103 -63c8 -6 25 -14 35 -14zM248 34c-42 0 -68 39 -53 96c1 2 -1 2 -2 1c-29 -25 -80 -77 -131 -77c-35 0 -61 23 -61 70
c0 21 5 43 17 76c14 41 33 84 49 121s17 58 43 44c18 -9 44 -34 44 -55c0 -24 -17 -52 -35 -90c-23 -50 -46 -103 -24 -103c47 0 137 131 179 194c3 6 9 8 24 -2c19 -13 33 -28 33 -40c0 -19 -25 -53 -48 -107c-18 -41 -24 -76 3 -76c20 0 68 36 79 49l6 6c4 4 26 0 17 -11
l-8 -10c-32 -36 -84 -86 -132 -86z" />
    <glyph glyph-name="uhungarumlaut" unicode="&#x171;" horiz-adv-x="365" 
d="M142 385c10 1 26 11 33 18c31 24 63 51 95 75c13 10 19 18 18 26c-2 13 -30 37 -46 35c-5 0 -10 -3 -15 -8c-30 -26 -53 -56 -79 -86c-8 -10 -15 -21 -16 -37c0 -7 1 -23 10 -23zM283 387c10 0 26 10 33 17c32 23 65 49 97 72c14 9 20 17 19 25c-1 13 -29 38 -45 37
c-5 0 -10 -3 -15 -8c-31 -25 -55 -54 -81 -84c-9 -9 -16 -20 -18 -36c0 -7 1 -23 10 -23zM248 34c-42 0 -68 39 -53 96c1 2 -1 2 -2 1c-29 -25 -80 -77 -131 -77c-35 0 -61 23 -61 70c0 21 5 43 17 76c14 41 33 84 49 121s17 58 43 44c18 -9 44 -34 44 -55
c0 -24 -17 -52 -35 -90c-23 -50 -46 -103 -24 -103c47 0 137 131 179 194c3 6 9 8 24 -2c19 -13 33 -28 33 -40c0 -19 -25 -53 -48 -107c-18 -41 -24 -76 3 -76c20 0 68 36 79 49l6 6c4 4 26 0 17 -11l-8 -10c-32 -36 -84 -86 -132 -86z" />
    <glyph glyph-name="umacron" unicode="&#x16b;" horiz-adv-x="365" 
d="M387 459c1 41 -56 37 -95 38c-44 1 -93 0 -129 -6c-28 -6 -48 -10 -48 -29c0 -4 -2 -14 4 -19c3 -3 19 -3 27 -3c60 3 107 5 227 -2c11 0 14 4 14 21zM248 34c-42 0 -68 39 -53 96c1 2 -1 2 -2 1c-29 -25 -80 -77 -131 -77c-35 0 -61 23 -61 70c0 21 5 43 17 76
c14 41 33 84 49 121s17 58 43 44c18 -9 44 -34 44 -55c0 -24 -17 -52 -35 -90c-23 -50 -46 -103 -24 -103c47 0 137 131 179 194c3 6 9 8 24 -2c19 -13 33 -28 33 -40c0 -19 -25 -53 -48 -107c-18 -41 -24 -76 3 -76c20 0 68 36 79 49l6 6c4 4 26 0 17 -11l-8 -10
c-32 -36 -84 -86 -132 -86z" />
    <glyph glyph-name="uogonek" unicode="&#x173;" horiz-adv-x="365" 
d="M371 141c4 4 26 0 17 -11l-8 -10c-26 -30 -66 -69 -106 -82v-1c-5 -2 -15 -4 -24 -8c-60 -28 -73 -70 -76 -94c-2 -15 8 -17 19 -17c26 0 55 13 72 19c7 3 13 1 13 -8c0 -34 -57 -53 -94 -53c-39 0 -68 17 -68 62c0 46 46 92 91 113c-15 17 -21 45 -12 79c1 2 -1 2 -2 1
c-29 -25 -80 -77 -131 -77c-35 0 -61 23 -61 70c0 21 5 43 17 76c14 41 33 84 49 121s17 58 43 44c18 -9 44 -34 44 -55c0 -24 -17 -52 -35 -90c-23 -50 -46 -103 -24 -103c47 0 137 131 179 194c3 6 9 8 24 -2c19 -13 33 -28 33 -40c0 -19 -25 -53 -48 -107
c-18 -41 -24 -76 3 -76c20 0 68 36 79 49z" />
    <glyph glyph-name="uring" unicode="&#x16f;" horiz-adv-x="365" 
d="M284 417c49 1 85 36 85 79c0 53 -61 83 -92 83c-58 0 -85 -57 -85 -91c0 -39 35 -71 92 -71zM293 535c25 -35 10 -68 -25 -78c-10 -3 -14 -1 -18 7c-12 25 -5 59 24 73c7 4 15 4 19 -2zM248 34c-42 0 -68 39 -53 96c1 2 -1 2 -2 1c-29 -25 -80 -77 -131 -77
c-35 0 -61 23 -61 70c0 21 5 43 17 76c14 41 33 84 49 121s17 58 43 44c18 -9 44 -34 44 -55c0 -24 -17 -52 -35 -90c-23 -50 -46 -103 -24 -103c47 0 137 131 179 194c3 6 9 8 24 -2c19 -13 33 -28 33 -40c0 -19 -25 -53 -48 -107c-18 -41 -24 -76 3 -76c20 0 68 36 79 49
l6 6c4 4 26 0 17 -11l-8 -10c-32 -36 -84 -86 -132 -86z" />
    <glyph glyph-name="v" unicode="v" horiz-adv-x="284" 
d="M43 -7c-33 0 -50 38 -50 79c0 38 15 94 18 105c7 26 16 70 20 91c5 31 4 48 6 55c2 4 6 6 12 6c22 0 69 -29 69 -66c0 -26 -23 -85 -35 -118c-17 -47 -26 -88 -16 -88c12 0 52 59 95 138c21 38 50 95 64 144c2 5 3 7 8 7c20 0 60 -29 60 -54c0 -50 -165 -299 -251 -299z
" />
    <glyph glyph-name="w" unicode="w" horiz-adv-x="480" 
d="M29 -17c-43 2 -54 31 -52 68c3 53 30 106 70 243c8 28 8 43 11 50c1 5 6 6 11 6c22 -1 65 -31 63 -72c-2 -39 -43 -109 -66 -187c-7 -24 -4 -33 3 -33c38 0 120 156 137 186c6 11 13 16 22 16c13 0 74 -13 61 -44c-43 -103 -35 -136 -14 -136c63 0 116 176 125 239
c1 9 3 12 11 12c21 0 60 -26 56 -54c-13 -105 -126 -262 -216 -262c-47 0 -75 43 -67 103c-19 -33 -100 -137 -155 -135z" />
    <glyph glyph-name="wacute" unicode="&#x1e83;" horiz-adv-x="480" 
d="M237 365c10 0 27 8 35 14c34 20 69 43 103 63c14 8 21 15 21 23c0 14 -25 41 -41 41c-5 0 -10 -2 -16 -6c-33 -23 -59 -50 -89 -76c-9 -9 -17 -19 -20 -35c-1 -7 -2 -23 7 -24zM29 -17c-43 2 -54 31 -52 68c3 53 30 106 70 243c8 28 8 43 11 50c1 5 6 6 11 6
c22 -1 65 -31 63 -72c-2 -39 -43 -109 -66 -187c-7 -24 -4 -33 3 -33c38 0 120 156 137 186c6 11 13 16 22 16c13 0 74 -13 61 -44c-43 -103 -35 -136 -14 -136c63 0 116 176 125 239c1 9 3 12 11 12c21 0 60 -26 56 -54c-13 -105 -126 -262 -216 -262c-47 0 -75 43 -67 103
c-19 -33 -100 -137 -155 -135z" />
    <glyph glyph-name="wcircumflex" unicode="&#x175;" horiz-adv-x="480" 
d="M156 389c-3 -7 -9 -24 4 -24c15 0 94 45 132 64c37 -26 78 -64 100 -64c10 1 14 17 14 24c0 14 -5 26 -12 35c-24 28 -66 84 -80 84c-15 0 -95 -62 -128 -84c-11 -9 -22 -19 -30 -35zM29 -17c-43 2 -54 31 -52 68c3 53 30 106 70 243c8 28 8 43 11 50c1 5 6 6 11 6
c22 -1 65 -31 63 -72c-2 -39 -43 -109 -66 -187c-7 -24 -4 -33 3 -33c38 0 120 156 137 186c6 11 13 16 22 16c13 0 74 -13 61 -44c-43 -103 -35 -136 -14 -136c63 0 116 176 125 239c1 9 3 12 11 12c21 0 60 -26 56 -54c-13 -105 -126 -262 -216 -262c-47 0 -75 43 -67 103
c-19 -33 -100 -137 -155 -135z" />
    <glyph glyph-name="wdieresis" unicode="&#x1e85;" horiz-adv-x="480" 
d="M216 405c29 0 60 20 60 47c0 9 -3 19 -9 27c-11 13 -26 34 -42 34c-19 0 -51 -26 -51 -59c0 -20 14 -49 42 -49zM364 405c29 0 60 20 60 47c0 9 -3 19 -9 27c-11 13 -26 34 -42 34c-19 0 -51 -26 -51 -59c0 -20 14 -49 42 -49zM29 -17c-43 2 -54 31 -52 68
c3 53 30 106 70 243c8 28 8 43 11 50c1 5 6 6 11 6c22 -1 65 -31 63 -72c-2 -39 -43 -109 -66 -187c-7 -24 -4 -33 3 -33c38 0 120 156 137 186c6 11 13 16 22 16c13 0 74 -13 61 -44c-43 -103 -35 -136 -14 -136c63 0 116 176 125 239c1 9 3 12 11 12c21 0 60 -26 56 -54
c-13 -105 -126 -262 -216 -262c-47 0 -75 43 -67 103c-19 -33 -100 -137 -155 -135z" />
    <glyph glyph-name="wgrave" unicode="&#x1e81;" horiz-adv-x="480" 
d="M280 363c9 1 8 17 7 24c-3 16 -11 26 -20 35c-30 26 -56 53 -89 76c-6 4 -11 6 -16 6c-16 0 -41 -27 -41 -41c0 -8 7 -15 21 -23c34 -20 69 -43 103 -63c8 -6 25 -14 35 -14zM29 -17c-43 2 -54 31 -52 68c3 53 30 106 70 243c8 28 8 43 11 50c1 5 6 6 11 6
c22 -1 65 -31 63 -72c-2 -39 -43 -109 -66 -187c-7 -24 -4 -33 3 -33c38 0 120 156 137 186c6 11 13 16 22 16c13 0 74 -13 61 -44c-43 -103 -35 -136 -14 -136c63 0 116 176 125 239c1 9 3 12 11 12c21 0 60 -26 56 -54c-13 -105 -126 -262 -216 -262c-47 0 -75 43 -67 103
c-19 -33 -100 -137 -155 -135z" />
    <glyph glyph-name="x" unicode="x" horiz-adv-x="290" 
d="M296 141c4 4 26 0 17 -11l-8 -10c-32 -40 -76 -84 -128 -84c-29 0 -56 15 -77 47c-58 -51 -113 -94 -134 -94c-19 0 -34 28 -25 33c31 18 83 61 138 110c-8 22 -14 46 -20 71c-9 36 -22 83 -36 108c-12 19 2 25 21 25c82 0 77 -53 90 -121l6 -26c27 26 53 53 75 76
c29 30 33 39 38 44c3 3 5 3 7 3c6 0 22 -16 22 -35c0 -14 -6 -25 -66 -84c-18 -18 -39 -38 -61 -59c15 -40 30 -55 49 -55c31 0 66 36 86 56z" />
    <glyph glyph-name="y" unicode="y" horiz-adv-x="324" 
d="M-52 -213c-44 0 -85 43 -85 72c0 64 119 140 221 167c30 8 40 10 54 36c21 39 46 87 63 121c-48 -53 -103 -113 -156 -113c-39 0 -59 36 -36 100c12 36 46 110 58 187c3 8 6 11 15 9c15 -3 52 -23 52 -58c0 -24 -11 -52 -25 -85c-19 -44 -40 -82 -28 -82
c10 0 58 42 108 92c44 43 57 62 77 90c5 6 10 9 15 6c28 -19 39 -37 39 -57c0 -32 -28 -67 -55 -113c-29 -51 -58 -109 -69 -129c68 -4 132 -49 132 -68c0 -4 -3 -8 -10 -11c-20 10 -58 38 -143 28c-11 -1 -33 -30 -41 -41c-44 -63 -120 -151 -186 -151zM-73 -153
c22 0 71 31 116 78c23 23 32 36 32 41c0 14 -79 -38 -104 -57c-23 -17 -61 -62 -44 -62z" />
    <glyph glyph-name="yacute" unicode="&#xfd;" horiz-adv-x="324" 
d="M192 385c10 0 27 8 35 14c34 20 69 43 103 63c14 8 21 15 21 23c0 14 -25 41 -41 41c-5 0 -10 -2 -16 -6c-33 -23 -59 -50 -89 -76c-9 -9 -17 -19 -20 -35c-1 -7 -2 -23 7 -24zM-52 -213c-44 0 -85 43 -85 72c0 64 119 140 221 167c30 8 40 10 54 36c21 39 46 87 63 121
c-48 -53 -103 -113 -156 -113c-39 0 -59 36 -36 100c12 36 46 110 58 187c3 8 6 11 15 9c15 -3 52 -23 52 -58c0 -24 -11 -52 -25 -85c-19 -44 -40 -82 -28 -82c10 0 58 42 108 92c44 43 57 62 77 90c5 6 10 9 15 6c28 -19 39 -37 39 -57c0 -32 -28 -67 -55 -113
c-29 -51 -58 -109 -69 -129c68 -4 132 -49 132 -68c0 -4 -3 -8 -10 -11c-20 10 -58 38 -143 28c-11 -1 -33 -30 -41 -41c-44 -63 -120 -151 -186 -151zM-73 -153c22 0 71 31 116 78c23 23 32 36 32 41c0 14 -79 -38 -104 -57c-23 -17 -61 -62 -44 -62z" />
    <glyph glyph-name="ycircumflex" unicode="&#x177;" horiz-adv-x="324" 
d="M111 409c-3 -7 -9 -24 4 -24c15 0 94 45 132 64c37 -26 78 -64 100 -64c10 1 14 17 14 24c0 14 -5 26 -12 35c-24 28 -66 84 -80 84c-15 0 -95 -62 -128 -84c-11 -9 -22 -19 -30 -35zM-52 -213c-44 0 -85 43 -85 72c0 64 119 140 221 167c30 8 40 10 54 36
c21 39 46 87 63 121c-48 -53 -103 -113 -156 -113c-39 0 -59 36 -36 100c12 36 46 110 58 187c3 8 6 11 15 9c15 -3 52 -23 52 -58c0 -24 -11 -52 -25 -85c-19 -44 -40 -82 -28 -82c10 0 58 42 108 92c44 43 57 62 77 90c5 6 10 9 15 6c28 -19 39 -37 39 -57
c0 -32 -28 -67 -55 -113c-29 -51 -58 -109 -69 -129c68 -4 132 -49 132 -68c0 -4 -3 -8 -10 -11c-20 10 -58 38 -143 28c-11 -1 -33 -30 -41 -41c-44 -63 -120 -151 -186 -151zM-73 -153c22 0 71 31 116 78c23 23 32 36 32 41c0 14 -79 -38 -104 -57
c-23 -17 -61 -62 -44 -62z" />
    <glyph glyph-name="ydieresis" unicode="&#xff;" horiz-adv-x="324" 
d="M171 425c29 0 60 20 60 47c0 9 -3 19 -9 27c-11 13 -26 34 -42 34c-19 0 -51 -26 -51 -59c0 -20 14 -49 42 -49zM319 425c29 0 60 20 60 47c0 9 -3 19 -9 27c-11 13 -26 34 -42 34c-19 0 -51 -26 -51 -59c0 -20 14 -49 42 -49zM-52 -213c-44 0 -85 43 -85 72
c0 64 119 140 221 167c30 8 40 10 54 36c21 39 46 87 63 121c-48 -53 -103 -113 -156 -113c-39 0 -59 36 -36 100c12 36 46 110 58 187c3 8 6 11 15 9c15 -3 52 -23 52 -58c0 -24 -11 -52 -25 -85c-19 -44 -40 -82 -28 -82c10 0 58 42 108 92c44 43 57 62 77 90
c5 6 10 9 15 6c28 -19 39 -37 39 -57c0 -32 -28 -67 -55 -113c-29 -51 -58 -109 -69 -129c68 -4 132 -49 132 -68c0 -4 -3 -8 -10 -11c-20 10 -58 38 -143 28c-11 -1 -33 -30 -41 -41c-44 -63 -120 -151 -186 -151zM-73 -153c22 0 71 31 116 78c23 23 32 36 32 41
c0 14 -79 -38 -104 -57c-23 -17 -61 -62 -44 -62z" />
    <glyph glyph-name="ygrave" unicode="&#x1ef3;" horiz-adv-x="324" 
d="M235 383c9 1 8 17 7 24c-3 16 -11 26 -20 35c-30 26 -56 53 -89 76c-6 4 -11 6 -16 6c-16 0 -41 -27 -41 -41c0 -8 7 -15 21 -23c34 -20 69 -43 103 -63c8 -6 25 -14 35 -14zM-52 -213c-44 0 -85 43 -85 72c0 64 119 140 221 167c30 8 40 10 54 36c21 39 46 87 63 121
c-48 -53 -103 -113 -156 -113c-39 0 -59 36 -36 100c12 36 46 110 58 187c3 8 6 11 15 9c15 -3 52 -23 52 -58c0 -24 -11 -52 -25 -85c-19 -44 -40 -82 -28 -82c10 0 58 42 108 92c44 43 57 62 77 90c5 6 10 9 15 6c28 -19 39 -37 39 -57c0 -32 -28 -67 -55 -113
c-29 -51 -58 -109 -69 -129c68 -4 132 -49 132 -68c0 -4 -3 -8 -10 -11c-20 10 -58 38 -143 28c-11 -1 -33 -30 -41 -41c-44 -63 -120 -151 -186 -151zM-73 -153c22 0 71 31 116 78c23 23 32 36 32 41c0 14 -79 -38 -104 -57c-23 -17 -61 -62 -44 -62z" />
    <glyph glyph-name="z" unicode="z" horiz-adv-x="299" 
d="M-47 -227c-45 0 -86 34 -86 65c0 64 152 163 272 195c14 18 25 37 25 57c0 22 -19 30 -42 30c-26 0 -58 -5 -88 -18c-14 -6 -28 28 -28 35c0 9 8 14 19 23c16 12 69 53 119 98c3 3 4 5 -1 5c-48 0 -118 -6 -118 46c0 16 8 29 13 29c3 0 7 -1 13 -3c29 -10 67 -13 93 -13
c31 0 52 5 69 12c16 6 21 12 31 8c13 -6 35 -25 35 -44c0 -13 -8 -27 -33 -47c-30 -25 -74 -53 -107 -81c68 -7 114 -56 85 -133c67 -10 135 -49 135 -71c0 -6 -4 -11 -13 -14c-37 25 -75 44 -142 36c-23 -60 -139 -215 -251 -215zM-60 -163c12 0 43 15 62 28
c29 20 60 49 84 76c39 43 31 43 9 30c-30 -18 -65 -45 -95 -68c-45 -35 -78 -66 -60 -66z" />
    <glyph glyph-name="zacute" unicode="&#x17a;" horiz-adv-x="299" 
d="M136 365c10 0 27 8 35 14c34 20 69 43 103 63c14 8 21 15 21 23c0 14 -25 41 -41 41c-5 0 -10 -2 -16 -6c-33 -23 -59 -50 -89 -76c-9 -9 -17 -19 -20 -35c-1 -7 -2 -23 7 -24zM-47 -227c-45 0 -86 34 -86 65c0 64 152 163 272 195c14 18 25 37 25 57c0 22 -19 30 -42 30
c-26 0 -58 -5 -88 -18c-14 -6 -28 28 -28 35c0 9 8 14 19 23c16 12 69 53 119 98c3 3 4 5 -1 5c-48 0 -118 -6 -118 46c0 16 8 29 13 29c3 0 7 -1 13 -3c29 -10 67 -13 93 -13c31 0 52 5 69 12c16 6 21 12 31 8c13 -6 35 -25 35 -44c0 -13 -8 -27 -33 -47
c-30 -25 -74 -53 -107 -81c68 -7 114 -56 85 -133c67 -10 135 -49 135 -71c0 -6 -4 -11 -13 -14c-37 25 -75 44 -142 36c-23 -60 -139 -215 -251 -215zM-60 -163c12 0 43 15 62 28c29 20 60 49 84 76c39 43 31 43 9 30c-30 -18 -65 -45 -95 -68c-45 -35 -78 -66 -60 -66z
" />
    <glyph glyph-name="zcaron" unicode="&#x17e;" horiz-adv-x="299" 
d="M300 484c4 7 9 24 -2 24s-27 -8 -36 -13c-33 -17 -65 -35 -98 -51c-22 16 -45 34 -67 51c-7 5 -22 13 -33 13c-9 -1 -13 -17 -13 -24c0 -13 4 -26 12 -34c24 -29 67 -85 81 -85c12 0 96 63 127 85c10 8 22 19 29 34zM-47 -227c-45 0 -86 34 -86 65c0 64 152 163 272 195
c14 18 25 37 25 57c0 22 -19 30 -42 30c-26 0 -58 -5 -88 -18c-14 -6 -28 28 -28 35c0 9 8 14 19 23c16 12 69 53 119 98c3 3 4 5 -1 5c-48 0 -118 -6 -118 46c0 16 8 29 13 29c3 0 7 -1 13 -3c29 -10 67 -13 93 -13c31 0 52 5 69 12c16 6 21 12 31 8c13 -6 35 -25 35 -44
c0 -13 -8 -27 -33 -47c-30 -25 -74 -53 -107 -81c68 -7 114 -56 85 -133c67 -10 135 -49 135 -71c0 -6 -4 -11 -13 -14c-37 25 -75 44 -142 36c-23 -60 -139 -215 -251 -215zM-60 -163c12 0 43 15 62 28c29 20 60 49 84 76c39 43 31 43 9 30c-30 -18 -65 -45 -95 -68
c-45 -35 -78 -66 -60 -66z" />
    <glyph glyph-name="zdotaccent" unicode="&#x17c;" horiz-adv-x="299" 
d="M171 405c29 0 60 20 60 47c0 9 -3 19 -9 27c-11 13 -26 34 -42 34c-19 0 -51 -26 -51 -59c0 -20 14 -49 42 -49zM-47 -227c-45 0 -86 34 -86 65c0 64 152 163 272 195c14 18 25 37 25 57c0 22 -19 30 -42 30c-26 0 -58 -5 -88 -18c-14 -6 -28 28 -28 35c0 9 8 14 19 23
c16 12 69 53 119 98c3 3 4 5 -1 5c-48 0 -118 -6 -118 46c0 16 8 29 13 29c3 0 7 -1 13 -3c29 -10 67 -13 93 -13c31 0 52 5 69 12c16 6 21 12 31 8c13 -6 35 -25 35 -44c0 -13 -8 -27 -33 -47c-30 -25 -74 -53 -107 -81c68 -7 114 -56 85 -133c67 -10 135 -49 135 -71
c0 -6 -4 -11 -13 -14c-37 25 -75 44 -142 36c-23 -60 -139 -215 -251 -215zM-60 -163c12 0 43 15 62 28c29 20 60 49 84 76c39 43 31 43 9 30c-30 -18 -65 -45 -95 -68c-45 -35 -78 -66 -60 -66z" />
    <glyph glyph-name="r.init" horiz-adv-x="304" 
d="M310 141c3 3 27 1 17 -11l-8 -10c-38 -47 -94 -96 -158 -96c-47 0 -81 31 -81 76c0 75 80 150 80 185c0 16 -16 24 -38 42c-27 -56 -69 -121 -99 -121c-18 0 -34 15 -41 26c-3 4 2 7 2 7c43 30 75 58 112 113c-12 22 -7 54 7 79c13 24 34 42 54 42c24 0 44 -19 44 -28
c0 -13 -48 -54 -48 -69c0 -23 97 -45 97 -96c0 -57 -87 -131 -87 -179c0 -19 11 -28 29 -28c40 0 79 29 112 62z" />
    <glyph glyph-name="b.ss01" horiz-adv-x="312" 
d="M382 707c48 0 80 -28 75 -79c-8 -79 -129 -248 -358 -397c-15 -21 -29 -66 -32 -103c42 76 124 159 173 159c41 0 58 -30 55 -71c-6 -85 -107 -216 -202 -216c-159 0 -83 304 -16 435c73 146 191 272 305 272zM116 295c135 108 323 350 265 350
c-75 0 -211 -178 -271 -339c-3 -8 -4 -19 6 -11zM141 146c-32 -48 -52 -100 -32 -100c21 0 56 36 83 77c23 35 60 104 36 104c-17 0 -57 -36 -87 -81z" />
    <glyph glyph-name="f.ss01" horiz-adv-x="262" 
d="M63 341c190 488 423 496 423 339c0 -52 -25 -116 -66 -177c-64 -95 -166 -184 -285 -205c-10 -30 -20 -60 -29 -92c45 -34 101 -7 111 1c4 3 14 -7 14 -19c0 -34 -77 -58 -123 -36c2 -22 4 -49 4 -80c0 -116 -22 -269 -110 -269c-30 0 -56 28 -56 94c0 23 3 51 10 83
c14 66 46 186 67 251c7 22 15 43 22 64c-39 5 -79 17 -119 40c-82 45 -134 118 -134 161c0 30 29 52 61 39c0 -60 47 -129 118 -165c32 -16 62 -26 92 -29zM156 351c158 52 262 264 262 332c0 16 -6 26 -18 26c-43 0 -158 -140 -244 -358zM52 -53c7 42 11 93 14 137
c-16 -50 -26 -86 -32 -117c-31 -149 3 -108 18 -20z" />
    <glyph glyph-name="g.ss01" horiz-adv-x="351" 
d="M-134 -343c-64 0 -149 58 -149 142c0 102 199 187 363 201l33 3c10 21 41 81 56 107c1 2 1 4 -2 2c-44 -23 -85 -38 -110 -38c-33 0 -55 24 -55 59c0 95 142 241 215 241c31 0 55 -18 74 -74c1 -3 2 -7 -1 -10c-14 -14 -39 -17 -53 -5c-12 9 -16 16 -23 16
c-26 0 -71 -48 -106 -92c-24 -30 -50 -75 -31 -75c43 0 120 83 179 119c8 5 16 7 25 7c19 0 38 -11 50 -33c4 -8 2 -10 -5 -16c-27 -23 -57 -67 -71 -93c-20 -37 -40 -80 -61 -118c78 -8 213 -72 213 -115c0 -9 -5 -15 -11 -21c-3 -3 -6 -4 -11 1c-33 35 -123 77 -212 85
c-48 -106 -170 -293 -307 -293zM-163 -274c92 0 220 134 257 224c-110 -8 -304 -87 -304 -188c0 -21 13 -36 47 -36z" />
    <glyph glyph-name="j.ss01" horiz-adv-x="211" 
d="M130 421c-3 1 -5 4 -3 9c11 28 15 54 24 81c4 12 9 27 31 27c21 0 49 -28 49 -51s-40 -72 -73 -72c-9 0 -17 1 -28 6zM57 -12c56 0 224 -54 224 -103c0 -11 -7 -19 -19 -20c-37 31 -126 72 -221 72c-61 -164 -176 -300 -306 -300c-66 0 -136 60 -136 130
c0 122 266 220 384 225c9 24 36 104 49 136c4 10 8 21 11 31c-7 -11 -13 -19 -17 -24l-4 -5c-8 -10 -27 -25 -39 -32c-10 -5 -17 -3 -18 5c11 10 24 21 32 30l3 3c38 42 82 150 96 187c7 18 6 25 22 25c28 0 52 -26 52 -44c0 -35 -64 -207 -113 -316zM-285 -305
c80 0 201 109 246 236c-103 -19 -291 -102 -291 -196c0 -24 16 -40 45 -40z" />
    <glyph glyph-name="t.ss01" horiz-adv-x="225" 
d="M889 524c8 -12 11 -20 11 -26c0 -13 -16 -13 -32 -10c-28 3 -61 6 -147 4c-145 -4 -330 -20 -494 -36c-63 -127 -149 -298 -149 -369c0 -25 11 -30 29 -30c31 0 80 40 118 78l6 6c4 4 26 0 17 -11l-8 -10c-13 -17 -94 -116 -172 -116c-41 0 -73 25 -73 78
c0 78 79 238 140 364l-122 -14c-49 -6 -73 -11 -85 1c-9 9 -7 23 -4 28c23 8 116 21 234 35c12 26 23 49 30 69c25 65 20 80 31 80c54 0 72 -20 72 -42c0 -24 -17 -52 -30 -78l-9 -19c217 24 477 47 570 47c49 0 53 -8 67 -29z" />
    <glyph glyph-name="y.ss01" horiz-adv-x="345" 
d="M-136 -338c-73 0 -136 72 -136 125c0 119 228 205 382 219c49 95 74 143 91 177c-48 -53 -103 -113 -156 -113c-39 0 -59 36 -36 100c12 36 46 110 58 187c3 8 6 11 15 9c15 -3 52 -23 52 -58c0 -24 -11 -52 -25 -85c-19 -44 -40 -82 -28 -82c10 0 64 37 108 92
c34 43 47 62 67 90c5 6 10 9 15 6c28 -19 39 -35 39 -55c0 -32 -19 -70 -45 -116c-29 -51 -58 -108 -81 -153c82 -9 224 -60 224 -106c0 -6 -3 -12 -9 -18c-5 -5 -8 -4 -12 0c-37 34 -125 69 -222 74c-34 -83 -157 -293 -301 -293zM-146 -278c87 0 180 120 235 230
c-108 -17 -290 -92 -290 -180c0 -27 19 -50 55 -50z" />
    <glyph glyph-name="z.ss01" horiz-adv-x="304" 
d="M-127 -312c-55 0 -146 55 -146 121c0 103 202 199 367 208c12 1 23 1 36 2c9 15 34 60 34 86c0 19 -20 28 -42 28c-26 0 -58 -10 -88 -24c-11 -5 -28 34 -28 41c0 9 8 14 19 23c16 12 69 53 119 98c3 3 4 5 -1 5c-48 0 -118 -6 -118 46c0 16 8 29 13 29c3 0 7 -1 13 -3
c29 -10 67 -13 93 -13c31 0 52 6 69 12c16 6 21 12 31 8c13 -6 35 -25 35 -44c0 -13 -8 -27 -33 -47c-30 -24 -74 -53 -107 -81c54 -6 94 -37 94 -88c0 -16 -3 -31 -24 -82c82 -9 206 -79 206 -122c0 -10 -5 -19 -13 -23c-8 -3 -11 0 -15 5c-30 32 -120 85 -201 91
c-53 -108 -180 -276 -313 -276zM-154 -245c74 0 204 84 261 212c-72 -5 -306 -56 -306 -174c0 -23 15 -38 45 -38z" />
    <glyph glyph-name="g.ss02" horiz-adv-x="1301" 
d="M1055 168c96 0 225 -25 225 -90c0 -20 -14 -30 -46 -26c-4 57 -90 65 -175 65c-228 0 -465 -70 -632 -70c-23 0 -42 7 -59 21c-8 7 -14 15 -22 14c-17 -3 -34 -8 -51 -14c-29 -20 -64 -37 -98 -52c-18 -15 -19 -28 -40 -71c-1 0 -1 -1 -1 -1c-32 -65 -108 -181 -182 -181
c-28 0 -47 19 -47 51c0 89 119 187 204 233c13 27 24 57 46 104c-29 -30 -82 -70 -124 -70c-57 0 -70 74 -21 167c46 87 145 162 202 162c35 0 57 -26 64 -70c1 -9 -27 -20 -39 -20c-21 0 -17 16 -31 16c-20 0 -68 -42 -103 -89c-41 -53 -66 -113 -48 -113
c29 0 83 84 137 133c22 21 42 36 62 36c17 0 35 -9 48 -32c5 -8 3 -12 -3 -17c-35 -34 -95 -129 -113 -179c34 14 80 30 110 42c8 6 14 12 20 18l6 6c2 2 7 2 11 1l2 3c10 23 5 39 13 38c21 -2 51 -16 37 -42c-7 -11 -17 -21 -28 -35c21 -7 42 -10 70 -10
c129 0 439 72 606 72zM48 -102c25 33 67 91 60 91c-5 0 -29 -22 -78 -79c-65 -76 -74 -132 18 -12z" />
    <glyph glyph-name="y.ss02" horiz-adv-x="1286" 
d="M1048 128c96 0 225 -25 225 -90c0 -20 -14 -30 -46 -26c-4 57 -90 65 -175 65c-228 0 -465 -70 -632 -70c-23 0 -42 6 -59 21c-8 7 -14 15 -22 14c-49 -6 -102 -32 -126 -42c-40 -17 -69 -50 -79 -62c-44 -63 -120 -151 -186 -151c-44 0 -85 43 -85 72
c0 64 119 140 221 167c30 8 40 10 54 36c21 39 46 87 63 121c-48 -53 -103 -113 -156 -113c-39 0 -59 36 -36 100c12 36 46 110 58 187c3 8 6 11 15 9c15 -3 52 -23 52 -58c0 -24 -11 -52 -25 -85c-19 -44 -40 -82 -28 -82c10 0 58 42 108 92c44 43 57 62 77 90
c5 6 10 9 15 6c28 -19 39 -37 39 -57c0 -32 -28 -67 -55 -113c-28 -48 -55 -103 -67 -126c38 17 93 36 124 49c12 5 22 10 28 23c11 23 5 39 13 38c21 -3 53 -17 37 -42c-7 -11 -17 -21 -28 -35c21 -7 42 -10 70 -10c129 0 439 72 606 72zM43 -75c23 23 32 36 32 41
c0 14 -79 -38 -104 -57c-23 -17 -61 -62 -44 -62c22 0 71 31 116 78z" />
    <glyph glyph-name="z.ss02" horiz-adv-x="1464" 
d="M1048 131c96 0 225 -25 225 -90c0 -20 -14 -30 -46 -26c-4 57 -90 65 -175 65c-228 0 -465 -70 -632 -70c-23 0 -42 6 -59 21c-8 7 -14 15 -22 14c-44 -6 -91 -26 -125 -43c-12 -24 -27 -49 -43 -72c-47 -69 -134 -157 -218 -157c-45 0 -86 34 -86 65
c0 64 152 163 272 195c14 18 25 37 25 57c0 22 -19 30 -42 30c-26 0 -58 -11 -88 -24c-11 -5 -28 34 -28 41c0 9 8 14 19 23c16 12 69 53 119 98c3 3 4 5 -1 5c-48 0 -118 -6 -118 46c0 16 8 29 13 29c3 0 7 -1 13 -3c29 -10 67 -13 93 -13c31 0 52 5 69 12c16 6 21 12 31 8
c13 -6 35 -25 35 -44c0 -13 -8 -27 -33 -47c-30 -25 -74 -53 -107 -81c67 -7 95 -43 95 -89c0 -10 -1 -21 -4 -32c33 13 69 26 92 36c12 5 22 10 28 23c11 23 5 39 13 38c21 -3 53 -17 37 -42c-7 -11 -17 -21 -28 -35c21 -7 42 -10 70 -10c129 0 439 72 606 72zM86 -59
c39 43 31 43 9 30c-30 -18 -65 -45 -95 -68c-45 -35 -78 -66 -60 -66c12 0 43 15 62 28c29 20 60 49 84 76z" />
    <glyph glyph-name="t.ss03" horiz-adv-x="227" 
d="M735 585c40 7 31 -91 -73 -125c-107 -35 -286 -5 -425 12c-63 -128 -157 -311 -157 -385c0 -25 11 -30 29 -30c31 0 80 40 118 78l6 6c4 4 26 0 17 -11l-8 -10c-13 -17 -94 -116 -172 -116c-41 0 -73 25 -73 78c0 85 95 267 156 397c-33 2 -65 -1 -99 -9
c-36 -10 -70 -27 -89 -56c-7 -7 -21 5 -21 24c0 26 22 48 57 65c53 25 111 32 176 31c5 11 9 22 13 31c25 65 20 80 31 80c54 0 72 -20 72 -42c0 -23 -16 -50 -28 -75c70 -9 189 -30 276 -30c91 0 171 20 194 87z" />
    <glyph glyph-name="a.ss04" horiz-adv-x="349" 
d="M303 -91c-72 0 -115 53 -115 129c0 36 10 77 17 91c-38 -36 -113 -112 -171 -112c-25 0 -48 17 -48 61c0 95 122 272 252 272c38 0 63 -50 49 -55c-77 -20 -138 -64 -185 -120c-37 -48 -52 -90 -33 -90c10 0 28 11 57 36c39 34 76 70 119 120c6 7 13 9 20 9
c16 0 37 -15 46 -29s3 -15 -8 -35c-15 -28 -27 -61 -36 -94c-24 -92 -10 -174 90 -143c6 -6 8 -12 5 -17c-8 -14 -36 -23 -59 -23z" />
    <glyph glyph-name="d.ss04" horiz-adv-x="421" 
d="M442 -46c22 -11 -14 -43 -60 -43c-97 0 -142 83 -142 216v23c-56 -64 -122 -126 -175 -126c-35 0 -69 26 -69 78c0 87 102 235 197 235c29 0 53 -14 70 -30c20 86 50 172 81 239c54 117 97 156 125 156c25 0 39 -29 39 -62c0 -85 -96 -286 -172 -375
c-7 -45 -11 -89 -11 -129c0 -114 15 -227 117 -182zM466 621c0 21 -26 -16 -68 -122c-16 -40 -30 -83 -41 -127c23 37 48 84 68 129c29 64 41 106 41 120zM88 94c22 0 83 47 160 134c1 10 3 19 5 29c-10 11 -23 20 -41 20c-62 0 -128 -140 -128 -175c0 -5 1 -8 4 -8z" />
    <glyph glyph-name="h.ss04" horiz-adv-x="333" 
d="M237 6c0 -49 25 -77 84 -59c9 -24 -28 -43 -74 -43c-65 0 -96 47 -96 108c0 78 49 175 49 203c0 6 -1 9 -4 10c-21 6 -87 -84 -147 -228c-3 -9 -8 -14 -19 -14c-24 0 -64 22 -58 45c49 170 90 327 183 488c49 86 114 171 177 171c30 0 57 -25 57 -71
c0 -111 -150 -269 -259 -335c-28 -63 -48 -113 -48 -117c0 -3 2 -1 3 1c61 89 110 121 147 121c32 0 56 -23 56 -55c0 -62 -51 -156 -51 -225zM245 511c-25 -41 -52 -94 -77 -147c39 33 78 77 109 119c55 77 69 132 53 132c-15 0 -47 -41 -85 -104z" />
    <glyph glyph-name="k.ss04" horiz-adv-x="311" 
d="M278 -74c-85 0 -170 125 -196 221c-15 -32 -39 -89 -51 -129c-2 -7 -4 -14 -7 -16c-7 -6 -67 3 -46 65c170 464 241 579 240 634c0 12 77 14 77 -35c0 -19 -7 -42 -20 -69c-29 -65 -98 -210 -145 -317c-17 -39 -21 -47 -18 -47c13 0 111 51 132 109c5 15 64 -18 64 -48
c0 -27 -36 -52 -74 -69c-32 -15 -64 -28 -92 -33c20 -67 91 -254 177 -228c14 -25 -11 -38 -41 -38z" />
    <glyph glyph-name="l.ss04" horiz-adv-x="197" 
d="M130 -122c-104 0 -131 109 -131 204c0 87 19 176 71 292c44 94 152 303 256 303c28 0 47 -20 47 -57c0 -88 -136 -302 -253 -371c-33 -57 -51 -214 -28 -281c16 -47 54 -65 92 -54c17 -20 -24 -36 -54 -36zM139 321c32 24 94 111 139 186c35 59 55 107 46 107
c-7 0 -27 -22 -65 -80c-75 -112 -120 -212 -120 -213z" />
    <glyph glyph-name="m.ss04" horiz-adv-x="525" 
d="M475 -93c-69 0 -112 52 -112 133c0 61 25 112 25 122c0 2 0 2 -1 2c-2 0 -7 -3 -17 -11c-40 -31 -115 -115 -134 -115c-24 0 -54 26 -54 53c0 32 39 117 39 132c0 2 0 2 -1 2c-12 0 -168 -195 -201 -195c-9 0 -18 6 -25 19c-6 11 -9 20 -9 28c0 13 6 26 16 52
c18 51 44 132 57 179c2 6 9 10 19 10c22 0 51 -15 51 -42c0 -14 -17 -61 -28 -86c-8 -17 -5 -13 6 -2c65 64 110 113 145 113c27 0 58 -20 58 -47c0 -13 -11 -49 -23 -80c-13 -37 -18 -48 -18 -51c0 -14 118 119 146 119c27 0 55 -21 55 -45c0 -11 -8 -34 -17 -61
c-10 -33 -20 -71 -20 -106c0 -44 16 -90 65 -90c12 0 25 3 39 7c6 -3 9 -11 3 -18c-10 -11 -33 -22 -64 -22z" />
    <glyph glyph-name="n.ss04" horiz-adv-x="354" 
d="M271 -98c-36 4 -66 28 -83 56c-37 60 -16 141 15 201c2 4 1 6 -2 5c-38 -13 -160 -142 -185 -142c-15 0 -46 22 -46 40c0 4 32 78 59 147c14 35 25 66 32 87c8 28 2 34 11 37c2 0 63 7 63 -46c0 -41 -34 -99 -56 -136c-8 -12 -2 -10 15 6c41 36 128 102 171 102
c20 0 45 -28 45 -50c0 -19 -65 -106 -65 -195c0 -46 18 -77 58 -77c10 0 21 2 34 6c4 -7 10 -14 0 -22c-16 -14 -41 -22 -66 -19z" />
    <glyph glyph-name="r.ss04" horiz-adv-x="279" 
d="M270 -48c17 -27 -26 -44 -59 -44c-85 0 -134 71 -134 155c0 37 10 74 28 110c25 49 55 90 55 112c0 13 -11 21 -27 34c-33 -70 -61 -129 -106 -184l-4 -5c-8 -10 -27 -25 -39 -32c-10 -5 -17 -3 -18 5c11 9 24 21 32 30l3 3c47 54 77 125 107 202l-2 2
c-24 21 -20 61 -3 91c13 24 34 42 54 42c24 0 44 -19 44 -28c0 -13 -48 -54 -48 -69c0 -23 97 -45 97 -96c0 -32 -30 -70 -56 -114c-40 -68 -55 -135 -20 -188c17 -26 57 -40 96 -26z" />
    <glyph glyph-name="t.ss04" horiz-adv-x="182" 
d="M202 418c-60 -123 -123 -258 -134 -367c-7 -74 33 -148 108 -133c8 -9 3 -20 -7 -27c-31 -22 -91 -8 -121 14c-42 31 -60 86 -57 148c5 112 63 233 120 352c-59 -8 -56 -8 -65 -8c-35 0 -43 15 -43 29c0 9 4 18 6 21c4 8 7 5 18 4c27 -4 47 -5 104 -4c19 40 36 79 51 118
c25 65 20 80 31 80c54 0 72 -20 72 -42c0 -24 -17 -52 -30 -78l-37 -75l86 2c23 -1 21 -11 17 -18c-48 -7 -87 -12 -119 -16z" />
    <glyph glyph-name="u.ss04" horiz-adv-x="345" 
d="M301 -96c-76 0 -116 58 -116 140c0 44 8 80 10 86c1 2 -1 2 -2 1c-29 -25 -80 -77 -131 -77c-35 0 -61 23 -61 70c0 21 5 43 17 76c14 41 33 84 49 121s17 58 43 44c18 -9 44 -34 44 -55c0 -24 -17 -52 -35 -90c-23 -50 -46 -103 -24 -103c47 0 137 131 179 194
c3 6 9 8 24 -2c19 -13 33 -28 33 -40c0 -19 -25 -53 -48 -107c-16 -39 -28 -89 -28 -132c0 -58 26 -91 68 -91c10 0 21 2 33 6c2 -4 11 -15 2 -23c-11 -9 -30 -18 -57 -18z" />
    <glyph glyph-name="l_l.ss03" horiz-adv-x="528" 
d="M534 141c4 4 26 0 17 -11l-8 -10c-42 -52 -111 -128 -177 -128c-31 0 -55 18 -67 54c-63 -77 -126 -108 -181 -108c-86 0 -122 66 -122 146c0 183 196 599 362 599c49 0 57 -40 57 -72c0 -113 -155 -280 -300 -399c-11 -36 -25 -87 -25 -135c0 -45 12 -84 49 -84
c38 0 97 28 153 84c-1 9 -2 19 -2 29c0 63 22 152 74 268c44 94 152 303 256 303c28 0 47 -20 47 -57c0 -88 -136 -302 -253 -371c-14 -24 -38 -105 -38 -156c0 -27 6 -46 24 -46c35 0 95 55 128 88zM188 404c-29 -61 -45 -92 -50 -110c175 166 224 257 224 309
c0 7 -1 17 -6 20c-24 13 -141 -167 -168 -219zM553 534c-75 -112 -120 -212 -120 -213c32 24 94 111 139 186c35 59 55 107 46 107c-7 0 -27 -22 -65 -80z" />
    <glyph glyph-name="t_h.ss03" horiz-adv-x="588" 
d="M595 141c4 4 26 0 17 -11l-8 -10c-37 -42 -103 -98 -147 -98c-27 0 -50 19 -50 59c0 45 45 139 28 144s-87 -83 -147 -228c-3 -9 -8 -14 -19 -14c-24 0 -64 22 -58 45c39 137 74 265 134 394h-1c-48 0 -89 4 -128 8c-67 -132 -151 -298 -151 -371c0 -28 12 -41 35 -41
c13 0 32 4 51 16c20 -2 20 -15 14 -23c-26 -31 -71 -38 -96 -38c-66 0 -83 47 -83 84c0 80 83 248 146 379c-8 1 -17 1 -25 1c-49 0 -112 -11 -143 -41c-18 -17 -17 -31 -22 -41c-6 -7 -25 2 -25 25c0 65 92 115 213 115c8 0 18 0 29 -1c13 27 23 51 31 71
c25 65 20 80 31 80c54 0 72 -20 72 -42c0 -24 -17 -52 -30 -78c-5 -11 -11 -23 -18 -36c43 -3 89 -6 130 -8c6 12 12 23 19 35c49 86 113 171 178 171c25 0 55 -25 55 -66c0 -81 -68 -170 -171 -190l-18 -3c-59 -117 -117 -257 -117 -264c0 -3 2 -1 3 1
c61 89 110 121 147 121c32 0 56 -23 56 -55c0 -39 -32 -110 -32 -140c0 -9 3 -15 10 -15c17 0 58 31 84 59zM484 511l-14 -24c48 15 88 54 105 117c2 7 -2 11 -6 11c-15 0 -47 -41 -85 -104z" />
    <glyph glyph-name="t_h.ss04" horiz-adv-x="614" 
d="M620 141c4 4 26 0 17 -11l-8 -10c-37 -42 -103 -98 -147 -98c-27 0 -50 19 -50 59c0 45 45 139 28 144s-87 -83 -147 -228c-3 -9 -8 -14 -19 -14c-24 0 -64 22 -58 45l27 96c-68 -67 -134 -120 -196 -120c-41 0 -73 25 -73 78c0 69 63 204 120 322c-52 -7 -50 -7 -59 -7
c-35 0 -43 15 -43 29c0 9 4 18 6 21c4 8 7 5 18 4c26 -4 46 -5 98 -4c22 46 41 87 53 118c25 65 20 80 31 80c54 0 72 -20 72 -42c0 -24 -17 -52 -30 -78c-11 -22 -23 -48 -37 -75l86 2c23 -1 21 -11 17 -18c-48 -7 -87 -12 -119 -17c-60 -120 -130 -266 -130 -330
c0 -23 12 -30 26 -30c47 0 113 64 181 136c34 109 73 215 135 323c49 86 114 171 177 171c30 0 57 -25 57 -71c0 -82 -154 -252 -278 -379c-18 -41 -29 -70 -29 -73s2 -1 3 1c61 89 110 121 147 121c32 0 56 -23 56 -55c0 -39 -32 -110 -32 -140c0 -9 3 -15 10 -15
c17 0 58 31 84 59zM509 511c-29 -47 -60 -110 -88 -170c68 77 130 153 152 193c21 37 27 59 27 71c0 6 -2 10 -6 10c-15 0 -47 -41 -85 -104z" />
    <glyph glyph-name="ordfeminine" unicode="&#xaa;" horiz-adv-x="307" 
d="M145 445c-66 0 -27 103 17 161c28 37 65 64 107 64c26 0 44 -13 44 -32c0 -20 -10 7 -81 -44c-56 -40 -95 -107 -72 -107c7 0 21 7 41 25c27 25 60 57 85 84c12 13 23 4 36 -6c11 -9 15 -17 6 -35c-21 -41 -26 -70 -12 -70c13 0 41 25 54 38l4 4c3 3 18 0 12 -7l-6 -7
c-13 -15 -55 -61 -83 -61s-44 24 -39 67c-19 -21 -69 -74 -113 -74z" />
    <glyph glyph-name="ordmasculine" unicode="&#xba;" horiz-adv-x="218" 
d="M166 443c-31 0 -55 20 -55 60c0 79 77 166 139 166c21 0 32 -15 32 -30c0 -6 -1 -12 -4 -17c-59 0 -118 -84 -118 -134c0 -9 3 -14 10 -14c19 0 51 33 63 61c-18 31 8 77 36 77c13 0 24 -11 24 -33c0 -18 -7 -38 -18 -57c-24 -41 -63 -79 -109 -79z" />
    <glyph glyph-name="zero" unicode="0" horiz-adv-x="531" 
d="M185 -11c-63 0 -106 59 -106 166c0 232 187 543 361 543c75 0 145 -61 145 -156c0 -168 -254 -553 -400 -553zM456 402c24 55 38 119 38 165c0 39 -9 65 -31 65c-64 0 -213 -151 -281 -334c-21 -59 -32 -115 -32 -158c0 -45 12 -74 38 -74c57 0 202 180 268 336z" />
    <glyph glyph-name="one" unicode="1" horiz-adv-x="417" 
d="M345 347c38 82 125 220 171 289c7 11 4 21 -13 30c-50 27 -65 21 -91 -25c-10 -17 -38 -46 -53 -61c-50 -50 -65 -65 -126 -119c-36 -32 -88 -64 -123 -96c-9 -9 -15 -19 -15 -29c0 -21 25 -42 35 -42c17 0 115 79 136 95c-11 -29 -138 -280 -169 -404
c-5 -15 6 -27 24 -23c23 5 33 6 43 20c27 52 181 364 181 365z" />
    <glyph glyph-name="two" unicode="2" horiz-adv-x="662" 
d="M46 0c-18 24 -26 44 -26 62c0 22 13 40 40 56c163 102 318 214 422 312c44 42 109 104 109 147c0 22 -18 37 -63 37c-94 0 -263 -69 -334 -200c-4 -7 -16 -20 -30 -6c-20 21 -34 40 -34 60c0 16 15 43 41 73c60 66 178 145 318 145c105 0 187 -47 187 -124
c0 -158 -457 -445 -457 -445s198 12 329 -34c67 -24 59 -69 51 -77c-6 -6 -39 6 -94 13c-72 8 -137 14 -201 14c-84 0 -165 -9 -258 -33z" />
    <glyph glyph-name="three" unicode="3" horiz-adv-x="587" 
d="M198 8c-77 0 -145 14 -181 28c-27 10 -48 24 -42 43c5 13 50 8 103 7c47 -2 109 -1 173 9c87 15 218 68 218 130c0 61 -123 108 -190 108c-35 0 -56 -8 -68 -8c-9 0 -13 4 -13 19c0 24 16 62 39 66c74 12 138 38 200 80c46 32 72 60 72 82c0 33 -56 42 -115 42
c-49 0 -102 -7 -137 -12c-19 -3 -33 -7 -45 -7c-24 0 -34 19 -34 44c0 21 8 42 14 43c56 9 110 16 152 16c146 0 224 -62 224 -134c0 -98 -114 -148 -181 -180c29 -8 70 -30 94 -47c44 -31 71 -78 71 -127c0 -137 -183 -202 -354 -202z" />
    <glyph glyph-name="four" unicode="4" horiz-adv-x="618" 
d="M356 -21c-28 0 -40 11 -40 30c0 34 66 178 91 237c2 6 2 9 -7 8c-52 -5 -291 -28 -306 -29c-28 -2 -42 8 -52 33c-8 23 -2 34 17 48l528 381c45 22 110 -6 100 -29l-147 -327c17 1 66 3 70 -1c11 -11 -4 -48 -21 -52c-16 -4 -60 -11 -80 -15
c-128 -253 -140 -284 -153 -284zM182 300c6 0 246 21 257 24c26 57 57 128 97 208c13 26 17 39 -2 25l-349 -247c-10 -7 -9 -10 -3 -10z" />
    <glyph glyph-name="five" unicode="5" horiz-adv-x="584" 
d="M126 7c-127 0 -111 88 -95 82c11 -3 33 -11 67 -11c166 0 347 185 347 278c0 32 -31 46 -72 46c-54 0 -126 -23 -172 -58c-7 -5 -13 -8 -22 -2c-24 15 -36 39 -36 63c0 12 4 25 10 36c61 96 124 213 140 233c9 16 30 16 35 16c58 -3 222 -5 296 -6c31 0 72 -2 74 -9
c5 -15 -25 -40 -80 -50c-88 -15 -216 -21 -272 -24l-102 -166c50 35 89 41 124 41c88 0 158 -41 158 -130c0 -148 -202 -339 -400 -339z" />
    <glyph glyph-name="six" unicode="6" horiz-adv-x="558" 
d="M163 0c-73 0 -135 49 -135 139c0 169 236 423 383 508c126 73 138 -14 129 -38c-27 -13 -70 -31 -98 -50c-125 -82 -288 -241 -327 -380c21 23 196 176 332 176c46 0 99 -33 99 -86c0 -129 -253 -269 -383 -269zM153 79c68 0 309 139 309 192c0 7 -6 10 -17 10
c-77 0 -310 -158 -306 -194c1 -6 6 -8 14 -8z" />
    <glyph glyph-name="seven" unicode="7" horiz-adv-x="530" 
d="M128 -11c-23 -6 -87 12 -50 61c86 114 462 580 462 580c-100 -11 -283 -31 -353 -20c-60 9 -49 93 -40 89c50 -12 95 -8 172 -7c77 2 182 3 260 3c51 0 65 -5 85 -31c14 -18 21 -40 9 -51c-254 -240 -417 -481 -545 -624z" />
    <glyph glyph-name="eight" unicode="8" horiz-adv-x="628" 
d="M253 -19c-150 0 -240 75 -240 168c0 61 39 128 124 187c84 59 214 112 227 120c-6 10 -35 43 -35 86c0 73 127 159 219 159c40 0 64 -16 84 -57c9 -18 13 -40 13 -62c0 -38 -13 -76 -40 -99c-30 -27 -74 -44 -119 -76c52 -76 83 -147 83 -209c0 -139 -175 -217 -316 -217
zM433 483c115 53 155 112 155 140c0 10 -6 12 -16 12c-28 0 -87 -24 -110 -37c-37 -19 -65 -42 -65 -58c0 -15 12 -31 36 -57zM206 39c56 0 269 39 269 184c0 62 -37 120 -59 146c-130 -48 -314 -125 -314 -245c0 -47 34 -85 104 -85z" />
    <glyph glyph-name="nine" unicode="9" horiz-adv-x="579" 
d="M260 -2c-10 -1 -56 -7 -69 14c-9 15 10 52 32 84c64 93 230 310 244 327c-18 -10 -39 -24 -54 -31c-90 -44 -173 -83 -224 -83c-21 0 -42 5 -58 20c-17 18 -23 45 -23 75c0 64 41 147 133 208c66 43 155 73 267 73c56 0 107 -10 119 -42c10 -28 53 -52 53 -78
c0 -23 -24 -55 -39 -73c-121 -148 -112 -123 -279 -352zM212 381c102 0 390 185 390 216c0 7 -12 10 -46 10c-200 0 -380 -112 -380 -197c0 -20 14 -29 36 -29z" />
    <glyph glyph-name="fraction" unicode="&#x2044;" horiz-adv-x="702" 
d="M47 -11c12 0 22 3 29 10c108 112 92 89 197 206c16 17 399 414 414 428c4 4 5 10 5 16c0 19 -15 51 -36 51c-12 0 -32 -16 -37 -23c-36 -39 -70 -74 -104 -111c-17 -18 -238 -249 -335 -367l-57 -67c-53 -59 -78 -90 -98 -117c-11 -14 -4 -26 22 -26z" />
    <glyph glyph-name="uni00B9" unicode="&#xb9;" horiz-adv-x="304" 
d="M287 622l13 19c4 6 4 11 4 17c0 13 -20 29 -35 29c-7 0 -13 -3 -17 -11c-4 -6 -7 -11 -13 -16c-4 -4 -76 -67 -82 -73c-15 -15 -2 -33 3 -33c6 0 15 6 20 9l32 24c-11 -24 -21 -46 -28 -61c-6 -15 -25 -52 -25 -68c0 -6 7 -13 12 -13c8 0 33 16 38 27c8 17 67 133 78 150
z" />
    <glyph glyph-name="uni00B2" unicode="&#xb2;" horiz-adv-x="346" 
d="M203 504c8 6 19 13 29 20c64 51 97 75 100 118c0 33 -37 46 -61 46c-41 0 -116 -46 -116 -77c0 -10 12 -28 21 -28c2 0 4 1 5 4c16 31 55 60 94 60c11 0 14 -3 11 -8c-39 -50 -98 -96 -157 -137c-8 -5 -11 -14 -11 -24c0 -16 10 -31 18 -29c18 5 37 9 69 9
c56 0 94 -7 95 -7c3 -1 8 0 9 7c3 19 -13 25 -25 29c-29 9 -48 12 -77 11c-10 0 -9 3 -4 6z" />
    <glyph glyph-name="uni00B3" unicode="&#xb3;" horiz-adv-x="320" 
d="M100 475c0 -13 19 -18 27 -20c22 -3 40 -4 62 -4c43 0 110 21 110 68c0 30 -32 52 -54 59c21 11 60 35 60 60c0 31 -44 49 -82 49c-42 -2 -53 -2 -53 -19c0 -12 6 -22 12 -24c7 -2 27 3 41 3c12 0 27 1 40 -5c6 -3 7 -6 3 -11c-15 -18 -49 -27 -67 -31
c-15 -5 -23 -18 -23 -30c0 -7 3 -12 9 -17c4 -2 15 -3 22 -3c23 -2 47 -10 53 -23c-8 -16 -63 -40 -110 -40c-24 0 -50 -2 -50 -12z" />
    <glyph glyph-name="asterisk" unicode="*" horiz-adv-x="340" 
d="M96 377c46 25 77 64 104 98c25 -27 31 -57 60 -82c4 -4 9 -4 12 -2c9 6 12 13 11 22c-2 26 -35 62 -28 87c36 19 96 0 123 35c4 6 9 13 -2 16c-26 8 -81 5 -121 9c16 22 25 38 35 54c9 15 12 31 -7 42c-17 10 -27 -3 -35 -14c-14 -17 -27 -34 -46 -58
c-14 24 -21 41 -32 55c-7 10 -13 15 -22 15c-12 0 -33 -9 -29 -19c10 -24 21 -52 31 -77c-40 -11 -86 -4 -115 -27c-4 -3 -8 -8 -5 -17c12 -56 62 -28 99 -32c-5 -28 -36 -62 -44 -86c-1 -3 -2 -6 -2 -9c0 -9 9 -12 13 -10z" />
    <glyph glyph-name="backslash" unicode="\" horiz-adv-x="594" 
d="M439 -71c-13 40 -23 76 -43 132c-31 86 -71 206 -100 282c-2 5 -142 371 -150 390c-10 24 -13 32 -30 34c-6 1 -13 1 -21 -4c-11 -9 -31 -29 -26 -45c198 -477 249 -621 271 -679c15 -43 34 -77 49 -115c13 -31 57 -16 50 5z" />
    <glyph glyph-name="periodcentered" unicode="&#xb7;" horiz-adv-x="216" 
d="M99 279c29 0 60 20 60 47c0 9 -3 19 -9 27c-11 13 -26 34 -42 34c-19 0 -51 -26 -51 -59c0 -20 14 -49 42 -49z" />
    <glyph glyph-name="bullet" unicode="&#x2022;" horiz-adv-x="460" 
d="M138 360c-53 -30 -73 -55 -73 -93c0 -51 28 -103 76 -103c57 0 117 39 117 90c0 39 -48 106 -90 112c-13 2 -25 -3 -30 -6z" />
    <glyph glyph-name="colon" unicode=":" horiz-adv-x="306" 
d="M181 240c29 0 60 20 60 47c0 9 -3 19 -9 27c-11 13 -26 34 -42 34c-19 0 -51 -26 -51 -59c0 -20 14 -49 42 -49zM98 -8c29 0 60 20 60 47c0 9 -3 19 -9 27c-11 13 -26 34 -42 34c-19 0 -51 -26 -51 -59c0 -20 14 -49 42 -49z" />
    <glyph glyph-name="comma" unicode="," horiz-adv-x="271" 
d="M24 -79c8 -8 15 -11 21 -11c16 0 64 43 81 65c16 20 30 42 30 59c0 31 -17 59 -49 59c-29 0 -55 -16 -55 -47c0 -9 3 -19 10 -29c6 -9 10 -18 6 -27c-9 -23 -22 -35 -39 -55c-6 -6 -9 -10 -5 -14z" />
    <glyph glyph-name="ellipsis" unicode="&#x2026;" horiz-adv-x="700" 
d="M99 -8c29 0 60 20 60 47c0 9 -3 19 -9 27c-11 13 -26 34 -42 34c-19 0 -51 -26 -51 -59c0 -20 14 -49 42 -49zM298 -8c29 0 60 20 60 47c0 9 -3 19 -9 27c-11 13 -26 34 -42 34c-19 0 -51 -26 -51 -59c0 -20 14 -49 42 -49zM495 -8c29 0 60 20 60 47c0 9 -3 19 -9 27
c-11 13 -26 34 -42 34c-19 0 -51 -26 -51 -59c0 -20 14 -49 42 -49z" />
    <glyph glyph-name="exclam" unicode="!" horiz-adv-x="427" 
d="M160 154c-15 0 -37 16 -34 30c67 305 167 488 182 504c6 5 16 7 26 7c30 0 71 -23 71 -43c0 0 -114 -178 -222 -475c-6 -17 -13 -23 -23 -23zM115 -8c29 0 60 20 60 47c0 9 -3 19 -9 27c-11 13 -26 34 -42 34c-19 0 -51 -26 -51 -59c0 -20 14 -49 42 -49z" />
    <glyph glyph-name="exclamdown" unicode="&#xa1;" horiz-adv-x="387" 
d="M311 550c-29 0 -60 -20 -60 -47c0 -9 3 -19 9 -27c11 -13 26 -34 42 -34c19 0 51 26 51 59c0 20 -14 49 -42 49zM266 388c15 0 37 -16 34 -30c-67 -305 -167 -488 -182 -504c-6 -5 -16 -7 -26 -7c-30 0 -71 23 -71 43c0 0 114 178 222 475c6 17 13 23 23 23z" />
    <glyph glyph-name="numbersign" unicode="#" horiz-adv-x="700" 
d="M377 227c-43 -105 -91 -202 -82 -181c-14 -32 -13 -56 13 -72c14 -8 21 0 25 6c15 22 86 152 114 211c14 29 30 44 45 46c50 7 116 7 163 18c23 4 28 50 10 50c-55 0 -110 -7 -150 4c21 38 41 71 68 123c36 1 160 1 160 19c0 47 -74 29 -126 41c13 21 49 98 61 122
c8 13 12 22 12 30s-9 22 -22 30c-24 13 -27 7 -38 -8c-43 -64 -100 -170 -116 -177c-18 0 -45 0 -85 3c9 17 59 104 69 132c2 7 4 13 4 18c0 18 -12 29 -32 37c-9 4 -13 8 -21 -7c14 22 -95 -165 -109 -180c-23 -4 -160 -1 -176 -4c-24 -6 -56 -82 -16 -82
c21 0 82 -1 137 -1c11 0 7 -4 5 -8c-20 -38 -41 -79 -56 -104c-27 -4 -104 -3 -130 -10c-14 -4 -43 -52 -23 -60c23 -11 85 -5 113 -14c-19 -53 -51 -118 -70 -173c-1 -3 -5 -9 -5 -16c0 -16 24 -34 39 -34c11 0 13 12 19 24c21 40 68 132 109 213c17 2 40 2 91 4zM483 418
c-35 -69 -50 -86 -67 -113c-16 -10 -50 -7 -79 -5c-3 0 -4 2 -3 7c10 32 39 79 57 108c8 14 59 12 88 10c6 -1 6 -3 4 -7z" />
    <glyph glyph-name="period" unicode="." horiz-adv-x="274" 
d="M99 -8c29 0 60 20 60 47c0 9 -3 19 -9 27c-11 13 -26 34 -42 34c-19 0 -51 -26 -51 -59c0 -20 14 -49 42 -49z" />
    <glyph glyph-name="question" unicode="?" horiz-adv-x="641" 
d="M137 165c-4 63 20 117 59 159c76 79 201 119 255 146c64 32 91 65 91 92c0 35 -38 60 -109 60c-95 0 -175 -30 -211 -48c-19 -10 -25 -16 -32 -16c-8 0 -36 17 -45 32c-19 29 128 113 243 113c159 0 219 -110 219 -176c0 -78 -50 -119 -117 -149
c-75 -35 -151 -51 -213 -85c-46 -26 -82 -65 -105 -126c-10 -23 -27 -13 -35 -2zM132 -8c-25 0 -49 16 -49 48c0 24 20 53 44 65c13 6 22 -9 37 -24c9 -9 20 -22 20 -36c0 -39 -25 -53 -52 -53z" />
    <glyph glyph-name="questiondown" unicode="&#xbf;" horiz-adv-x="601" 
d="M489 520c25 0 49 -16 49 -48c0 -24 -20 -53 -44 -65c-13 -6 -22 9 -37 24c-9 9 -20 22 -20 36c0 39 25 53 52 53zM484 347c4 -63 -20 -117 -59 -159c-76 -79 -201 -119 -255 -146c-64 -32 -91 -65 -91 -92c0 -35 38 -60 109 -60c95 0 175 30 211 48c19 10 25 16 32 16
c8 0 36 -17 45 -32c19 -29 -128 -113 -243 -113c-159 0 -219 110 -219 176c0 78 50 119 117 149c75 35 151 51 213 85c46 26 82 65 105 126c10 23 27 13 35 2z" />
    <glyph glyph-name="quotedbl" unicode="&#x22;" horiz-adv-x="511" 
d="M184 472c12 0 21 5 27 10c53 49 119 141 119 160c0 15 -13 32 -32 42c-23 12 -43 8 -57 -19c-18 -34 -78 -151 -85 -166c-8 -15 12 -27 28 -27zM355 472c12 0 21 5 27 10c53 49 119 141 119 160c0 15 -13 32 -32 42c-23 12 -43 8 -57 -19c-18 -34 -78 -151 -85 -166
c-8 -15 12 -27 28 -27z" />
    <glyph glyph-name="quotesingle" unicode="'" horiz-adv-x="340" 
d="M184 472c12 0 21 5 27 10c53 49 119 141 119 160c0 15 -13 32 -32 42c-23 12 -43 8 -57 -19c-18 -34 -78 -151 -85 -166c-8 -15 12 -27 28 -27z" />
    <glyph glyph-name="semicolon" unicode=";" horiz-adv-x="296" 
d="M171 251c29 0 60 20 60 47c0 9 -3 19 -9 27c-11 13 -26 34 -42 34c-19 0 -51 -26 -51 -59c0 -20 14 -49 42 -49zM24 -79c8 -8 15 -11 21 -11c16 0 64 43 81 65c16 20 30 42 30 59c0 31 -17 59 -49 59c-29 0 -55 -16 -55 -47c0 -9 3 -19 10 -29c6 -9 10 -18 6 -27
c-9 -23 -22 -35 -39 -55c-6 -6 -9 -10 -5 -14z" />
    <glyph glyph-name="slash" unicode="/" horiz-adv-x="544" 
d="M133 -53c21 35 45 65 67 105c30 54 103 189 373 629c8 15 -9 38 -19 48c-7 6 -14 8 -20 8c-17 0 -21 -7 -35 -29c-11 -18 -206 -357 -209 -362c-40 -71 -98 -183 -142 -263c-29 -52 -44 -86 -63 -124c-10 -19 31 -41 48 -12z" />
    <glyph glyph-name="underscore" unicode="_" horiz-adv-x="672" 
d="M592 37c0 12 -7 21 -27 28c-35 11 -112 11 -204 11c-88 0 -202 -10 -256 -19c-17 -3 -24 -12 -24 -21c0 -21 18 -23 28 -24c30 -3 160 6 227 6s135 3 236 -1c12 -1 20 -3 20 20z" />
    <glyph glyph-name="braceleft" unicode="{" horiz-adv-x="490" 
d="M211 279c74 47 136 130 163 223c9 31 45 88 70 110c29 27 53 52 88 52c23 0 46 -10 54 -10c19 0 35 22 35 48c0 23 -13 43 -37 43c-67 0 -121 -10 -166 -40c-78 -55 -92 -132 -123 -211c-29 -68 -62 -133 -137 -161c-24 -11 -35 -29 -35 -57c0 -27 6 -43 17 -48
c25 -11 38 -22 45 -32c3 -4 5 -8 1 -13c-22 -31 -45 -60 -65 -91c-14 -20 -20 -40 -20 -61c0 -60 28 -98 96 -98c21 0 90 7 90 47c0 13 -8 13 -18 13c-14 -1 -30 -3 -45 -3c-20 0 -38 5 -49 23c-4 7 -1 12 1 15c27 47 54 72 73 94c16 18 24 40 24 62c0 14 -3 28 -10 42
c-16 33 -57 50 -52 53z" />
    <glyph glyph-name="braceright" unicode="}" horiz-adv-x="510" 
d="M272 376c-20 -28 -36 -60 -36 -89c0 -22 11 -42 37 -59c6 -4 6 -7 0 -8c-47 -10 -84 -77 -100 -112c-26 -57 -11 -111 -56 -111c-23 0 -50 24 -72 24c-20 0 -21 -22 -21 -39c0 -26 54 -45 88 -45c38 0 75 15 98 59c21 50 42 150 127 166c38 7 52 40 52 62
c0 17 -12 26 -29 28c-28 5 -37 19 -37 35c0 31 49 90 86 128c65 67 121 112 121 179c0 76 -67 117 -125 117c-27 0 -76 -7 -76 -35c0 -32 32 -30 60 -30c38 0 56 -10 69 -23c2 -2 3 -5 3 -8c0 -41 -167 -207 -189 -239z" />
    <glyph glyph-name="bracketleft" unicode="[" horiz-adv-x="576" 
d="M173 51c28 55 49 118 71 160c58 117 140 262 197 379c16 33 32 37 70 39c49 3 87 6 135 4c39 -2 44 23 57 45c19 31 -57 34 -87 35c-42 1 -80 4 -126 4c-38 0 -57 -2 -77 -32c-86 -130 -252 -458 -325 -597c-16 -31 -26 -58 -26 -87s12 -44 50 -39c77 7 98 10 174 15
c27 3 56 2 83 4c20 1 36 15 42 36c3 12 4 17 -17 21c-82 8 -127 5 -221 13z" />
    <glyph glyph-name="bracketright" unicode="]" horiz-adv-x="599" 
d="M541 604c-52 -110 -241 -491 -251 -508c-19 -33 -25 -45 -63 -48c-59 -4 -100 -6 -148 -4c-39 2 -48 -22 -57 -45c-12 -31 57 -33 87 -35c42 -2 87 -3 132 -4c38 -1 54 2 74 32c122 184 208 401 322 597c15 26 23 49 23 72c0 39 -14 44 -35 42c-77 -7 -110 -5 -186 -5
c-27 0 -56 0 -83 -2c-22 -1 -38 -17 -43 -41c-2 -12 2 -13 15 -16c78 -7 122 -5 205 -12c15 -1 12 -13 8 -23z" />
    <glyph glyph-name="parenleft" unicode="(" horiz-adv-x="470" 
d="M155 -52c14 21 17 44 24 82c34 182 104 429 343 587c18 11 28 25 28 42c0 25 -21 60 -43 60c-20 0 -61 -25 -86 -48c-226 -198 -286 -427 -310 -674c-4 -34 2 -66 23 -66c7 0 14 6 21 17z" />
    <glyph glyph-name="parenright" unicode=")" horiz-adv-x="490" 
d="M416 693c-13 -22 -15 -45 -21 -83c-27 -183 -87 -433 -320 -600c-18 -12 -27 -26 -26 -43c1 -25 23 -60 45 -59c20 1 60 28 84 52c218 206 270 438 284 686c3 34 -5 66 -26 65c-7 0 -13 -7 -20 -18z" />
    <glyph glyph-name="emdash" unicode="&#x2014;" horiz-adv-x="1006" 
d="M920 256c0 52 -178 46 -295 46c-133 0 -283 -3 -394 -12c-87 -8 -146 -14 -146 -37c0 -6 -6 -18 14 -24c9 -4 60 -4 82 -3c186 5 329 9 695 4c34 0 44 4 44 26z" />
    <glyph glyph-name="endash" unicode="&#x2013;" horiz-adv-x="707" 
d="M625 256c0 52 -115 46 -191 46c-87 0 -184 -3 -256 -12c-57 -8 -95 -14 -95 -37c0 -6 -4 -18 9 -24c6 -4 39 -4 53 -3c121 5 214 9 452 4c22 0 28 4 28 26z" />
    <glyph glyph-name="hyphen" unicode="-" horiz-adv-x="524" 
d="M444 256c0 52 -77 46 -128 46c-58 0 -123 -3 -171 -12c-38 -8 -63 -14 -63 -37c0 -6 -3 -18 6 -24c4 -4 26 -4 35 -3c81 5 143 9 302 4c15 0 19 4 19 26z" />
    <glyph glyph-name="guillemotleft" unicode="&#xab;" horiz-adv-x="627" 
d="M153 218c54 40 116 64 159 93c22 15 20 34 15 45c-7 14 -15 24 -29 23c-9 -1 -22 -7 -38 -17c-49 -30 -118 -63 -157 -99c-18 -16 -27 -34 -25 -52c2 -30 42 -68 73 -94c12 -12 84 -67 103 -66c8 0 12 6 11 20c-3 41 -92 99 -114 139c-2 3 0 6 2 8zM353 212
c54 40 116 64 159 93c22 15 20 34 15 45c-7 14 -15 24 -29 23c-9 -1 -22 -7 -38 -17c-49 -30 -118 -63 -157 -99c-18 -16 -27 -34 -25 -52c2 -30 42 -68 73 -94c12 -12 84 -67 103 -66c8 0 12 6 11 20c-3 41 -92 99 -114 139c-2 3 0 6 2 8z" />
    <glyph glyph-name="guillemotright" unicode="&#xbb;" horiz-adv-x="588" 
d="M244 224c-54 -40 -116 -64 -159 -93c-22 -15 -20 -34 -15 -45c7 -14 15 -24 29 -23c9 1 22 7 38 17c49 30 118 63 157 99c18 16 27 34 25 52c-2 30 -42 68 -73 94c-12 12 -84 67 -103 66c-8 0 -12 -6 -11 -20c3 -41 92 -99 114 -139c2 -3 0 -6 -2 -8zM434 213
c-54 -40 -116 -64 -159 -93c-22 -15 -20 -34 -15 -45c7 -14 15 -24 29 -23c9 1 22 7 38 17c49 30 118 63 157 99c18 16 27 34 25 52c-2 30 -42 68 -73 94c-12 12 -84 67 -103 66c-8 0 -12 -6 -11 -20c3 -41 92 -99 114 -139c2 -3 0 -6 -2 -8z" />
    <glyph glyph-name="guilsinglleft" unicode="&#x2039;" horiz-adv-x="436" 
d="M154 218c56 36 120 55 165 81c23 14 22 33 18 44c-6 15 -14 25 -28 25c-9 0 -22 -5 -39 -14c-51 -27 -122 -55 -163 -88c-19 -15 -29 -32 -29 -50c0 -30 37 -71 66 -99c12 -13 80 -73 99 -73c8 0 12 5 12 19c0 41 -85 105 -104 147c-2 3 0 6 3 8z" />
    <glyph glyph-name="guilsinglright" unicode="&#x203a;" horiz-adv-x="406" 
d="M251 179c-56 -36 -120 -55 -165 -81c-23 -14 -22 -33 -18 -44c6 -15 14 -25 28 -25c9 0 22 5 39 14c51 27 122 55 163 88c19 15 29 32 29 50c0 30 -37 71 -66 99c-12 13 -80 73 -99 73c-8 0 -12 -5 -12 -19c0 -41 85 -105 104 -147c2 -3 0 -6 -3 -8z" />
    <glyph glyph-name="quotedblbase" unicode="&#x201e;" horiz-adv-x="570" 
d="M33 -89c10 -10 19 -14 26 -14c21 0 82 55 103 83c21 26 38 54 38 75c0 40 -21 75 -62 75c-37 0 -70 -20 -70 -59c0 -12 4 -25 13 -37c8 -12 13 -23 8 -35c-12 -29 -28 -44 -50 -70c-8 -7 -12 -12 -6 -18zM244 -89c10 -10 19 -14 26 -14c21 0 82 55 103 83
c21 26 38 54 38 75c0 40 -21 75 -62 75c-37 0 -70 -20 -70 -59c0 -12 4 -25 13 -37c8 -12 13 -23 8 -35c-12 -29 -28 -44 -50 -70c-8 -7 -12 -12 -6 -18z" />
    <glyph glyph-name="quotedblleft" unicode="&#x201c;" horiz-adv-x="610" 
d="M403 693c-10 10 -19 14 -26 14c-21 0 -82 -55 -103 -83c-21 -26 -38 -54 -38 -75c0 -40 21 -75 62 -75c37 0 70 20 70 59c0 12 -4 25 -13 37c-8 12 -13 23 -8 35c12 29 28 44 50 70c8 7 12 12 6 18zM613 693c-10 10 -19 14 -26 14c-21 0 -82 -55 -103 -83
c-21 -26 -38 -54 -38 -75c0 -40 21 -75 62 -75c37 0 70 20 70 59c0 12 -4 25 -13 37c-8 12 -13 23 -8 35c12 29 28 44 50 70c8 7 12 12 6 18z" />
    <glyph glyph-name="quotedblright" unicode="&#x201d;" horiz-adv-x="558" 
d="M191 488c10 -10 19 -14 26 -14c21 0 82 55 103 83c21 26 38 54 38 75c0 40 -21 75 -62 75c-37 0 -70 -20 -70 -59c0 -12 4 -25 13 -37c8 -12 13 -23 8 -35c-12 -29 -28 -44 -50 -70c-8 -7 -12 -12 -6 -18zM399 488c10 -10 19 -14 26 -14c21 0 82 55 103 83
c21 26 38 54 38 75c0 40 -21 75 -62 75c-37 0 -70 -20 -70 -59c0 -12 4 -25 13 -37c8 -12 13 -23 8 -35c-12 -29 -28 -44 -50 -70c-8 -7 -12 -12 -6 -18z" />
    <glyph glyph-name="quoteleft" unicode="&#x2018;" horiz-adv-x="370" 
d="M393 693c-10 10 -19 14 -26 14c-21 0 -82 -55 -103 -83c-21 -26 -38 -54 -38 -75c0 -40 21 -75 62 -75c37 0 70 20 70 59c0 12 -4 25 -13 37c-8 12 -13 23 -8 35c12 29 28 44 50 70c8 7 12 12 6 18z" />
    <glyph glyph-name="quoteright" unicode="&#x2019;" horiz-adv-x="350" 
d="M191 488c10 -10 19 -14 26 -14c21 0 82 55 103 83c21 26 38 54 38 75c0 40 -21 75 -62 75c-37 0 -70 -20 -70 -59c0 -12 4 -25 13 -37c8 -12 13 -23 8 -35c-12 -29 -28 -44 -50 -70c-8 -7 -12 -12 -6 -18z" />
    <glyph glyph-name="quotesinglbase" unicode="&#x201a;" horiz-adv-x="390" 
d="M43 -89c10 -10 19 -14 26 -14c21 0 82 55 103 83c21 26 38 54 38 75c0 40 -21 75 -62 75c-37 0 -70 -20 -70 -59c0 -12 4 -25 13 -37c8 -12 13 -23 8 -35c-12 -29 -28 -44 -50 -70c-8 -7 -12 -12 -6 -18z" />
    <glyph glyph-name="space" unicode=" " horiz-adv-x="220" 
 />
    <glyph glyph-name="cent" unicode="&#xa2;" horiz-adv-x="351" 
d="M343 453c6 -6 17 -21 12 -31c-19 -31 -36 -60 -53 -87c14 -28 24 -57 24 -89c-2 -17 -4 -29 -17 -29c-31 0 -37 29 -46 52c-53 -90 -87 -149 -110 -189c50 3 98 20 148 40c16 8 22 -2 22 -17c0 -43 -135 -93 -190 -93c-6 0 -12 0 -18 1c-14 -24 -29 -43 -41 -64
c-11 -19 -37 -5 -31 7c10 22 19 41 34 68c-47 21 -83 64 -83 104c0 64 70 168 247 240c9 4 19 5 27 4c21 36 38 66 40 70c9 14 11 19 22 19c4 0 9 -2 13 -6zM109 82c23 43 47 90 65 123c1 1 18 32 41 71c-60 -30 -151 -108 -151 -169c0 -14 21 -22 45 -25z" />
    <glyph glyph-name="currency" unicode="&#xa4;" horiz-adv-x="618" 
d="M108 547c0 -25 52 -87 68 -115c5 -10 3 -8 0 -17c-23 -45 -27 -100 -11 -148c12 -37 -3 -42 -28 -64c-28 -25 -79 -51 -77 -71c1 -13 19 -31 35 -31c14 0 53 30 85 46c20 11 50 29 73 26c17 -2 44 -6 71 -6c61 0 60 15 75 5c45 -30 81 -57 126 -87c2 -1 8 -5 16 -5
c10 0 39 14 39 35c0 18 -27 45 -43 61c-22 21 -70 54 -58 69c36 41 64 84 54 143c-2 12 10 28 19 39c42 45 106 96 106 120c0 18 -27 30 -50 30c-20 0 -123 -87 -143 -100c-3 -2 -7 -1 -10 0c-37 14 -64 20 -93 20s-58 -6 -100 -17c-24 38 -77 98 -121 98
c-19 0 -33 -9 -33 -31zM246 258c0 110 90 170 167 168c16 -1 23 -7 27 -16c27 -71 -101 -192 -184 -169c-7 2 -11 4 -10 17z" />
    <glyph glyph-name="dollar" unicode="$" horiz-adv-x="562" 
d="M610 577c4 -13 -30 -37 -49 -20c-24 22 -49 36 -74 44c-27 -52 -60 -117 -95 -186c40 -9 80 -21 110 -40c46 -29 66 -64 66 -99c0 -111 -201 -240 -383 -284l-51 -106c-6 -10 -18 -17 -30 -17c-20 0 -20 15 -15 29c9 24 18 47 27 68l6 14c-20 -3 -39 -4 -57 -4
c-70 0 -87 106 -51 97c48 -13 99 -10 149 2c35 76 81 172 128 268c-18 6 -38 12 -59 18c-66 20 -104 46 -104 92c0 133 194 249 339 234c27 49 46 80 50 80c22 0 32 -57 19 -78c-3 -5 -7 -11 -10 -17c38 -17 68 -48 84 -95zM224 479c0 -29 49 -40 109 -52
c33 66 65 129 93 183c-108 -1 -202 -94 -202 -131zM472 270c0 20 -40 33 -123 57c-40 -79 -79 -159 -113 -229c129 51 236 148 236 172z" />
    <glyph glyph-name="Euro" unicode="&#x20ac;" horiz-adv-x="670" 
d="M317 -8c-109 0 -173 82 -124 264c-49 10 -117 -13 -137 42c-9 27 1 31 19 32c37 1 74 1 111 3s38 5 48 49c-41 13 -105 -10 -121 47c-6 19 4 33 24 34c35 1 70 1 104 1c37 0 47 0 57 16c82 131 194 216 288 216c65 0 121 -40 154 -130c11 -32 14 -46 -19 -46
c-18 0 -26 7 -34 19c-18 28 -37 85 -85 85c-63 0 -153 -104 -184 -162c64 -10 105 -2 152 -25c22 -11 2 -35 -34 -38c-54 -5 -105 -9 -159 -17c-20 -3 -36 -8 -37 -39c41 0 80 -1 119 -2c29 -1 59 -2 89 -4c9 -1 14 -8 14 -15s-5 -15 -15 -17c-30 -7 -185 -35 -207 -41
c-16 -4 -35 -2 -45 -34c-34 -105 -27 -166 50 -166c48 0 116 20 244 80c19 8 34 17 34 -4c0 -22 -10 -37 -27 -46c-103 -57 -200 -102 -279 -102z" />
    <glyph glyph-name="sterling" unicode="&#xa3;" horiz-adv-x="579" 
d="M58 14c-20 -2 -48 27 -48 49c0 20 16 33 47 47c77 34 127 104 167 181c-46 -2 -83 -4 -109 21c-19 17 -22 59 -1 59c84 0 113 -5 135 -1c52 144 91 324 246 324c57 0 105 -36 105 -112c0 -39 -12 -74 -23 -82c-27 -21 -72 -27 -66 -8c13 40 19 70 19 91
c0 26 -10 38 -24 38c-85 0 -146 -217 -160 -254c161 -8 186 -17 163 -55c-16 -22 -96 -18 -189 -24c-27 -66 -61 -125 -109 -176c104 -7 208 -13 279 -24c9 -2 28 -6 28 -38c0 -16 -14 -20 -38 -20c-136 0 -168 9 -422 -16z" />
    <glyph glyph-name="yen" unicode="&#xa5;" horiz-adv-x="569" 
d="M273 306c0 -4 -11 -33 -16 -36c-40 -8 -79 0 -118 0c-36 0 -73 0 -47 -43c9 -16 22 -27 45 -27c29 0 59 -2 94 -4c-14 -32 -39 -82 -50 -108c-12 -29 -40 -100 -13 -100c55 0 115 134 141 178c14 27 18 32 46 38c40 8 156 22 179 34c13 10 11 21 4 25c-16 10 -53 9 -96 9
c-38 0 -49 -1 -85 0c10 18 19 39 29 43c59 23 133 11 169 22c18 6 22 24 11 30c-30 12 -78 14 -130 15c9 8 203 222 255 270c18 19 30 21 19 39c-10 19 -31 22 -55 8c-42 -25 -242 -247 -285 -294c-6 -6 -10 -4 -13 3c-26 67 -63 210 -89 278c-6 16 -23 26 -53 26
c-25 0 -41 -5 -37 -24c4 -16 7 -32 12 -46c46 -143 46 -143 79 -256h-148c-14 0 -22 -2 -22 -21c0 -40 59 -45 84 -48c33 -4 58 -6 90 -11z" />
    <glyph glyph-name="approxequal" unicode="&#x2248;" horiz-adv-x="523" 
d="M117 308c34 0 58 44 106 46c36 0 80 -64 147 -64c51 0 98 33 128 66c10 11 14 25 12 38c-4 23 -11 23 -25 17c-49 -21 -82 -58 -113 -58c-40 0 -67 65 -139 65c-63 0 -129 -40 -150 -73c-11 -17 16 -37 34 -37zM87 173c34 0 58 44 106 46c36 0 80 -64 147 -64
c51 0 98 33 128 66c10 11 14 25 12 38c-4 23 -11 23 -25 17c-49 -21 -82 -58 -113 -58c-40 0 -67 65 -139 65c-63 0 -129 -40 -150 -73c-11 -17 16 -37 34 -37z" />
    <glyph glyph-name="asciitilde" unicode="~" horiz-adv-x="600" 
d="M70 233c42 0 71 54 126 56c49 0 108 -78 185 -78c63 0 112 40 158 76c14 11 23 26 23 42c0 30 -11 29 -30 19c-53 -23 -110 -58 -142 -60c-55 3 -104 73 -176 73c-77 0 -153 -54 -186 -85c-19 -19 20 -43 42 -43z" />
    <glyph glyph-name="divide" unicode="&#xf7;" horiz-adv-x="580" 
d="M323 397c32 0 65 22 65 52c0 9 -3 20 -9 29c-12 14 -29 37 -46 37c-21 0 -56 -28 -56 -64c0 -22 15 -54 46 -54zM539 290c0 56 -97 49 -162 49c-74 0 -157 -3 -218 -13c-48 -8 -81 -15 -81 -40c0 -6 -3 -19 8 -26c5 -4 33 -4 45 -3c103 5 182 10 385 4c18 0 23 5 23 29z
M267 73c32 0 65 22 65 52c0 9 -3 20 -9 29c-12 14 -29 37 -46 37c-21 0 -56 -28 -56 -64c0 -22 15 -54 46 -54z" />
    <glyph glyph-name="equal" unicode="=" horiz-adv-x="610" 
d="M551 362c0 50 -97 44 -162 44c-74 0 -157 -3 -218 -12c-48 -7 -81 -13 -81 -35c0 -6 -3 -17 8 -23c5 -4 33 -4 45 -3c103 4 182 9 385 4c18 0 23 4 23 25zM521 212c0 50 -97 44 -162 44c-74 0 -157 -3 -218 -12c-48 -7 -81 -13 -81 -35c0 -6 -3 -17 8 -23
c5 -4 33 -4 45 -3c103 4 182 9 385 4c18 0 23 4 23 25z" />
    <glyph glyph-name="greater" unicode="&#x3e;" horiz-adv-x="625" 
d="M167 37c9 0 21 3 37 10c146 62 381 137 381 202c0 53 -95 95 -164 119c-90 29 -181 58 -283 88c-40 12 -42 -3 -42 -24c0 -45 42 -62 75 -72c91 -29 277 -79 277 -97c0 -35 -213 -99 -313 -174c-19 -15 9 -52 32 -52z" />
    <glyph glyph-name="greaterequal" unicode="&#x2265;" horiz-adv-x="634" 
d="M182 159c9 0 21 3 37 10c146 62 381 137 381 202c0 53 -95 95 -164 119c-90 29 -181 58 -283 88c-40 12 -42 -3 -42 -24c0 -45 42 -62 75 -72c91 -29 277 -79 277 -97c0 -35 -213 -99 -313 -174c-19 -15 9 -52 32 -52zM537 72c0 56 -103 49 -172 49
c-79 0 -167 -3 -232 -13c-51 -8 -86 -15 -86 -40c0 -6 -3 -19 8 -26c6 -4 35 -4 48 -3c110 5 194 10 410 4c19 0 24 5 24 29z" />
    <glyph glyph-name="less" unicode="&#x3c;" horiz-adv-x="588" 
d="M446 62c-27 42 -84 69 -120 91c-39 25 -80 48 -127 75c-8 5 -8 11 2 15c117 51 228 93 344 151c21 10 -12 58 -54 58c-13 0 -30 -5 -54 -13c-109 -39 -218 -81 -329 -118c-39 -12 -65 -26 -67 -67c-2 -38 15 -62 52 -78c96 -41 207 -94 302 -135c49 -19 80 -25 51 21z
" />
    <glyph glyph-name="lessequal" unicode="&#x2264;" horiz-adv-x="588" 
d="M517 182c-27 42 -84 69 -120 91c-39 25 -80 48 -127 75c-8 5 -8 11 2 15c117 51 228 93 344 151c21 10 -12 58 -54 58c-13 0 -30 -5 -54 -13c-109 -39 -218 -81 -329 -118c-39 -12 -65 -26 -67 -67c-2 -38 15 -62 52 -78c96 -41 207 -94 302 -135c49 -19 80 -25 51 21z
M548 72c0 56 -103 49 -172 49c-79 0 -168 -3 -233 -13c-51 -8 -86 -15 -86 -40c0 -6 -3 -19 9 -26c5 -4 35 -4 48 -3c109 5 193 10 410 4c19 0 24 5 24 29z" />
    <glyph glyph-name="minus" unicode="&#x2212;" horiz-adv-x="580" 
d="M539 290c0 56 -97 49 -162 49c-74 0 -157 -3 -218 -13c-48 -8 -81 -15 -81 -40c0 -6 -3 -19 8 -26c5 -4 33 -4 45 -3c103 5 182 10 385 4c18 0 23 5 23 29z" />
    <glyph glyph-name="multiply" unicode="&#xd7;" horiz-adv-x="570" 
d="M452 158c10 -9 30 -31 30 -37c2 -13 -11 -17 -15 -20c-21 -13 -50 10 -91 44c-31 26 -59 56 -87 88c-41 -40 -73 -73 -110 -111c-9 -10 -31 -31 -37 -31c-13 -3 -17 10 -20 15c-14 20 8 50 41 92c22 27 50 58 80 88l-15 17c-46 52 -122 126 -76 155c20 13 28 11 41 -3
c40 -48 73 -86 100 -119c11 12 23 22 34 33c51 49 123 126 153 81c13 -20 12 -27 -2 -41c-57 -51 -102 -92 -139 -127c41 -47 72 -81 113 -124z" />
    <glyph glyph-name="notequal" unicode="&#x2260;" horiz-adv-x="610" 
d="M449 406c52 -1 102 -8 102 -44c0 -21 -5 -25 -23 -25c-54 1 -100 2 -139 2c-27 -31 -51 -59 -71 -83h41c65 0 162 6 162 -44c0 -21 -5 -25 -23 -25c-105 3 -176 2 -235 1c-17 -21 -33 -41 -50 -63c-8 -10 -27 -33 -33 -34c-12 -4 -18 8 -22 12c-13 17 0 45 24 83l-69 -3
c-12 -1 -40 -1 -45 3c-11 6 -8 17 -8 23c0 22 33 28 81 35c26 4 55 6 86 8c21 28 44 58 67 86c-56 -1 -101 -3 -151 -5c-12 -1 -40 -1 -45 3c-11 6 -8 17 -8 23c0 22 33 28 81 35c51 7 116 11 180 12c43 51 97 113 128 77c15 -18 14 -26 2 -41c-11 -13 -22 -24 -32 -36z" />
    <glyph glyph-name="partialdiff" unicode="&#x2202;" horiz-adv-x="410" 
d="M260 329c-12 19 -29 53 -75 53c-93 0 -215 -177 -201 -277c5 -56 41 -97 85 -97c182 0 347 440 346 545c0 76 -64 143 -111 143c-42 0 -151 -51 -248 -156c-14 -15 -11 -65 43 -31c71 46 168 118 210 118c25 0 36 -22 32 -65c-8 -96 -47 -160 -81 -233zM52 91
c0 86 62 193 135 219c18 6 23 0 28 -6c12 -15 20 -26 5 -48c-41 -60 -82 -128 -151 -173c-11 -7 -17 -6 -17 8z" />
    <glyph glyph-name="percent" unicode="%" horiz-adv-x="854" 
d="M164 -11c12 0 22 3 29 10c108 112 92 89 197 206c16 17 399 414 414 428c4 4 5 10 5 16c0 19 -15 51 -36 51c-12 0 -32 -16 -37 -23c-36 -39 -70 -74 -104 -111c-17 -18 -238 -249 -335 -367l-57 -67c-53 -59 -78 -90 -98 -117c-11 -14 -4 -26 22 -26zM245 353
c-65 0 -118 45 -118 128c0 39 12 83 38 122c31 48 79 85 135 85c74 0 139 -64 139 -137c0 -90 -93 -198 -194 -198zM246 417c19 0 48 20 70 50c21 31 33 70 33 101c0 29 -10 51 -30 51c-56 0 -109 -97 -109 -157c0 -26 10 -45 36 -45zM644 1c-65 0 -118 45 -118 128
c0 39 13 83 38 122c31 48 79 85 135 85c74 0 139 -64 139 -137c0 -90 -93 -198 -194 -198zM645 65c19 0 49 19 70 50s33 70 33 101c0 29 -10 51 -30 51c-56 0 -109 -97 -109 -157c0 -26 10 -45 36 -45z" />
    <glyph glyph-name="perthousand" unicode="&#x2030;" horiz-adv-x="1209" 
d="M164 -11c12 0 22 3 29 10c108 112 92 89 197 206c16 17 399 414 414 428c4 4 5 10 5 16c0 19 -15 51 -36 51c-12 0 -32 -16 -37 -23c-36 -39 -70 -74 -104 -111c-17 -18 -238 -249 -335 -367l-57 -67c-53 -59 -78 -90 -98 -117c-11 -14 -4 -26 22 -26zM245 351
c-65 0 -118 45 -118 128c0 39 13 83 38 122c31 48 79 85 135 85c74 0 139 -64 139 -137c0 -90 -93 -198 -194 -198zM246 415c19 0 49 19 70 50s33 70 33 101c0 29 -10 51 -30 51c-56 0 -109 -97 -109 -157c0 -26 10 -45 36 -45zM644 1c-65 0 -118 45 -118 128
c0 39 13 83 38 122c31 48 79 85 135 85c74 0 139 -64 139 -137c0 -90 -93 -198 -194 -198zM999 0c-65 0 -118 45 -118 128c0 39 13 83 38 122c31 48 79 85 135 85c74 0 139 -64 139 -137c0 -90 -93 -198 -194 -198zM645 65c19 0 49 19 70 50s33 70 33 101
c0 29 -10 51 -30 51c-56 0 -109 -97 -109 -157c0 -26 10 -45 36 -45zM1000 64c19 0 49 19 70 50s33 70 33 101c0 29 -10 51 -30 51c-56 0 -109 -97 -109 -157c0 -26 10 -45 36 -45z" />
    <glyph glyph-name="plus" unicode="+" horiz-adv-x="570" 
d="M377 331c65 0 162 7 162 -44c0 -22 -5 -27 -23 -27c-75 2 -133 3 -181 3c-19 -58 -31 -104 -46 -155c-3 -12 -11 -39 -16 -42c-10 -9 -20 -2 -25 0c-22 7 -18 40 -9 88c5 32 14 70 25 108c-48 -1 -88 -3 -133 -5c-12 -1 -40 -1 -45 2c-11 7 -8 19 -8 24c0 23 33 29 81 36
c36 5 80 9 126 10c4 12 7 24 11 35c20 62 45 156 93 140c21 -7 23 -13 18 -30c-20 -57 -37 -103 -50 -143h20z" />
    <glyph glyph-name="plusminus" unicode="&#xb1;" horiz-adv-x="600" 
d="M407 406c65 0 162 7 162 -44c0 -22 -5 -27 -23 -27c-75 2 -133 3 -181 3c-19 -58 -31 -104 -46 -155c-3 -12 -11 -39 -16 -42c-10 -9 -20 -2 -25 0c-22 7 -18 40 -9 88c5 32 14 70 25 108c-48 -1 -88 -3 -133 -5c-12 -1 -40 -1 -45 2c-11 7 -8 19 -8 24c0 23 33 29 81 36
c36 5 80 9 126 10c4 12 7 24 11 35c20 62 45 156 93 140c21 -7 23 -13 18 -30c-20 -57 -37 -103 -50 -143h20zM358 107c59 0 147 6 147 -42c0 -21 -4 -25 -20 -25c-185 5 -257 1 -351 -3c-11 -1 -36 -1 -41 2c-10 6 -7 17 -7 23c0 21 30 27 74 34c55 9 131 11 198 11z" />
    <glyph glyph-name="product" unicode="&#x220f;" horiz-adv-x="748" 
d="M655 757c73 0 182 7 182 -49c0 -24 -5 -29 -26 -29c-12 0 -24 1 -35 1l-163 -367c-6 -13 -94 -236 -101 -261c-11 -39 -27 -62 -43 -97c-9 -19 -26 -26 -44 -29c-32 -3 -33 8 -30 21c14 53 38 114 45 136c50 148 183 497 228 599c-83 0 -142 -1 -198 -3l-162 -366
c-6 -13 -94 -236 -101 -261c-11 -39 -27 -62 -43 -97c-9 -19 -26 -26 -44 -29c-32 -3 -33 8 -30 21c14 53 38 114 45 136c49 145 177 482 225 591c-14 1 -28 1 -31 4c-13 7 -9 20 -9 26c0 25 37 32 91 40c68 10 161 13 244 13z" />
    <glyph glyph-name="bar" unicode="|" horiz-adv-x="529" 
d="M307 781c-28 0 -35 -13 -38 -50c-14 -120 -5 -246 -7 -368c0 -154 -12 -367 -13 -411c0 -36 7 -52 12 -69c8 -19 25 -24 40 -24c17 -2 19 14 20 29c0 42 1 87 0 128c1 155 3 311 6 467c0 80 1 160 2 240c0 27 -3 59 -22 58z" />
    <glyph glyph-name="brokenbar" unicode="&#xa6;" horiz-adv-x="529" 
d="M325 364c1 39 1 78 2 118c0 81 1 162 2 242c0 28 -3 60 -22 59c-28 0 -35 -13 -38 -50c-14 -122 -5 -249 -7 -371c1 -18 63 -33 63 2zM262 263c0 -19 -12 -334 -12 -339c-1 -14 6 -30 11 -47c8 -20 25 -24 40 -24c17 -2 19 14 20 28c0 43 1 295 2 378c0 26 -58 26 -61 4z
" />
    <glyph glyph-name="at" unicode="@" horiz-adv-x="642" 
d="M559 112c7 0 11 -13 11 -27c0 -67 -130 -138 -255 -138c-123 0 -266 60 -266 239c0 149 123 317 331 317c148 0 243 -92 243 -194c0 -127 -138 -216 -199 -216c-68 0 -51 90 -50 90c-1 0 -82 -85 -140 -85c-43 0 -62 32 -62 76c0 87 78 219 199 219c41 0 74 -28 72 -56
c43 -5 42 -33 32 -49c-52 -83 -50 -134 -30 -134c26 0 114 78 114 154c0 79 -90 131 -180 131c-152 0 -263 -139 -263 -259c0 -123 109 -167 205 -167c84 0 162 35 212 78c14 12 20 21 26 21zM236 165c45 0 200 165 144 165c-79 0 -150 -121 -150 -156c0 -6 2 -9 6 -9z" />
    </font>
</defs>
</svg>
